<svg version="1.1" id="Layer_1" xmlns="http://www.w3.org/2000/svg" xmlns:xlink="http://www.w3.org/1999/xlink" x="0px" y="0px" viewBox="0 0 501.3 503.3" style="enable-background:new 0 0 501.3 503.3;" xml:space="preserve">

<style type="text/css">
	.stab0{fill:#EE9772;}
	.stab1{fill:#D40805;}
	.stab2{fill:#BCA006;}
	.stab3{fill:#9C578D;}
	.stab4{fill:#F5EBE1;}
	.stab5{fill:#EF6A10;}
	.stab6{fill:#130D0B;}
	.stab7{fill:#050352;}
	.stab8{fill:#7C940A;}
	.stab9{fill:#094181;}
	.stab10{fill:#8B2109;}
	.stab11{fill:#10927A;}
	.stab12{fill:#5DA176;}
	.stab13{fill:#11640A;}
	.stab14{fill:#047EC7;}
	.stab15{fill:#E2055C;}
</style>
<path class="stab0" d="M0.9,94.9c0-15.7,0-31.3,0-47c9.4,5.8,19.9,0.2,29.4,3c11.5,3.4,19.4-0.8,26.2-9.3C67.2,38.8,67.4,28.4,71,20.8
	c4.7-10-0.4-16.5-11.9-16c-3.7,0.2-7.4,2-11.1,3c-7-1.5-14-3-21.1-4.5c0.2-0.8,0.3-1.6,0.3-2.5c38.2,0,76.4,0,114.6,0
	c-5.2,6.6-12.8,9-20,12.3c-4.1-7.6-9-11.3-16.3-3.3c-7.8-3.5-4.7,2.5-4.9,5.6l-0.1,0.2c-3.1,9.6-6.1,19.1-9.2,28.7
	C74.9,57.1,62.2,75.8,38.9,78.1c-5.3-5.9-12.4-2.8-18.7-3.5c-3.6-0.4-6.6,1.4-7.4,5.2c-1,4.7-0.3,8.6,5.6,9.3c1,1.2,2,2.4,3.1,3.7
	c-1.4,5.3,1.1,10.7,4.3,13.2c11.5,8.7,16.4,20.3,18.3,33.8c-1.2,14.7,0.1,30-12.5,41.2c0.2-1.4,0.8-2.9-1.3-3.4
	c-0.3-0.1-0.8,0.5-1.1,0.9c-7.3,7.4-0.5,22.3-14.1,26.3c-3.9-4.3-8.8-5-14.2-4.1c0-2.9,0-5.9,0-8.8c4.7-0.8,10.1,2.1,14.2-2.5
	c1.4-1.7,2.9-3.3,2-5.7c0.2-1.2,0.4-2.5,0.7-3.7c0.5-0.8,0.9-1.7,1-2.6c11.4-6.9,11.8-16.3,6.2-27.1c0-2.5,0.1-5,0.1-7.6
	C29.9,123.9,18.6,101.7,0.9,94.9z"></path>
<path class="stab1" d="M362.3,0.9c15.7,0,31.3,0,47,0c-1.1,2.6-2.3,5.2-3.4,7.9c-7.7-4.3-14.2-1-19.4,4.4c-3.5,3.6-2.9,9.8,1.1,11.6
	c5.6,2.5,11.7,10.3,18.1,4.9c7.4-6.3,16.6-4.6,24.4-8.2c8.3-12.6-2.3-11.3-9.3-12.6c0.4-3.9,4.2-5.2,6.1-7.9c13.7,0,27.4,0,41.1,0
	c-6.8,10.4-13.6,20.8-20.4,31.2c-13.1,5.6-26.3,11-33.1,24.9c-1.2,0.1-2.5,0.1-3.7,0.2c-5.5-0.4-11.6-2.4-13.9,5.5
	c-11.9,3.7-23.8,10.5-35.6,0.1c-2.2-2-4.3-3.9-7.6-3.4c0-1.7,0.1-3.4,0.1-5.2c3.4-7,4.7-14,0-21c-0.1-3.8-0.1-7.5-0.2-11.3
	c7.1-1,9.7-5.3,8.8-12.1C362.4,6.8,362.4,3.9,362.3,0.9z"></path>
<path class="stab2" d="M233,0.9c7.8,0,15.7,0,23.5,0c0.2,2.4,0.6,4.6,3,5.8c-5.5,7.9-9.9,16.9-4.6,25.8c5.1,8.4,15,9.8,24.5,10.3
	c21.5,1.2,36.5-9.8,50.7-24.5c6.1-6.4,6.8-10.8,2.8-17.4c6.9,0,13.7,0,20.6,0c-5.8,6.7-10.8,13.7-9,23.3c1,1.2,2,2.5,3,3.7
	c-1.6,1.8-3.3,3.5-5,5.3c-3.8,0.1-10.2-1.1-11.1,0.6c-9.1,16.7-27.7,22.1-40.3,34.4c-26.3,9.4-50.8-4-58.2-32
	c10-10.2,8.1-20.2-0.4-30.1C232.6,4.4,232.8,2.7,233,0.9z"></path>
<path class="stab3" d="M82.3,503.2c-3-3.9-1.6-8.4-1.7-12.6c-1.1-27.1-14.9-40.6-41.8-40.4c-6.8,0-13.5,0.1-20.3,0.2
	c-5.8-1-11.7-2-17.5-3c0-2,0-3.9,0-5.9c7.9-7.3,0.5-17.6,4.9-25.6c1.9-1.4,3.8-2.8,5.6-4.2c5.8,0.9,11,4.8,17.3,3.6
	c2.9,1,5.2,2.6,6.5,5.5c0.5,9.3,8,3.8,12,5.7c3.8,4.8,8.9,6.3,14.8,5.9c2.2,0.4,4.4,0.7,6.7,1.1l-0.3,1.1c0.3,4.3-0.5,9.2,5.9,9.8
	l0,0c0.9,5.4,5.9,6.6,9.4,9.2c6.4,12.2,11.5,24.8,8.9,39C90.3,497.5,86.4,500.5,82.3,503.2z"></path>
<path class="stab1" d="M121.9,13.2c7.2-3.2,14.9-5.7,20-12.3c2,0,3.9,0,5.9,0c1.4,4,2.7,7.7,1.9,12.5c-1.1,7.5,2.9,14.1,9.6,18.1
	c7.3,4.3,13.2-0.6,18.6-4.5c7.9-5.7,8.5-14.7,9.5-23.4l1.2-0.1c5.1-0.2,10.8,2.4,15.1-2.5c2,0,3.9,0,5.9,0c1.1,2.6,2.2,5.2,3.3,7.9
	c-2.6,5.7-4.4,11.8-7.9,16.8c-7.5,10.7-13.5,23.2-28.1,26.4c-1.7,0.8-3.4,1.6-5.1,2.4c-12.2,1.1-22.5-4.2-32.5-10.2
	C129.6,36,127.8,23.5,121.9,13.2z"></path>
<path class="stab0" d="M0.9,315.3c0-3.9,0-7.8,0-11.8c8.4-3.4,17.5-3.3,24.1-12.6c16.5-23.5,18.5-47.4,7.5-73.2
	c10.1-5.5,8.5,9.6,15.7,9c5.1-0.6,5.4,5.2,8.9,6.8c-0.9,5.8,1.5,11,2.7,16.4c-7.3,21.9-6.7,47.9-34.1,60.5
	c10.3,3.8,21.3,2,23.9,13.7c-15-4.3-30.3-7-45.8-8.8C2.9,315.4,1.9,315.4,0.9,315.3z"></path>
<path class="stab4" d="M441.6,509.2c-85.2,0-170.4,0-255.6,0c0.2-4-4.1-8.1,0.4-11.9c9.4,2.3,16.7-0.5,21.8-8.8
	c0.6,4.2,3.4,4.2,6.6,3.5c0.2,8.7,5.4,10.4,12.7,9.3c15.1,0.9,30.6,6.8,44.5-4.1c4.7,5.9,9.4,12.4,14.6,0.3c0.7,0,1.3-0.1,2-0.3
	c9.2,1,18.5,12.3,27.7-0.2c6.8,6,12.9-1.7,19.4-1c-0.7,0.8-0.7,1.6,0,2.5c14.6,8,31.8,7.1,38.9-2c3,3.7,5.3,8.5,11.5,6.7
	c6-0.2,12-0.5,18-0.7c1.7,0.1,3.3,0.1,5,0.2c6,9.1,7.4-5.7,12.3-2.3c4.3-1.1,6.9,4.7,11.4,2.9C436.2,504.3,441,503.7,441.6,509.2z"></path>
<path class="stab1" d="M332.9,0.9c4,6.6,3.3,11-2.8,17.4c-14.2,14.7-29.2,25.6-50.7,24.5c-9.5-0.5-19.4-1.8-24.5-10.3
	c-5.3-8.8-0.8-17.8,4.6-25.8c6-2.6,9-0.9,12.2,5.2c8,15.5,14.9,16.7,29.6,7.9c8.2-4.9,15.2-10.6,19.9-19
	C325.1,0.9,329,0.9,332.9,0.9z"></path>
<path class="stab2" d="M506.3,421c0,2,0,3.9,0,5.9c-1.8,2.4-3.6,4.8-5.4,7.2c-5-1.4-9.9-2.7-14.9-4.1c-6-2.9-12-5.8-18-8.7l-0.1-0.6
	c-5-8.4-10.7-16.3-17.9-22.9c1.1-16,5.9-29.9,20.3-39.2c3.8-2.5,6.3-7.1,9.4-10.8c5,4.6,11.4,2.2,17,3.5c1,4.7,2,9.5,3,14.2
	c-2.9,0-5.8-0.4-8.6,0.1c-13.5,2.3-18.4,13.2-21.4,24.1c-2.3,8.2-0.8,17.1,10.2,19.7l0,0C486.3,418.5,496.7,418.7,506.3,421z"></path>
<path class="stab5" d="M441.6,509.2c-0.6-5.5-5.4-4.9-8.9-6.1c-4.3-13.7-3.5-27.4,5.6-38.3c14-16.8,39-20,59.7-9.7
	c-4,8.6,4.8,9.1,8.2,12.9c0,1,0,2,0,2.9c-7.1-0.3-14.2,1.2-20.8-4c-4.3-3.4-9.8-2.2-15.1-0.1c-18.5,7.4-25.7,20.2-22.9,42.3
	C445.5,509.2,443.6,509.2,441.6,509.2z"></path>
<path class="stab6" d="M32.5,217.8c11,25.8,9,49.7-7.5,73.2c-6.5,9.3-15.7,9.2-24.1,12.6c0-5.9,0-11.8,0-17.6c1.9-0.5,3.7-1,5.6-1.4
	c10.5,4.1,16,1.2,15.1-10.8c-0.4-4.9,1.2-9.4,2.7-14.1c2.8-8.4,5-19.4-0.6-25.3c-8.9-9.5-14.3-21.1-22.8-30.6c0-1,0-2,0-2.9
	c5.4-0.9,10.3-0.2,14.2,4.1C20.9,209.1,26.7,213.4,32.5,217.8z"></path>
<path class="stab6" d="M0.9,33.2C23.3,42.1,44.8,30.5,48,7.8c3.7-1.1,7.3-2.9,11.1-3c11.5-0.5,16.6,6,11.9,16
	c-3.6,7.6-3.8,18-14.5,20.8c0.2-5.8,0.2-11.3,4.8-16.1c2.9-3.1,0.3-6.2-3.3-7.8c-3.1-1.4-5.1-1.1-6.8,2.5
	C41.1,41.7,21.8,45.1,0.9,45C0.9,41.1,0.9,37.2,0.9,33.2z"></path>
<path class="stab7" d="M0.9,203.6c8.5,9.5,13.9,21.1,22.8,30.6c5.6,5.9,3.4,16.9,0.6,25.3c-1.6,4.7-3.1,9.2-2.7,14.1
	c0.9,12-4.6,14.9-15.2,10.8c15.8-19,13.3-44.4-5.6-57.3C0.9,219.3,0.9,211.5,0.9,203.6z"></path>
<path class="stab7" d="M0.9,45c20.9,0.1,40.2-3.2,50.3-24.8c1.7-3.6,3.7-3.9,6.8-2.5c3.6,1.6,6.2,4.8,3.3,7.8
	c-4.6,4.9-4.6,10.4-4.8,16.1c-6.8,8.5-14.7,12.8-26.2,9.3c-9.5-2.8-20.1,2.7-29.4-3C0.9,47,0.9,46,0.9,45z"></path>
<path class="stab4" d="M82.3,503.2c4.1-2.7,8-5.7,10.3-10.2c3.8,1.9,3.2,9.3,9.5,7.9c6.5-1.4,8.3-6.1,7.8-12
	c-0.6-7.6,4.7-12.4,8.3-18.1c-0.3,4.8,4.2,8.5,2.2,13.9c-2.7,7.4,3.6,5.9,7.4,6.7c0.1,2.3,0.2,4.6,0.2,6.8c-2,9.2,3.4,9.2,9.8,7.8
	c0.4,1,0.8,2,1.2,3.1c-20.6,0-41.1,0-61.7,0C76.4,505,82.8,507,82.3,503.2z"></path>
<path class="stab8" d="M476.9,0.9c-2.1,10.8-2.4,22.3-10.6,31c-2.4,0.4-4.8,0.8-7.2,1.3c-3.8-0.4-7.6-0.7-11.4-1.1
	c6.8-10.4,13.6-20.8,20.4-31.2C471,0.9,473.9,0.9,476.9,0.9z"></path>
<path class="stab7" d="M18.9,177.3c-0.2,0.9-0.5,1.8-1,2.6C11.7,180.2,5,179.4,1,186c0-6.9,0-13.7,0-20.6c5.9,0.9,8.4-2.6,11.2-7.2
	c5-8.1,2.8-17,4.1-25.5c6.2,0.3,4.7,7.7,8.9,9.8c0,2.5-0.1,5-0.1,7.6C19.7,158.5,17.9,167.5,18.9,177.3z"></path>
<path class="stab6" d="M25.2,142.6c-4.2-2.2-2.7-9.5-8.9-9.8l-0.3,0.1c0.6-12.6-0.8-24.1-15-29.1c0-2.9,0-5.9,0-8.8
	C18.6,101.7,29.9,123.9,25.2,142.6z"></path>
<path class="stab7" d="M186.4,497.3c-4.4,3.8-0.1,7.9-0.4,11.9c-2.9,0-5.9,0-8.8,0c-2.8-2-5.6-4.1-8.4-6.1c-0.1-5.2-1-10-6.4-12.5
	c-1-1.4-2-2.9-2.9-4.3c5.7-2.6,11.3,1.8,17,0.5C179.1,490.9,185.7,491.3,186.4,497.3z"></path>
<path class="stab4" d="M459.2,509.2c-0.2-0.7-0.3-1.4-0.4-2.1c15.5-4.6,31.3-6.6,47.4-6.7c-0.1,4.9,1.9,10.1-7.4,9.1
	C485.8,508.2,472.5,509.2,459.2,509.2z"></path>
<path class="stab7" d="M0.9,103.8c14.2,4.9,15.6,16.5,15,29.1c-5-4.8-10-9.6-15-14.4C0.9,113.5,0.9,108.6,0.9,103.8z"></path>
<path class="stab8" d="M344.5,24.2c-1.8-9.6,3.1-16.6,9-23.3c1,0,2,0,2.9,0c-0.1,4.4-0.4,9,6.1,8.8c0.9,6.8-1.7,11.1-8.8,12.1
	c-0.8,0-1.6-0.1-2.4-0.2C347.1,17.3,347.2,24.5,344.5,24.2z"></path>
<path class="stab0" d="M506.3,468c-3.4-3.9-12.2-4.3-8.2-12.9c8.8-1.7,4.3-9.1,6-13.8l1.2-0.4l1.1,0.7
	C506.3,450.4,506.3,459.2,506.3,468z"></path>
<path class="stab6" d="M0.9,186c4-6.6,10.7-5.8,16.9-6.1c-0.2,1.2-0.4,2.5-0.6,3.7c-4-0.5-4.1,2.6-4.8,5.2c-3.8,0.1-7.6,0.1-11.4,0.2
	C0.9,188,0.9,187,0.9,186z"></path>
<path class="stab4" d="M156.6,509.2c-0.4-0.9-0.8-1.7-1.3-2.6c1-0.2,1.8-0.7,2.4-1.4c4.3,2.7,7.5-0.7,11.1-2c2.8,2,5.6,4.1,8.4,6.1
	C170.4,509.2,163.5,509.2,156.6,509.2z"></path>
<path class="stab9" d="M0.9,341.7c0-2.9,0-5.9,0-8.8c1-0.9,2-1.8,3.1-2.7c2.2,1,4.4,1.9,6.5,2.9c-0.1,4.9-4.7,5.6-7.4,8.2
	C2.3,341,1.6,341.2,0.9,341.7z"></path>
<path class="stab10" d="M362.5,9.8c-6.5,0.1-6.2-4.4-6.1-8.8c2,0,3.9,0,5.9,0C362.4,3.9,362.4,6.8,362.5,9.8z"></path>
<path class="stab4" d="M4,330.2c-1,0.9-2,1.8-3.1,2.7c0-5.9,0-11.8,0-17.6c1,0.2,1.9,0.2,2.9,0C3.9,320.2,3.9,325.2,4,330.2z"></path>
<path class="stab4" d="M0.9,188.9c3.8-0.1,7.6-0.1,11.4-0.2c0.9,0.5,1.8,0.7,2.8,0.6c-4.1,4.6-9.5,1.7-14.2,2.5
	C0.9,190.9,0.9,189.9,0.9,188.9z"></path>
<path class="stab10" d="M188.5,3.4c-0.2-0.9-0.1-1.7,0.4-2.5c4.9,0,9.8,0,14.7,0C199.3,5.9,193.7,3.3,188.5,3.4z"></path>
<path class="stab11" d="M0.9,341.7c0.7-0.6,1.4-0.7,2.2-0.4c0.5,0.7,0.8,1.6,0.9,2.4c-0.1,2.2-0.3,4.3-0.4,6.5H2.2l-1.4,0.3
	C0.9,347.6,0.9,344.7,0.9,341.7z"></path>
<path class="stab2" d="M121.9,13.2c5.9,10.3,7.7,22.9,17.3,31.1c1.3,8.6,8.8,10.3,15,13.5c7.2,12.8,20.5-0.2,30,7
	c-12.6,9.5-25.7,8.6-38.6,3.6c-7.3-2.8-13.9-4.7-21.1-0.8c-4.4-2.9-12.2-1.7-11.9-10.1c2.9-1.8,2.7-4.5,2.6-7.5
	c-0.4-13.4-7.5-23.8-14.5-34.3l0.1-0.2c4.4,0.5,5.8-1.6,4.9-5.6C112.9,1.9,117.8,5.6,121.9,13.2z"></path>
<path class="stab11" d="M21.5,92.7c-1-1.2-2-2.4-3.1-3.7c0.1-5.5,2-8.9,8.4-8.8c4,0.1,8.7,1.8,12-2.2c23.3-2.2,35.9-21,52.5-33.7
	c3.7,1,7,2.6,9.4,5.7c-3.6,2.2-7.2,3.7-9.5,8.1C85,69.7,75,77.6,63.4,83.5c-8.4,5.3-17.7,2.3-26.6,2.8c-4.7,0.3-11.3-2.8-12.7,5.4
	C23.4,92.1,22.5,92.4,21.5,92.7z"></path>
<path class="stab6" d="M31.6,181c12.6-11.2,11.3-26.6,12.5-41.2c0.8-4.2,1.6-8.3,2.5-12.5c1.4,0,2.8,0,4.2,0c0,3.5,0,7,0,10.5
	c0,1.8,0,3.7,0,5.5c0.2,12.2,0.3,24.5,0.5,36.7c0,2.2-4.5,3.9-0.7,6.6c-0.5,1.6-1,3.3-1.5,4.9c-7.6,3.3-13.5-4.2-20.7-3.1
	C29.5,185.9,30.5,183.5,31.6,181z"></path>
<path class="stab2" d="M31.6,181c-1.1,2.5-2.1,5-3.2,7.4c-0.6,11.1,7.7,15.8,15.3,21.1c1.4,2,2.7,4.1,4.1,6.1
	c0.2,3.7,0.3,7.5,0.5,11.2c-7.3,0.6-5.6-14.5-15.7-9c-5.8-4.4-11.6-8.7-17.4-13c13.6-4,6.8-18.9,14.1-26.3c0.3-0.3,0.8-0.9,1.1-0.9
	C32.4,178.1,31.8,179.6,31.6,181z"></path>
<path class="stab12" d="M100.9,50c-2.4-3.1-5.7-4.7-9.4-5.7c3.1-9.6,6.1-19.1,9.2-28.7c7,10.5,14.1,20.9,14.5,34.3
	c0.1,3.1,0.4,5.7-2.6,7.5C109.5,53.7,106.3,50.1,100.9,50z"></path>
<path class="stab10" d="M46.5,127.2c-0.8,4.2-1.6,8.3-2.5,12.5c-1.9-13.6-6.7-25.2-18.3-33.9c-3.2-2.4-5.7-7.9-4.3-13.2
	c0.9-0.3,1.8-0.7,2.7-1c2.9,0.6,5.9,1.2,8.8,1.7l0.1,1c-2,2.3-3.6,5.4-0.6,7.3c3.9,2.6,5.3-2.5,7.9-3.9h0.2
	c3.8,6.1,14.3,7,13.3,16.9c-1.4,0.3-2.8,0.7-4.2,1c-0.2-1.3,0-3.1-0.8-3.9c-1.3-1.4-3-0.3-3,1.1C45.9,117.7,46.3,122.5,46.5,127.2z"></path>
<path class="stab12" d="M38.9,78.1c-3.4,4-8,2.3-12,2.2c-6.4-0.2-8.3,3.2-8.4,8.8c-5.9-0.6-6.6-4.5-5.6-9.3c0.8-3.9,3.8-5.6,7.4-5.2
	C26.5,75.3,33.6,72.2,38.9,78.1z"></path>
<path class="stab6" d="M18.9,177.3c-1-9.7,0.8-18.8,6.2-27.1C30.7,160.9,30.3,170.4,18.9,177.3z"></path>
<path class="stab10" d="M105.6,9.8c0.9,4-0.5,6.2-4.9,5.6C100.9,12.4,97.8,6.4,105.6,9.8z"></path>
<path class="stab3" d="M15.1,189.4c-1,0.1-1.9-0.1-2.8-0.6c0.7-2.6,0.8-5.7,4.8-5.2C18,186.1,16.5,187.7,15.1,189.4z"></path>
<path class="stab12" d="M410.9,57.2c1.2-0.1,2.5-0.1,3.7-0.2c9.4,1.9,16.3-9.8,26.2-4.7c-7.5,28.2,0.4,42.5,25.9,46.9
	c-4.2,4.7,4,8,1.4,12.5c-3.8-0.8-7.5-1.6-11.3-2.3c-21.4-9.4-33.9-24.6-28.5-51.9c-14.7,12.3-24,17.1-40,21.4
	c-16.8,4.5-33.9-4.9-34.7-19.2l0.2-0.3c3.3-0.5,5.4,1.4,7.6,3.4c11.9,10.5,23.8,3.6,35.6-0.1C402.4,62.6,408.2,63.8,410.9,57.2z"></path>
<path class="stab12" d="M351.3,21.7c0.8,0.1,1.6,0.1,2.4,0.2c0.1,3.8,0.1,7.5,0.2,11.3c-0.6,0.3-1.2,0.6-1.8,1.1
	c-1.1,3.6-3.1,7.2,0.5,10.5c0.4,3.2,0.8,6.3,1.2,9.5c0,1.7-0.1,3.4-0.1,5.2l-0.2,0.3c-4,0.2-5.9-6.5-9.7-4.1
	c-4.7,2.9-1.7,7.7-0.3,11.6c1.1,2.9,1.6,5.5-0.4,8.1c-4.5,4.7-8.9,9.4-13.4,14.1c-6.9-1.1-13.2,4.5-20.3,2
	c-1.2-10.5,4.1-13.5,13.4-11.3c8.2,1.9,11.8-2.8,12.9-9.6c1.4-9.4-5.8-7.8-11.4-7.8c1.5-12.6,16.2-17,18.1-29.4
	c1.6-1.8,3.3-3.5,4.9-5.3C350.2,26.7,350.6,24.1,351.3,21.7z"></path>
<path class="stab10" d="M440.8,52.3c-9.9-5.1-16.8,6.6-26.2,4.7c6.8-13.9,20-19.3,33.1-24.9c3.8,0.4,7.6,0.7,11.4,1.1
	C451.5,38.1,444.2,43.4,440.8,52.3z"></path>
<path class="stab10" d="M410.9,57.2c-2.7,6.7-8.5,5.5-13.9,5.5C399.3,54.8,405.4,56.8,410.9,57.2z"></path>
<path class="stab10" d="M353.9,54.2c-0.4-3.2-0.8-6.3-1.2-9.5c-0.2-3.5-0.3-7-0.5-10.5c0.5-0.5,1.1-0.8,1.8-1.1
	C358.6,40.2,357.3,47.2,353.9,54.2z"></path>
<path class="stab6" d="M440.8,52.3c3.4-8.9,10.7-14.2,18.3-19.1c2.4-0.4,4.8-0.8,7.2-1.3c8.1,14-5.8,20.9-10.1,30.9
	c-8.8-5.7-11.9-3.2-11.1,7c0.6,7.9,3.2,13.7,11.1,16.3c5.2,4,14.1,3,15.9,11.6c-1.8,0.5-3.6,1-5.3,1.5
	C441.2,94.8,433.3,80.5,440.8,52.3z"></path>
<path class="stab13" d="M494.4,96.9c11.3,7.7,2.3,21.3,8.8,30.4c-14.3-0.2-25.7,8.1-38.4,12.8c-0.9-2.1-1.9-4.3-2.8-6.4
	c6-7.1,12-14.1,18-21.2c6.4-2.6,5.8-9.4,8.6-14.2C490.5,97.9,492.4,97.4,494.4,96.9z"></path>
<path class="stab10" d="M456.1,86.1c-7.9-2.6-10.5-8.4-11.1-16.3c-0.8-10.2,2.4-12.7,11.1-7C456.1,70.6,456.1,78.4,456.1,86.1z"></path>
<path class="stab8" d="M488.6,98.4c-2.8,4.8-2.2,11.6-8.6,14.2c-3.7-3.5-8.1,1.7-11.9-0.9c2.6-4.5-5.6-7.8-1.4-12.5
	c1.8-0.5,3.6-1,5.3-1.5C477.3,103.9,483.3,92,488.6,98.4z"></path>
<path class="stab8" d="M124.5,67.5c7.2-3.8,13.9-2,21.2,0.9c12.9,5,25.9,5.9,38.6-3.6c-9.4-7.2-22.8,5.8-30-7
	c5.8-1.6,12.4,1.4,17.5-3.3c1.7-0.8,3.4-1.6,5.1-2.5c9.4,7.9,21.6,9.5,27.8-0.2c9.1-14.3,23.4-26.1,25.5-44.4
	c0.7-0.5,1.5-0.9,2.3-1.2c8.6,9.9,10.4,19.9,0.4,30.1c-11-0.9-14.9,6.2-10.8,19.9c-7.2,10.6-17.5,16.1-29.8,18.6
	c-7.7-1.6-13.2,1.6-17,8.2c-6.7,5.3-14.3,2.7-21.6,2.3c-4-3.1-8.5-2-12.8-1.6C135.6,78.1,124.6,78.4,124.5,67.5z"></path>
<path class="stab12" d="M222.1,56.2c-4.1-13.7-0.3-20.9,10.8-19.9c7.4,28,31.9,41.4,58.3,32c9.2,3.3,16-5.9,24.8-4.7
	c-3.2,6.7-9.7,8.3-15.6,11.4c-11.2,5.9-24.5,2.7-35.3,9.2c-2.9-0.4-5.9-0.8-8.8-1.2c-4.4-8.4-17.3-7.6-19.8-17.6
	C234.3,57.4,228.4,56.8,222.1,56.2z"></path>
<path class="stab8" d="M316,63.6c-8.8-1.2-15.6,8.1-24.8,4.7c12.6-12.3,31.1-17.7,40.3-34.4c0.9-1.7,7.3-0.5,11.1-0.6
	c-1.9,12.3-16.7,16.7-18.1,29.4C322.1,67,318.6,62,316,63.6z"></path>
<path class="stab13" d="M351.3,21.7c-0.7,2.4-1.1,5-3.8,6.2c-1-1.2-2-2.5-3-3.7C347.2,24.5,347.1,17.3,351.3,21.7z"></path>
<path class="stab11" d="M491.5,321c2.1,3,4.2,5.9,6.2,8.9c-9.3,2.6-7.8,16.1-18,17.9c-3.1,3.7-5.5,8.3-9.4,10.8
	c-14.4,9.4-19.2,23.2-20.3,39.2c-1.8,12.9,3.8,20.1,17.9,22.9l0.1,0.6c0.6,4.2-3,5.7-5.2,8.2c0,0-1.1,0.8-1,0.8
	c-1.8,0-3.7,0-5.5-0.1c-6,0.5-11.1-2.3-16.2-4.9c-11.7-8-16-19-13.7-32.8c5.3-12.5,9.9-25.4,18.9-36c9.6,0.7,15.3-5.3,20.3-12.3
	c0.7-0.1,1.4-0.3,2-0.7c4.3,0.4,5.9-2.1,6.1-5.9c0.2-3.9-2.4-4.5-5.5-4.4l-0.5-0.2c-3.4-10.1-11.5-4.6-17.6-5.3
	c-7.5-4.2-15-8.5-22.4-12.7c-0.3-2-0.5-4-0.8-6.1c0.6-13.8-2.8-28.2,6.7-40.5c4.1-3.2,1.3-7.8,2.3-11.6c11.9,0.2,11.5-10,14.5-17.3
	c8.4-0.2,15.3-3.5,20.6-10c4.7,2.9,8.7,6.2,9.6,12.1c-9.9,4.2-18.2,9.9-25.6,18.3c-10.2,11.7-13.6,25-9.2,38.3
	c4.9,14.8,18.3,21.6,34.1,22.2C483.5,320.6,487.5,320.8,491.5,321z"></path>
<path class="stab6" d="M479.6,320.4c-15.8-0.6-29.2-7.4-34.1-22.2c-4.3-13.2-0.9-26.5,9.2-38.3c7.4-8.5,15.7-14.1,25.6-18.3
	c1.2,1,2.5,2.1,3.7,3.1c-15.6,13.4-25.8,29.3-25.5,50.8c0.1,8.4,1,14,11.2,14.5C475.3,310.2,479,314.3,479.6,320.4z"></path>
<path class="stab12" d="M484,244.8c-1.2-1-2.5-2.1-3.7-3.1c-0.8-5.9-4.9-9.2-9.6-12.1c1-3.9,6.5-5.5,5.1-10.6
	c-0.6-1.4-1.1-2.9-1.7-4.3c5.9-7.3,7.7-3.8,8.1,3.1c0.3,4.3-0.3,9.2,4.6,11.2c1.7,0.7,4.9-0.3,6.5-1.7c5.3-4.8-0.3-9.1-1.9-12.7
	c-2.5-5.4-3.7-10.5-3.2-16.2c2.9-1.1,5.8-2.3,8.7-3.4c6.6,16.5,4.4,32.1-4.7,47C489.5,242.9,486.8,243.8,484,244.8z"></path>
<path class="stab14" d="M4.1,343.7c-0.2-0.9-0.5-1.7-0.9-2.4c2.7-2.5,7.3-3.3,7.4-8.2c17-2.9,25.8,10.5,37.1,18.9
	c8.9,6.5,11.2,15,6.6,25.2c-1.8-4.7,1.4-10.2-3-14.5c2,8-4.4,16.7,2.7,24.3c1.9,9.7-6,18.1-3.4,27.9c-2.1,0.7-4.9,0.6-5,3.9
	c-0.6,0.6-1,1.3-1.1,2.1c-3.1,0-6.1,0.1-9.2,0.1c-1.2-2.9-3.6-4.5-6.5-5.5c2-4.5-1.8-8.2-1.8-12.4c0.4-4.2,1.2-8,3.4-12.1
	c8.8-16.6-2-39.2-20.4-44.1C8,345.8,6.1,344.8,4.1,343.7z"></path>
<path class="stab8" d="M118.2,470.9c-3.6,5.6-8.8,10.5-8.3,18.1c0.4,5.9-1.4,10.7-7.8,12c-6.3,1.3-5.7-6-9.5-7.9
	c2.7-14.3-2.4-26.9-8.9-39.1c2.6-1,5.3-2,7.9-3.1c2.4-0.3,4.7-0.5,7.1-0.8c0.9,0.8,1.7,1.6,2.6,2.4c-1.6,13,12.2,10.5,17.1,17
	C117.9,469.9,117.8,470.4,118.2,470.9z"></path>
<path class="stab0" d="M98.7,450.1c-2.4,0.3-4.7,0.5-7.1,0.8c-4.2-6.6-7.7-15.1-17.3-6.2l0,0c1.3-5.2-0.1-8.8-5.9-9.8l0.3-1.1
	c1-1.3,2.1-2.5,3.1-3.8c2.5-0.2,5.1-0.3,7.6-0.5C87,435.3,95,440.7,98.7,450.1z"></path>
<path class="stab12" d="M74.3,444.7c9.7-8.9,13.2-0.4,17.3,6.2c-2.6,1-5.3,2-7.9,3.1C80.2,451.3,75.1,450.1,74.3,444.7z"></path>
<path class="stab13" d="M44.4,420.9c0.2-0.8,0.6-1.5,1.1-2.1c3.1-0.3,6.1-0.2,8.3,2.3c-1,7.2,7,4.8,9.2,8.5c-0.3,1-0.7,2-1,3.1
	c-5.9,0.3-11-1.2-14.8-5.9C46.3,424.8,45.4,422.9,44.4,420.9z"></path>
<path class="stab8" d="M44.4,420.9c0.9,2,1.9,3.9,2.8,5.9c-4-1.9-11.5,3.6-12-5.7C38.3,421,41.4,421,44.4,420.9z"></path>
<path class="stab12" d="M68.4,434.9c5.8,1,7.2,4.6,5.9,9.8C67.8,444.1,68.6,439.2,68.4,434.9z"></path>
<path class="stab8" d="M62,432.7c0.3-1,0.7-2,1-3.1c2.9,0.1,5.8,0.2,8.7,0.3c-1,1.3-2.1,2.5-3.1,3.8C66.5,433.4,64.3,433.1,62,432.7z"></path>
<path class="stab2" d="M230.1,7.4c-2.1,18.4-16.4,30.1-25.5,44.4c-6.2,9.7-18.3,8.1-27.8,0.2c14.6-3.2,20.6-15.8,28.1-26.4
	c3.5-5,5.3-11.2,7.9-16.8C218.5,7.2,223.9,1.8,230.1,7.4z"></path>
<path class="stab5" d="M171.7,54.5c-5.2,4.7-11.8,1.7-17.5,3.3c-6.2-3.2-13.6-5-15-13.5C149.2,50.3,159.5,55.5,171.7,54.5z"></path>
<path class="stab11" d="M488.4,198.4c-0.5,5.7,0.6,10.8,3.2,16.2c1.7,3.6,7.3,7.9,1.9,12.7c-1.5,1.4-4.8,2.4-6.5,1.7
	c-4.9-1.9-4.3-6.9-4.6-11.2c-0.5-6.9-2.3-10.4-8.2-3.1c-4.6,0.2-7.1-6.4-12.5-3.9c-18.3-2.8-28.3-17.5-40.8-28.4
	c0.1-2.5,0.3-5,0.4-7.5c5.4-3,6.9-8.2,9.5-13.5c6.4-13,12-28.4,31.1-27.6c0.9,2.1,1.9,4.2,2.8,6.4c-2.9,4-5.7,7.9-8.6,11.9
	c-2.6-0.8-4.3-0.3-5.7,2.5c-6.6,13.3-0.8,25.8,2.9,41.3c4.1-9.5,9.8-5.9,15.3-4.5c2.6,1.3,5.3,2.6,7.9,3.9c1.1,3.9,2.5,6.6,6.4,2.2
	C484.8,197.8,486.6,198.1,488.4,198.4z"></path>
<path class="stab12" d="M468.7,191.3c-5.5-1.4-11.2-5-15.3,4.5c-3.7-15.5-9.5-28-2.9-41.3c1.4-2.8,3.1-3.2,5.7-2.5
	C453.7,167.3,458.8,180.1,468.7,191.3z"></path>
<path class="stab12" d="M483.1,197.5c-3.9,4.3-5.4,1.6-6.4-2.2C479.3,194.5,481.8,194.4,483.1,197.5z"></path>
<path class="stab3" d="M54.2,377.2c4.6-10.2,2.3-18.6-6.6-25.2c-11.3-8.3-20.1-21.8-37.1-18.9c-2.2-1-4.4-1.9-6.5-2.9
	c-0.1-5-0.1-10-0.2-15c15.5,1.9,30.8,4.5,45.8,8.8c4,3.6,4.8,9.9,10.4,12.2c3.7,12.3,7.5,24.6,11.2,36.8
	c-7.5,10.2-5.6,21.9-5.7,33.3c-0.9,1-1.9,1.9-2.8,2.9c-5-0.2-6.9,6.5-12.3,5.5c-2.7-9.8,5.3-18.2,3.4-27.9
	C54,383.7,54.1,380.5,54.2,377.2z"></path>
<path class="stab8" d="M60.1,336.3c-5.6-2.2-6.5-8.5-10.5-12.2c-2.5-11.7-13.5-9.9-23.9-13.7C53,297.9,52.4,271.9,59.8,250
	c5.2-1.9,7.8-5.7,8.5-11l0.2-0.1c9.5,12.7,11.7,38.9,1.8,46.1c-7.3,5.3-7.4,11.5-8.7,18.4c-5.8,3.9-6,8.1-0.6,12.4
	c6,4.8,10,11.1,13.6,17.6c-0.2,1.9-0.4,3.9-0.7,5.8c-2.4-1.2-4.7-2.3-7.1-3.5C64.6,336,62.3,336.1,60.1,336.3z"></path>
<path class="stab8" d="M48.2,226.8c-0.2-3.7-0.3-7.5-0.5-11.2c6.4,1,6.1,15.2,16.4,8.3c1.2,0,2.4,0.1,3.7,0.1c0.2,5,0.4,10,0.6,15
	l-0.2,0.1c-3.7-2-6.2-6.3-11.3-5.4C53.6,232,53.4,226.2,48.2,226.8z"></path>
<path class="stab13" d="M57.1,233.6c5-0.9,7.6,3.5,11.3,5.4c-0.8,5.3-3.4,9.1-8.5,11C58.6,244.5,56.2,239.3,57.1,233.6z"></path>
<path class="stab15" d="M227.6,501.2c-7.3,1.2-12.5-0.6-12.7-9.3c1.3-3.9,2.6-7.9,4-11.8c2.9,0.1,6.4,0.6,8-2.1
	c7.1-11.7,19.1-13.2,30.8-15.3c3.4,9.1,10.7,3.9,16.5,4.4c10.2,7.6,10.9,19.1,12.6,30.3c-5.1,12.1-9.8,5.6-14.6-0.3
	c-0.4-2.6-0.7-5.1-1.1-7.7c-5.7-9.3-11.7-11.4-22-4.6c-5.5,3.6-10.5,7.6-15.4,11.8C231.4,497.8,227.5,496.9,227.6,501.2z"></path>
<path class="stab1" d="M500.4,437.4c1.2,1.3,2.4,2.6,3.6,3.9c-1.7,4.7,2.8,12.1-6,13.8c-20.7-10.4-45.7-7.1-59.7,9.7
	c-9.1,10.9-9.9,24.6-5.6,38.3c-4.5,1.8-7.1-4-11.4-2.9c-1.7-6.8-4.2-13.4-3.4-20.6c3.3-0.2,8,0.4,8.1-4c0.2-10.8,7.6-15.5,13.9-22.7
	c7.5-8.7,18.9-6.9,25.3-14.9c1,0.1,1.9,0.3,2.9,0.4c8.5,9.9,17.2,8.8,26,0.6C496.2,438.5,498.3,437.9,500.4,437.4z"></path>
<path class="stab5" d="M409,502.6c-1.7-0.1-3.3-0.1-5-0.2c-3.4-9-10.2,1.2-14.5-2.7c-6.9-5.9-0.9-15.6-6.5-21.9
	c-2.8-1.7-5.3-4.2-8.9-3.9l0,0c-4.2-11.1-11.3-4.3-17.5-2.8c-4.8,0.1-9.7,0.3-14.5,0.4c-1.3-1.1-2.6-2.2-3.9-3.4
	c1.1-2.1,2.3-4.2,3.4-6.3c8.4,0.4,14.5-8.3,23.4-5.7c1.1,0.1,2.2,0.2,3.3,0.3c0.3,3.9,2.5,5.5,6.3,5c4.9,0.7,9.1,1.6,11.3,7.5
	c3.4,9.2,10.8,13.1,20.6,12C412.5,487.5,408.8,495.3,409,502.6z"></path>
<path class="stab0" d="M186.4,497.3c-0.7-6-7.3-6.4-9.9-10.5c0.2-1,0.3-2.1,0.5-3.1c4.4-6.9,4.7-13-2.4-18.8c-3.9-3.2-8-6.8-9.6-12.2
	c3-3.6,7.6-1.5,11.1-3.1c2.2,1.2,4.4,2.4,6.7,3.7c0.1,8.7,8.3,14.1,9.1,22.6c0.3,2.7,2.2,4.3,5.1,3.7c2.4-0.5,4.9-1.3,5.1-4.3
	c0.6-7.4,5.8-11.7,10.6-16.4c3.1,2.3,2.5,5.9,3,9.1c-6,5.5-8.7,12.3-7.7,20.5C203.1,496.8,195.8,499.5,186.4,497.3z"></path>
<path class="stab5" d="M286.6,497.4c-1.7-11.1-2.3-22.7-12.6-30.2c-3.5-8.9-10.7-3.9-16.5-4.5c-11.8,2.1-23.7,3.6-30.8,15.3
	c-1.6,2.7-5.1,2.2-8,2.1c-4.8-5,4.6-7.3,2.3-11.9l0.3-0.5c3.4-0.2,5.4-1.8,5.1-5.4c4-11.4,13.8-12.4,23.6-13.3
	c1.9,0.4,3.9,0.8,5.8,1.2c4.7,9,11.3,6.8,18.1,2.9c4,3.2,7.9,6.5,11.9,9.7c0,1.6,0,3.2,0,4.7c0.2,1.2,0.4,2.4,0.7,3.5
	c9.7,7.9,7.6,16.8,2.1,25.9C287.9,497.4,287.3,497.5,286.6,497.4z"></path>
<path class="stab15" d="M342.1,471.5c4.8-0.1,9.7-0.3,14.5-0.4c5.2,4.8,11.6,2.5,17.5,2.8l0,0c-0.1,5.1,4,6.8,7.4,9
	c0.5-1.7,1-3.4,1.5-5.1c5.6,6.3-0.4,16,6.5,21.9c-1.2,1.1-2.3,2.3-3.4,3.4c-6.2,1.9-8.5-3-11.5-6.6c-1.3-6.5-6.3-7.4-11.7-8.3
	c-11.1-1.8-19.6,3-27.2,10.2c-0.7-0.8-0.7-1.7,0-2.5C329.9,485.7,344.3,480.8,342.1,471.5z"></path>
<path class="stab0" d="M288.6,497.1c5.6-9.1,7.6-18-2.1-25.9c6.8-1.8,12.2,3.4,18.6,3.8c4.9,3,2.5,8.6,4.2,13
	c14.9-13.6,14.9-13.6,21.3-13.5c-5.1,7.2-13.8,12.2-14.3,22.4C307.1,509.3,297.8,498.1,288.6,497.1z"></path>
<path class="stab1" d="M316.3,496.9c0.5-10.2,9.2-15.1,14.3-22.4c2.5-2.1,5.1-4.3,7.6-6.4c1.3,1.1,2.6,2.2,3.9,3.4
	c2.3,9.3-12.2,14.3-6.4,24.5C329.2,495.3,323.1,502.9,316.3,496.9z"></path>
<path class="stab0" d="M409,502.6c-0.3-7.3,3.4-15-2.5-21.7c0-4.8-6.6-6.7-5.3-12.1c0.8,0,1.5,0.2,2.1,0.5c5.5,2.6,12.5,2.8,14.6,10.3
	c-0.8,7.2,1.6,13.8,3.4,20.6C416.4,496.9,415,511.7,409,502.6z"></path>
<path class="stab2" d="M221,468.3c2.4,4.5-7,6.8-2.3,11.8c-1.3,3.9-2.6,7.9-4,11.8c-3.2,0.6-6,0.7-6.6-3.5c-1-8.2,1.7-15,7.7-20.5
	C217.6,468.1,219.3,468.2,221,468.3z"></path>
<path class="stab0" d="M386,503.1c1.1-1.1,2.3-2.3,3.4-3.4c4.3,3.8,11.2-6.3,14.5,2.7C398,502.6,392,502.8,386,503.1z"></path>
<path class="stab12" d="M479.7,347.8c10.2-1.7,8.7-15.3,18-17.9c6.7,7.5,0.5,14.3-1,21.4C491.1,350,484.7,352.3,479.7,347.8z"></path>
<path class="stab11" d="M500.4,437.4c-2.1,0.5-4.1,1.1-6.2,1.6c-8.7-0.2-17.4-0.4-26-0.6c-1-0.1-1.9-0.3-2.9-0.4
	c-1.1-1.7-2.2-3.4-3.3-5.2c0-0.9-0.1-1.7-0.2-2.6c0,0,1.1-0.8,1-0.8c7.7,1.1,15.2,13.2,23.2,0.5c5,1.4,9.9,2.7,14.9,4.1
	C500.7,435.2,500.5,436.3,500.4,437.4z"></path>
<path class="stab8" d="M467.9,420.7c-14-2.8-19.7-10.1-17.9-22.9C457.2,404.4,462.9,412.3,467.9,420.7z"></path>
<path class="stab12" d="M486,430c-8,12.7-15.5,0.6-23.2-0.5c2.2-2.4,5.8-4,5.2-8.2C474,424.2,480,427.1,486,430z"></path>
<path class="stab3" d="M165.1,452.6c1.5,5.4,5.6,9,9.6,12.2c7,5.8,6.8,11.9,2.4,18.8c-21.8-19.9-31.9-18.5-47.1,6.1
	c-0.5,0.8-1.4,1.2-2.2,1.8c-3.8-0.8-10.1,0.6-7.4-6.7c2-5.3-2.6-9.1-2.2-13.9c-0.3-0.5-0.3-0.9,0.1-1.4c2.2-2.3,4.3-4.6,6.5-6.9
	c6.2-6.4,13.8-10.9,21.6-14.8C153.3,446.9,158.1,453.9,165.1,452.6z"></path>
<path class="stab15" d="M127.8,491.5c0.7-0.6,1.7-1,2.2-1.8c15.2-24.6,25.2-26,47.1-6.1c-0.2,1-0.3,2.1-0.5,3.1
	c-5.7,1.4-11.3-3.1-17-0.5c-2.2-0.2-4.4-0.4-6.7-0.6c-11.8-2.6-17.7,6.2-24.9,12.7C127.9,496.1,127.9,493.8,127.8,491.5z"></path>
<path class="stab6" d="M128,498.3c7.1-6.5,13.1-15.3,24.9-12.7c-4.4,6.3-13.2,9.2-14.1,18.3c-0.6,0.6-0.9,1.3-1,2.1
	C131.4,507.5,126,507.6,128,498.3z"></path>
<path class="stab3" d="M222.1,56.2c6.3,0.6,12.2,1.1,14.3,9.2c2.6,10,15.4,9.2,19.8,17.6c1.3,2.8,4.1,5,3.4,8.5
	c-14.4,7-23.8-6.1-35.8-8.8c-14-10.5-17.7-9.2-25.4,9.1c-3.2,0.4-6.3,0.8-9.5,1.2c-4-0.8-7.8-1.3-8.9,4.1c-4.1,0.2-8.2,0.5-12.3,0.7
	c-5.9,0.1-11.8,0.2-17.7,0.3c-2.6,0-5.3,0-7.9-0.1c-0.9-6.1-5.6-5.9-10-5.9c-9.9,0.2-17.5-2.2-22.3-12.4c-5-10.6-11.4-4.7-15.5,1.3
	c-3.6,5.3-7.8,10.5-8.7,17.3c-3.7,0.8-7.4,1.6-11.1,2.4c0.3-5.7-1.8-9-8.2-7.9c-0.3-0.4-0.7-0.9-1-1.3c-0.5-2.7-1.1-5.4-1.6-8.1
	C75.3,77.5,85.3,69.7,91.5,58c2.3-4.3,5.9-5.9,9.5-8.1c5.4,0.1,8.6,3.7,11.7,7.5c-0.3,8.4,7.5,7.2,11.9,10.1
	c0.1,10.8,11.1,10.6,16.4,16.2c4.2,1.1,7.8,7.2,12.9,1.6c7.3,0.4,14.9,3,21.6-2.3c6.1-1.7,13.8-0.4,17-8.2
	C204.6,72.4,214.9,66.8,222.1,56.2z"></path>
<path class="stab12" d="M63.6,83.5c0.5,2.7,1.1,5.4,1.6,8.1c-6.7,0.2-13.4,0.5-20.1,0.7c-4.1-0.5-8.2-0.8-12,1.1
	c-2.9-0.6-5.9-1.2-8.8-1.7c1.5-8.2,8-5.1,12.7-5.4C45.9,85.7,55.2,88.8,63.6,83.5z"></path>
<path class="stab8" d="M43.7,209.5c-7.5-5.2-15.9-9.9-15.3-21.1c7.2-1,13.1,6.5,20.7,3.1c0.8,1.8,1.6,3.6,2.3,5.4
	c0.1,2.6,0.3,5.1,0.4,7.7c-0.3,1.2-0.5,2.3-0.8,3.5C48.6,208.6,46.1,209,43.7,209.5z"></path>
<path class="stab7" d="M51.3,180.1c-0.2-12.2-0.3-24.5-0.5-36.8c3.3-1.2,6.6-2.6,8.8,1.6c-8.4,5.6-2.5,11.7-0.7,17.7
	C59.2,169.7,55.7,175,51.3,180.1z"></path>
<path class="stab3" d="M51.3,180.1c4.3-5,7.9-10.4,7.6-17.4c0.5-1.9,0.9-3.9,1.4-5.8c0.7-0.2,1.4-0.5,2-0.9c0.4,3.2,0.7,6.3,1.1,9.5
	c-0.4,7.5-3.5,14.2-6.8,20.8c-2,0.2-4,0.3-6,0.5C46.8,184,51.3,182.3,51.3,180.1z"></path>
<path class="stab10" d="M59.7,144.9c-2.3-4.2-5.6-2.9-8.8-1.6c0-1.8,0-3.7,0-5.5c1.1,0.4,2.2,0.7,3.3,1c6-4.6,2.3-10.7,2.6-16.2
	c0.3-1.3,0.6-2.5,1-3.8c0.9,1.7,1.8,3.5,2.6,5.2c-1.7,6.8,0.4,13.4,1.6,20C61.1,144.3,60.4,144.6,59.7,144.9L59.7,144.9z"></path>
<path class="stab9" d="M46.5,127.2c-0.2-4.8-0.6-9.5-0.6-14.3c0-1.4,1.7-2.6,3-1.1c0.8,0.9,0.6,2.6,0.8,3.9c-2.2,3.1,1.4,5.4,1.2,8.2
	c0,1.1-0.1,2.1-0.1,3.2l-0.1,0.1C49.3,127.2,47.9,127.2,46.5,127.2z"></path>
<path class="stab15" d="M50.6,186.7c2-0.2,4-0.3,6-0.5c-0.5,4.2,2.3,9.9-5.1,10.8c-0.8-1.8-1.5-3.6-2.3-5.4
	C49.6,189.9,50.1,188.3,50.6,186.7z"></path>
<path class="stab7" d="M54.1,138.8c-1.1-0.3-2.2-0.7-3.3-1c0-3.5,0-7,0-10.6l0.1-0.1C55.1,130.2,53.1,134.9,54.1,138.8z"></path>
<path class="stab13" d="M43.7,209.5c2.5-0.4,4.9-0.9,7.4-1.3c7.2,2.8,10.6,8.9,13.1,15.7c-10.4,7-10.1-7.2-16.4-8.3
	C46.4,213.5,45,211.5,43.7,209.5z"></path>
<path class="stab3" d="M45.1,92.3c6.7-0.2,13.4-0.5,20.1-0.7c0.3,0.4,0.7,0.9,1,1.3c-1,1.6-2,3.1-3,4.7c-12.2,2.5-2.3,12.9-6.5,18.3
	c-0.9-0.4-1.9-0.8-2.8-1.2c0.9-9.9-9.5-10.8-13.3-16.9C43.4,96.9,44.6,94.9,45.1,92.3z"></path>
<path class="stab0" d="M45.1,92.3c-0.5,2.6-1.8,4.7-4.5,5.5h-0.2c-2.4-1.1-4.8-2.3-7.3-3.4l-0.1-1C36.9,91.4,41,91.7,45.1,92.3z"></path>
<path class="stab3" d="M33.2,94.4c2.4,1.1,4.8,2.3,7.3,3.4c-2.6,1.4-4,6.5-7.9,3.9C29.6,99.7,31.2,96.7,33.2,94.4z"></path>
<path class="stab7" d="M54,114.7c0.9,0.4,1.9,0.8,2.8,1.2c0.3,1,0.6,2,0.9,3c-0.3,1.3-0.6,2.5-1,3.7c-1.9,0.5-3.8,0.9-5.7,1.4
	c0.2-2.8-3.4-5.1-1.2-8.2C51.2,115.4,52.6,115,54,114.7z"></path>
<path class="stab6" d="M421.4,174.8c-0.1,2.5-0.3,5-0.4,7.5c-6.5,12.4-1.9,25.4,16.3,32.3c14.4,5.5,16.9,11.4,9.9,23.7
	c-12.2-2.8-16.2,6.3-20.9,14.3c-2.5,4.5-4.8,9-8.1,13.2c-9.1,11.9-13.3,25.2-5.4,39.8c-3.3,5.9,1.8,14.5-6,19
	c-14-16.9-13.1-42.5,1.6-65.9c4.3-6.9,11.6-11.9,12.9-20.6c2-3.7,8.9-4.6,6.1-11c-3.9-10.9-16.4-14.4-20.7-25.8
	c-8-21,1.6-38.7,8.1-57.1c0.1-0.8,0.3-1.6,0.5-2.3c9.1-4.3,10.5-14.6,16.4-21.4c2.6-2.9,1.7-7.1-1.6-8.8
	c-10.5-5.6-14.6-14.5-15.7-25.7c-0.2-1.8-3.3-0.8-5,0c-4,1.9-8,3.8-12,5.6c-1.7,0-3.4,0-5.1,0.1c-19.8,4.7-36.9,1.5-49-16.5
	c2-2.6,1.5-5.2,0.4-8.1c-1.5-3.9-4.4-8.6,0.3-11.6c3.8-2.4,5.7,4.3,9.7,4.1c0.8,14.3,17.9,23.7,34.7,19.2c16-4.3,25.3-9.1,40-21.4
	c-5.3,27.3,7.1,42.5,28.5,51.9c-12,17.6-30.5,30.3-37.8,51.9C416.7,168,418.7,170.6,421.4,174.8z"></path>
<path class="stab10" d="M421.4,174.8c-2.7-4.2-4.7-6.8-2.4-13.5c7.3-21.7,25.8-34.3,37.8-51.9c3.8,0.8,7.5,1.6,11.3,2.3
	c3.8,2.6,8.2-2.5,11.9,0.9c-6,7.1-12,14.1-18,21.2c-19.1-0.8-24.7,14.5-31.1,27.6C428.3,166.6,426.7,171.8,421.4,174.8z"></path>
<path class="stab8" d="M415.2,141.9c-0.2,0.8-0.4,1.5-0.5,2.3c-2.5,0.3-4.6-0.3-6.3-2.3c1.9-7,11.4-16-4.9-18.1
	c0.4-10.2-7-7.8-13.1-8.5c-12.9-1.6-28.3,5.8-38-7.5c-6.9-9.4-14.9-11.2-25.1-9.4c0.8-3.1,1.6-6.1,2.4-9.2
	c4.5-4.7,8.9-9.4,13.4-14.1c12.1,18,29.2,21.2,49,16.5c-0.7,4.2-1.3,8.4-2,13.3c8.5-2.4,6.9-8.3,7.2-13.3c4-1.9,8-3.8,12-5.6
	c0.9,8.5-4.2,20.2,2.8,25.1C426.6,121.3,420.8,131.1,415.2,141.9z M369.8,106.3c5.5,3.2,10.1,4.6,14.8,0.4c0.6-0.5,0.3-3.3-0.4-3.8
	C378.8,99.3,374.6,101.5,369.8,106.3z"></path>
<path class="stab11" d="M329.8,89.3c-0.8,3.1-1.6,6.1-2.4,9.2c-0.3,0.7-0.5,1.4-0.7,2.1c-7.8,0.8-13.9,7.1-22.1,6.3
	c-15.8,5-32.3,0.9-48.3,3.3c-11.2,1-20-4.9-29-10.1c-2.1-4.6-5.4-8.1-9.6-10.8c4-0.4,6.3-2.4,6.2-6.6c12,2.7,21.4,15.9,35.8,8.8
	c0.9,0.2,1.8,0.4,2.6,0.5c2.8,5,7.3,5.4,12.5,5.7c12.2,0.6,23.8-1,34.8-6.5C316.6,93.8,322.9,88.2,329.8,89.3z"></path>
<path class="stab3" d="M309.5,91.3c-11,5.5-22.6,7.1-34.8,6.5c-5.2-0.3-9.7-0.7-12.5-5.7c0.9-2.6,1.9-5.3,2.8-7.9
	c10.8-6.5,24.1-3.3,35.3-9.2c6-3.1,12.5-4.8,15.6-11.4c2.7-1.6,6.1,3.4,8.5-1c5.6,0,12.8-1.6,11.4,7.8c-1,6.8-4.6,11.5-12.9,9.6
	C313.7,77.8,308.4,80.8,309.5,91.3z"></path>
<path class="stab0" d="M352.1,34.2c0.2,3.5,0.3,7,0.5,10.5C349,41.4,351,37.8,352.1,34.2z"></path>
<path class="stab12" d="M192.3,74.8c-3.2,7.8-10.9,6.5-17,8.2C179.1,76.5,184.5,73.3,192.3,74.8z"></path>
<path class="stab10" d="M153.7,85.3c-5.1,5.6-8.7-0.5-12.9-1.6C145.3,83.4,149.8,82.3,153.7,85.3z"></path>
<path class="stab10" d="M265,84.2c-0.9,2.6-1.9,5.3-2.8,7.9c-0.9-0.2-1.8-0.4-2.6-0.5c0.7-3.6-2.1-5.7-3.4-8.5
	C259.1,83.4,262.1,83.8,265,84.2z"></path>
<path class="stab1" d="M445.3,356.5c-9,10.6-13.6,23.5-18.9,36c-4.6-0.8-4.6,3.2-5.9,5.7c-3.2-1.9-4.8-1.8-5.5,2.7
	c-1.8,12.3,2.4,22.4,10.2,31.5c3.6,4.2,9.5,9-0.7,12.7c-3.2-10.2-9.6-16.7-20.6-18.1c-0.9-0.7-1.8-1.5-2.7-2.2
	c-2.5-27.2-4.9-54.3,18.6-75.1c1.4-1.2,1-4.5,1.5-6.8c1.9-1.3,3.8-2.7,5.7-4l-0.1-0.1c0,5.1,0,10.1,0,17.3c6-2.8,9.4-6.7,14.3-6.1
	c0.4,0.4,0.8,0.8,1.2,1.2C443.3,352.9,444.3,354.7,445.3,356.5z"></path>
<path class="stab5" d="M424.6,445.1c10.1-3.7,4.2-8.5,0.7-12.7c-7.8-9.2-12-19.2-10.2-31.5c0.6-4.4,2.3-4.6,5.5-2.7
	c0.1,4.3-0.1,8.7,0.5,13c1.4,11.2,6.4,18.1,19.1,14.2c5.1,2.6,10.1,5.4,16.1,4.9c1.4,1.9,3.2,3,5.7,2.7c1.1,1.7,2.2,3.4,3.3,5.2
	c-6.4,8-17.8,6.2-25.3,14.9c-6.3,7.2-13.7,12-13.9,22.7c-0.1,4.3-4.8,3.8-8.1,4c-2-7.4-9.1-7.7-14.6-10.3c0.2-1.3,0.4-2.6,0.7-3.8
	C420,467.9,420.4,454.6,424.6,445.1z"></path>
<path class="stab1" d="M447.2,238.3c6.9-12.2,4.4-18.2-9.9-23.7c-18.2-6.9-22.8-19.9-16.3-32.3c12.6,11,22.5,25.7,40.8,28.4
	c-1.1,1.4-6.1,1.8-2.2,4.7c4.7,3.4,10.1,5.9,16.3,3.5c1.4,5-4.1,6.7-5.1,10.6c-5.3,6.5-12.2,9.9-20.6,10
	C449.2,239.1,448.2,238.7,447.2,238.3z"></path>
<path class="stab1" d="M406.8,324.7c7.8-4.5,2.7-13.1,6-19c2.8,1.2,5.6,2.5,8.3,3.7l-0.1-0.1c0.3,3.7,0.6,7.4,4.7,9
	c0.1,0.1,1.1-2.1,1.7-3.3c7.5,4.2,15,8.5,22.4,12.7c0.3,1.9,0.6,3.8,0.9,5.7c0.2,4.5-2.2,10.3,5.5,11.2c-1.7,8.7-8.9,5.3-14,6.5
	c-0.4-0.4-0.8-0.8-1.2-1.2c5.8-6.6,5.6-10.7-4.4-11c-3.3-0.1-6.6-0.1-9.9-0.2l0.1,0.1c-1.8-5.8-4.6-7.3-8.9-2
	C414.1,332.9,404.5,334.3,406.8,324.7z"></path>
<path class="stab5" d="M421.1,309.4c-2.8-1.2-5.6-2.5-8.3-3.7c-7.9-14.6-3.7-27.9,5.4-39.8c3.2-4.2,5.5-8.7,8.1-13.2
	c3.5,0.6,7.3,0.7,9.5,4.2c-1,3.8,1.8,8.4-2.3,11.6c-15.6,1.5-15.4,13.3-14.4,24.2C419.5,298.2,421.6,303.6,421.1,309.4z"></path>
<path class="stab10" d="M421.1,309.4c0.5-5.8-1.6-11.3-2.2-16.8c-1-10.8-1.2-22.6,14.4-24.2c-9.4,12.3-6.1,26.7-6.7,40.5
	c-1.9,0.1-3.8,0.2-5.7,0.4L421.1,309.4z"></path>
<path class="stab13" d="M440.1,425.4c-12.8,3.9-17.7-3-19.1-14.2c-0.5-4.3-0.3-8.6-0.5-13c1.4-2.5,1.4-6.5,5.9-5.7
	C424.1,406.3,428.4,417.4,440.1,425.4z"></path>
<path class="stab10" d="M435.7,256.9c-2.2-3.5-5.9-3.6-9.5-4.2c4.7-8,8.8-17.1,20.9-14.3c1,0.4,2,0.8,3,1.2
	C447.2,246.8,447.6,257,435.7,256.9z"></path>
<path class="stab5" d="M456.3,344.6c-7.7-0.9-5.3-6.7-5.5-11.2c5.6-0.1,11.2-0.2,16.7-0.3l0.5,0.2c-0.2,3.4-0.4,6.8-0.5,10.3
	c-0.6,0.4-1.3,0.6-2,0.7c-1-0.3-1.9-0.6-2.8-0.9c-1.1-1.2-2.2-3.5-3.4-3.5c-3.1-0.2-2.9,2.7-3.2,4.9L456.3,344.6z"></path>
<path class="stab10" d="M462.7,343.3c0.9,0.3,1.9,0.6,2.8,0.9c-5,7-10.7,13-20.3,12.3c-1-1.8-2-3.6-3-5.4c5.1-1.2,12.4,2.2,14-6.5
	l-0.1,0.1C458.4,344.2,460.6,343.8,462.7,343.3z"></path>
<path class="stab10" d="M467.6,333c-5.6,0.1-11.2,0.2-16.7,0.3c-0.3-1.9-0.6-3.8-0.9-5.7C456.1,328.4,464.2,322.9,467.6,333z"></path>
<path class="stab8" d="M467.6,343.5c0.2-3.4,0.4-6.8,0.5-10.3c3.1-0.1,5.7,0.5,5.5,4.4C473.5,341.3,471.9,343.9,467.6,343.5z"></path>
<path class="stab5" d="M421,309.3c1.9-0.1,3.8-0.2,5.7-0.4c0.3,2,0.5,4,0.8,6.1c-0.6,1.1-1.6,3.3-1.7,3.3
	C421.7,316.7,421.4,313,421,309.3z"></path>
<path class="stab12" d="M462,432.9c-2.5,0.3-4.3-0.8-5.7-2.7c1.8,0,3.7,0,5.5,0.1C461.9,431.2,462,432,462,432.9z"></path>
<path class="stab10" d="M475.9,219c-6.2,2.4-11.6-0.1-16.3-3.5c-4-2.9,1.1-3.2,2.2-4.7c5.3-2.5,7.8,4.1,12.5,3.9
	C474.8,216.1,475.3,217.5,475.9,219z"></path>
<path class="stab8" d="M50.5,414.9c5.4,1,7.3-5.7,12.3-5.5c1.7,0.2,3.4,0.4,5.2,0.7c1,5.1-6.6,5.6-5.8,10.7c-2.8,0.2-5.5,0.3-8.3,0.5
	c-2.3-2.6-5.3-2.6-8.3-2.3C45.6,415.5,48.4,415.6,50.5,414.9z"></path>
<path class="stab9" d="M54.2,377.2c-0.1,3.3-0.2,6.6-0.3,9.8c-7.1-7.6-0.7-16.3-2.7-24.3C55.6,367,52.4,372.5,54.2,377.2z"></path>
<path class="stab1" d="M62.2,420.7c-0.9-5.1,6.7-5.6,5.8-10.7c4-0.7,6.4-2.8,6.6-7c12.9-6.1,10.6-19,13.3-29.6
	c5.8-0.2,3.5-4.7,4.2-7.7c-1.9-6.9,4.6-16.1-5.6-20.8c-4.5-3.2-4.2-11.2-11.7-11.4c-3.7-6.6-7.6-12.9-13.6-17.6
	c-5.4-4.3-5.2-8.6,0.6-12.4c5.6,0.4,12-1.1,13.2,7.4c0.6,4.4,4.6,4.2,7.9,4.6c2.6,2.8,5.1,5.8,7.9,8.5
	c18.9,18.1,24.4,46.7,13.6,70.7c-1.3,2.6-2.2,5.5-4,7.7c-13.1,15.6-11.9,21.7,6.6,30.2c5.3,0.7,11.8,1.4,15.1-2.2
	c9.9-10.4,22.3-8.9,34.5-9.3c9.6,3.3,16.9,12.5,28.3,11.4c1.3,1.3,2.6,2.6,4,4c-2,5.6-4,11.3-6,16.9c-2.2-1.2-4.4-2.4-6.6-3.6
	c-13-11.2-27.5-14.2-43.6-7.9c-1.7,0.5-3.5,1.1-5.2,1.6c-9.7,0.4-15.3,12.2-26.2,9.2c-0.9-0.8-1.7-1.6-2.6-2.4
	c-3.7-9.5-11.7-14.8-19.3-20.6C74.4,425,65,429.3,62.2,420.7z"></path>
<path class="stab0" d="M101.2,452.5c10.9,3,16.5-8.9,26.2-9.2c1.6,6.8-13,11.3-2.6,19.3c-2.2,2.3-4.3,4.6-6.5,6.9
	C113.4,463,99.6,465.5,101.2,452.5z"></path>
<path class="stab2" d="M62.2,420.7c2.8,8.6,12.3,4.4,17.2,8.8c-2.5,0.2-5.1,0.3-7.6,0.5c-2.9-0.1-5.8-0.2-8.7-0.3
	c-2.2-3.8-10.2-1.3-9.2-8.5C56.6,421,59.4,420.8,62.2,420.7z"></path>
<path class="stab8" d="M87.8,373.3c-2.6,10.7-0.3,23.6-13.3,29.6c-3,1.2-6,2.3-8.9,3.5c0.2-11.4-1.7-23.2,5.7-33.3
	c6.6-4.6,2.1-11.5,3.6-17.2c7.2,0.7,4.4-4.9,5.1-8.3c2,0,3.9,0,5.9-0.1C86.5,356.2,87.1,364.7,87.8,373.3z"></path>
<path class="stab2" d="M74.9,355.9c-1.5,5.7,3,12.6-3.6,17.2c-3.7-12.3-7.5-24.6-11.2-36.9c2.3-0.1,4.5-0.3,6.8-0.5
	C67.9,343.2,76.1,347.7,74.9,355.9z"></path>
<path class="stab13" d="M65.6,406.4c3-1.2,6-2.3,8.9-3.5c-0.1,4.2-2.6,6.4-6.6,7c-1.7-0.2-3.4-0.4-5.2-0.7
	C63.7,408.4,64.6,407.4,65.6,406.4z"></path>
<path class="stab10" d="M82.8,315.4c-3.3-0.4-7.3-0.2-7.9-4.6c-1.2-8.5-7.6-7.1-13.2-7.4c1.2-6.9,1.4-13.1,8.7-18.4
	c9.9-7.2,7.7-33.4-1.8-46.1c-0.2-5-0.4-10-0.6-15c0-2.8,0-5.6,0-8.5c0.9-3.1-0.1-6.9,3.7-8.8c1.2,2.8,2.4,5.6,3.6,8.4
	c0.1,17.7,7.3,34.5,6.5,52.4c-0.1,2.4,2.8,4.9,4.3,7.4C85.4,288.4,77.2,301.3,82.8,315.4z"></path>
<path class="stab13" d="M74.9,355.9c1.3-8.3-7-12.8-8-20.1c2.4,1.2,4.7,2.3,7.1,3.5c2,2.8,4,5.6,6,8.4
	C79.3,351.1,82.1,356.6,74.9,355.9z"></path>
<path class="stab2" d="M80,347.7c-2-2.8-4-5.6-6-8.4c0.2-1.9,0.4-3.9,0.7-5.8c7.4,0.2,7.2,8.2,11.7,11.4c-0.1,1-0.1,2-0.2,2.9
	l-0.3-0.1C83.9,347.6,82,347.7,80,347.7z"></path>
<path class="stab5" d="M67.9,215.5c0,2.8,0,5.6,0,8.5c-1.2,0-2.5-0.1-3.7-0.1c-2.5-6.8-5.9-12.8-13.1-15.7c0.3-1.2,0.5-2.3,0.8-3.5
	C62,201.1,61.9,212.9,67.9,215.5z"></path>
<path class="stab4" d="M271,489.4c-12.7,1.2-26-0.9-37.3,7.1c4.9-4.2,9.9-8.1,15.4-11.8C259.3,478,265.3,480.1,271,489.4z"></path>
<path class="stab1" d="M257.6,462.7c5.8,0.5,13-4.5,16.5,4.5C268.3,466.7,261,471.9,257.6,462.7z"></path>
<path class="stab10" d="M468.1,438.5c8.7,0.2,17.4,0.4,26,0.6C485.3,447.2,476.6,448.3,468.1,438.5z"></path>
<path class="stab8" d="M338.1,468.1c-2.5,2.1-5.1,4.3-7.6,6.4c-6.4-0.1-6.4-0.1-21.3,13.5c-1.7-4.4,0.7-10-4.2-13
	c2.3-1.4,5-1.7,6.9-4.6c8.4-12.5,19.5-21,35.6-20.2c0.4,5.1-3.9,7.8-6,11.6C340.4,463.9,339.3,466,338.1,468.1z"></path>
<path class="stab8" d="M401.2,468.8c-1.2,5.4,5.4,7.3,5.3,12.1c-9.9,1.1-17.2-2.9-20.6-12c-2.2-5.8-6.4-6.7-11.3-7.4
	c2-1.9,4-3.9,5.9-5.8c5.3,1.5,10.1,5.1,16,3.7C398.1,462.5,399.7,465.7,401.2,468.8z"></path>
<path class="stab2" d="M341.6,461.8c2.1-3.8,6.4-6.5,6-11.6c1.3-0.6,2.6-1.2,3.9-1.8c4.8,0.6,9.6,1.2,14.4,1.7c-0.3,2-0.6,4-1,5.9
	C356.1,453.5,349.9,462.2,341.6,461.8z"></path>
<path class="stab1" d="M374.1,473.9c-5.9-0.3-12.3,2-17.5-2.8C362.8,469.6,369.9,462.8,374.1,473.9z"></path>
<path class="stab2" d="M380.6,455.7c-2,1.9-4,3.9-6,5.8c-3.8,0.5-6-1.1-6.3-5c2.9-4.3,7.4-2.3,11.3-2.9
	C379.9,454.2,380.3,454.9,380.6,455.7z"></path>
<path class="stab1" d="M383,477.8c-0.5,1.7-1,3.4-1.5,5.1c-3.4-2.3-7.5-3.9-7.4-9C377.7,473.6,380.2,476,383,477.8z"></path>
<path class="stab8" d="M379.6,453.5c-3.9,0.6-8.4-1.4-11.3,2.9c-1.1-0.1-2.2-0.2-3.3-0.3c0.3-2,0.6-4,1-5.9c2.8,0,5.7,0.1,8.5,0.1
	c1.8,0.2,3.5,0.3,5.3,0.5C379.9,451.7,379.8,452.6,379.6,453.5z"></path>
<path class="stab15" d="M351.5,448.4c-1.3,0.6-2.6,1.2-3.9,1.8c-16.1-0.8-27.2,7.7-35.6,20.2c-1.9,2.8-4.5,3.2-6.9,4.6
	c-6.4-0.4-11.8-5.6-18.6-3.8c-0.2-1.2-0.4-2.3-0.7-3.5c9.9-5.4,9.1-11.1,0.3-16.8v-0.6c-0.5-4.1-2.8-6-6.9-5.2
	c-1.9-0.1-3.7-0.1-5.6-0.2c-5.1-11.7-15.3-3.7-22.8-5.9l-0.6-0.9c-0.4-2.7-0.5-5.7-4.5-3c-2.3,1.3-4.6,2.6-6.9,3.8l0.3-0.1
	c-2.9-0.1-5.8-0.3-7.5,2.7c-5,7.1-16.9,6.9-18.7,17.5c-4.8,4.7-9.9,9-10.6,16.4c-0.3,3-2.7,3.8-5.1,4.3c-2.9,0.6-4.8-1-5.1-3.7
	c-0.9-8.4-9-13.9-9.1-22.6c2-5.7,4-11.3,6-16.9l1.3-0.2l1.3,0.1c5.7,9.8,11.2,2.9,16.5-0.4c15.8-10,32.1-18.6,51.8-16.2
	c2.6,2.5,5.7,1.7,8.7,1.2c2-0.1,4-0.1,6.1-0.2c5.8-0.7,9,4.3,13.6,6.3c3.3,1.1,2.9,4.3,3.8,6.7c3.6,6.3,6.6,9.5,13.9,2.8
	c12.6-11.4,30.5-13.9,45.4-13.1c10.7,0.6,23.8,6.3,34.8,12.3c-0.6,4.1,0.5,9.2-5.6,10.2c-2.2-0.3-4.3-0.6-6.5-0.9
	C366.4,445.7,358,440.7,351.5,448.4z"></path>
<path class="stab8" d="M212.8,458.9c1.8-10.6,13.6-10.4,18.7-17.5c4.7,5.3,6.4,1.9,7.5-2.7l-0.3,0.1c3.4-0.2,6.9-0.4,10.3-0.6l1-0.2
	l0.6,0.9c4.7,5.3,12.5,0.3,17.4,5.1c-6.1,0.3-12.3-0.2-18.3,1c-4.8,0.9-1,2.7,0.5,3.9l-0.3,0.2c-9.9,0.9-19.7,1.8-23.6,13.3
	c-3.6,0-5.2,1.9-5.1,5.5l-0.3,0.5c-1.7-0.1-3.4-0.2-5.2-0.3C215.4,464.8,215.9,461.2,212.8,458.9z"></path>
<path class="stab2" d="M132.6,441.7c16.2-6.3,30.6-3.3,43.6,7.9c-3.6,1.5-8.1-0.5-11.1,3.1c-7,1.2-11.8-5.7-18.7-4.9
	C141.8,445.7,137.2,443.7,132.6,441.7z"></path>
<path class="stab1" d="M274,453.2c-6.8,3.9-13.4,6.1-18.1-2.9c3.1,0,6.2,0,9.3,0c1-0.2,2.1-0.3,3.1-0.5c0.8,0.3,1.7,0.5,2.6,0.5
	C272,451.3,273,452.2,274,453.2z"></path>
<path class="stab0" d="M274,453.2c-1-1-2-1.9-3-2.9c0.1-1.2,0.3-2.4,0.4-3.6c6.7,2.1,11,7.1,14.8,12.6c-0.1,1.2-0.2,2.4-0.4,3.5
	C281.9,459.7,277.9,456.4,274,453.2z"></path>
<path class="stab2" d="M285.8,462.9c0.1-1.2,0.2-2.4,0.4-3.5c4.5-2.9,0.6-5.7-0.1-8.5c8.9,5.7,9.7,11.4-0.3,16.8
	C285.8,466.1,285.8,464.5,285.8,462.9z"></path>
<path class="stab10" d="M265.2,450.3c-3.1,0-6.2,0-9.3,0c-1.9-0.4-3.9-0.8-5.8-1.2l0.3-0.2C255.5,447.4,260.6,446,265.2,450.3z"></path>
<path class="stab2" d="M221.4,467.8c-0.1-3.5,1.5-5.4,5.1-5.5C226.7,466,224.8,467.5,221.4,467.8z"></path>
<path class="stab1" d="M401.2,468.8c-1.5-3.2-3.1-6.3-4.6-9.5c1.1-0.8,2.3-1.5,3.4-2.3c3.9,1.6,3,5.5,4,8.4c-0.2,1.3-0.4,2.6-0.7,3.8
	C402.7,469,402,468.8,401.2,468.8z"></path>
<path class="stab8" d="M132.6,441.7c4.6,2,9.2,4,13.8,6.1c-7.9,4-15.4,8.5-21.6,14.8c-10.4-8,4.2-12.5,2.6-19.3
	C129.1,442.8,130.9,442.2,132.6,441.7z"></path>
<path class="stab12" d="M150,98.2c5.9-0.1,11.8-0.2,17.7-0.4c1.2,5.7-6.6,6.9-6,12.2c-6.1-1.4-12.1-0.8-18.8-3.3
	c-13-4.8-25.3-16.4-41.3-10.9c-2.3-0.5-3.7,0.9-5,2.5c-3.7,0-7.4,0.1-11.2,0.1c0.9-6.7,5.1-12,8.7-17.3c4-5.9,10.5-11.9,15.5-1.3
	c4.8,10.2,12.5,12.5,22.3,12.4c4.4-0.1,9.1-0.3,10,5.9C144.7,100.8,147.3,102.4,150,98.2z M157.4,105.8c0.3-0.8,1.1-1.8,0.8-2.3
	c-0.3-0.6-1.5-0.8-2.3-1.2c-0.3,0.8-1.1,1.8-0.8,2.3C155.4,105.3,156.6,105.4,157.4,105.8z"></path>
<path class="stab11" d="M161.7,110c-0.5-5.3,7.3-6.5,6-12.2c4.1-0.2,8.2-0.5,12.3-0.7c4.2,1.3,6.8-0.9,8.9-4.1
	c3.2-0.4,6.3-0.8,9.5-1.2c0.5,0.2,1,0.3,1.6,0.3c0.4,2.2,1.5,6.3,1.2,6.4C188.3,103.1,177.5,115.6,161.7,110z"></path>
<path class="stab12" d="M200,92.1c-0.5,0-1.1-0.1-1.6-0.3c7.7-18.3,11.4-19.6,25.4-9.1c0.1,4.2-2.2,6.2-6.2,6.6
	C211.6,89.5,205.3,87.4,200,92.1z"></path>
<path class="stab8" d="M85.5,98.4c3.7,0,7.4-0.1,11.2-0.1c0,7.9-6.8,4.7-10.5,6.5c-3.7-0.5-7.4-0.9-11.1-1.4c-0.3-0.8-0.5-1.7-0.6-2.6
	C78.1,100,81.8,99.2,85.5,98.4z"></path>
<path class="stab15" d="M74.4,100.8c0.1,0.9,0.3,1.8,0.6,2.6c-1,0.5-2,1.1-2.9,1.6c-2.9-2.6-4.1-7.1-8.9-7.5c1-1.6,2-3.1,3-4.7
	C72.6,91.8,74.7,95.1,74.4,100.8z"></path>
<path class="stab12" d="M188.9,93c-2.1,3.2-4.7,5.3-8.9,4.1C181.1,91.7,185,92.2,188.9,93z"></path>
<path class="stab11" d="M150,98.2c-2.7,4.2-5.3,2.7-7.9-0.1C144.7,98.1,147.4,98.1,150,98.2z"></path>
<path class="stab1" d="M63.2,97.6c4.8,0.4,6,4.9,8.9,7.5c0.2,0.5,0.5,1,0.7,1.5c13.4,17.7,10.7,37.8,9.3,58c-0.5,6.5-2.9,12.2-4,18.3
	c-0.6,3.6-2.5,8.6,2.3,10.3c4.2,1.5,7-2,9.2-5.6c9-15,11.1-30.4,5.3-47.5c-2.4-7-5.5-18.1,3.4-22c4-1.8,13.9-1.3,20,4.8
	c6.3,6.2,14.5,9.2,23.5,10.7c16.5,2.6,32.4,2.2,48.7-2.4c11.2-3.2,25.8-10.5,33.5-7.5c20.7,8.3,41,13,63.1,14
	c10.3,0.4,19.3-0.6,27.5-6.2c16.4-11.3,20.6-8.4,38-0.6c20.2,9.1,21.3,18,13.5,37.1c-9,22.1-4.5,45.6,6.5,67.2
	c2.5,4.9,1.5,11.8-4.5,10.7c-6.3-1.1-15.6-4.9-16.3-12c-2-21.4-10.7-42.7-1.1-64.6c4.6-10.5,1.2-18.3-12-18.4
	c-4.5-0.8-7.2-7-13.9-1.7c-5.6,4.4-14.1,5-21.4,7.3c-10.9,1.4-22.3-2.8-32.9,3c-8.9-0.1-16-8.6-25.7-5.3c-16.4-12.2-31.9-10-47,2.5
	c-22,3.1-43.6-6.1-65.6-2.1c-8.7-4.7-14.2-3.6-14.2,7.7c-6.1,0.2-8.5,3.4-8.4,9.4c0.1,4.8,0.4,10-1,14.4
	c-5.2,16.1-2.2,25.5,12.6,35.4c0.1,1.7,0.3,3.4,0.4,5c3.4,21.8,7.1,43.5,6,65.7c-0.1,6.8,0.5,12.7,5.1,18.9
	c10.4,13.9,18.9,29,18,47.4c-0.3,5.2,0.9,9,7.7,9.9c18.5,2.4,35.8,8.5,51.9,18c3.7,14.4,13.5,9.2,20.9,5.3
	c17.7-9.3,34.7-9.1,51.7,0.9c-0.9,4.2,16,5.5,2,11.9c-12.2-5.6-25.8-2.9-38.4-5.9c-5.6-1.4-11.2,0.6-13.2,7.4
	c-1.2-0.1-2.4-0.2-3.6-0.3c-11-6.5-18.3,2.2-26.7,6.5c-14.2-5.6-27-16-43.6-14.1c-8.9-0.2-17.8-0.3-26.6-0.5
	c-1.4-10.7,5.9-22.7-4.7-32.1C125,348.7,121.7,332,108,320c-5.2-4.6-5.9-10.9-2.9-15.8c4.7-7.7,4-15.9,5.2-23.9
	c7.7-9.6,7.4-26.2-0.7-38.4c-9.4-13.9-14.4-31-29.6-40.6c-4.7-1.4-5.5,1.7-5.8,5.2c-0.8,0-1.6,0.2-2.4,0.4c-3.8,1.8-2.9,5.7-3.7,8.8
	c-6-2.6-5.9-14.4-16-10.8c-0.1-2.6-0.3-5.1-0.4-7.7c7.4-0.9,4.7-6.6,5.1-10.8c3.3-6.6,6.4-13.2,6.8-20.8c8-11.8,6.6-31.2-3.1-41.4
	c-0.9-1.7-1.8-3.5-2.6-5.2c-0.3-1-0.6-2-0.9-3C61,110.5,51,100.1,63.2,97.6z"></path>
<path class="stab6" d="M60.3,156.8c-0.5,1.9-0.9,3.9-1.4,5.8c-1.8-6-7.6-12.1,0.7-17.7l0,0C59.9,148.9,60.1,152.9,60.3,156.8z"></path>
<path class="stab15" d="M60.3,124c9.7,10.2,11.1,29.6,3.1,41.4c-0.3-3.2-0.7-6.3-1.1-9.5c-0.1-4-0.3-7.9-0.4-11.9
	C60.6,137.4,58.6,130.9,60.3,124z"></path>
<path class="stab7" d="M61.9,144c0.1,4,0.3,7.9,0.4,11.9c-0.6,0.4-1.3,0.7-2,0.9c-0.2-4-0.4-7.9-0.6-11.9
	C60.4,144.6,61.1,144.3,61.9,144z"></path>
<path class="stab6" d="M51,124c1.9-0.5,3.8-0.9,5.7-1.4c-0.3,5.5,3.4,11.7-2.6,16.3c-1-3.9,1.1-8.6-3.2-11.7C50.9,126.1,51,125,51,124
	z"></path>
<path class="stab13" d="M386.1,435.5c-11-6-24.1-11.7-34.8-12.3c-14.9-0.8-32.8,1.7-45.4,13.1c-7.4,6.7-10.4,3.5-13.9-2.8
	c7.9-1.5,5.7-7.6,5.7-12.7c3-0.9,4.9-2.9,6.1-5.8c6.3,0.7,10.3-4.5,16-6c16-4.2,32-2.7,48-2.3c7.8,0.2,13.9-2.8,13.4-9.8
	c-1.1-16.4,4.1-30.7,10.6-45c0-10.1,2.8-21.6-12.2-24.1c-9.7-13.6-6.7-28.9-3.2-42.9c4.2-16.6,11.7-32.3,17.8-48.4
	c1.3-1.5,2.6-2.9,3.9-4.4l1.2,0.4l1.2-0.1c8.1-2.1,12.8,8.1,20.9,5.7c-1.3,8.7-8.6,13.8-12.9,20.6c-14.7,23.4-15.6,48.9-1.6,65.9
	c-2.2,9.6,7.4,8.2,11.3,12.1c1.1,2,2.1,4,3.2,6c-0.4,2.3-0.1,5.6-1.5,6.8c-23.5,20.9-21.1,48-18.6,75.1c-0.1,2.7-1.5,5.7,2,7.5
	c4.5,6,4.9,11.5-2.2,15.9C396,443.9,391,439.7,386.1,435.5z"></path>
<path class="stab13" d="M408.4,142c1.7,1.9,3.8,2.5,6.3,2.3c-6.5,18.5-16.1,36.1-8.1,57.1c4.3,11.3,16.8,14.9,20.7,25.8
	c-8-0.9-15.7-5.4-24.1-2.7c-5.7-4.6-4.9-11.9-7-17.9c-2.1-10.9,5.7-22.3-1.7-32.9C400.3,163.7,398.5,150.3,408.4,142z"></path>
<path class="stab13" d="M415.2,141.9c5.6-10.9,11.4-20.6-3.1-30.9c-7-4.9-1.9-16.5-2.8-25.1c1.7-0.7,4.8-1.7,5,0
	c1.1,11.2,5.2,20.2,15.7,25.7c3.2,1.7,4.1,5.9,1.6,8.8C425.7,127.4,424.3,137.6,415.2,141.9z"></path>
<path class="stab8" d="M403.2,224.5c8.4-2.7,16.1,1.7,24.1,2.6c2.8,6.3-4,7.3-6.1,11c-8.1,2.4-12.9-7.7-20.9-5.7
	C401.3,229.9,402.3,227.2,403.2,224.5z"></path>
<path class="stab13" d="M397.3,91.6c-0.3,5,1.3,10.9-7.2,13.3c0.7-4.8,1.4-9.1,2-13.3C393.9,91.7,395.6,91.6,397.3,91.6z"></path>
<path class="stab5" d="M394,236.7c-6.1,16.1-13.6,31.8-17.8,48.4c-3.6,14-6.6,29.3,3.2,42.9c0,2,0.1,4,0.1,6
	c-4.2-0.2-8.5-0.4-12.7-0.5c-15.7-15.8-14.3-37.1-8.8-53.9c4.8-14.7,0.7-24-2.9-34.7c-7.1-1.2-9.9,12.2-17.6,3
	c-1.8-3.9-2.9-8.3-4.6-12c-6.5-14.4-3-31.9-14.5-44.5c0-3.7,0-7.4,0-11.1l1.1,0.2l0.7-0.9c5.8-9.8,20.6-13.8,18.3-28.7
	c13.2,0.1,16.6,7.9,12,18.4c-9.6,21.9-0.9,43.2,1.1,64.6c0.7,7.2,10,10.9,16.3,12c6.1,1,7-5.9,4.5-10.7c-11-21.7-15.5-45.1-6.5-67.2
	c7.8-19.1,6.7-28-13.5-37.1c-17.4-7.9-21.6-10.7-38,0.6c-8.2,5.6-17.2,6.6-27.5,6.2c-22.1-0.9-42.4-5.7-63.1-14
	c-7.7-3.1-22.3,4.3-33.5,7.5c-16.3,4.6-32.2,5-48.7,2.4c-9-1.5-17.2-4.5-23.5-10.7c-6.1-6-16-6.5-20-4.8c-8.9,3.9-5.7,14.9-3.4,22
	c5.8,17.1,3.7,32.5-5.3,47.5c-2.2,3.6-5,7.1-9.2,5.6c-4.7-1.7-2.9-6.7-2.3-10.3c1.1-6.1,3.6-11.7,4-18.3c1.4-20.2,4.1-40.3-9.3-58
	c4.9,3.1,9.9,6.6,13.3-1.7c3.7-1.9,10.6,1.4,10.5-6.5c1.3-1.6,2.6-2.9,4.9-2.5c18.9,33.8,83.3,32.2,107.7,16.2c6-3.9,12-8,17.9-12
	c9,5.2,17.8,11.2,29,10.1c2.6,7.8,9.5,5.1,14.6,5.3c10.9,0.4,21.9-0.3,32.9-0.5c10-1.1,20.3-1.7,23-14.4c0.2-0.7,0.5-1.4,0.7-2.1
	c10.2-1.8,18.2,0,25.1,9.5c9.7,13.3,25.1,5.9,38,7.5c6,0.7,13.4-1.7,13.1,8.5c-9.2,5.7-15.8,13.6-20,23.5
	c-11.8,19.2-10.7,40.8-8.6,61.6C375.9,220.1,379.6,233.1,394,236.7z"></path>
<path class="stab6" d="M383.5,147.5c4.2-9.9,10.8-17.8,20-23.5c16.3,2.1,6.8,11.1,4.9,18.1c-9.9,8.3-8.1,21.7-13.9,31.8
	c-7.4,6.8-5.1,15.8-5.6,24.2c-0.9,0.3-1.8,0.8-2.6,1.3c-12.4-7.9-8.3-19.7-4.4-29C385.4,162.2,386.5,155.3,383.5,147.5z"></path>
<path class="stab13" d="M369.8,106.3c4.8-4.8,9.1-7,14.4-3.4c0.7,0.5,1,3.2,0.4,3.8C379.9,110.9,375.3,109.5,369.8,106.3z"></path>
<path class="stab6" d="M227.2,100.1c-6,4-11.9,8-17.9,12c-24.4,16-88.7,17.5-107.7-16.2c16-5.5,28.3,6.1,41.3,10.9
	c6.7,2.5,12.6,1.9,18.8,3.3c15.8,5.6,26.6-6.9,39.5-11.5c0.3-0.1-0.8-4.2-1.2-6.4c5.3-4.7,11.6-2.6,17.6-2.8
	C221.8,92,225.1,95.6,227.2,100.1z"></path>
<path class="stab13" d="M303.7,115c-11,0.2-21.9,0.9-32.9,0.5c-5.1-0.2-12,2.5-14.6-5.3c16-2.4,32.5,1.7,48.3-3.3
	C304.3,109.6,304,112.3,303.7,115z"></path>
<path class="stab2" d="M303.7,115c0.3-2.7,0.6-5.4,0.9-8.1c8.2,0.8,14.4-5.5,22.1-6.3C324,113.3,313.7,113.9,303.7,115z"></path>
<path class="stab15" d="M401,448.1c7.1-4.4,6.7-9.8,2.2-15.9c0.3-1.7,0.5-3.5,0.8-5.2c11,1.3,17.3,7.9,20.6,18.1
	c-4.1,9.6-4.6,22.8-20.6,20.4c-1-3-0.1-6.8-4-8.4C400.3,454.1,400.6,451.1,401,448.1z"></path>
<path class="stab15" d="M426.9,338.7c3.3,0.1,6.6,0.1,9.9,0.2c10,0.3,10.2,4.4,4.4,11c-4.9-0.7-8.3,3.2-14.3,6
	C426.9,348.8,426.9,343.8,426.9,338.7z"></path>
<path class="stab15" d="M421.3,342.8c-1.1-2-2.1-4-3.2-6c4.3-5.3,7.1-3.8,8.9,2.1C425.1,340.1,423.2,341.5,421.3,342.8z"></path>
<path class="stab12" d="M404,427c-0.3,1.7-0.5,3.5-0.8,5.2c-3.4-1.8-2-4.8-2-7.5C402.2,425.5,403.1,426.2,404,427z"></path>
<path class="stab1" d="M462.7,343.3c-2.2,0.5-4.4,0.9-6.5,1.4c0.2-2.2,0.1-5.1,3.2-4.9C460.6,339.8,461.6,342.1,462.7,343.3z"></path>
<path class="stab7" d="M79.9,201.1c15.2,9.6,20.3,26.7,29.6,40.6c0.2,12.8,0.4,25.6,0.7,38.4c-1.2,8.1-0.5,16.2-5.2,23.9
	c-3,4.9-2.3,11.3,2.9,15.8c13.7,12.1,17,28.8,20.1,45.5c-0.1,6.1-0.7,12.3,0,18.4c0.6,4.7-4.5,11.9,4.7,13.7
	c8.9,0.2,17.8,0.3,26.6,0.5c-5.5,4.5-3.4,11.4-5.3,17.1c-9.1-0.1-18.3-0.2-27.4-0.2c2.8-1.6,5.5-3.2,9.3-5.4
	c-11.3-5.1-14.5-24.3-31.7-14.8c10.8-24,5.2-52.5-13.6-70.7c-2.8-2.7-5.3-5.7-7.9-8.5c-5.6-14,2.6-27,3.2-40.5
	c0.2-6.3-1.4-13.4,1.1-18.7c8.3-17.7-3.7-28.7-11.8-41.1c-1.2-2.8-2.4-5.6-3.6-8.4c0.8-0.2,1.6-0.4,2.4-0.4
	C77.9,206.7,79.8,204.9,79.9,201.1z"></path>
<path class="stab9" d="M104.3,394.5c17.2-9.4,20.4,9.8,31.7,14.8c-3.8,2.2-6.6,3.8-9.3,5.4c-8.9,3.3-13.9,10.8-19.8,17.6
	c-18.5-8.5-19.8-14.6-6.6-30.2C102.1,400.1,103,397.1,104.3,394.5z"></path>
<path class="stab9" d="M154.1,415c1.9-5.6-0.2-12.5,5.3-17.1c16.7-1.8,29.4,8.5,43.6,14.1c0.3,0.9,0.6,1.9,0.9,2.8
	c-0.4,9.2-6.4,15.2-12.3,21.3l-1.3-0.1l-1.3,0.2c-1.3-1.3-2.6-2.6-4-4c-0.2-5-4.4-7.5-7.4-10c-4.7-4-1.5-12.2-8.1-14.5
	c-9.1-3.3-4.1,11.9-12.5,9.8C156,416.7,155,415.9,154.1,415z"></path>
<path class="stab6" d="M154.1,415c0.9,0.8,1.8,1.7,2.7,2.5c-0.1,1.1-0.2,2.2-0.3,3.3c-12.2,0.4-24.6-1.2-34.5,9.3
	c-3.4,3.6-9.9,2.8-15.1,2.2c5.8-6.7,10.9-14.3,19.8-17.6C135.8,414.9,145,415,154.1,415z"></path>
<path class="stab7" d="M156.6,420.9c0.1-1.1,0.2-2.2,0.3-3.3c8.4,2,3.5-13.1,12.5-9.8c6.6,2.4,3.3,10.5,8.1,14.5c3,2.6,7.2,5.1,7.4,10
	C173.5,433.5,166.2,424.2,156.6,420.9z"></path>
<path class="stab5" d="M87.8,373.3c-0.6-8.6-1.3-17.1-1.9-25.7l0.3,0.1c6,4.7-0.3,13.3,5.8,17.9C91.3,368.6,93.5,373.1,87.8,373.3z"></path>
<path class="stab10" d="M92,365.6c-6.1-4.6,0.2-13.3-5.8-17.9c0.1-1,0.1-2,0.2-2.9C96.6,349.5,90.1,358.7,92,365.6z"></path>
<path class="stab6" d="M75.2,215.1c8.1,12.4,20.1,23.4,11.8,41.1c-2.5,5.3-0.8,12.4-1.1,18.7c-1.5-2.5-4.4-5-4.3-7.4
	C82.5,249.6,75.3,232.8,75.2,215.1z"></path>
<path class="stab10" d="M401,448.1c-0.3,3-0.6,6-0.9,9c-1.2,0.8-2.3,1.5-3.4,2.3c-5.9,1.4-10.8-2.2-16-3.7c-0.3-0.7-0.6-1.5-0.9-2.2
	c0.2-0.9,0.3-1.8,0.1-2.7c0.2-1.7,0.5-3.3,0.7-5c6.2-1.1,5-6.2,5.6-10.3C391,439.7,396,443.9,401,448.1z"></path>
<path class="stab10" d="M351.5,448.4c6.4-7.7,14.9-2.7,22.4-3.5c0.2,1.8,0.4,3.6,0.6,5.4c-2.8,0-5.7-0.1-8.5-0.1
	C361.1,449.6,356.3,449,351.5,448.4z"></path>
<path class="stab1" d="M374.5,450.3c-0.2-1.8-0.4-3.6-0.6-5.4c2.2,0.3,4.3,0.6,6.5,0.9c-0.2,1.7-0.5,3.3-0.7,5
	C378,450.6,376.2,450.4,374.5,450.3z"></path>
<path class="stab7" d="M191.6,436.2c5.9-6,11.9-12,12.3-21.3c10.7,2.7,18.2-3.5,25.8-9.3c1.2,0.1,2.4,0.2,3.6,0.3
	c18.5,0,37.1-0.4,55.3,3.5c4.9,1.3,7.3-0.9,7.8-5.6c-0.5,5.5,4.6,7.6,7.1,11.3c-1.2,2.8-3.1,4.8-6.1,5.8c-1.7-2.1-3.3-5.5-6.5-4.1
	c-4.3,1.9-1.9,6.7-2.9,10.1c-4.6-2-7.8-6.9-13.6-6.3c-0.6-2.5,0.4-6-3.1-6.7c-3-0.6-3.1,2.6-4,4.5c-2.6,0.4-5.1,0.8-7.7,1.2
	c-19.7-2.4-35.9,6.2-51.8,16.2C202.8,439.1,197.3,445.9,191.6,436.2z"></path>
<path class="stab9" d="M288.1,426.8c1.1-3.4-1.4-8.1,2.9-10.1c3.2-1.4,4.8,2,6.5,4.1c0,5.1,2.3,11.2-5.7,12.7
	C291,431.1,291.5,427.9,288.1,426.8z"></path>
<path class="stab2" d="M271.3,446.8c-0.1,1.2-0.3,2.4-0.4,3.6c-0.9,0-1.8-0.2-2.6-0.5c-0.1-1.9-0.1-3.9-0.2-5.8
	c-4.9-4.7-12.6,0.2-17.4-5.1c7.5,2.3,17.7-5.8,22.8,5.9C272.8,445.5,272.1,446.1,271.3,446.8z"></path>
<path class="stab8" d="M271.3,446.8c0.7-0.7,1.5-1.3,2.2-2c1.9,0.1,3.7,0.1,5.6,0.2c1.5,2.8,3.7,4.8,6.9,5.2v0.6
	c0.7,2.8,4.6,5.6,0.1,8.5C282.4,453.9,278.1,448.9,271.3,446.8z"></path>
<path class="stab9" d="M267.5,418.4c0.9-2,1-5.1,4-4.5c3.4,0.7,2.4,4.3,3.1,6.7c-2,0.1-4,0.1-6.1,0.2
	C268.1,420,267.8,419.2,267.5,418.4z"></path>
<path class="stab0" d="M239.1,438.6c-1.2,4.6-2.8,8-7.5,2.7C233.3,438.4,236.2,438.6,239.1,438.6z"></path>
<path class="stab0" d="M286.1,450.2c-3.3-0.5-5.4-2.5-6.9-5.2C283.3,444.3,285.6,446.1,286.1,450.2z"></path>
<path class="stab3" d="M267.5,418.4c0.3,0.8,0.7,1.6,1,2.4c-3,0.5-6.1,1.3-8.7-1.2C262.4,419.1,264.9,418.7,267.5,418.4z"></path>
<path class="stab0" d="M249.1,438.2c-3.4,0.2-6.9,0.4-10.3,0.6c2.3-1.3,4.6-2.6,6.8-3.8C246.8,436,247.9,437.1,249.1,438.2z"></path>
<path class="stab3" d="M249.1,438.2c-1.2-1.1-2.3-2.1-3.5-3.2c4-2.7,4.1,0.4,4.5,3C250.1,437.9,249.1,438.2,249.1,438.2z"></path>
<path class="stab5" d="M268.1,443.9c0.1,1.9,0.1,3.9,0.2,5.8c-1,0.2-2.1,0.3-3.1,0.5c-4.6-4.3-9.7-2.9-14.8-1.4
	c-1.5-1.2-5.3-3-0.5-3.9C255.8,443.8,262,444.2,268.1,443.9z"></path>
<path class="stab11" d="M157.4,105.8c-0.8-0.4-2-0.5-2.3-1.1c-0.3-0.5,0.5-1.5,0.8-2.3c0.8,0.4,1.9,0.5,2.3,1.2
	C158.5,104,157.7,105,157.4,105.8z"></path>
<path class="stab2" d="M86.1,104.8c-3.4,8.3-8.4,4.8-13.3,1.7c-0.2-0.5-0.5-1-0.7-1.5c1-0.5,1.9-1.1,2.9-1.6
	C78.7,103.9,82.4,104.4,86.1,104.8z"></path>
<path class="stab0" d="M337.4,247.8c7.7,9.2,10.6-4.2,17.6-3c3.6,10.8,7.7,20.1,2.9,34.7c-5.5,16.8-6.8,38.1,8.8,53.9
	c9.4,15.7,0.5,29.5-3.6,44.2c-2.1,7.6-4.8,8.8-11.8,8.4c-15.1-1-30.3-1.6-43.2,8.7c-8,0.5-13.4-7.6-21.6-6.4c-0.7-3-2-4.6-5.6-5.3
	c-23.8-4.5-47.4-6.1-70.6,3.4c-16.1-9.5-33.5-15.6-51.9-18c-6.8-0.9-7.9-4.7-7.7-9.9c0.9-18.4-7.5-33.6-18-47.4
	c-4.6-6.1-5.2-12.1-5.1-18.9c0.9-0.2,1.9-0.5,2.7-1c3.2,1.3,6.2,3.7,10,1.6c3.1,3.9,5,9,10.5,10.4c1.9,3.2,3.5,6.9,5.9,9.6
	c8.4,9.4,8.8,22.9,16.8,32.5c-0.4,6.8,0.8,12.3,9.5,11.5c2.4,9.1,10,3.2,14.9,5.3l-0.2-0.2c-0.2,5.3,3.9,5.4,7.4,6.1
	c15.6,4.8,13.3-10.1,18.5-16.8c1-0.7,2-1.4,3.1-2.1c18.1,2.6,34.6-8.2,52.7-6.5c3.3,0.6,6.6,1.6,9.9,1.9c11.7,1,21.1-7.2,32.7-8
	c4-0.3,0.8-10.6,2.7-16c3.4-9.8,3.7-19.5-1.1-29c1-2.6,1.6-5.5,3-7.9C333.1,272.6,325.3,257.2,337.4,247.8z"></path>
<path class="stab8" d="M140.4,292.8c-3.8,2.1-6.8-0.4-10-1.6c0.2-12.3,1.6-24.8,0.3-36.9c-1-9.6,5.7-22.5-9-27.8
	c-0.1-1.7-0.3-3.4-0.4-5C113,205,110.9,188.2,119,171c6.2-1.5,8.6,5.7,13.9,6.1c-0.6,10.5-7.1,21.9-1.2,31.1
	c9.4,14.5,14.4,29.3,17.6,46.3C152.2,270.1,150.4,281.7,140.4,292.8z"></path>
<path class="stab8" d="M132.3,154.6c22-3.9,43.6,5.2,65.6,2.1c7.8,2,17.8-5.1,23.6,5.4c-2.7,5.8-12.5,6-11.3,14.7
	c-3.2,0.3-6.4,0.6-9.6,0.8c-17.9-8.1-39-0.4-56.4-11.6c-1.4-0.9-5.2,1.7-7.8,2.7c-0.6-2.3-1-5.1-3.8-5.6
	C118,160.6,131.3,157.4,132.3,154.6z"></path>
<path class="stab8" d="M244.8,154.2c9.6-3.4,16.8,5.2,25.7,5.3c5.6,4.6,12.2,2.2,18.4,2.9c2.5,3.4,5.5,9.6,9.1,7.4
	c13-7.9,16,4.1,22.2,9.8l-0.7,0.9l-1.1-0.2c-1-0.1-2.1-0.3-3.1-0.4c-26.1,2.5-51.3-4-76.7-8.1c-2-0.9-4-1.9-6-2.8
	c-0.6-5-6.7-2.8-8.4-6.4C232.6,163.6,239.4,160.5,244.8,154.2z"></path>
<path class="stab2" d="M320.3,179.6c-6.2-5.7-9.2-17.7-22.2-9.8c-3.6,2.2-6.7-4-9.1-7.4c5-1.6,12.5,3.1,14.4-5.9
	c7.2-2.3,15.8-2.9,21.4-7.3c6.7-5.3,9.4,0.9,13.9,1.7C340.8,165.8,326.1,169.8,320.3,179.6z"></path>
<path class="stab6" d="M210.4,386.3c23.1-9.5,46.7-7.8,70.6-3.4c3.6,0.7,4.9,2.3,5.6,5.3c-1.2,1.4-2.4,2.9-3.6,4.3
	c-17.1-10.1-34-10.2-51.7-0.9C223.9,395.5,214.1,400.7,210.4,386.3z"></path>
<path class="stab2" d="M244.8,154.2c-5.4,6.4-12.2,9.4-20.6,8.3c-0.9-0.1-1.8-0.2-2.7-0.4c-5.9-10.6-15.8-3.5-23.6-5.4
	C212.9,144.2,228.5,141.9,244.8,154.2z"></path>
<path class="stab10" d="M119,171c-8.1,17.2-6,33.9,2.2,50.4c-14.7-9.9-17.8-19.3-12.6-35.4c1.5-4.5,1.1-9.6,1-14.4
	c-0.1-6,2.3-9.2,8.4-9.4C118.4,165.2,118.7,168.1,119,171z"></path>
<path class="stab6" d="M288.7,409.4c-18.3-3.9-36.8-3.5-55.3-3.5c2-6.8,7.6-8.7,13.2-7.4c12.7,3.1,26.2,0.3,38.4,5.9
	C286.2,406.1,287.5,407.8,288.7,409.4z"></path>
<path class="stab10" d="M121.7,226.5c14.8,5.3,8.1,18.2,9,27.8c1.3,12.2-0.1,24.6-0.3,36.9c-0.9,0.4-1.8,0.8-2.7,1
	C128.8,270,125.1,248.2,121.7,226.5z"></path>
<path class="stab10" d="M288.7,409.4c-1.2-1.7-2.5-3.3-3.7-5c14-6.4-2.9-7.7-2-11.9c1.2-1.4,2.4-2.9,3.6-4.3
	c8.2-1.2,13.6,6.9,21.6,6.4c2.6,11.3-6.5,7.6-11.6,9.1C296,408.5,293.6,410.8,288.7,409.4z"></path>
<path class="stab2" d="M119,171c-0.3-2.9-0.6-5.9-0.9-8.8c0.1-11.3,5.6-12.4,14.2-7.7c-1.1,2.9-14.3,6.1,0.2,8.6
	c2.8,0.5,3.2,3.2,3.8,5.6c-1.8,2.6-4.3,5-3.1,8.7l-0.4-0.3C127.6,176.7,125.2,169.6,119,171z"></path>
<path class="stab10" d="M110.2,280.1c-0.2-12.8-0.4-25.6-0.7-38.4C117.6,254,117.9,270.6,110.2,280.1z"></path>
<path class="stab6" d="M229.7,405.6c-7.6,5.8-15.1,12-25.8,9.3c-0.3-0.9-0.6-1.9-0.9-2.8C211.4,407.8,218.7,399.1,229.7,405.6z"></path>
<path class="stab10" d="M132.8,397.5c-9.3-1.8-4.1-9-4.7-13.7c-0.8-6-0.1-12.2,0-18.4C138.7,374.7,131.4,386.7,132.8,397.5z"></path>
<path class="stab5" d="M303.3,156.5c-1.9,9-9.4,4.3-14.4,5.9c-6.2-0.7-12.9,1.7-18.4-2.9C281,153.7,292.4,157.9,303.3,156.5z"></path>
<path class="stab9" d="M79.9,201.1c-0.1,3.8-2,5.6-5.8,5.2C74.4,202.8,75.2,199.7,79.9,201.1z"></path>
<path class="stab1" d="M296.5,403.8c5.1-1.5,14.3,2.2,11.6-9.1c12.9-10.2,28.2-9.7,43.2-8.7c7,0.5,9.7-0.8,11.8-8.4
	c4-14.7,13-28.5,3.6-44.2c4.2,0.2,8.5,0.4,12.7,0.5c4.7,5.6,5.1,14.1,12.2,18.1c-6.5,14.3-11.7,28.6-10.6,45
	c0.5,6.9-5.6,9.9-13.4,9.8c-16-0.4-32-1.9-48,2.3c-5.7,1.5-9.7,6.7-16,6C301.1,411.4,296.1,409.4,296.5,403.8z"></path>
<path class="stab10" d="M383.5,147.5c3,7.9,1.9,14.7-1.5,22.9c-3.9,9.3-8,21.1,4.4,29c1,12,3.9,23.3,11.6,32.9
	c-1.3,1.5-2.6,2.9-3.9,4.4c-14.4-3.6-18.1-16.6-19.2-27.6C372.8,188.2,371.7,166.7,383.5,147.5z"></path>
<path class="stab2" d="M398,232.3c-7.7-9.6-10.6-21-11.6-32.9c0.8-0.6,1.7-1,2.6-1.3c4.2,1.4,4.6,5.9,7.2,8.6c2.2,6,1.3,13.2,7,17.9
	c-1,2.7-1.9,5.3-2.9,8l-1.2,0.1L398,232.3z"></path>
<path class="stab6" d="M391.6,352c-7.1-4-7.4-12.5-12.2-18.1c0-2-0.1-4-0.1-6C394.4,330.4,391.6,342,391.6,352z"></path>
<path class="stab8" d="M396.2,206.7c-2.6-2.7-3.1-7.2-7.2-8.6c0.4-8.4-1.9-17.4,5.6-24.2C401.9,184.4,394.1,195.8,396.2,206.7z"></path>
<path class="stab11" d="M238.5,171.8c25.4,4.1,50.6,10.5,76.7,8.1c1.8,3.6-2.7,8.9,3.1,11.5c11.5,12.6,8,30.1,14.5,44.5
	c1.7,3.7,2.8,8.1,4.6,12c-12.1,9.4-4.3,24.8-10.8,35.9c-1.4,2.4-2,5.3-3,7.9c-7,10-3.3,19.5,1.1,29c-1.9,5.4,1.3,15.7-2.7,16
	c-11.6,0.8-21,9.1-32.7,8c-3.3-0.3-6.6-1.2-9.9-1.9c-19-9.5-36-3.2-52.7,6.5c-1,0.7-2,1.4-3.1,2c-3.2-4.1-6.4-8.1-9.6-12.2
	c2.9-7,8.8-11.1,14.9-15c4.9,4.3,9.9,2.8,15,0.5c4.4-0.7,8.8-1.3,12.4-4.3c9.6,0.9,19.4-0.3,28.7,3.3c7,5.3,15.4,8.5,20.5-0.4
	c4.4-7.7,10.9-17.9-1.5-25.6c4.5-14-1.7-31.3,13.2-42.2c0.8-0.6,1.2-2.9,0.8-4.1c-4.2-12.4-3.8-25.6-8.2-38.1
	c-3.8-10.8-9.4-16.1-21-15.4c-17.4,1.1-34.6,0.6-48.7-11.9C239.6,181.2,239.1,176.5,238.5,171.8z"></path>
<path class="stab13" d="M318.4,191.3c-5.8-2.6-1.3-7.9-3.1-11.5c1,0.1,2.1,0.3,3.1,0.4C318.4,184,318.4,187.7,318.4,191.3z"></path>
<path class="stab9" d="M238.5,171.8c0.5,4.7,1,9.5,1.5,14.2c-4.3,1.4-9.8-1.7-13.1,4c-10.4,18.5-29.5,15.6-46.2,18.6
	c-6.8-7.4-16.7-6.9-25.2-8.9c-4.9-1.2-10.6,2.5-6.4,10c4.4,7.8,8.6,15.8,12.9,23.7c2.2,7.9-3.9,17.9,6,23.8
	c0.1,11.5-2.3,22.7-4.9,33.9c-0.4,4.3-0.8,8.6-1.3,12.9c-4,4.3-6.6-11.6-11-0.7c-5.5-1.5-7.4-6.6-10.5-10.4
	c10-11.2,11.7-22.8,8.8-38.3c-3.2-17.1-8.2-31.8-17.6-46.3c-5.9-9.1,0.6-20.6,1.2-31.1l0.4,0.3c6.9-1.5,13.4-4.8,21-1.4
	c15.1,6.7,30.8,4.7,46.4,1.6c3.2-0.3,6.4-0.6,9.6-0.8c8.6,0.6,15.2-4.5,22.4-7.9C234.6,169.9,236.6,170.8,238.5,171.8z"></path>
<path class="stab9" d="M214.1,339.2c3.2,4,6.4,8.1,9.6,12.2c-5.2,6.7-2.9,21.6-18.5,16.8c-1.4-3.3-2.8-6.7-7.4-6.1l0.2,0.2
	c-3.4-6.1-7.4-10.6-14.9-5.3c-8.7,0.7-9.9-4.7-9.5-11.5c3.7-8.7,3.2-16.9-3.8-23.7c-3.4-3.3-3.7-6.3-1.1-9.9
	c4.6,4.3,9.2,8.6,13.7,12.9C191.3,333.4,199.8,342.6,214.1,339.2z"></path>
<path class="stab14" d="M168.8,311.8c-2.7,3.6-2.3,6.6,1.1,9.9c7,6.8,7.4,15,3.8,23.7c-8-9.6-8.4-23.1-16.8-32.5
	c-2.5-2.8-4-6.4-5.9-9.6c4.4-10.9,7.1,5,11,0.7C164.2,306.6,166.5,309.2,168.8,311.8z"></path>
<path class="stab12" d="M226.8,349.3c16.6-9.7,33.7-15.9,52.7-6.5C261.4,341.1,244.9,351.9,226.8,349.3z"></path>
<path class="stab3" d="M324.7,320.6c-4.4-9.5-8.1-19.1-1.1-29C328.4,301.1,328.1,310.8,324.7,320.6z"></path>
<path class="stab4" d="M183.1,356.9c7.5-5.3,11.4-0.8,14.9,5.3C193.1,360.1,185.5,366,183.1,356.9z"></path>
<path class="stab4" d="M197.8,362.1c4.7-0.6,6,2.7,7.4,6.1C201.7,367.4,197.6,367.4,197.8,362.1z"></path>
<path class="stab13" d="M200.6,177.7c-15.6,3.1-31.3,5.1-46.4-1.6c-7.6-3.4-14.1-0.2-21,1.4c-1.2-3.7,1.2-6.1,3.1-8.7
	c2.7-1,6.4-3.6,7.8-2.7C161.6,177.3,182.8,169.6,200.6,177.7z"></path>
<path class="stab13" d="M232.6,168.9c-7.2,3.4-13.8,8.5-22.4,7.9c-1.2-8.8,8.6-9,11.3-14.7c0.9,0.2,1.8,0.3,2.7,0.4
	C225.8,166.1,231.9,164,232.6,168.9z"></path>
<path class="stab1" d="M214.1,339.2c-14.3,3.4-22.8-5.8-31.6-14.4c-1.4-14.1-8.2-25.1-19.3-33.6c2.6-11.2,5-22.3,4.9-33.9
	c-1.9-8,6.4-18.5-6-23.8c-4.3-7.9-8.5-15.8-12.9-23.7c-4.2-7.5,1.4-11.2,6.4-10c8.5,2.1,18.4,1.5,25.2,8.9c-0.2,1.4-0.3,2.8-0.5,4.2
	c1.1,2,3,2.4,5.1,2.3c0.4,1.1,0.8,2.1,1.3,3.2c-0.4,5.8-3.5,12.4,4.7,15.6c0.2,1.7,0.3,3.3,0.5,5c0.1,7.7,0.2,15.3,0.3,23
	c-1.4,4-1.7,8.2-3.5,12.3c-2.5,5.6-5.3,12.9,2.5,17.9c4.4,9.1,6.8,23.1,21.4,16.1c11.4-5.4,22.5-4.5,34-4.4c5.9,4,10.4,8.8,9.9,16.7
	c-3.6,3.1-8,3.6-12.4,4.3c-5-0.2-10-0.3-15-0.5C222.9,328.1,217,332.2,214.1,339.2z"></path>
<path class="stab3" d="M180.3,212.8c0.2-1.4,0.3-2.8,0.5-4.2c16.7-3,35.8-0.1,46.2-18.6c3.2-5.7,8.7-2.7,13.1-4
	c14.2,12.5,31.3,13,48.7,11.9c11.6-0.7,17.2,4.5,21,15.4c4.4,12.5,4,25.7,8.2,38.1c0.4,1.2,0.1,3.5-0.8,4.1
	c-14.9,10.8-8.7,28.2-13.2,42.2c-1.5,24.1-1.5,24.1-18.1,23.9c2.7-9.6-3.6-16.2-7.8-23.5c-0.1-2-0.2-3.9-0.3-5.9
	c12.3-3.9,8.2-20.5,19.7-25.2c5.2-2.1,3-4.2,2.1-9c-2.4-11.9-9.9-23.4-5.7-36.3c7.9-16.6,6.8-17.8-16.5-16.9
	c3.1,3.6,10.8,4.3,8.8,9.9c-2.2,6.1-7.6,0.7-11.6,0.8c-7.3,0.2-14.7,0.1-22,0.2c-15.2-7.2-29.8-5-37.2,5.6
	c-9.6-0.9-19.3-1.8-28.9-2.7c-0.4-1.1-0.8-2.1-1.3-3.2C185.7,209.9,181.8,213.9,180.3,212.8z"></path>
<path class="stab7" d="M278.2,297.9c4.2,7.3,10.5,13.9,7.8,23.5c-0.5,0.6-0.9,1.4-1,2.2c-9.3-3.6-19.1-2.4-28.7-3.3
	c0.6-7.8-4-12.6-9.9-16.7c4.7-4.5,9.1-6.3,16.1-3.1C267,302.5,273.8,303.6,278.2,297.9z"></path>
<path class="stab12" d="M285,323.6c0.1-0.8,0.5-1.5,1-2.2c16.5,0.2,16.5,0.2,18.1-23.9c12.4,7.7,5.9,17.9,1.5,25.6
	C300.4,332.1,292,329,285,323.6z"></path>
<path class="stab0" d="M229,324.2c5,0.2,10,0.3,15,0.5C238.9,326.9,233.8,328.5,229,324.2z"></path>
<path class="stab6" d="M163.2,291.1c11.1,8.5,17.9,19.5,19.3,33.6c-4.6-4.3-9.2-8.6-13.7-12.9c-2.3-2.6-4.5-5.2-6.8-7.9
	C162.4,299.7,162.8,295.4,163.2,291.1z"></path>
<path class="stab10" d="M162.1,233.4c12.4,5.3,4.1,15.9,6,23.8C158.2,251.3,164.3,241.3,162.1,233.4z"></path>
<path class="stab8" d="M215.6,221.1c7.4-10.6,22-12.8,37.2-5.6c0.5,1,0.9,2,1.4,3c-5.4,1.6-6,7.4-9.2,10.9
	c-22.5,5.8-25.9,11.1-26.1,40.2c0.1,2.2,0.2,4.4,0.3,6.6c-2,5.5-3.8,10.6,5.6,9.9c5.5-0.4,11.1-0.1,18.3-0.1
	c-17.4,14.2-34,17.4-52.1,6c-7.8-4.9-5-12.3-2.5-17.9c1.9-4.1,2.2-8.3,3.5-12.3c8.8-7.8,8.9-15.4-0.3-23c-0.2-1.7-0.3-3.3-0.5-5
	c4.1-11.7,13.9-5.1,21.2-6.6C216.9,226.4,223.3,227.5,215.6,221.1z"></path>
<path class="stab2" d="M191,292c18.1,11.4,34.7,8.1,52.1-6c-7.2,0-12.8-0.4-18.3,0.1c-9.4,0.7-7.6-4.4-5.6-9.9
	c6.1,7.6,15.2,4.9,21.6,3.2c15.9-4,26.5,3.5,37.2,12.6c0.1,2,0.2,3.9,0.3,5.9c-4.4,5.7-11.2,4.6-15.6,2.6c-7-3.2-11.4-1.4-16.1,3.1
	c-11.5-0.1-22.6-1.1-34,4.4C197.8,315,195.5,301.1,191,292z"></path>
<path class="stab2" d="M215.6,221.1c7.7,6.4,1.3,5.4-3.1,6.3c-7.2,1.5-17.1-5.2-21.2,6.6c-8.1-3.2-5-9.8-4.7-15.6
	C196.3,219.2,205.9,220.1,215.6,221.1z"></path>
<path class="stab2" d="M191.8,238.9c9.2,7.6,9.1,15.2,0.3,23C192,254.2,191.9,246.5,191.8,238.9z"></path>
<path class="stab15" d="M180.3,212.8c1.6,1.1,5.4-2.8,5.1,2.3C183.3,215.2,181.4,214.8,180.3,212.8z"></path>
<path class="stab1" d="M277.9,292c-10.7-9.1-21.3-16.6-37.2-12.6c-6.4,1.6-15.5,4.4-21.6-3.2c-0.1-2.2-0.2-4.4-0.3-6.6
	c12,0.8,21.8-3.1,28.7-13.3c6.4,6.1,15.1,1,22.2,4.6c3.3,1.7,6.6-1.2,6.7-5.4c0.1-3.9-3-4.4-6-4.5c-4.8-0.3-9.7-0.5-14.5-0.8
	c8.7-8.5,6.2-14.1-4.6-17.6c-2.2-0.7-4.2-2.1-6.3-3.2c3.2-3.5,3.8-9.2,9.2-10.9c13,4.8,26.6,1.4,39.8,3c-4.3,12.9,3.3,24.4,5.7,36.3
	c1,4.8,3.1,6.9-2.1,9C286.1,271.5,290.3,288.2,277.9,292z"></path>
<path class="stab15" d="M294,221.5c-13.2-1.7-26.8,1.8-39.8-3c-0.5-1-0.9-2-1.4-3c7.3,0,14.7,0,22-0.2c4-0.1,9.4,5.3,11.6-0.8
	c2-5.7-5.7-6.3-8.8-9.9C300.7,203.6,301.9,204.9,294,221.5z"></path>
<path class="stab6" d="M247.5,256.2c-6.8,10.3-16.7,14.1-28.7,13.3c0.2-29.1,3.6-34.5,26.1-40.2c2.1,1.1,4.1,2.5,6.3,3.2
	c10.8,3.5,13.3,9,4.6,17.6C251.6,250.1,249,252.3,247.5,256.2z"></path>
<path class="stab5" d="M247.5,256.2c1.5-3.8,4.1-6.1,8.3-6.1c4.8,0.3,9.7,0.5,14.5,0.8c3,0.2,6.1,0.6,6,4.5c-0.1,4.2-3.4,7-6.7,5.4
	C262.6,257.2,253.9,262.3,247.5,256.2z"></path>
</svg>
