<svg version="1.1" id="Layer_1" xmlns="http://www.w3.org/2000/svg" xmlns:xlink="http://www.w3.org/1999/xlink" x="0px" y="0px" viewBox="0 0 501.3 503.3" style="enable-background:new 0 0 501.3 503.3;" xml:space="preserve">

<style type="text/css">
	.stbd0{fill:#0F0806;}
	.stbd1{fill:#69A508;}
	.stbd2{fill:#FDEACF;}
</style>
<path class="stbd0" d="M306.7,108c1.4-7.2,10.6-7.4,12.4-14.1c4.7-3.2,9.5-6.5,14.2-9.7c3.2-0.1,6.4-0.2,9.6-0.3
	c2.5,4.2,11.2-0.1,10.9,6.6c-0.6,11.9,2.9,5.9,6.3,1.9c1.8-2.1,3.6-4.8,6.8-3.2c3.2,1.6,2.4,4.6,1.2,7.2c-0.8,1.8-2,3.5-0.1,5.3
	c2.2,0.2,3.8-0.7,5.1-2.3c2.1-2.5,4.6-5.2,8-3.1c4.1,2.5,0.7,5.6-0.6,8.2c-2.2,4.3-0.5,5.8,3.6,6c3.4,0.2,3.6,2.4,4.7,5.2
	c2.4,6.1-0.4,16.6,0.8,17c12.5,5.1,2,11.1-0.4,12.5c-8.9,5.5-9.4,10.6-1.9,17.2c-9.3,4.9-19.8,8.5-27.7,15.2
	c-8.3,7-14.1,5.9-21.1-1.3c-0.2,2.2-0.2,3.4-0.5,4.5c-0.8,3,3,7.9-2.8,8.6c-5.4,0.6-6-4.2-6.5-8.1c-0.4-3.1-0.2-6.4-0.8-9.5
	c-0.5-2.6-2.5-7.5-3.3-6.7c-7.3,7.6-11.2-2.9-16.8-2.7c-4.7,0.2-8.3-2.4-9.5-5.7c-1.5-4,4.3-4.8,6-7.7c8.5-9.1,7.4-13.6-4.4-19.3
	c-1.5-2.6-0.4-4.9,0.8-7.1c1.3-0.5,2.7-1,4-1.4c3.2,0.6,6.5,1.4,4-3.9C308,114.2,307.4,111.1,306.7,108z M346.6,121.5
	c-12.2-0.4-17.7,4.9-18.2,14.3c-0.5,8.3,5.9,15.9,13.7,16.2c10.4,0.4,17.1-6.6,17.6-17.8C360.4,121.8,352.3,121.1,346.6,121.5z"></path>
<path class="stbd0" d="M107.5,135.7c8-3.6,17.6-5.8,14.8-18.1c1.4-7.3-5.9-10.3-7.8-16c4,0,7.1-6.2,10.5-3.5
	c11.1,8.7,9.6,0.3,10.8-6.7c0.9-5,5.1-7,9.7-3.7c9.4,6.8,8.2,0.7,7.4-5.6c-0.3-2.3-0.1-4.6-0.1-6.9c6.3-4.7,11.2,5.2,13.6,3.4
	c12.5-9.1,13.1,0.6,15,9.9c3.6-4.7,6.2-8.5,9.2-12c2.3-2.6,5.8-3.5,8.4-1.1c2.8,2.6,3.5,6.2-0.7,8.8c-3.2,1.9-4,4.5-2.1,9.7
	c9.2-14.1,13.2,2.1,20.4,2.4c0.1,1.7,0.2,3.5,0.4,5.2c-2.7,2-9,2-6.6,6.8c1.4,2.8,4.7-0.7,6.3-3.1c1.6-0.2,3.2-0.4,4.9-0.6
	c0.5,2.6,1,5.3,1.5,7.9c-1.2,3.1-10,7.8,2.1,7.9c3.1,0,2.4,4.1,1.8,6.8c-7.8,3.6-1.4,9.2-2,13.8c-3.2,8.4-23.1,7-13.3,22.9
	c0.2,0.3-0.7,1.3-1.2,1.9c-4.2,5.1-8.3,10.1-12.5,15.2c-3.8,0.6-9.9-0.2-11.2,1.9c-8.1,13.7-14.8,5.6-21.5-1.3
	c-3.3,6.3-9.3,10.6-12.4,3.9c-2.9-6.3-3.3-4.5-7.2-2c-6.3,4.1-12.3,6.1-10.3-5.7c0.7-4.1-2.2-3.1-4.4-2.9c-1.6-0.1-3.2-0.2-4.7-0.2
	c-2.3-0.2-4.5-0.4-6.8-0.5c0,0,0.2,0.1,0.2,0.1c-3.2-5.3-5.5-10.3,3.9-11.4c1.4-0.2,3-0.4,3.3-2.5c0.8-5.6-8.1-16.2-14.7-17.1
	c-0.9-1.4-1.8-2.9-2.7-4.3C110,137.2,109.2,136.2,107.5,135.7z M168.7,122c-8.8,0-13.8,4.8-14,13.6c-0.3,9.5,6.5,17.9,14.5,18.1
	c6.7,0.1,16.8-9.8,16.6-16.3C185.6,127.5,179.4,122,168.7,122z"></path>
<path class="stbd1" d="M346.6,121.5c5.7-0.4,13.7,0.3,13.1,12.7c-0.5,11.2-7.2,18.2-17.6,17.8c-7.8-0.3-14.2-7.9-13.7-16.2
	C328.9,126.4,334.5,121.1,346.6,121.5z"></path>
<path class="stbd2" d="M107.5,135.7c1.7,0.5,2.5,1.5,1.9,3.3c0,0-1.1,0-1.1,0s-1.1,0-1.1,0C107.3,137.9,107.4,136.8,107.5,135.7z"></path>
<path class="stbd1" d="M168.7,122c10.7,0,16.9,5.5,17.1,15.3c0.1,6.5-10,16.4-16.6,16.3c-8-0.1-14.8-8.6-14.5-18.1
	C154.9,126.8,159.9,122,168.7,122z"></path>
</svg>
