<svg version="1.1" id="Layer_1" xmlns="http://www.w3.org/2000/svg" xmlns:xlink="http://www.w3.org/1999/xlink" x="0px" y="0px" viewBox="0 0 501.3 503.3" style="enable-background:new 0 0 501.3 503.3;" xml:space="preserve">

<style type="text/css">
	.stba0{fill:#30545F;}
	.stba1{fill:#49603B;}
	.stba2{fill:#AB4937;}
	.stba3{fill:#9C5484;}
	.stba4{fill:#919732;}
</style>
<path class="stba0" d="M201,178c-4.7,3.6-9.2,7.4-15.6,7.4c-0.3-2.5-0.7-4.9-1-7.4c0.7-1.8,1.5-3.6,2.2-5.4c0,0,0.1-0.8,0.1-0.8
	c11.5-8.5,15.5-20.2,12.9-33.7c-1.7-8.5-6.6-15.2-16.9-15.3c-2.3,5.5,4.8,7.7,3.5,12.4c-5.1,1-8.6-2.2-12.5-4.5
	c-8.1-0.4-17.5-3.3-21,7.6c-2.8,8.8,1.1,15.3,9.7,18.8c0,1.6,0,3.3,0,4.9c-16.5-1.9-22.3-10.9-17.3-26.3c1.2-3.6,5.3-6.4,3.2-10.9
	c2.4-0.2,4.7-0.3,7.1-0.5c6.5,0,13,0,20.7,0c-7.9-9.2-7.9-9.2-19.1-2.4c-2.8-3.5-6.6-2.3-10.1-2.2c-4.2-1.4-6.1-4.3-5.4-8.8
	c3.8-1.1,7.5-2.1,11.3-3.2c0,0,1,0,1,0c0.9-0.5,1.7-1,2.6-1.5c3.1-1.1,6.1-2.3,9.2-3.4c1.8,0.8,3.5,1.6,5.3,2.4
	c5.1,6.5,12,1.8,17.9,3C214.8,131.1,216.7,142.2,201,178z"></path>
<path class="stba1" d="M148.3,124.9c2.1,4.5-2.1,7.3-3.2,10.9c-5,15.3,0.8,24.3,17.3,26.3c7.3,4.9,13.2,2.8,18.5-3.4
	c5.3-6.3-1.5-9.2-3.8-13.4c-1.2-2.3-2.8-4.5-4.2-6.7c0.3-2.6,0.6-5.2,0.9-7.8c3.9,2.4,7.4,5.6,12.5,4.5c10.3,7.3,5.4,16.3,2.5,24.8
	c-1.3,3.9-6.5,6.9-1.9,11.7c0,0-0.1,0.8-0.1,0.8c-3.6,0.1-7.1,0.1-10.7,0.3c-28.1,1.7-39.4-8.9-39.6-37.4c0-3.3-1.2-4.9-4.4-5.3
	c-0.7-1.8-1.4-3.7-2.1-5.5c6.6-4.4,4.9-10.1,2.6-15.9c4.3-1,2.3-2.6,0.5-4.3c0.1-3.8,2.6-2,4.3-1.8c0,2.3,1.1,3.8,3.2,4.7
	c0.3,1.2,0.7,2.5,1,3.7c-0.6,4.4,1.2,7.4,5.4,8.8C147.4,121.5,147.9,123.2,148.3,124.9z"></path>
<path class="stba2" d="M188.8,108.3c-6-1.2-12.9,3.5-17.9-3c4.7-3.6,3-8.9,3.7-13.5c0.4-2.3,1-4.4,3.6-4.8c2.8-0.4,3.9,1.7,4.7,3.8
	C184.9,96.5,186.8,102.4,188.8,108.3z"></path>
<path class="stba2" d="M165.6,102.8c-3.1,1.1-6.1,2.3-9.2,3.4c-0.2-0.4-0.4-0.8-0.6-1.2c-2.9-5.9-8-14.2-0.1-17.2
	c6.4-2.4,5.6,8.2,8.6,12.6C164.8,101.2,165.1,102.1,165.6,102.8z"></path>
<path class="stba2" d="M153.8,107.8c0,0-1,0-1,0C152.8,107.8,153.8,107.8,153.8,107.8z"></path>
<path class="stba1" d="M379.1,103.9c2.9,12.8,9.6,8.3,17,2.6c3.1,8.3-4,12.6-5.3,18.5c0.6,1.4,1.1,2.9,1.7,4.3
	c0.1,2.1,0.3,4.3,0.4,6.4c-1.3,1-2.6,1.9-3.9,2.9c-2.5-1.2-4.1-3-5.3-5.7c-7.5-16.5-17.9-21.7-36.5-19c-5.3-2.6-10.7-5.2-16-7.8
	c1.4-1,2.9-2,4.3-3l0.3,0c1.7-0.3,3.3-0.7,5-1c1.6-0.2,3.2-0.4,4.9-0.5c1.2-0.5,2.4-1,3.6-1.4c0.4-0.4,0.9-0.7,1.5-0.8
	c3.8,2.9,7.7,3.7,11.8,0.7c2,0.7,3.9,1.4,5.9,2C371.9,102.7,375.5,103.3,379.1,103.9z"></path>
<path class="stba3" d="M122.6,134.2c2.5,0.1,5,0.1,7.4,0.1c-0.1,4.5-0.2,9-0.4,13.5c-0.9,15,5.5,27.3,18,33.8
	c11.9,6.3,25.3,5,36.8-3.7c0.3,2.5,0.7,4.9,1,7.4c-5.8,11-23.4,21.5-33.4,20.1c-10.5-1.5-22.4-15.1-25.3-28.2
	c-1.8-8.2-4.5-16.2-6.8-24.2c0-0.9,0-1.8,0-2.7C120.7,145,121.6,139.6,122.6,134.2z"></path>
<path class="stba3" d="M335.3,189.5c-0.3-3.7-0.6-7.4-0.9-11.1c5.3,0.2,10.6,0.8,15.8,0.6c11.5-0.6,23-1.7,28.9-14
	c9.3-6.5,11.7-15.6,9.8-26.3c1.3-1,2.6-1.9,3.9-2.9c0.7,0,1.4,0,2.1,0.2c0.1,1.6,0.2,3.2,0.3,4.7c-0.1,3.7-0.1,7.4-0.2,11
	c-0.1,1.6-0.3,3.2-0.4,4.8c-3.7,9.2-7.4,18.5-11.2,27.7c-0.4,1.1-0.7,2.2-1.1,3.2c-8,7.6-14.6,17.6-27.7,17
	C347.3,200.6,340.1,196.7,335.3,189.5z"></path>
<path class="stba2" d="M184.3,178c-11.5,8.6-24.9,9.9-36.8,3.7c-12.5-6.6-18.8-18.9-18-33.8c0.3-4.5,0.3-9,0.4-13.5
	c0.7-1.4,1.3-2.8,2-4.2c3.2,0.4,4.4,2,4.4,5.3c0.2,28.5,11.5,39.1,39.6,37.4c3.5-0.2,7.1-0.2,10.7-0.3
	C185.8,174.4,185.1,176.2,184.3,178z"></path>
<path class="stba2" d="M172.9,138.6c1.4,2.2,2.9,4.4,4.2,6.7c2.2,4.2,9.1,7.1,3.8,13.4c-5.2,6.2-11.2,8.3-18.5,3.4c0-1.6,0-3.3,0-4.9
	C165.2,150.6,155.1,136.7,172.9,138.6z"></path>
<path class="stba4" d="M186.7,171.8c-4.6-4.8,0.6-7.8,1.9-11.7c2.9-8.5,7.8-17.5-2.5-24.8c1.3-4.7-5.8-6.9-3.5-12.4
	c10.3,0,15.2,6.8,16.9,15.3C202.3,151.6,198.2,163.3,186.7,171.8z"></path>
<path class="stba4" d="M172.9,138.6c-17.8-1.9-7.7,12-10.5,18.6c-8.5-3.5-12.4-10.1-9.7-18.8c3.4-10.9,12.9-8,21-7.6
	C173.4,133.4,173.2,136,172.9,138.6z"></path>
<path class="stba1" d="M157.1,122c11.1-6.7,11.1-6.7,19.1,2.4c-7.7,0-14.2,0-20.7,0C156,123.6,156.5,122.8,157.1,122z"></path>
<path class="stba4" d="M157.1,122c-0.6,0.8-1.1,1.6-1.7,2.4c-2.3,0.2-4.7,0.3-7.1,0.5c-0.5-1.7-0.9-3.4-1.4-5.2
	C150.5,119.7,154.3,118.5,157.1,122z"></path>
<path class="stba2" d="M368.4,102.2c3.5-4.3,7-8.6,10.6-12.8c11,4.7,4.2,9.6,0.2,14.5C375.5,103.3,371.9,102.7,368.4,102.2z"></path>
<path class="stba3" d="M392.4,129.4c-0.6-1.5-1.1-2.9-1.7-4.3C392.7,125.9,393.7,127.2,392.4,129.4z"></path>
<path class="stba0" d="M330.5,176c-6.6,1.2-10-3.4-12.7-7.9c-11-18.1-4.2-48.8,13.4-61.9c5.3,2.6,10.7,5.2,16,7.8
	c-0.4,1.4-0.7,2.7-1.1,4.1c-17.1,1.8-24.5,8.8-25.7,24.9C319.5,155.3,326.7,165.1,330.5,176z"></path>
<path class="stba2" d="M346.1,118.2c0.4-1.4,0.7-2.7,1.1-4.1c18.6-2.8,29,2.5,36.5,19c1.2,2.7,2.8,4.4,5.3,5.7
	c1.9,10.7-0.4,19.8-9.8,26.3c-1.2-2.9-3.3-4.8-6.2-5.8c-0.1-0.4-0.3-0.9-0.4-1.3c6.8-2.1,8.1-7.7,8.4-13.7
	c0.7-14.5-9.9-23.4-28.4-24.2C350.3,119.4,348.2,118.8,346.1,118.2z"></path>
<path class="stba2" d="M357.1,81.5c1.8-0.1,3.6-0.1,5.4-0.2c0,6.3,0,12.5,0,18.8c-4.1,3-8,2.2-11.8-0.7
	C353.4,93.7,357.9,88.5,357.1,81.5z"></path>
<path class="stba2" d="M345.6,101.7c1.2-0.5,2.4-1,3.6-1.4C348,100.8,346.8,101.2,345.6,101.7z"></path>
<path class="stba4" d="M346.1,118.2c2.1,0.6,4.3,1.2,6.4,1.9c-0.2,2.5-0.5,5.1-0.7,7.6c-0.1,0.8-0.1,1.7-0.1,2.5
	c-4.5,0.3-10-1.1-10.7,6c-0.2,1.8-0.4,3.6-0.5,5.4c-6.5,1-4.4,5.7-4,9.6c2.1,5.2,4.4,10.3,10.9,11.3c0.5,5.7,3.7,7.2,9.1,6.6
	c7.2-0.7,12.1-4.9,16.6-9.9c2.9,1.1,5,2.9,6.2,5.9c-6,12.3-17.4,13.4-28.9,14c-5.3,0.3-10.5-0.4-15.8-0.6c-1.3-0.8-2.6-1.6-3.9-2.4
	c-3.7-10.9-11-20.8-10.1-33C321.6,127,328.9,120,346.1,118.2z"></path>
<path class="stba1" d="M351.8,127.6c0.2-2.5,0.5-5.1,0.7-7.6c18.5,0.7,29.1,9.7,28.5,24.2c-0.3,6-1.6,11.5-8.4,13.7
	c-6-1.3-9.8,5.1-15.6,4.6c0.9-9.5-9-16.9-5.5-27c7.5-1.7,12.7,4.7,22.2,7.6C368,131.8,361.6,127.2,351.8,127.6z"></path>
<path class="stba0" d="M357,162.4c5.8,0.5,9.6-5.9,15.6-4.6c0.1,0.4,0.3,0.9,0.4,1.3c-4.5,4.9-9.4,9.1-16.6,9.9
	c-5.4,0.6-8.6-0.9-9.1-6.6C350.5,162.4,353.7,162.4,357,162.4z"></path>
<path class="stba2" d="M357,162.4c-3.2,0-6.5,0-9.7-0.1c-6.5-1-8.8-6.1-10.9-11.3c4.6-1.8,3.6-6,4-9.6c0.2-1.8,0.4-3.6,0.5-5.4
	c3.6-0.2,7.1-0.4,10.7-0.6l-0.1-0.1C348,145.5,357.8,152.9,357,162.4z"></path>
<path class="stba2" d="M351.8,127.6c9.8-0.4,16.2,4.2,22,15.4c-9.5-2.8-14.7-9.3-22.2-7.6c0,0,0.1,0.1,0.1,0.1c0-1.8,0-3.6,0-5.5
	C351.7,129.3,351.7,128.4,351.8,127.6z"></path>
<path class="stba1" d="M340.4,141.5c-0.4,3.6,0.6,7.7-4,9.6C336,147.2,333.9,142.5,340.4,141.5z"></path>
<path class="stba1" d="M351.6,130.1c0,1.8,0,3.6,0,5.5c-3.6,0.2-7.1,0.4-10.7,0.6C341.6,129,347.1,130.4,351.6,130.1z"></path>
</svg>
