<svg version="1.1" id="Layer_1" xmlns="http://www.w3.org/2000/svg" xmlns:xlink="http://www.w3.org/1999/xlink" x="0px" y="0px" viewBox="0 0 501.3 503.3" style="enable-background:new 0 0 501.3 503.3;" xml:space="preserve">

<style type="text/css">
	.stbb0{fill:#2B2938;}
	.stbb1{fill:#827C76;}
	.stbb2{fill:#514C60;}
	.stbb3{fill:#756C63;}
	.stbb4{fill:#8A847F;}
	.stbb5{fill:#B4B3B2;}
	.stbb6{fill:#CFCFCD;}
	.stbb7{fill:#BEBCBA;}
	.stbb8{fill:#98948F;}
	.stbb9{fill:#A8A4A0;}
	.stbb10{fill:#9E9A97;}
	.stbb11{fill:#ADABA9;}
	.stbb12{fill:#2704B7;}
	.stbb13{fill:#928E89;}
	.stbb14{fill:#C5C4C6;}
</style>
<path class="stbb0" d="M212.6,161.9c-0.5,0.2-1,0.4-1.4,0.5c-3-0.4-3.8,2.1-4.9,4c-0.6,1.1-0.8,3,1.4,3.4c0.2,1.9,2.1,4.3,0,5.5
	c-1.8,1.1-4.6,1.8-6.4-0.8c0.1-1.3-0.3-2.3-1.9-2.1c-1.1,0.2-2.2,0.4-3.3,0.6c-1.7,1.4-4.5,2.1-3.3,5.4c1.1,3.1-0.4,3.8-3.1,3l0,0
	c0.1-1.5-0.6-2.6-2-2.3c-1.7,0.4-4.3-0.1-4.5,2.8L183,182c-1.7,0.7-1.8,1.6-0.2,2.6c0.1,0.5,0.2,1,0.2,1.6c-2.1,1.1-2.1,2.2,0,3.3
	c0,0.5,0,1.1,0,1.6c-3,0.9-2.7-2.5-4.3-3.4c-0.1-0.6-0.3-1.2-0.4-1.8c-0.1-1.2-0.9-1.5-1.9-1.3c-3.9,0-7.5,0.2-8.4,5.5
	c-0.3,1.7-0.8,6.1-5.2,4.2c-0.2-0.8-0.3-1.6-0.5-2.5c-0.7-2.5,2.8-6.6-2.9-7c-1.4-0.2-2.8-0.3-4.3-0.5c-4.9-0.3-5.4,3.1-5.7,6.7
	c-0.2,0.1-0.2,0.2-0.1,0.4c-1.1,0.8-2.4,0.9-3.6,0.8l-0.3,0.2l0.3-0.2c-0.5-1.1,0.2-2.8-1.7-3.1c0-0.3-0.1-0.7-0.1-1
	c1.9-1.9,2.8-3.7-0.1-5.5c-0.8-1.2-1.8-1.9-3.2-1.7c-3.1-3-6.3-1.7-7.8,3.3c-0.2,0.2-0.4,0.5-0.6,0.7c-1.8,0.8-3.6,2.2-5.5,0.1
	c0-0.9,0-1.8,0-2.7c3.7-3.1,4-9.1,0.7-11.2h0.1c-1.7-3.5-5.2-5.5-6.8-3.9c-1.1,1.1-2.4,1.8-3.5,2.7c-1.2,1.1-2.3,3-4,1.6
	c-1.9-1.6-0.1-3.4,1-4.5c4.2-3.9,3.4-9.2-3.5-12.2c-0.6-2.8-2.7-1.4-4.2-1.5c-1.3-0.2-2.7-0.4-4-0.6c-0.8-0.1-1.6-0.3-2.4-0.4
	c-1.5-1.9-3.5-2.7-5.8-3.1c-0.3-0.9-0.6-1.7-0.9-2.6c2-1.4,4.2-0.9,5.5,0.6c1.9,2.1,3.9,1.8,6.2,1.4c1.6-0.3,3.2-0.3,4.8-0.4
	c0.3,0.1,0.5,0.2,0.8,0.3c0.3,1,1,1.3,2,1c0.2,0.1,0.4,0.2,0.6,0.3c0.1,1.7,0.9,2.5,2.7,2.1c1.3,0.4,2.6,0.8,3.8,1.2
	c0.1,1.7,1,2.4,2.7,2.1c2.8,1.7,2.8,5.9,6.2,7.1c0.3,0.2,0.6,0.5,0.9,0.7c0,1.6,1,2,2.4,1.8c0.4,0.5,0.8,0.9,1.1,1.4
	c-0.3,1.7,0.4,2.6,2.2,2.7c0.3,0.2,0.5,0.5,0.8,0.7c0,1.7,1,2.3,2.6,2.2c0.8,0.8,1.8,1.3,3,1.1c0.1,1.2,0.7,1.7,1.8,1.7
	c1.1,0.3,2.2,0.5,3.3,0.8c0.5,0.6,1.1,0.5,1.7,0.4c1,0.1,2,0.3,3.1,0.4c1.5,2.5,3,2.3,4.5,0c1.3,0,2.6,0,3.9,0
	c3.1,2.5,9.4,2.3,12.1-0.4c1.4-0.2,2.9-0.5,4.3-0.7c2.5,0,5.1,0.7,6.8-2.1c0.9,0.1,1.8,0,2.4-0.8c1.5-0.4,3.3-0.3,3.3-2.6
	c0.8-0.4,1.6-0.7,2.4-1.1c1.3-0.2,1.8-1,1.7-2.2l0,0c2.1-0.3,3.6-1.5,5.4-2.7c6-3.9,11.9-8,19.3-8.9c1.6,0,3.2,0.1,4-1.7
	c0.5-0.2,0.9-0.6,1.4-0.7c1.4-0.3,2.4-1.4,2.2-2.5c-0.3-1.6-2.1-0.9-3.1-0.7c-2.5,0.3-4.8-0.3-7.2-0.8c-0.4-2.3-2.5-1.3-3.8-1.9
	c-1.1-0.5-2.2-1-3.3-1.6c-0.1-1.6-1.3-1.6-2.5-1.7c-0.1-0.1-0.3-0.2-0.5-0.2c-1.6-1.3-2.9-3.1-5.3-3c-1-0.9-1.4-2.1-1.6-3.3
	c-1.8-4.8-3.9-2.2-5.9-0.2H192c-1.3,0.1-2.9-0.2-2.9,1.9c-0.3,0.1-0.6,0.2-0.8,0.4c-0.9-0.3-1.6,0.1-2.1,0.8c-1.5,0.7-3.8-0.5-4.5,2
	c-1.1,0.2-2.1,0.3-3.2,0.5c-4.9,0.1-9.9,0.3-14.8,0.4c-2.5-1.4-6.2,0.3-8.1-3c-0.4-0.9-1.2-1.1-2.1-0.8c-0.2,0-0.4-0.1-0.6-0.2
	c-0.1-2-1.6-1.8-2.9-1.9c-0.4-0.3-0.7-0.6-1.1-0.9c0.1-1.9-1.2-2.3-2.7-2.5c-0.2-0.1-0.3-0.2-0.4-0.4c-0.3-0.8-1-1.1-1.8-1l0,0
	c0.1-1.2,0-2.2-1.3-2.5l-0.2-0.2c0-1.3-0.6-2.2-2-2.3c-0.3-0.4-0.6-0.8-0.8-1.2c0.3-1.6-0.3-2.6-2.1-2.7c-0.2-0.2-0.3-0.4-0.3-0.6
	c-0.2-2.5,0.4-5.6-2.6-6.5c-2.7-0.9-9.4,3.9-10.5,6.9l-0.1,0.2c-1.5,0.5-3.1,1-3.2,3c-0.2,0.2-0.4,0.3-0.7,0.4
	c-5.5,1-6.4,6.1-9.1,9.7c-0.8,1-2,0.9-3.1,1.1c-1.2-0.2-1.7,0.4-1.7,1.5l0.1,0.2c-3.6-0.4-5.7,2.5-8.6,3.8c-1.3-0.2-2.7-0.5-4-0.7
	c0.3-0.9,0.5-1.8,0.8-2.7c2.3,0.1,1.7-1.7,1.9-3c0.3-0.3,0.6-0.6,0.8-0.9c1.2,0,2.3,0,2.4-1.6c3.8-1.2,8.2-1.2,11-4.8
	c1.6-0.1,2.3-1,2.1-2.5c0.5-2.8,4.2-3.4,4.3-6.5l0,0c1-0.4,2.1-0.7,3.1-1.1c1.6,0.2,2.5-0.4,2.6-2.1c0.2-0.2,0.4-0.3,0.7-0.4
	c1.8-0.1,3.5-0.1,2.8-2.7l0.2-0.2c3.7,1.1,3.6-1.3,3.5-3.7c0.5-2.1,2.7-3.3,2.7-5.6c1.7,0.2,1.4,1.6,1.7,2.8
	c0.8,4.1,4.2,1.6,6.4,2.3c2.3,0.8,1.3-1.6,1.7-2.6c0.5,0,1.1-0.1,1.6-0.1c0.9,1.2,1.4,0.5,1.7-0.5l0.2-0.1c1.7-0.1,3.2-0.2,3-2.5
	c0.1-0.2,0.2-0.3,0.4-0.3c0.4-0.2,0.8-0.4,1.2-0.6c2.1-0.7,3.9,1.9,6.1,0.6c0.7,0.1,1.5,0.1,2.2,0.2c0.5,0.8,1.1,0.8,1.6,0
	c3.5-0.3,4.4-3.4,5.7-5.8s2.9-3.8,5.7-3.2c0.2,0.8,0.3,1.6,0.5,2.4c-0.3,0.9-0.3,2.1-0.8,2.6c-2.4,2.3-1,3.4,1.1,4.3
	c0,0.2,0.1,0.4,0.3,0.4c1.5,3.5,4.1,3,6.9,1.8c1.4-0.1,2.1-0.9,2.1-2.3c0.3-0.4,0.5-0.7,0.8-1.1c1.6,0,2.5-0.7,2.4-2.3
	c0.3-0.3,0.6-0.6,1-0.9c1.5-0.2,2.3,0.6,2.7,1.9c-0.1,0.5-0.2,1-0.2,1.4c-3.6,0.7-3.6,4.2-4.8,6.6c-0.6,1.2,1.2,1.4,2.3,1.3
	c2.5,0.1,4.9-0.5,7.1-1.6c3.8,0.6,3.2,2.6,1.5,4.8c-1.2,1.5-3.6,2.6-2.4,5c1.1,2.3,3.4,1.8,5.5,1.8c1.1,0,2.2-0.1,3.3-0.1
	c1.2,0,2.6-1.6,3.6,0.3c0.7,1.4-0.6,2.1-1.4,3c-1.2,1.5-1.1,3.4-0.4,5c0.5,1.2,1.8,1,2.8,0.1c0.8,0,1.7-0.1,2.5-0.1
	c0.2,0.1,0.5,0.1,0.7,0.2c0,1.3,0.1,2.7,0.1,4c-0.1,0.7-0.2,1.5-0.4,2.2c-2.7,1.1-2.7,2.2-0.6,4.4c3.5,3.6,7.3,3.8,11.6,2.2
	c3,0.1,5.9,1.6,9.1,0.9c0.3,0.1,0.5,0.2,0.8,0.3c1.7,3.8,2.8,7.5,0.2,11.4c-0.3,0.4,0,1.1,0,1.6c-0.4,0.1-0.8,0.3-1.3,0.4
	c-1.9-0.6-2.7,0.4-2.8,2.2c-2,0.5-3.9,0.9-5.9,1.4c-0.5,0-1.1,0.1-1.6,0.1C215.8,160.2,213.4,158.9,212.6,161.9z M160.2,133.6
	c0.7,1.6,2.5-0.1,3.1,1c0.7,1.3,1.7,2.1,2.8,1.1c1.4-1.4,0-2.6-1-3.7c-0.3-4.6-3.3-6.8-8.1-5.8c-1.7,0.4-2.9,1.1-3.3,3.1
	c-0.5,2.9,1.7,4.2,3.3,5.7C158.2,136.3,159.1,134.1,160.2,133.6z M184.8,122.9c1.1-0.1,2.5,0.4,2.9-0.9c0.5-1.5-1.2-1.5-2-2.1
	c-1.2-0.9-2.4-1.8-3.6-2.6c-0.8-0.5-1.7-1.1-2.6-0.3c-0.8,0.8-0.6,1.8-0.3,2.7C180.1,122.4,182.5,122.6,184.8,122.9z M169.3,136.3
	c0.7-2.1,1.3-4.2-0.4-6.1C168.6,132.2,168,134.3,169.3,136.3z M162.4,108.8c0-1.1-0.7-1.4-1.6-1.4c-1,0.1-1.4,0.7-1.4,1.6
	c0,0.8,0.3,1.3,1.1,1.4C161.6,110.4,162.3,109.8,162.4,108.8z"></path>
<path class="stbb1" d="M93.5,141.9c1.3,0.2,2.7,0.5,4,0.7c0.2,1.6,0.8,2.8,2.7,2.6c0.2,0.1,0.4,0.1,0.6,0.2c0.6,1.4,1.6,1.6,2.8,1
	c1.6,0.1,3.1,0.1,4.7,0.2c0.5,0.1,1.1,0.3,1.6,0.4c0,0.5,0.1,1,0.1,1.5c-1.6,0.1-3.2,0.1-4.8,0.4c-2.3,0.5-4.3,0.8-6.2-1.4
	c-1.3-1.5-3.5-2-5.5-0.6l-0.3,0.1h-0.4C92.9,145.2,92,143.3,93.5,141.9z"></path>
<path class="stbb1" d="M94.5,136.1c0.6,0,1.1,0.1,1.7,0.1c-0.2,1.3,0.4,3-1.9,3c0-0.8,0-1.5-0.1-2.3C94.4,136.7,94.5,136.4,94.5,136.1
	z"></path>
<path class="stbb1" d="M97,135.3c0-0.5,0-1.1,0-1.6c0.3,0,0.5-0.1,0.7-0.3c0.6,0.1,1.1,0.2,1.7,0.3C99.3,135.2,98.2,135.3,97,135.3z"></path>
<path class="stbb0" d="M380.6,166.4c-0.5-0.7-0.9-1.4-1.9-1.5c-2-2.6-4-2.9-6.7-0.7c-3,2.3-2.8,5.1-2,8c0.6,2.5,0.2,4.1-2.7,4.1
	c-1-0.7-1.2-1.8-1.7-2.7c-1-1.6-1.5-4.3-3.2-4.3c-3.8,0-8-0.9-10.9,2.7c-0.6,0.1-1.2,0.3-1.8,0.4c-2.1-0.2-2,1.3-2,2.6
	c0,2.3,0,4.6,0,6.9c-0.5,0-1,0-1.6,0c-0.1-1.2-0.2-2.4-1.9-2.2c-0.2-0.1-0.4-0.1-0.6-0.2c-0.1-0.5-0.2-1.1-0.3-1.6
	c-0.8-3.2-2.6-5.4-6.1-5.5c-2.6-0.1-5.6-0.5-6.6,3c-0.9,0.6-1.1,1.4-0.9,2.4c-1,0.5-1.7,1.2-1.6,2.5c-0.3,0.3-0.5,0.7-0.8,1
	c-3.6,0.6-4.3-1.2-4.3-4.3c0-1.9,2-4.6-1.5-5.6h-0.1c-1.8-2.9-4.9-3.4-7.6-3c-3.1,0.5-2,3.9-2.3,6.2c-1.5,1-3.2,1.2-4.9,1.1
	c-0.2-0.8-0.9-0.9-1.6-0.9c-0.3-1.1-0.5-2.3-0.8-3.4c0.9-3.9,0.1-6.8-4.1-8.2c-0.6-0.3-1.1-0.5-1.7-0.8c-0.2-2-0.1-4.4-3.3-2.4
	c-1.2-0.5-2.4-0.9-3.5-1.4c0-2.7-2-2.6-3.9-2.8l0,0c0-1.8-0.4-3.3-2.6-3.1c-0.5-1.3-1.1-2.7-1.6-4c0.4-1.1,0.7-2.3,2-0.8
	c1.4,1.6,3.1,1,4.7,0.6l0,0c0,1.5-0.1,3,0.2,4.4c0.4,2.1,2.2,3,3.5,1.4c2.2-2.8,5.2-2.2,8-2.6c2.8,0.8,4.8,3.5,8,3.6
	c3,2.7,6.1,5.3,9,8.1c3.5,3.4,7.9,3.5,12.1,3.1c4.2-0.5,8.4-0.5,12.6-0.6c0.2,1.3,0.2,3.2,2.1,1.7c1.2-0.9,2.9-0.5,3.6-2
	c1.1-0.2,2.2-0.3,3.3-0.5c1.9,0.6,4,1.8,4-1.8c7.5-0.6,13.6-4.3,19.9-7.9c1.2-0.3,2.9,0.1,3.1-1.9c0.3-0.2,0.7-0.4,1-0.6
	c1,0.1,1.8-0.1,2.4-0.9c1.1-0.2,2.4-0.2,2.5-1.8c1.4-0.5,2.7-1.1,4.1-1.6c1.2-0.1,2.4-0.1,2.5-1.7c1.8-0.8,4.4-0.4,5-3.2
	c1.4-0.1,1.9-0.9,1.6-2.2c-0.3-1.2-1.3-1.3-2.2-1.3c-3.7,0-7.3,0.1-11,0.2c-0.5-0.1-1-0.2-1.5-0.2c-0.1-0.7-0.3-1.2-1-1.4
	c-2-5.1-3.2-5.5-5.9-2l0,0c-2.3,0.2-3.5,2-5.1,3.3c-0.4,0-0.8,0.1-1.2,0.1c-1.3,0.3-2.9-0.1-3.3,1.8c-1.4,0.4-2.9,0.9-4.4,1
	c-4.4,0.4-8.6,3.4-13,2c-3.3-1-6.6-1-9.9-1.6c-8-1.6-14.2-5.5-17-13.6c0.2-1.6-0.3-2.6-2-2.7c-0.4-1.4-0.8-2.7-1.1-4.1
	c0-1.4-0.5-2.2-2.1-2.4c-5.3-0.7-6.1,0-6.3,5.7l0,0c-2.5-0.2-3.5,0.9-3.2,3.4c-0.1,0.2-0.2,0.5-0.4,0.6c-2.2,1.1-3.1,3-3.1,5.4
	c-0.4,0.2-0.8,0.5-1.2,0.7c-3.6-0.5-6.3,1.2-8.6,3.7c-0.5,0-0.9-0.1-1.4-0.1c-0.3-0.4-0.7-0.8-0.9-1.3c-1.1-2.4-3.9,1.7-4.4-0.9
	c-0.3-1.5,2.6-2.6,1.9-4.8c0.5,0,1.1,0,1.6-0.1c3.6,3.4,4.3,3.4,5.6-0.2c0.1-0.2,0.2-0.4,0.4-0.5c1.7,0,2.4-0.9,2.3-2.6
	c0.5-0.9,0.9-1.8,1.4-2.6c4.3-0.5,2.1-4.5,3.4-6.5c2.2-0.7,3.5-2.7,4.2-4.5c1.9-4.8,6-8.3,7.6-13.3c1.1-0.1,1.4-0.8,1.4-1.8
	c0.6,0,1.1-0.1,1.7-0.1c0.5,2.1,0.9,4.2,0.9,6.3c0,1.1,0.7,2.7,1.7,1.6c1.4-1.5,4.1-2.4,4-5.2c0.3-0.3,0.6-0.6,0.8-0.8
	c0.6-0.2,1.5-0.1,1.9-0.5c3.1-2.7,4.5-2.5,5.4,1.5c0.8,3.4,2.8,2.5,4.9,1.7c2.6-0.4,4.3-1.8,4.9-4.4c1.1,0,1.7-0.5,1.7-1.6
	c0.2-0.6,0.4-1.2,0.6-1.8c1.5,0,2.6,0.8,3.6,1.9c0.1,1.3-1.3,3.1,0.8,3.9c1.6,0.6,2.5-0.7,3.7-1.7c2-1.7,3.3-3.9,5.1-5.7
	c2,2.2,0.7,4.9,1,7.4c0.1,1-0.1,2.3,1.3,2.6c1.8,0.3,1.9-1,1.9-2.3c0.6-0.3,1.1-0.5,1.7-0.8c1.2-0.1,1.6-0.8,1.4-1.9
	c0.6-0.1,1.1-0.2,1.7-0.2c0.2,1.4,0.1,2.7-1.5,3.4c-2.4,0.9-1.1,2.6-0.9,4.2c0.2,1.7,0.8,3,2.9,2.4c0.3,0,0.6,0,0.9,0.1
	c1.3,0.4,2.7,0.7,3.8-0.5c0.2-0.2,0.5-0.3,0.7-0.5c1.2-0.3,1.8-0.9,1.4-2.2c0.2-0.4,0.4-0.9,0.6-1.3c1.5,0,2.5,0,2.4,2.2
	c-0.3,5,0.4,5.3,5.1,3c0.6-0.3,1.3-0.9,1.7-0.2c0.3,0.5,0.2,1.4-0.1,1.9c-0.7,1.2-2.4,1.8-2.2,3.7c-1,0.9-0.8,2.1-0.7,3.3
	c0.3,0.3,0.5,0.5,0.8,0.8c1.4,0.2,2.1-1.1,3.2-1.5c4.1-1.7,4.9-1.1,4.9,3.3c-0.9,0.1-1.6,0.3-1.9,1.3c-0.9,0.3-1.4,1-1.3,2l-0.1,0.1
	c-1,0-1.7,0.4-1.8,1.5c-0.4,1-0.7,1.9-1.1,2.9c-3.3,1.3-1.1,2.1,0.2,2.9c2.1,0.6,4-0.2,5.9-0.8c1.1-0.1,1.5-0.8,1.5-1.8l0,0
	c0.7,0,1.3-0.1,1.7-0.8c1.9-0.2,1.4,2.7,3.3,2.5l0.4-0.1c0.3,1.5,1.4,2,2.8,2c0.1,2.6,3.4,3.1,3.5,6.1c0.4,6.6-3.2,9.5-9.5,12.2
	c-3.9,1.7-8.1,2.8-11.1,6.1c-2.8,0.9-1.7,2.7-0.9,4.2C385.5,166.1,384.2,167.1,380.6,166.4z M376.3,126.5c0-3.5-3.2-4.9-6.4-3
	c-3.8,2.3-7.1,5.2-11.6,6.3c-2.9,0.7-1.3,3.8-2.1,5.7c-0.4,1,0.6,1.3,1.5,1.3c5.1-0.2,9.6-2.6,14.3-4.3
	C374,131.8,376.9,129.8,376.3,126.5z M329.1,114.9c-1.3,1-2.9,1.5-2.9,3.3c0,4.3-0.9,8.8,3.7,12.1c1.9,1.4,3.2,3.1,5.4,1.5
	c2.3-1.7,2.3-6.1,0.1-7.6c-1.7-1.2-2.2-2.7-3.1-4.4C331.4,118.2,331.2,115.8,329.1,114.9z M347.1,135.9c2.3,0.5,4.7-1.3,4-2.8
	c-1-2.3,0-6.3-4-6.7c-1.9-0.2-5.8,4.1-5.3,5.9C342.6,134.5,343.9,136.5,347.1,135.9z M367.4,119.7c1.2-0.2,2.9,0.3,2.8-1.6
	c-0.1-2.6-3.1-2.2-4.5-3.7c-0.8-0.9-2.2-0.9-3.3,0.1c-2,1.8-1,3.2,0.7,4.1C364.4,119.3,366,119.4,367.4,119.7z M338.4,112.5
	c-0.8-0.1-1.3,0.3-1.4,1.1c-0.1,0.9,0.1,1.7,1.2,1.8c0.9,0.1,1.7-0.1,1.7-1.2C339.9,113.3,339.3,112.7,338.4,112.5z M296.2,156
	c-0.1-0.2-0.2-0.4-0.3-0.6c0,0-0.3,0-0.3,0.1c-0.1,0.2-0.1,0.4-0.1,0.7C295.7,156.1,295.9,156.1,296.2,156z"></path>
<path class="stbb2" d="M380.6,166.4c3.6,0.7,4.9-0.2,3-3.9c-0.8-1.5-1.9-3.3,0.9-4.2c0.9,3.2,2.5,6.2,2.1,9.7
	C384,169.3,381.9,169.4,380.6,166.4z"></path>
<path class="stbb3" d="M189.7,181.4c2.8,0.8,4.3,0.1,3.1-3c-1.2-3.3,1.6-4,3.3-5.4c-0.5,2.5-1.2,5-0.4,7.6c0.4,1.4,1,3-0.7,4
	c-1.7,0.9-2.7-0.3-3.8-1.4C190.7,182.6,189.8,182.4,189.7,181.4z"></path>
<path class="stbb3" d="M178.7,187.8c1.6,0.9,1.3,4.3,4.3,3.4c2.1,0.5,0.9,1.2,0.2,2c-1,1.2-2,1.3-3,0.2
	C178.9,191.8,178.1,189.9,178.7,187.8z"></path>
<path class="stbb4" d="M207.7,169.8c-2.2-0.4-2.1-2.4-1.4-3.4c1-1.8,1.9-4.3,4.9-4C210.9,165.3,206.2,166.1,207.7,169.8z"></path>
<path class="stbb3" d="M183.1,181.9c0.2-2.9,2.8-2.4,4.5-2.8c1.3-0.3,2.1,0.9,2,2.3C187.4,180.3,185.3,181.9,183.1,181.9z"></path>
<path class="stbb4" d="M212.6,161.9c0.8-3,3.3-1.7,5.1-1.9c0,0.5-0.1,1-0.1,1.5C215.8,161.2,214.3,162.8,212.6,161.9z"></path>
<path class="stbb5" d="M229.3,155.9c0.5,0.1,1.1,0.1,1.6,0.2c0,2.4-1.7,2.2-3.3,2.2c0.1-0.7,0.2-1.3,0.4-2
	C228.4,156.1,228.8,156,229.3,155.9z"></path>
<path class="stbb3" d="M183,189.5c-2.1-1.1-2.1-2.2,0-3.3C183,187.3,183,188.4,183,189.5z"></path>
<path class="stbb3" d="M228,156.3c-0.1,0.7-0.2,1.3-0.4,2c-0.8,0.1-1.6,0.1-2.4,0.2C225.3,156.6,226.1,155.7,228,156.3z"></path>
<path class="stbb3" d="M199.4,172.4c1.7-0.2,2,0.8,1.9,2.1C199.8,174.7,199.7,173.4,199.4,172.4z"></path>
<path class="stbb3" d="M182.7,184.6c-1.6-1-1.5-1.9,0.2-2.6C182.9,182.9,182.8,183.7,182.7,184.6z"></path>
<path class="stbb5" d="M217.5,161.4c0-0.5,0.1-1,0.1-1.5c0.5,0,1.1-0.1,1.6-0.1C219.3,160.9,218.7,161.5,217.5,161.4z"></path>
<path class="stbb3" d="M176.4,184.7c1.1-0.2,1.8,0.1,1.9,1.3C177.3,186.1,176.7,185.6,176.4,184.7z"></path>
<path class="stbb6" d="M108.3,146.5c-1.6-0.1-3.1-0.1-4.7-0.2c-0.6-1.3-1.7-1.3-2.8-1c-0.2,0-0.4-0.1-0.6-0.2c0.2-1-1-2.4,1.1-2.6
	c2.3-0.3,3.6-1.9,4.8-3.7l-0.1-0.2c0.5,0,1.1,0,1.6,0c2.3,0.4,4.6,0.9,5-2.4c0.5-0.3,1-0.7,1.4-1c1.2,0.1,1.8-0.4,1.8-1.6
	c1-0.8,1.4-2,1.6-3.3c1.1,0,1.7-0.5,1.7-1.7c0.3-0.8,0.6-1.6,0.9-2.3c0.3-0.1,0.5-0.2,0.7-0.4c2.5,0.5,3.4-0.6,3.2-3l0.1-0.2
	c0.9,0.2,1.5-0.1,2.2-0.7c5-4.6,7.1-4.5,10.9,0.3c0.1,0.2,0.2,0.5,0.3,0.6c-0.2,1.6,0.8,2.3,2.1,2.7c0.3,0.4,0.6,0.8,0.8,1.2
	c-0.4,1.7,0.4,2.4,2,2.3l0.2,0.2c-0.1,1.1-0.2,2.3,1.3,2.5l0,0c0.1,1.1,0.8,1.3,1.8,1c0.1,0.2,0.3,0.3,0.4,0.4
	c-0.3,2.2,1.1,2.4,2.7,2.5c0.4,0.3,0.7,0.6,1,0.9c-0.1,2.3,1.7,1.7,2.9,1.9c0.2,0.1,0.4,0.2,0.6,0.2c0.5,0.8,1.2,1.1,2.1,0.8
	c1.9,3.2,5.6,1.5,8.1,3c0.1,0.6,0.1,1.6,0.5,1.9c2.4,1.9,12.2,0.3,14.3-2.3c1.1-0.2,2.1-0.3,3.2-0.5c1.7,1.6,4,1.2,5.8,0.8
	c4.1-1,8.2-1,12.3-0.6c-0.1,3.2,2.2,5.1,3.8,7.3c1.1,1.5,1.8,3.3,0.9,4.5c-1.6,2.4-1.7,6.7-6.3,6.3c-0.9-0.1-1.8,0.4-1.9,1.2
	c-0.3,2.3-2.3,3.4-3.2,5.3l0,0c-1.5,0-1.7,1.1-1.7,2.2c-0.8,0.4-1.6,0.7-2.4,1.1c-1.9-0.1-3.3,0.3-3.3,2.6c-0.6,0.8-1.5,0.9-2.4,0.8
	c-2.3,0.6-5.5-1.9-6.8,2.1c-1.4,0.2-2.9,0.5-4.3,0.7c-4,0.1-8.1,0.3-12.1,0.4c-1.3,0-2.6,0-3.9,0c-1.5,0-3,0-4.5,0
	c-1-0.1-2-0.3-3.1-0.4c-0.4-1.1-0.9-1.6-1.7-0.4c-1.1-0.3-2.2-0.5-3.3-0.8c0-1.2-0.6-1.9-1.8-1.7s-2.2-0.3-3-1.1
	c0.1-1.9-0.9-2.4-2.6-2.2c-0.3-0.2-0.5-0.5-0.8-0.7c0.2-1.7-0.3-2.7-2.2-2.7c-0.4-0.5-0.8-0.9-1.1-1.4c0.1-1.8-1.1-1.9-2.4-1.8
	c-0.3-0.2-0.6-0.5-0.9-0.7c0-0.3,0.1-0.6,0.1-1c1.6-0.7,3.2-1.3,4.8-2.1c1.7-0.9,3.3-8.5,1.7-9c-2.8-0.9-2.5-2.8-2.5-4.8
	c0-1.6-4.8-8.1-6.3-8.5c-0.7-0.2-1.5-0.2-1.9,0.3c-1.3,2.2-3.1,1.3-5,1.2c-3.5-0.3-7.4-1-7.6,4.6c-0.1,1.7-1.7,1.9-3.1,1.9
	C108.9,145.6,108.6,146.1,108.3,146.5z"></path>
<path class="stbb7" d="M193.1,166.5c0.8-1.9,2.9-3,3.2-5.3c0.1-0.8,1-1.3,1.9-1.2c4.5,0.4,4.6-3.8,6.3-6.3c0.8-1.2,0.1-3-0.9-4.5
	c-1.6-2.2-4-4.2-3.8-7.3l0.1-0.1c1.9,0,3.2,1.9,5.2,1.4c0.2,0,0.4,0.1,0.5,0.2c0.1,1.7,1.2,1.8,2.5,1.7c1.1,0.5,2.2,1,3.3,1.6
	c0.3,2.6,2.4,1.5,3.8,1.9c2.4,0.5,4.7,1.1,7.2,0.8c1-0.1,2.7-0.8,3.1,0.7c0.2,1.1-0.7,2.2-2.2,2.5c-0.5,0.1-1,0.5-1.4,0.7
	c-1.5,0.3-3.5-0.8-4,1.7c-7.4,0.9-13.3,5-19.3,8.9C196.7,165,195.1,166.1,193.1,166.5z"></path>
<path class="stbb5" d="M129,161.6c0,0.3-0.1,0.6-0.1,1c-3.4-1.2-3.4-5.3-6.2-7.1c-0.3-1.5-1.1-2.3-2.7-2.1c-1.3-0.4-2.6-0.8-3.8-1.2
	c-0.2-1.5-1.2-2.2-2.7-2.1c-0.2-0.1-0.4-0.2-0.6-0.3c-0.4-0.9-1-1.3-2-1c-0.3-0.1-0.5-0.2-0.8-0.3c0-0.5-0.1-1-0.1-1.5l0.2-0.2
	c2.9,0.3,5.2-0.5,7.2-2.8c1.5-1.7,3.8-3.5,5.6-0.8c1.1,1.7,1.8,1.9,3.4,1.4c0.9-0.3,2-0.4,2.4,0.8c0.3,1.1,0.4,2.2-0.7,3
	c-1.3,1-1.8,2.1-2,4C125.6,156.1,127.9,158.5,129,161.6z"></path>
<path class="stbb5" d="M160.2,133.6c-1.1,0.5-2,2.7-3.3,1.3c-1.5-1.5-3.8-2.7-3.3-5.7c0.4-2,1.6-2.7,3.3-3.1c4.8-1,7.9,1.2,8.1,5.8
	C163.4,132.4,161.7,132.6,160.2,133.6z"></path>
<path class="stbb7" d="M199.6,141.9c-4.1-0.4-8.2-0.4-12.3,0.6c-1.8,0.4-4,0.9-5.8-0.8c0.7-2.4,3.1-1.2,4.5-2c1,0.4,1.7,0.2,2.1-0.8
	c0.3-0.1,0.6-0.2,0.8-0.4c1.3-0.2,3.1,0.5,2.9-1.9h0.1c2,0.1,4,0.2,5.9,0.2c0.3,1.2,0.6,2.4,1.6,3.3
	C199.6,140.7,199.7,141.3,199.6,141.9L199.6,141.9z"></path>
<path class="stbb8" d="M184.8,122.9c-2.3-0.3-4.7-0.5-5.6-3.2c-0.3-0.9-0.5-2,0.3-2.7c0.9-0.9,1.8-0.2,2.6,0.3
	c1.3,0.8,2.5,1.6,3.6,2.6c0.8,0.6,2.4,0.7,2,2.1C187.3,123.3,185.9,122.7,184.8,122.9z"></path>
<path class="stbb1" d="M137,122.3c-3.8-4.8-5.9-4.9-10.9-0.3c-0.7,0.6-1.3,0.9-2.2,0.7c1.1-3,7.8-7.8,10.5-6.9
	C137.4,116.7,136.8,119.8,137,122.3z"></path>
<path class="stbb7" d="M178.3,142.2c-2.2,2.6-12,4.2-14.3,2.3c-0.4-0.3-0.3-1.2-0.5-1.9C168.4,142.5,173.4,142.3,178.3,142.2z"></path>
<path class="stbb1" d="M114,135.1c-0.5,0.3-1,0.7-1.4,1c-0.6-0.1-1.2-0.1-1.7-0.2c2.6-3.6,3.6-8.8,9.1-9.7c-0.3,0.8-0.6,1.6-0.9,2.3
	c-1,0.1-1.6,0.6-1.7,1.7c-0.2,1.3-0.6,2.4-1.6,3.3C114.7,133.5,114.1,134.1,114,135.1z"></path>
<path class="stbb5" d="M106.1,138.8c-1.1,1.8-2.5,3.5-4.8,3.7c-2.2,0.3-1,1.7-1.1,2.6c-1.9,0.1-2.5-1.1-2.7-2.6
	C100.4,141.4,102.5,138.4,106.1,138.8z"></path>
<path class="stbb7" d="M160.1,176.4c4-0.1,8.1-0.3,12.1-0.4C169.5,178.6,163.2,178.9,160.1,176.4z"></path>
<path class="stbb3" d="M160.2,133.6c1.5-1,3.2-1.2,4.9-1.6c1,1,2.4,2.3,1,3.7c-1,1-2.1,0.2-2.8-1.1
	C162.7,133.5,160.9,135.1,160.2,133.6z"></path>
<path class="stbb7" d="M176.6,175.2c1.2-4,4.5-1.5,6.8-2.1C181.7,175.9,179,175.2,176.6,175.2z"></path>
<path class="stbb9" d="M198,136.9c-2-0.1-4-0.2-5.9-0.2C194.1,134.7,196.2,132.1,198,136.9z"></path>
<path class="stbb3" d="M169.3,136.3c-1.3-2-0.7-4-0.4-6.1C170.6,132.1,170,134.2,169.3,136.3z"></path>
<path class="stbb5" d="M110.9,136c0.6,0.1,1.2,0.1,1.7,0.2c-0.4,3.3-2.7,2.8-5,2.4c0-0.5,0.1-1,0.1-1.6C108.8,136.9,110,137,110.9,136
	z"></path>
<path class="stbb3" d="M162.4,108.8c-0.2,1-0.8,1.6-1.8,1.6c-0.7,0-1.1-0.6-1.1-1.4c0-0.9,0.4-1.5,1.4-1.6
	C161.8,107.4,162.4,107.7,162.4,108.8z"></path>
<path class="stbb1" d="M123.8,122.8c0.3,2.4-0.7,3.5-3.2,3C120.7,123.8,122.3,123.3,123.8,122.8z"></path>
<path class="stbb9" d="M199.7,141.8c0-0.5,0-1.1,0-1.6c2.4,0,3.7,1.7,5.3,3C202.9,143.7,201.5,141.8,199.7,141.8z"></path>
<path class="stbb7" d="M185.7,172.4c0-2.2,1.4-2.7,3.3-2.6C189,172,187.2,172,185.7,172.4z"></path>
<path class="stbb3" d="M110.8,155c-1.5-0.2-3.4,0.7-4.2-1.5C108.1,153.7,110.2,152.3,110.8,155z"></path>
<path class="stbb7" d="M151.8,176.4c1.5,0,3,0,4.5,0C154.8,178.7,153.3,178.9,151.8,176.4z"></path>
<path class="stbb1" d="M148.8,135.9c-1.6,0-3.1-0.3-2.7-2.5C147.5,133.6,148.8,134,148.8,135.9z"></path>
<path class="stbb9" d="M215,148.5c-1.4-0.3-3.5,0.8-3.8-1.9C212.5,147.2,214.6,146.2,215,148.5z"></path>
<path class="stbb10" d="M217.7,154.9c0.6-2.4,2.6-1.4,4-1.7C220.9,155.1,219.3,155,217.7,154.9z"></path>
<path class="stbb1" d="M113.4,150c1.5-0.1,2.4,0.6,2.7,2.1C114.3,152.6,113.5,151.7,113.4,150z"></path>
<path class="stbb1" d="M120,153.4c1.6-0.2,2.5,0.5,2.7,2.1C121,155.8,120.1,155.1,120,153.4z"></path>
<path class="stbb1" d="M142.2,129.2c-1.6,0.1-2.5-0.6-2-2.3C141.7,127,142.2,127.8,142.2,129.2z"></path>
<path class="stbb7" d="M136.2,169.8c1.7-0.2,2.7,0.4,2.6,2.2C137.3,172.2,136.3,171.5,136.2,169.8z"></path>
<path class="stbb5" d="M133.3,166.4c1.9,0,2.4,1,2.2,2.7C133.7,169,133,168.1,133.3,166.4z"></path>
<path class="stbb9" d="M192,136.7c0.2,2.4-1.7,1.7-2.9,1.9C189.1,136.5,190.7,136.8,192,136.7z"></path>
<path class="stbb1" d="M152.7,138.6c-1.2-0.2-3,0.4-2.9-1.9C151.1,136.9,152.6,136.7,152.7,138.6z"></path>
<path class="stbb1" d="M139.4,125.6c-1.3-0.5-2.3-1.1-2.1-2.7C139.1,123,139.7,124,139.4,125.6z"></path>
<path class="stbb5" d="M129.8,163.2c1.3-0.1,2.5,0,2.4,1.8C130.8,165.2,129.8,164.9,129.8,163.2z"></path>
<path class="stbb1" d="M143.8,131.9c-1.5-0.3-1.4-1.4-1.3-2.5C143.7,129.8,143.9,130.8,143.8,131.9z"></path>
<path class="stbb9" d="M207.9,145.1c-1.3,0.1-2.4,0-2.5-1.7C206.6,143.5,207.8,143.4,207.9,145.1z"></path>
<path class="stbb7" d="M191.4,168.7c0-1.2,0.2-2.2,1.7-2.2C193.1,167.7,192.6,168.5,191.4,168.7z"></path>
<path class="stbb1" d="M110.8,148.7c1-0.3,1.6,0.1,2,1C111.8,150,111.1,149.7,110.8,148.7z"></path>
<path class="stbb9" d="M188.2,138.9c-0.4,1.1-1.2,1.2-2.1,0.8C186.6,139,187.2,138.6,188.2,138.9z"></path>
<path class="stbb1" d="M155.4,139.7c-0.9,0.3-1.6,0.1-2.1-0.8C154.2,138.6,155,138.7,155.4,139.7z"></path>
<path class="stbb3" d="M143.8,106.4c0.5-0.6,1.1-0.6,1.7-0.5C145.1,106.9,144.7,107.6,143.8,106.4z"></path>
<path class="stbb1" d="M145.6,133c-1,0.3-1.6,0.1-1.8-1C144.6,131.9,145.3,132.2,145.6,133z"></path>
<path class="stbb7" d="M147,175.7c0.9-1.2,1.4-0.8,1.7,0.4C148.1,176.2,147.5,176.2,147,175.7z"></path>
<path class="stbb1" d="M158.5,103.2c0.6-0.6,1.1-0.6,1.6,0C159.6,104,159.1,104,158.5,103.2z"></path>
<path class="stbb7" d="M141.9,173.2c1.3-0.1,1.8,0.5,1.8,1.7C142.6,174.8,141.9,174.3,141.9,173.2z"></path>
<path class="stbb1" d="M107.7,137c0,0.5-0.1,1-0.1,1.6c-0.5,0-1.1,0-1.6,0C106,137.5,106.6,136.9,107.7,137z"></path>
<path class="stbb3" d="M149.3,102.3c0.3,0,0.6,0,1,0c-0.4,0.2-0.8,0.4-1.2,0.6C149.1,102.7,149.2,102.5,149.3,102.3z"></path>
<path class="stbb2" d="M281.5,140.1c0.1-0.3,0.1-0.5,0.2-0.8c1.8-2,4.6-3,5.8-5.7c0.8-0.3,1.7-0.5,2.5-0.8c0.7,2.2-2.2,3.3-1.9,4.8
	c0.5,2.6,3.3-1.4,4.4,0.9c0.2,0.5,0.6,0.9,0.9,1.3c-2.5-0.2-3.7,2.2-5.8,2.8c-0.7,0-1.4,0-2,0c-0.8,0-1.8,0.1-1.9,1.1
	c-0.1,1.4,1.1,1.3,2,1.4c0.5,0,1.1-0.1,1.6-0.1c0.4,1.3,1.4,1.9,2.7,1.8c0,0.5,0,1.1,0,1.6c-1.7,0.4-3.3,1-4.7-0.6
	c-1.3-1.4-1.7-0.2-2,0.8C279.9,146.3,282.5,142.8,281.5,140.1z"></path>
<path class="stbb2" d="M304.7,120.3c-1.4,2.1,0.9,6-3.4,6.5C301.4,124.2,302,121.7,304.7,120.3z"></path>
<path class="stbb2" d="M297.2,132.5c-1.3,3.6-2,3.7-5.6,0.2C293.4,132,295.4,133.4,297.2,132.5z"></path>
<path class="stbb2" d="M299.8,129.5c0.1,1.6-0.5,2.6-2.3,2.6C297.4,130.4,298.1,129.5,299.8,129.5z"></path>
<path class="stbb2" d="M365.6,102.4c0-0.5,0-1.1,0-1.6c0.5-0.1,1-0.2,1.4-0.3C367.2,101.6,366.8,102.3,365.6,102.4z"></path>
<path class="stbb2" d="M317.9,100.7c0.1,1-0.3,1.7-1.4,1.8C316.5,101.6,316.7,100.7,317.9,100.7z"></path>
<path class="stbb2" d="M347.5,182c0-2.3,0-4.6,0-6.9c0-1.3-0.1-2.9,2-2.6c-0.1,2.2-0.2,4.4-0.3,6.5C349.1,180.3,349.7,182,347.5,182z"></path>
<path class="stbb2" d="M344.2,182c-0.1-0.7-0.2-1.5-0.2-2.2c1.7-0.2,1.9,1,1.9,2.2C345.3,182,344.8,182,344.2,182z"></path>
<path class="stbb5" d="M100.8,145.4c1.2-0.3,2.2-0.3,2.8,1C102.4,146.9,101.4,146.7,100.8,145.4z"></path>
<path class="stbb5" d="M108.3,146.5c0.3-0.5,0.6-0.9,0.9-1.4c0.3,0.5,0.6,1.1,0.9,1.6l-0.2,0.2C109.4,146.8,108.9,146.7,108.3,146.5z"></path>
<path class="stbb11" d="M376.4,155.2c-6.3,3.5-12.5,7.3-19.9,7.9c-1.5,0.1-3.5-0.7-4,1.8c-1.1,0.2-2.2,0.3-3.3,0.5
	c-2-0.8-3.9-0.6-5.8,0.3c-4.2,0.2-8.4,0.1-12.6,0.6c-4.3,0.5-8.6,0.3-12.1-3.1c-2.9-2.8-6-5.4-9-8.1c0-0.7-0.1-1.5-0.8-1.7
	c-4-1.3-4.8-4.5-5.3-8.1c-0.2-1.5-0.1-3.8-2.8-3.5c0-0.5,0-1-0.1-1.6h0.1c1.1-0.1,2.2-0.2,2.3-1.7c0.1-0.8,0.1-1.6,0.2-2.3
	c0.4-0.2,0.8-0.5,1.2-0.7c3.4-0.4,2.5-3.3,3.1-5.4c0.2-0.2,0.3-0.4,0.4-0.6c2.5,0.2,3.2-1.3,3.2-3.4l0,0c1,0.2,1.9-0.2,2.3-1.1
	c1.3-2.7,3.6-2.7,6-2.2c0.4,1.4,0.8,2.7,1.1,4.1c-0.3,1.6,0.3,2.6,2,2.7c2.8,8.1,9,12.1,17,13.6c3.3,0.6,6.6,0.6,9.9,1.6
	c4.4,1.4,8.6-1.6,13-2c1.5-0.1,2.9-0.7,4.4-1c1.4,0,3.2,0.6,3.3-1.8c0.4,0,0.8-0.1,1.2-0.1c2.3-0.2,4.8-0.1,5.1-3.3l0,0
	c2.3-0.3,3.7,2,5.9,2c0.7,0.2,1,0.7,1,1.4c0.5,2.6-3.2,6.2,2.4,7.8c-3.6,0.2-6,1.2-5.7,4.9c-0.3,0.2-0.7,0.4-1,0.6
	C378.1,153.4,376.3,152.8,376.4,155.2z"></path>
<path class="stbb12" d="M376.3,126.5c0.6,3.3-2.3,5.3-4.4,6c-4.6,1.7-9.1,4.1-14.3,4.3c-0.9,0-1.9-0.3-1.5-1.3c0.8-1.9-0.7-5,2.1-5.7
	c4.5-1.1,7.8-4,11.6-6.3C373.1,121.6,376.2,123.1,376.3,126.5z"></path>
<path class="stbb12" d="M329.1,114.9c2.1,0.9,2.3,3.3,3.1,4.9c0.9,1.7,1.4,3.2,3.1,4.4c2.2,1.5,2.2,6-0.1,7.6
	c-2.2,1.6-3.5-0.1-5.4-1.5c-4.6-3.3-3.6-7.7-3.7-12.1C326.2,116.4,327.8,115.9,329.1,114.9z"></path>
<path class="stbb4" d="M300.7,140.3c0,0.5,0,1,0,1.6c-3.6,2-2,4.7-0.8,7.2c-3.3-0.2-6.6-0.4-9.9-0.6l0,0c0-0.5,0-1.1,0-1.6
	c0.8-1,2.4-1.9,1.4-3.3c-1-1.4-2.4,0.4-3.7,0c0-0.3-0.1-0.6-0.1-0.8c2.1-0.6,3.3-3,5.8-2.8c0.5,0,0.9,0,1.4,0.1
	C296.7,140.1,298.7,140.2,300.7,140.3z"></path>
<path class="stbb8" d="M347.1,135.9c-3.2,0.6-4.5-1.4-5.2-3.6c-0.6-1.8,3.4-6.1,5.3-5.9c4,0.4,3,4.4,4,6.7
	C351.8,134.6,349.4,136.5,347.1,135.9z"></path>
<path class="stbb10" d="M380.4,152.7c-0.3-3.8,2.1-4.8,5.7-4.9c-5.7-1.5-2-5.2-2.4-7.8c0.5,0.1,1,0.2,1.5,0.2c1.5,3.1,4.4,1,6.5,1.7
	c-0.3,1.9-2.6,2.8-2.4,4.9c0,0.6,0,1.1,0,1.7c-1.4,0.5-2.7,1.1-4.1,1.6c-1.3-0.1-2.5,0-2.5,1.8C382.2,152.6,381.4,152.8,380.4,152.7
	z"></path>
<path class="stbb10" d="M299.9,149c-1.1-2.6-2.7-5.2,0.8-7.2c2.7-0.3,2.6,2.1,2.8,3.5c0.5,3.6,1.3,6.8,5.3,8.1c0.7,0.2,0.8,1,0.8,1.7
	c-3.2,0-5.2-2.8-8-3.6C301.7,150.3,300.8,149.7,299.9,149z"></path>
<path class="stbb2" d="M299.9,149c0.9,0.6,1.8,1.3,1.7,2.6c-2.8,0.4-5.8-0.2-8,2.6c-1.2,1.6-3.1,0.6-3.5-1.4c-0.3-1.4-0.1-3-0.2-4.4
	C293.3,148.6,296.6,148.8,299.9,149z"></path>
<path class="stbb1" d="M367.4,119.7c-1.4-0.3-3-0.4-4.2-1.1c-1.7-0.9-2.7-2.3-0.7-4.1c1.1-1,2.5-1,3.3-0.1c1.3,1.6,4.3,1.2,4.5,3.7
	C370.3,120,368.6,119.6,367.4,119.7z"></path>
<path class="stbb13" d="M389.4,146.8c-0.2-2.1,2.1-3,2.4-4.9c1.7,0.4,4.1-1.3,5,1.7c-0.6,2.8-3.2,2.4-5,3.2
	C391,146.8,390.2,146.8,389.4,146.8z"></path>
<path class="stbb2" d="M319.6,122.8c-2.5-0.5-4.7-0.5-6,2.2c-0.4,0.9-1.3,1.3-2.3,1.1c0.2-5.7,1-6.5,6.3-5.7
	C319.2,120.6,319.7,121.4,319.6,122.8z"></path>
<path class="stbb1" d="M396.8,143.6c-0.9-2.9-3.3-1.3-5-1.7c-2.1-0.7-5,1.4-6.5-1.7c3.7-0.1,7.3-0.1,11-0.2c0.9,0,2,0.1,2.2,1.3
	C398.7,142.6,398.2,143.4,396.8,143.6z"></path>
<path class="stbb2" d="M300.7,140.3c-2-0.1-3.9-0.2-5.9-0.3c2.3-2.5,5-4.2,8.6-3.7c-0.1,0.8-0.1,1.6-0.2,2.3c-1.2,0-2,0.5-2.3,1.7
	H300.7z"></path>
<path class="stbb2" d="M395.1,127.1c0.3-0.6,0.6-1.1,0.9-1.7c4.6,0.8,1.6,4.4,2.4,6.6c-1.9,0.2-1.4-2.7-3.3-2.5
	C395.1,128.7,395.1,127.9,395.1,127.1z"></path>
<path class="stbb10" d="M382.7,138.6c-2.2,0-3.6-2.3-5.9-2C379.6,133.1,380.7,133.5,382.7,138.6z"></path>
<path class="stbb2" d="M343.4,165.7c1.9-1,3.8-1.1,5.8-0.3c-0.7,1.5-2.5,1.1-3.6,2C343.6,168.9,343.6,167,343.4,165.7z"></path>
<path class="stbb2" d="M307.7,130.2c-0.6,2,0.3,4.9-3.1,5.4C304.6,133.2,305.5,131.3,307.7,130.2z"></path>
<path class="stbb2" d="M311.3,126.2c0,2.2-0.7,3.6-3.2,3.4C307.7,127.1,308.7,125.9,311.3,126.2z"></path>
<path class="stbb2" d="M338.4,112.5c0.9,0.2,1.5,0.8,1.5,1.7c0,1.1-0.8,1.3-1.7,1.2c-1-0.1-1.3-0.9-1.2-1.8
	C337.1,112.8,337.6,112.4,338.4,112.5z"></path>
<path class="stbb10" d="M376.7,136.6c-0.3,3.2-2.8,3.1-5.1,3.3C373.2,138.6,374.5,136.8,376.7,136.6z"></path>
<path class="stbb2" d="M352.5,164.9c0.5-2.5,2.4-1.7,4-1.8C356.5,166.7,354.3,165.5,352.5,164.9z"></path>
<path class="stbb2" d="M370.1,110.3c1.1-1.2,2.4-1.3,3.8-0.5C372.8,110.9,371.5,110.6,370.1,110.3z"></path>
<path class="stbb13" d="M376.4,155.2c-0.1-2.4,1.7-1.9,3.1-1.9C379.3,155.3,377.6,154.9,376.4,155.2z"></path>
<path class="stbb2" d="M322.8,129.6c-1.7-0.1-2.3-1.1-2-2.7C322.5,127,323,128,322.8,129.6z"></path>
<path class="stbb10" d="M370.4,140c-0.2,2.4-1.9,1.8-3.3,1.8C367.5,139.9,369.2,140.3,370.4,140z"></path>
<path class="stbb1" d="M389.4,146.8c0.8,0,1.7,0,2.5,0c-0.1,1.6-1.3,1.6-2.5,1.7C389.4,147.9,389.4,147.3,389.4,146.8z"></path>
<path class="stbb2" d="M374.6,109.2c-1.1-1.7,0.6-1.7,1.4-2.2C376.4,108.3,375.8,108.9,374.6,109.2z"></path>
<path class="stbb13" d="M382.9,151.8c0-1.7,1.2-1.8,2.5-1.8C385.2,151.6,384,151.6,382.9,151.8z"></path>
<path class="stbb2" d="M296.2,156c-0.2,0-0.5,0.1-0.7,0.1c0-0.2,0-0.5,0.1-0.7l0.3-0.1C296,155.6,296.1,155.8,296.2,156z"></path>
<path class="stbb2" d="M344.1,100.7c0-1.1,0.6-1.6,1.7-1.6C345.8,100.2,345.2,100.7,344.1,100.7z"></path>
<path class="stbb2" d="M382.9,119.6c0.3,0.3,0.5,0.5,0.8,0.8C383.4,120.1,383.2,119.9,382.9,119.6z"></path>
<path class="stbb10" d="M385.2,116.4c0.3,0,0.6,0,0.8,0C385.8,117,385.5,116.8,385.2,116.4z"></path>
<path class="stbb14" d="M110.1,146.7c-0.3-0.5-0.6-1.1-0.9-1.6c1.4,0,3.1-0.2,3.1-1.9c0.2-5.6,4.1-4.9,7.6-4.6c1.9,0.1,3.7,1,5-1.2
	c0.3-0.6,1.2-0.6,1.9-0.3c1.4,0.5,6.3,7,6.3,8.5c0,2-0.3,3.9,2.5,4.8c1.5,0.5,0,8.1-1.7,9c-1.6,0.8-3.2,1.4-4.8,2.1
	c-1.2-3-3.5-5.5-3-9.3c0.2-1.9,0.7-3,2-4c1-0.8,1-1.9,0.7-3c-0.4-1.2-1.5-1.2-2.4-0.8c-1.6,0.6-2.3,0.4-3.4-1.4
	c-1.7-2.7-4.1-0.9-5.6,0.8C115.3,146.3,113,147,110.1,146.7z M132.8,158.1c-0.1,0,0.9,0,0.6-1.2c-0.3-1.3-1.2-2-2.6-1.9
	c-0.8,0.1-1.7,0.1-1.5,1.3C129.7,157.6,130.6,158.3,132.8,158.1z"></path>
<path class="stbb5" d="M117.4,130.3c0-1.1,0.6-1.6,1.7-1.7C119.1,129.7,118.5,130.3,117.4,130.3z"></path>
<path class="stbb5" d="M114,135.1c0.1-1.1,0.7-1.6,1.8-1.6C115.8,134.7,115.2,135.2,114,135.1z"></path>
<path class="stbb10" d="M287.7,143.5c1.3,0.4,2.7-1.4,3.7,0s-0.6,2.3-1.4,3.3c-1.3,0.1-2.3-0.5-2.7-1.8
	C287.4,144.5,287.5,144,287.7,143.5z"></path>
<path class="stbb0" d="M287.7,143.5c-0.1,0.5-0.3,1-0.4,1.5c-0.5,0-1.1,0.1-1.6,0.1c-1,0-2.1,0-2-1.4c0.1-1,1.1-1.1,1.9-1.1
	c0.7,0,1.4,0,2,0C287.6,142.9,287.6,143.2,287.7,143.5z"></path>
<path class="stbb10" d="M300.8,140.3c0.3-1.2,1.1-1.7,2.3-1.7C303.1,140.1,302,140.2,300.8,140.3z"></path>
<path class="stbb5" d="M132.8,158.1c-2.3,0.2-3.2-0.5-3.4-1.8c-0.2-1.2,0.7-1.2,1.5-1.3c1.4-0.1,2.3,0.6,2.6,1.9
	C133.7,158.1,132.8,158.1,132.8,158.1z"></path>
<path class="stbb12" d="M190,129.2c0.6,3.3-2.3,5.3-4.4,6c-4.6,1.7-9.1,4.1-14.3,4.3c-0.9,0-1.9-0.3-1.5-1.3c0.8-1.9-0.7-5,2.1-5.7
	c4.5-1.1,7.8-4,11.6-6.3C186.8,124.3,190,125.7,190,129.2z"></path>
<path class="stbb12" d="M145.4,111.6c2.1,0.9,2.3,3.3,3.1,4.9c0.9,1.7,1.4,3.2,3.1,4.4c2.2,1.5,2.2,6-0.1,7.6
	c-2.2,1.6-3.5-0.1-5.4-1.5c-4.6-3.3-3.6-7.7-3.7-12.1C142.5,113.1,144.1,112.6,145.4,111.6z"></path>
</svg>
