<svg version="1.1" id="Layer_1" xmlns="http://www.w3.org/2000/svg" xmlns:xlink="http://www.w3.org/1999/xlink" x="0px" y="0px" viewBox="0 0 501.3 503.3" style="enable-background:new 0 0 501.3 503.3;" xml:space="preserve">

<style type="text/css">
	.stcb0{fill:#311E36;}
	.stcb1{fill:#C17BAF;}
	.stcb2{fill:#DACEC2;}
	.stcb3{fill:#CFC0A8;}
	.stcb4{fill:#98529C;}
	.stcb5{fill:#E5D9CF;}
	.stcb6{fill:#E4CEB5;}
	.stcb7{fill:#201721;}
	.stcb8{fill:#7D3D90;}
	.stcb9{fill:#EAD2BC;}
	.stcb10{fill:#D7C7B6;}
</style>
<path class="stcb0" d="M319.5,204.6c1.9,3.6,3.7,7.2,5.6,10.7c0.5,1.1,1,2.3,1.4,3.4c0,0-0.1,0.2-0.1,0.2c1.6,13.4,6.9,25.7,11.3,38.3
	c5.4,30.3,15.9,59.4,22.3,89.5c3.7,17.6,2.4,32.4-6.9,47.2c-3.4,5.4-5.8,11.5-8.7,17.3c-7.6,8.3-9.2,19.3-13.3,29.2
	c-0.7,0.5-1,1.2-0.7,2.1c-14.5,32.5-39.3,50.1-74.9,51.9c-14.1,0.7-26.5-7.9-40.6-7.4c-1.5-1.8-3.4-2-5.4-1.2
	c-1.8-0.1-3.6-0.2-5.3-0.3c-0.8-0.2-1.7-0.4-2.5-0.5c-3.4-1.2-6.8-2.4-10.2-3.6c-12.3-7.3-19.5-19.1-26.4-31c-1-1.6-2-3.2-3-4.8
	c0.7-2.7,0.9-5.3-2-7c-1.2-5.9-3-11.5-6.3-16.5c-1.4-4.1-0.4-9.5-6.5-10.8c-5.1-14.4-7.2-30-18-42c0.3-5.5-5.6-12.5,4-15.5
	c1.8,0.2,3.6,0.3,5.5,0.5c12,38.6,28.7,75.1,49.5,109.8c-4.8,8.5,2.4,11.7,7.5,12.4c14.4,2,28.4,8.2,43.4,5.6
	c1.4-0.1,2.7-0.1,4.1-0.2c1.2,7.3,5.4,5.5,9.8,3.3c19.4-2.3,38.3-6.6,50.9-23c21.1-27.4,30.5-61.2,47.8-90.7
	c1.4-2.4,1.3-5.9,0.9-8.8c-0.3-2.4-2.7-1-4.2-0.7c-6.2-4.9-1.1-10.1-0.3-15.1c0.8-12-5-22.7-6.2-34.3c-0.3-1.6-0.6-3.2-1-4.8
	c1.1-1.3,0.8-2.5-0.6-3.4c-8.7-28.7-17.5-57.4-26.2-86.1c0.8-7.7-6.2-13.5-5.3-21.2C316,194.8,315.4,203,319.5,204.6z"></path>
<path class="stcb1" d="M138.8,354.4c-1.8-0.2-3.6-0.3-5.5-0.5c0-25.5,11.1-48.6,15.5-73.1c0.1-0.9,0.3-1.7,0.4-2.6
	c3.2-2.9,2.5-6.7,2.5-10.4c7.3-11.7,11.8-24.7,16-37.7c3.9-12.4,15-19.5,21.3-30.1c0.7-0.1,1.4-0.2,2.1-0.5c2.5-0.9,4.3-2.5,5.1-5.1
	c1.8-1.8,3.6-3.5,5.4-5.3c3.2-0.1,4.9-1.9,5.8-4.8c1.6-0.2,3.1-0.5,4.7-0.7c2.7-0.5,5.4-0.9,8.2-1.4c2.5,0.5,5,1.2,7.6,1.5
	c3.8,0.5,6,3,4.8,6.2c-1.5,4.2-3.6,10.3-7.9,10.7c-14.9,1.5-28.7,7.1-33.9,16c-9.8,16.7-20.6,32.9-28.6,50.5
	c-7.6,16.7-16.9,33.5-15.6,53.1c-1.6,9.6-6.9,18.6-5,28.8C140.7,350.7,139.8,352.5,138.8,354.4z"></path>
<path class="stcb2" d="M160.1,438.7c2.8,1.7,2.7,4.2,2,7C159.9,443.8,159.9,441.3,160.1,438.7z"></path>
<path class="stcb3" d="M201.6,485c0.8,0.2,1.7,0.4,2.5,0.5C203,486.7,202.2,486.3,201.6,485z"></path>
<path class="stcb4" d="M146.6,320.1c-1.3-19.6,8-36.3,15.6-53.1c8-17.5,18.8-33.8,28.6-50.5c5.2-8.9,19-14.4,33.9-16
	c4.3-0.4,6.4-6.5,7.9-10.7c1.1-3.2-1.1-5.7-4.8-6.2c-2.5-0.4-5.1-1-7.6-1.5c1.2-1,2.4-2,3.6-3c2.1,0.2,4.2,0.3,6.2,0.5
	c4.4,1.7,8.7,3.3,13.1,5c3.8,2.4,3.2,11.7,11.3,7.4c19.5-4.2,39.7,3,48.9,18.5c2.8,4.7,6.3,6.6,11,7.6c8.7,28.7,17.5,57.4,26.2,86.1
	c0.2,1.1,0.4,2.3,0.6,3.4c0.3,1.6,0.6,3.2,0.9,4.8c-2.7-0.9-5.3-1.7-8-2.6c-2.3-5.4-4.5-10.7-6.8-16.1c-0.1-1.7-0.1-3.5-0.2-5.2
	c5-6.8,3-11.1-4.9-13.2c-2.7-3.5-3.5-8.4-8.1-10.3c-0.2-0.9-0.5-1.7-0.7-2.6c-3.1-20.5-14-36.9-28.8-50.2c-8.8-8-20.5-9.1-31.9-4.2
	c-2.9,1.2-5.7,2-8.7,1.9c-33.8-1.3-49.7,21.1-62.9,47.3c-8.8,13-14.8,27.4-21.4,41.6C156.2,306.3,156.1,316.2,146.6,320.1z
	 M242.3,199.4c-0.1-2.4-1.5-3.8-3.8-4.1c-2.5-0.3-4,1.4-4.3,3.5c-0.3,1.9,1.3,2.9,3.1,3C239.3,202,241.5,202.2,242.3,199.4z"></path>
<path class="stcb1" d="M314.4,218.2c-4.7-1.1-8.2-2.9-11-7.6c-9.2-15.4-29.4-22.6-48.9-18.5c8.5-13.3,19.3-21.6,36.2-16.3
	c1.1,2.1,3,2.7,5.3,2.6c0.7,0.3,1.4,0.5,2.2,0.6c0.9,0.9,1.8,1.7,2.8,2.6c0.9,0.9,1.7,1.7,2.6,2.6c0.9,0.9,1.8,1.7,2.6,2.6
	c0,0,0,0.2,0,0.2c1,3.4,2,6.7,3,10.1C308.2,204.7,315.2,210.5,314.4,218.2z"></path>
<path class="stcb5" d="M326.5,218.8c-0.5-1.1-1-2.3-1.4-3.4C325.5,216.5,326,217.6,326.5,218.8z"></path>
<path class="stcb6" d="M306.1,186.7c-0.9-0.9-1.8-1.7-2.6-2.6C304.3,185,305.2,185.8,306.1,186.7z"></path>
<path class="stcb6" d="M300.9,181.5c-0.9-0.9-1.8-1.7-2.8-2.6C299,179.8,299.9,180.7,300.9,181.5z"></path>
<path class="stcb6" d="M151.8,267.7c0.1,3.7,0.7,7.5-2.5,10.4C149.4,274.5,148.3,270.6,151.8,267.7z"></path>
<path class="stcb7" d="M146.6,320.1c9.4-3.9,9.6-13.8,13-21.2c6.6-14.2,12.6-28.6,21.4-41.6c8.1,0-0.9,9.8,6.1,10.5
	c1.5,0.6,2.9,1.3,4.4,1.9c0.8,1,1.6,2.1,2.4,3.1c3.3,16.4,10.3,31.6,15.8,47.3c1.9,13.6,6.3,26.4,11,39.2c-1.5,5.4,2.3,5.3,5.6,5
	c5-0.4,3.7-4.4,3.7-7.5c0-1.8,0-3.6,0-5.4c0.4-0.8,0.5-1.6,0.5-2.5c5.1-6.3,0.4-14.5,4.2-21.1c0.3-2,0.5-4,0.8-6l1-0.5l-0.7-0.8
	c0,0-0.6-0.4-0.6-0.4c2.9-9.5,0.4-19.3,1.8-28.8c4.6,0,9.4-0.7,13.5,2.4c0.1,4.4,0.2,8.9,0.2,13.3c-2.5,2.6-2.5,5.2,0.2,7.7
	c0.4,0.9,0.8,1.8,1.1,2.6c-0.4,0.9-0.8,1.9-1.1,2.8c-3.1,5.3-3.5,10.5,0.4,15.6c1.9,11.4,3.9,22.8,5.8,34.2
	c0.8,4.8,2.4,10.6,6.8,11.5c5.2,1.1,7.6-4.3,9.1-9c3.4-0.9,5.5-2.2,1.7-5.4c0.3-1.7,0.6-3.4,0.9-5.1c6.3-2.1,4.1-7.2,4.1-11.6
	c-0.4-0.6-0.2-1.2,0.4-1.6c7-2,11.2-9.9,11.3-13.8c0.2-18.7,6.8-32.5,26.2-41.4c-6.2-2.5-14.2-4-10.7-9.8c4.4-7.4-0.4-12.7-0.8-19
	c0.1-0.8,0.4-1.6,0.9-2.2c2.2,0,4.3,0.1,6.5,0.1c0.2,0.9,0.5,1.7,0.7,2.6c2.8,10.3,3.6,21.5,13.2,28.7c2.3,5.4,4.5,10.7,6.8,16.1
	c3.6,12.7,3.9,26.7,14.1,36.9c-0.8,5.1-5.9,10.2,0.3,15.1c0.4,5.6,0.6,11-3.7,15.8c-21.5,23.3-31.1,55.6-56.9,75.7
	c-1.9,0.9-3.7,1.7-5.6,2.6c-3.5-0.2-4.9-2.4-5.1-5.6c0.1-0.4,0.2-1,0.4-1.2c30.4-24.4,32.9-58.9,33.6-93.9c0.1-5.4-2.2-6.8-5.4-1.3
	c-5.3,1.4-6.1,4-2.1,7.9c0.2,3.1-1.2,5.6-3.2,7.8c-12.9,11.9-18.8,26.8-14.8,37.5c-4.2,9.3-7.6,19.3-19.3,22
	c-2.9-4.7-7.3-6.3-12.4-8.3c-12.3-4.9-18.2,4.7-26.3,9.4c-0.7-0.4-1.5-0.6-2.3-0.5c-0.5-2.9-0.4-6-2.8-8.2c-0.2-2.7-0.3-5.5-2.6-7.5
	c0-1.8-0.9-2.9-2.5-3.3c0.2-0.8-0.1-1.4-0.9-1.8c0.7-3.7-2.7-3.8-4.6-5.2c-4.7-17.7-9.4-35.4-14.2-53.1c1.1-3.1,0.9-5.8-2.7-7.2
	c-0.5-1.7-1.1-3.4-1.6-5.2c4.2-4.2,0.9-7.5-2.1-9.4c-3.6-2.3-5.2,0.7-5.6,4.2c-4.6,12.8-2.4,26.1-2.2,39.2c0.7,2.6,1.4,5.3,2.1,7.9
	c0.2,8-0.8,16.1,3,23.6c0.5,1.5,1,3,1.6,4.4c-0.5,5.5,3,11,0.4,16.5c-0.8-0.3-1.6-0.3-2.5,0c-0.8-0.3-1.5-0.3-2.3-0.1
	c-0.7-0.4-1.4-0.6-2.2-0.6c-11.1-9-16-22.2-22.2-34.3c-7-13.5-13.4-27.3-20-41C139.8,338.7,145,329.7,146.6,320.1z"></path>
<path class="stcb8" d="M141.6,348.9c6.6,13.7,13,27.5,20,41c6.3,12.1,11.1,25.3,22.2,34.3c-17.7,3.6-2.1,11.5-0.3,12.8
	c17.6,12,31.2,30.6,54.3,34.2c3.4,0.5,8.2,3.5,8.1,9c-0.9,0.6-1.8,1.2-2.7,1.8c-1.4,0.1-2.7,0.1-4.1,0.2c-6.2-1.8-12.4-3.7-18.7-5.5
	c-1.6-1.7-3.5-2.2-5.7-1.7c-10-0.7-18.7-4.5-26.4-10.8c-20.8-34.7-37.6-71.1-49.5-109.8C139.8,352.5,140.7,350.7,141.6,348.9z"></path>
<path class="stcb8" d="M288,453.5c25.8-20.1,35.4-52.4,56.9-75.7c4.4-4.8,4.1-10.2,3.7-15.8c1.5-0.3,3.9-1.6,4.2,0.7
	c0.4,2.9,0.4,6.5-0.9,8.8c-17.3,29.6-26.7,63.3-47.8,90.7c-12.7,16.4-31.5,20.7-50.9,23c0.2-0.8,0.4-1.6,0.6-2.4
	c7.1-7.5,17.8-8.5,26.1-13.8C285.4,465.5,293.3,462.9,288,453.5z"></path>
<path class="stcb7" d="M220.5,476.7c6.2,1.8,12.4,3.7,18.7,5.5c-15,2.6-28.9-3.6-43.3-5.6c-5.1-0.7-12.3-3.9-7.5-12.4
	c7.7,6.3,16.4,10.1,26.4,10.8C216.3,476.8,218.3,477.1,220.5,476.7z"></path>
<path class="stcb8" d="M348.3,346.9c-10.2-10.2-10.5-24.2-14.1-36.9c2.6,0.9,5.3,1.7,8,2.6C343.3,324.2,349.1,334.9,348.3,346.9z"></path>
<path class="stcb7" d="M253.7,482.9c-0.2,0.8-0.4,1.6-0.6,2.4c-4.4,2.2-8.7,4-9.8-3.3c0.9-0.6,1.8-1.2,2.7-1.8
	C248.3,481.9,250.7,483.2,253.7,482.9z"></path>
<path class="stcb8" d="M341.2,307.7c-0.2-1.1-0.4-2.3-0.6-3.4C342,305.3,342.3,306.4,341.2,307.7z"></path>
<path class="stcb0" d="M313.4,262.6c-2.2,0-4.3-0.1-6.5-0.1c-3.1-7.8-6.8-15.1-13.7-20.3c-6-8.1-11.9-16.2-20.3-22.1
	c-5.4-6.6-11.3-10.9-19.5-4.2c-2.7,2.1-5.1,1.6-8.3,0.4c-7.3-2.8-13.3-0.4-17.6,6.2c-20.5,8.9-32,25.8-40.5,45.4
	c-6.9-0.6,2.1-10.5-6.1-10.5c13.2-26.1,29.1-48.6,62.9-47.3c3.1,0.1,5.8-0.7,8.7-1.9c11.4-4.9,23.1-3.7,31.9,4.2
	C299.4,225.7,310.3,242.1,313.4,262.6z"></path>
<path class="stcb0" d="M327.3,293.8c-9.6-7.2-10.4-18.4-13.2-28.7c4.6,1.9,5.4,6.9,8.1,10.3c0.4,4.9,1.7,9.4,4.9,13.2
	C327.2,290.4,327.3,292.1,327.3,293.8z"></path>
<path class="stcb8" d="M327.1,288.6c-3.2-3.8-4.5-8.3-4.9-13.2C330.1,277.6,332.1,281.8,327.1,288.6z"></path>
<path class="stcb1" d="M242.3,199.4c-0.8,2.7-3,2.6-5,2.5c-1.8-0.1-3.4-1.2-3.1-3c0.3-2.1,1.9-3.8,4.3-3.5
	C240.8,195.7,242.1,197.1,242.3,199.4z"></path>
<path class="stcb9" d="M273,220.1c8.4,5.9,14.3,14,20.3,22.1c2.6,8.4-3.4,16.8-0.3,25.2c-0.1,1.9-0.2,3.8-0.3,5.8
	c-0.3,0.2-0.8,0.5-0.8,0.6c0.2,0.6,0.5,1.1,0.8,1.7c0,1.9,0,3.7,0,5.6c-1.6,1.9-1.5,3.9-0.2,5.9c-3.5,17.1-6.9,34.2-10.4,51.4
	c-3.3,0.8-5.4,2.1-1.8,5.3c0,1.7-0.1,3.5-0.1,5.2c-0.6,0.4-0.8,0.9-0.4,1.6c-0.8,0.2-1.5,0.6-2.1,1.1c-0.6,1.4-1.1,2.9-1.7,4.3
	c-0.1,2.1-0.2,4.1-0.2,6.2c-0.3,1.7-0.6,3.4-0.9,5.1c-0.6,0.1-1.2,0.2-1.8,0.4c-4.8-1.8-7.1-6.3-6.7-10.3
	c1.6-13.9-12.1-23.1-10.4-36.8c0.1-0.8-2.4-2-3.8-3c-0.4-0.9-0.8-1.8-1.1-2.6c-0.1-2.6-0.1-5.1-0.2-7.7c-0.1-4.4-0.2-8.9-0.2-13.3
	c0.3-1.7,0.5-3.4,0.8-5.1c3.4-2.6,2.2-4.3-1.2-5.4c-0.3-1.7-0.6-3.5-0.9-5.2c3.7-10,10.1-18.5,9.3-30.8
	C257.7,236.9,262.5,226.1,273,220.1z"></path>
<path class="stcb9" d="M187.1,267.8c8.5-19.6,20-36.5,40.5-45.4c0.8,9.2,7.9,17.2,5.8,27c-0.1,4.3-0.3,8.6-0.4,12.9
	c0.5,0.9,1.1,1.8,1.6,2.7c0.2,1.8,0.5,3.5,0.7,5.3c-5.3,16.6-3.9,33.2-0.1,49.8c0,0,0.6,0.4,0.6,0.3c0,0-0.6,0.6-0.6,0.6l0.3,0.8
	c-0.3,2-0.5,4-0.8,6c-1.9,0.7-4.1,1-5.7,2.1c-2.4,1.7,0.1,8-5.4,6.8c-3.6-0.8-4.8-4.9-5.5-8c-1.2-4.8-1.9-9.4-8.4-8.7
	c-5.6-15.7-12.5-30.8-15.8-47.3c0.2-1.8-0.5-2.9-2.4-3.1C190,269,188.5,268.4,187.1,267.8z"></path>
<path class="stcb10" d="M220.1,414.2c2.3,2,2.5,4.7,2.6,7.5c-0.3,3.2-0.7,6.3,2.8,8.2c0.8,0,1.6,0.1,2.3,0.5
	c-0.9,9.7-8.6,11.1-15.8,13.1c-3.5-2.7-7-5.4-10.5-8.1c-0.3-5.5-3.7-8.7-8.5-10.6c-0.8-0.3-1.5-0.3-2.3,0.2c2.6-5.6-0.9-11-0.4-16.5
	c-0.5-1.5-1-3-1.6-4.4c-3.8-7.5-2.8-15.6-3-23.6c4-3.9,3.2-6.5-2.1-7.9c-0.2-13.1-2.4-26.3,2.2-39.2c5.3-2.3,4.4,4.6,7.7,5.2
	c0.5,1.7,1.1,3.4,1.6,5.2c-2.3,3.6-0.1,5.5,2.7,7.2c4.7,17.7,9.4,35.4,14.2,53.1c0,3.1,1.6,4.8,4.6,5.2c0.8,0.4,1.1,1,0.9,1.8
	C218.5,412,219.3,413.1,220.1,414.2z"></path>
<path class="stcb3" d="M306,354c3.2-5.5,5.5-4.1,5.4,1.3c-0.7,35-3.1,69.5-33.6,93.9c-0.3,0.2-0.3,0.8-0.4,1.2
	c-2.6,1.2-5.1,2.3-7.7,3.5c-0.4-8.3-7.4-15.8-3.1-24.6c11.7-2.7,15.1-12.8,19.3-22c6.6-11.8,12.8-23.8,14.8-37.5
	c2-2.2,3.4-4.7,3.2-7.8C306.2,359.7,306.5,357,306,354z"></path>
<path class="stcb1" d="M266.6,429.3c-4.3,8.9,2.6,16.4,3.1,24.6c-2.7,5.2-7.9,5.1-12.4,5c-6.3-0.1-12.7-1.4-19-2.2
	c-10.9-0.1-16.8-10.2-26.2-13.3c7.3-1.9,15-3.4,15.8-13.1c8.1-4.7,14-14.3,26.3-9.4C259.3,423,263.7,424.6,266.6,429.3z"></path>
<path class="stcb4" d="M212.1,443.4c9.4,3,15.3,13.2,26.2,13.3c-5.3,9.3,3.4,11.4,8.1,11.9c13.6,1.5,26.9-0.1,36-12.6
	c1.9-0.9,3.7-1.7,5.6-2.6c5.3,9.4-2.6,12-8.2,15.6c-8.3,5.3-18.9,6.3-26.1,13.8c-3,0.3-5.5-1-7.8-2.7c0.1-5.5-4.7-8.5-8.1-9
	c-23.1-3.6-36.7-22.2-54.3-34.2c-1.8-1.2-17.4-9.2,0.3-12.8c0.8,0,1.5,0.2,2.2,0.6c0.7,1.3,1.5,1.4,2.3,0.1c0.8-0.3,1.6-0.3,2.5,0
	c0.7-0.4,1.5-0.5,2.3-0.2c-2.3,7.7,3.8,8.6,8.5,10.6C205.1,438,208.6,440.7,212.1,443.4z"></path>
<path class="stcb0" d="M292.6,281c0-1.9,0-3.7,0-5.6c0.7-0.8,0.7-1.5,0-2.3c0.1-1.9,0.2-3.8,0.3-5.8c4.3-1.1,9.2,0.7,13.1-2.6
	c0.4,6.2,5.2,11.6,0.8,19c-3.5,5.8,4.6,7.4,10.7,9.8c-19.4,8.9-26,22.7-26.2,41.4c0,4-4.3,11.8-11.3,13.8c0-1.7,0.1-3.5,0.1-5.2
	c1.8-1.4,2.3-3.2,1.8-5.3c3.5-17.1,6.9-34.2,10.4-51.4C293.6,285,293.7,283,292.6,281z"></path>
<path class="stcb3" d="M252,317.3c1.3,1,3.9,2.1,3.8,3c-1.7,13.7,12,23,10.4,36.8c-0.5,4,1.9,8.5,6.7,10.3c0,1.7,0.1,3.3,0.1,5
	c-1.4,4.7-3.9,10.1-9.1,9c-4.4-1-6-6.7-6.8-11.5c-1.9-11.4-3.9-22.8-5.8-34.2c0.9-5.2,1-10.4-0.4-15.6
	C251.2,319.2,251.6,318.3,252,317.3z"></path>
<path class="stcb10" d="M209.7,320c6.6-0.7,7.3,3.9,8.4,8.7c0.8,3.2,1.9,7.2,5.5,8c5.5,1.2,2.9-5.1,5.4-6.8c1.6-1.1,3.8-1.4,5.7-2.1
	c-3.9,6.5,0.9,14.8-4.2,21.1c-0.3,0.2-0.9,0.4-0.9,0.6c0,0.7,0.3,1.3,0.5,1.9c0,1.8,0,3.6,0,5.4c-2.8,1.8-5.9,2.7-9.3,2.5
	C215.9,346.5,211.6,333.6,209.7,320z"></path>
<path class="stcb0" d="M282.4,456.1c-9.1,12.5-22.4,14.1-36,12.6c-4.7-0.5-13.4-2.6-8.1-11.9c6.3,0.8,12.7,2,19,2.2
	c4.5,0.1,9.7,0.2,12.4-5c2.6-1.2,5.1-2.3,7.7-3.5C277.6,453.6,278.9,455.9,282.4,456.1z"></path>
<path class="stcb0" d="M235.2,270.3c-0.2-1.8-0.5-3.5-0.7-5.3c0.1-0.9,0.3-1.9,0.4-2.8c0,0,0.7-0.7,0.7-0.7c2.5-1.1,5-2.2,7.5-3.3
	c0.7,0.3,1.3,0.7,1.8,1.3c0,2.4,1.6,2.3,3.3,2.1c4.1,5.3-6.6,11.3,0.8,16.4c0.3,1.7,0.6,3.5,0.9,5.2c-0.8,2.1-0.7,3.9,1.2,5.4
	c-0.3,1.7-0.5,3.4-0.8,5.1c-4.1-3.1-8.8-2.5-13.5-2.4C235.7,284.4,239.6,277,235.2,270.3z"></path>
<path class="stcb1" d="M306.1,264.7c-3.9,3.4-8.8,1.5-13.1,2.6c-3.1-8.4,2.9-16.8,0.3-25.2c6.9,5.2,10.6,12.6,13.7,20.3
	C306.5,263.2,306.2,263.9,306.1,264.7z"></path>
<path class="stcb0" d="M300.7,369.7c-2,13.6-8.2,25.6-14.8,37.5C281.9,396.5,287.8,381.6,300.7,369.7z"></path>
<path class="stcb3" d="M235.2,270.3c4.3,6.7,0.4,14,1.7,21c-1.4,9.6,1.1,19.4-1.8,28.8C231.3,303.5,229.9,286.9,235.2,270.3z"></path>
<path class="stcb0" d="M193.6,338.4c-3.3-0.6-2.4-7.5-7.7-5.2c0.4-3.5,2-6.5,5.6-4.2C194.5,330.9,197.8,334.2,193.6,338.4z"></path>
<path class="stcb3" d="M220.6,359.2c3.4,0.3,6.5-0.7,9.3-2.5c0,3.1,1.3,7.1-3.7,7.5C223,364.5,219.2,364.6,220.6,359.2z"></path>
<path class="stcb0" d="M277.5,351.5c0.6-0.5,1.4-0.9,2.1-1.1c0.1,4.4,2.3,9.5-4.1,11.6c0.1-2.1,0.2-4.1,0.2-6.2
	C276.4,354.3,277,352.9,277.5,351.5z"></path>
<path class="stcb3" d="M183.7,372.4c5.3,1.4,6,4.1,2.1,7.9C185.1,377.6,184.4,375,183.7,372.4z"></path>
<path class="stcb0" d="M250.9,320.1c1.4,5.2,1.3,10.4,0.4,15.6C247.4,330.6,247.7,325.4,250.9,320.1z"></path>
<path class="stcb0" d="M306,354c0.5,3,0.2,5.7-2.1,7.9C299.8,358.1,300.7,355.5,306,354z"></path>
<path class="stcb0" d="M272.9,372.4c0-1.7-0.1-3.3-0.1-5c0.6-0.2,1.2-0.3,1.8-0.4C278.5,370.3,276.3,371.6,272.9,372.4z"></path>
<path class="stcb3" d="M216.7,409.1c-3.1-0.4-4.6-2.1-4.6-5.2C214,405.3,217.4,405.4,216.7,409.1z"></path>
<path class="stcb0" d="M197.9,350.7c-2.8-1.7-5-3.6-2.7-7.2C198.8,344.9,199,347.6,197.9,350.7z"></path>
<path class="stcb3" d="M225.5,429.9c-3.5-1.9-3.1-5-2.8-8.2C225.1,423.9,225,427,225.5,429.9z"></path>
<path class="stcb0" d="M250.7,307c0.1,2.6,0.1,5.1,0.2,7.7C248.2,312.2,248.2,309.7,250.7,307z"></path>
<path class="stcb0" d="M191.5,269.7c1.9,0.2,2.5,1.3,2.4,3.1C193,271.7,192.2,270.7,191.5,269.7z"></path>
<path class="stcb8" d="M235.5,321.8l-0.3-0.8c0,0,0.6-0.6,0.6-0.6c0,0,0.7,0.8,0.7,0.8L235.5,321.8z"></path>
<path class="stcb3" d="M230,351.4c-0.2-0.6-0.4-1.3-0.5-1.9c0-0.2,0.6-0.4,0.9-0.6C230.5,349.8,230.4,350.6,230,351.4z"></path>
<path class="stcb3" d="M188.8,403.9c0.5,1.5,1,3,1.6,4.4C189.8,406.8,189.3,405.3,188.8,403.9z"></path>
<path class="stcb3" d="M220.1,414.2c-0.8-1.1-1.7-2.2-2.5-3.3C219.3,411.3,220.1,412.4,220.1,414.2z"></path>
<path class="stcb8" d="M188.3,424.8c-0.8,1.3-1.6,1.2-2.3-0.1C186.8,424.5,187.6,424.6,188.3,424.8z"></path>
<path class="stcb0" d="M220.5,476.7c-2.2,0.4-4.2,0.1-5.7-1.7C217,474.5,218.9,475,220.5,476.7z"></path>
<path class="stcb3" d="M249.1,278c-7.4-5.1,3.3-11.1-0.8-16.4c-0.3-1.9-1.6-2.4-3.3-2.1c-0.5-0.5-1.1-1-1.8-1.3
	c-2.2-2.4-4.9-1.3-7.4-0.7c-0.3-2.9,0.1-5.9-2.4-8.1c2.1-9.9-4.9-17.8-5.8-27c4.3-6.6,10.3-9,17.6-6.2c3.2,1.2,5.6,1.8,8.3-0.4
	c8.3-6.7,14.1-2.4,19.5,4.2c-10.4,6.1-15.2,16.8-14.6,27.2C259.2,259.5,252.9,268,249.1,278z"></path>
<path class="stcb3" d="M282,338.3c0.5,2.2,0,4-1.8,5.3C276.6,340.4,278.7,339.1,282,338.3z"></path>
<path class="stcb3" d="M251.2,288.6c-1.9-1.5-2-3.3-1.2-5.4C253.4,284.4,254.6,286,251.2,288.6z"></path>
<path class="stcb1" d="M292.6,281c1.1,2,1,4-0.2,5.9C291.1,284.9,291,282.9,292.6,281z"></path>
<path class="stcb1" d="M292.6,273.1c0.7,0.8,0.7,1.5,0,2.3c-0.3-0.6-0.6-1.1-0.8-1.7C291.8,273.6,292.4,273.3,292.6,273.1z"></path>
<path class="stcb3" d="M277.5,351.5c-0.6,1.4-1.1,2.8-1.7,4.3C276.4,354.3,277,352.9,277.5,351.5z"></path>
<path class="stcb10" d="M233.4,249.5c2.6,2.2,2.2,5.2,2.4,8.1c0,1.3-0.1,2.7-0.1,4c0,0-0.7,0.7-0.7,0.7c-0.7,0.1-1.3,0.1-2,0.1
	C233.1,258,233.2,253.7,233.4,249.5z"></path>
<path class="stcb3" d="M233,262.3c0.7,0,1.3,0,2-0.1c-0.1,0.9-0.3,1.9-0.4,2.8C234,264.1,233.5,263.2,233,262.3z"></path>
<path class="stcb3" d="M201.6,435.3c-4.8-2-10.9-2.9-8.5-10.6C197.9,426.6,201.2,429.7,201.6,435.3z"></path>
<path class="stcb8" d="M235.7,261.6c0-1.3,0.1-2.7,0.1-4c2.5-0.5,5.2-1.6,7.4,0.7C240.7,259.4,238.2,260.5,235.7,261.6z"></path>
<path class="stcb8" d="M245,259.5c1.7-0.2,3,0.2,3.3,2.1C246.6,261.9,245,261.9,245,259.5z"></path>
</svg>
