<svg version="1.1" id="Layer_1" xmlns="http://www.w3.org/2000/svg" xmlns:xlink="http://www.w3.org/1999/xlink" x="0px" y="0px" viewBox="0 0 501.3 503.3" style="enable-background:new 0 0 501.3 503.3;" xml:space="preserve">

<style type="text/css">
	.stcd0{fill:#3E151A;}
	.stcd1{fill:#E20C21;}
	.stcd2{fill:#C30103;}
</style>
<path class="stcd0" d="M378.9,361.9c-13,13.8-30.9,17.8-47.7,23.9c-3,1.1-6.1,1.9-9.2,2.8c-9.3-3.7-16.5,3.8-25.1,4.9
	c-30.4,3.8-60.6,4.6-91,1.1c-1.9-0.2-4,0.4-5.9,0.6c-8.5-3.9-18.1-3.4-26.9-6.2c-17.6-5.8-32.8-16-47.1-27.6c-0.2-1.8-1.6-3.6,0-5.4
	c3-6.2,6.8-1.5,10.3-0.7c8.5,6.7,15.7,15.8,26.5,18.6c22.9,5.8,45.7,12.2,69.8,12.2c19.9-0.1,39.3-2.7,59-5
	c23.8-2.8,44.8-13.3,66.3-22.5c6.5,0.9,11.4-4.7,17.8-4.4C376.7,356.9,377.8,359.4,378.9,361.9z"></path>
<path class="stcd1" d="M362.9,342.7c2.3,5.9,13.2,2.6,12.7,11.7c-6.4-0.3-11.3,5.3-17.8,4.4c-15.1-4.4-30.2-8.5-45.4-12.4
	c-13.1-3.4-27.7-2.6-39.3-11.4c-1.5-1-3-2-4.4-2.9c-0.9-5.8-9.4-2.9-10.2-8.8c4.1-3.7,8.9-7,12.3-11.3c5.2-6.6,9.8-7.1,15.4-0.9
	c4.2,4.6,9.3,7.4,15.7,7.5c0,0,0-0.1,0-0.1c5.4,5.8,12.7,7.7,20,9.5c9.5,4.1,18.9,8.5,29.3,9.7c1.1,0.2,2.1,0.4,3.2,0.6
	C356.2,341.8,359.5,342.3,362.9,342.7z"></path>
<path class="stcd1" d="M125.9,356.2c-2.2-2-4.4-4.1-6.5-6.1c0-5,4.5-5.6,7.5-7.6c13.3,1,25.4-2.1,36.4-9.8c0,0,0.3-0.1,0.3-0.1
	c20.4-3,39.7-9.3,57.4-20c13.7-8.3,17.6-7.7,27.8,5.4c0.1,3.2,0.2,6.4,0.3,9.6c-3.1,2.8-8,3.4-9.9,7.8c-19.3,3.6-39.1,3.8-58.5,5.9
	c-16.7,1.8-30.3,7.7-44.5,14.2C132.7,354.7,129,350,125.9,356.2z"></path>
<path class="stcd2" d="M136.2,355.5c14.2-6.6,27.9-12.5,44.5-14.2c19.4-2,39.2-2.3,58.5-5.9c3.4,9,8,17.3,19.2,16
	c9-1,16.1-5.3,14.7-16.4c11.6,8.8,26.1,8,39.3,11.4c15.2,3.9,30.3,8,45.4,12.4c-21.5,9.2-42.5,19.7-66.3,22.5
	c-19.6,2.3-39.1,4.9-59,5c-24.2,0.1-46.9-6.3-69.8-12.2C151.9,371.3,144.7,362.2,136.2,355.5z"></path>
<path class="stcd0" d="M273.1,335c1.5,11.1-5.7,15.4-14.7,16.4c-11.3,1.3-15.9-7-19.2-16c1.9-4.4,6.8-5,9.9-7.8
	c6.4,2,12.4,5.9,19.6,4.5C270.2,333,271.6,334,273.1,335z"></path>
<path class="stcd2" d="M268.7,332c-7.2,1.4-13.2-2.5-19.6-4.5c-0.1-3.2-0.2-6.4-0.3-9.6c3.2,1.8,6.5,3.5,9.7,5.3
	C259.3,329.1,267.8,326.2,268.7,332z"></path>
</svg>
