<svg version="1.1" id="Layer_1" xmlns="http://www.w3.org/2000/svg" xmlns:xlink="http://www.w3.org/1999/xlink" x="0px" y="0px" viewBox="0 0 501.3 503.3" style="enable-background:new 0 0 501.3 503.3;" xml:space="preserve">

<style type="text/css">
	.stca0{fill:#1E0E08;}
	.stca1{fill:#82942C;}
	.stca2{fill:#32300C;}
	.stca3{fill:#D9CFC1;}
	.stca4{fill:#E9C38E;}
	.stca5{fill:#2B8F05;}
	.stca6{fill:#579105;}
	.stca7{fill:#D9C3A5;}
	.stca8{fill:#D8907A;}
	.stca9{fill:#E4C9AB;}
	.stca10{fill:#EACFAF;}
	.stca11{fill:#F3D8BB;}
</style>
<path class="stca0" d="M420.1,446.1c-1.1,0.4-2.2,0.7-3.3,1.1c-2.7-1.2-4.8-1.1-4.9,2.6c-7.3,2.7-14.6,5.3-21.9,8c0,0,0.1,0,0.1,0
	c-1.3,0-2.6,0-3.8,0c-9-0.8-15.8,4.9-22.9,8.6c-21,11.1-43.5,16.3-66.6,19.4c-17.2-2.5-34.4-3.2-51.5,0.3
	c-30.9-2.6-58.9-15.1-87.2-26.3c-1.6-0.6-3.1-1.3-4.7-1.9c-18.7-4.5-37.6-8.4-56.1-13.8C79.9,439,70.7,420.9,76,404.9
	c6.7,2.1,8.1-2.5,10.1-7.3c8.8-21.3,22-39.9,36.2-57.9c1.9,0.1,3.8,0.1,5.7,0.2c7.7,16.9,31.1,21.3,42.5,8
	c13.8-15.8,16.8-15.5,28.8,2.8c1,4.5,2.8,8.6,6.3,11.9l0.6,0.5c1.1,0.5,2.3,1,3.4,1.5l0.1,0c1.7,2.8,4.4,3.7,7.5,4
	c3.2,6.3-1.8,7.5-5.8,9.6c-7.6,4-11.4,10-9.3,18.8c-0.5,1.3-1,2.5-1.5,3.8c-3.2,0.5-6.4,1-9.7,1.6c-4.3-1.5-0.4-7.7-5.1-8.9
	c-0.2-2.5-0.4-5-0.6-7.4c0.6-2-0.4-3-2.2-3.4c0.2-0.9-0.1-1.5-0.8-2c-0.4-4.4-1.8-8-7.3-6.6c-7.6,2-8.3,8.2-8.6,14.6l0,0
	c-5.7,1.8-12.4,2.2-13-4.7c-0.9-11.7-8.2-10.9-16-11c-14.7-0.1-26.4,5.8-35.3,17.4c-10.9,4.5-8.3,14.6-7.5,22.4
	c0.8,7.6,8.3,9.2,15.4,8.9c8.9-0.5,17.6-3.8,26.7-2.4c0,1.7,0,3.4,0,5c-0.8,0.3-1.6,0.4-2.4,0.3c-12,0-24.1-0.1-36.1-0.1
	c-4.2-2.2-9.7-6.2-12.4,0.1c-2.3,5.5,5.3,7.3,8.4,8.4c14.9,5,30.2,8.8,45.4,13c3,8.9,10.4,4.4,16,5.2c1,0.2,2,0.4,3,0.6
	c1.9,3.5,4.6,5.3,8.7,4c2.5,0.5,5,1,7.6,1.5c1.1,5.2,4.7,5.1,8.7,4c11.4,2.7,22.2,8.6,34.4,6.8c2.5,1.8,4.3,4.3,7.7,5.2
	c25.8,6.9,52.2,10.4,78.4,4.9c16.4-3.4,33.8-5.3,48-15.8c3.1-0.2,6,0.1,8.8-2.3c17.6-15.3,41-15.2,61.6-22.6
	C424.7,441.3,420.6,443.2,420.1,446.1z"></path>
<path class="stca1" d="M122.3,339.7c-14.2,17.9-27.4,36.6-36.2,57.9c-2,4.8-3.4,9.5-10.1,7.3c-0.8-13.1,8.9-22.7,11.6-34.6
	c0,0,0-0.2-0.1-0.2c3.2-0.6,4.7-2.6,4.9-5.7c10.3-15.4,20.5-30.7,30.8-46.1c0.9,0,1.6-0.3,2.2-0.9c0.6-0.7,1.3-1.4,1.9-2.2
	c5.4-7.3,9.1-15.9,17.1-21.4c9.1-6.2,17.8-13.2,25-21.6c0,0,0,0.1,0,0.1c10.6-2.7,20.5-8.7,32.1-6.1c-3.7,3.8-9.9,2-13.3,5.2
	c-8.2,7.6-25.9,5-24.4,22.8c-6.7,8.5-15.4,14.8-23.8,21.4C132,321.9,123.5,328.2,122.3,339.7z"></path>
<path class="stca2" d="M245.3,486.2c17.2-3.5,34.3-2.8,51.5-0.3C279.7,489,262.5,487.6,245.3,486.2z"></path>
<path class="stca3" d="M386.4,457.9c1.3,0,2.6,0,3.8,0C388.9,460.5,387.7,460.4,386.4,457.9z"></path>
<path class="stca2" d="M153.4,458c1.6,0.6,3.1,1.3,4.7,1.9C156.5,459.3,155,458.6,153.4,458z"></path>
<path class="stca1" d="M419.1,368.2c0.6,1.3,1.2,2.7,1.7,4c-3.5,9.1,2.6,18.1-0.1,27.2c-3.5-1-4.9-3.6-5.9-6.8
	c-4.3-13.8-10.1-26-23.2-34.9c-6.5-4.4-16.9-8.7-16.1-20.2c-0.2-7.2-15.7-27.8-22.3-28.7c-6-0.8-3.8,4.4-4.5,7.3
	c-18-14.8-40.4-21.9-60.4-33.1c-14.2-7.9-32.6-4.8-48.1-11.4c-6.6,0.5-13.5-2-19.6,2.3c-0.8,0.1-1.6,0.1-2.5,0.1
	c-2.8-3.9-10.5-0.8-11.1-7.8c1.9-0.4,3.8-0.8,5.7-1.1c0,0,1.3,0.2,1.3,0.2l1.3-0.3c0,0,1.1,0.7,1.1,0.7c0,1.9,0.1,1.7,0.4,0
	c1.2-0.3,2.4-0.6,3.6-0.9c12.7,0.9,25.4,1.2,38.1-0.4c13.9,2.7,27.8,5.3,40.8,11.4c6,5.5,12.8,8.7,21.1,7.9l0.2-0.7c0,0,0,0.8,0,0.8
	c7.3,9.9,18.5,12.5,29.5,15.5c1.4,0.9,2.7,1.8,4.1,2.8l-0.2,0c9.1,7.3,18.2,14.5,27.3,21.8l-0.1-0.1c1.4,6.3,4.7,11.1,10.5,14.1
	l0.2-0.8l-0.3,0.7C397.6,350.8,410.6,357.4,419.1,368.2z"></path>
<path class="stca4" d="M202,397.2c-2.1-8.8,1.7-14.8,9.3-18.8c4-2.1,9-3.3,5.8-9.6c-0.9-4.3-4.1-4.4-7.5-4c0,0-0.1,0-0.1,0
	c-0.7-1.6-1.8-2.1-3.4-1.5c0,0-0.6-0.5-0.6-0.5c1.8-6,2.5-11.4-6.3-11.9c-12-18.3-15-18.6-28.8-2.8c-2.6,0.6-5.1,1.5-7.7,1.9
	c-16.8,2.6-26.2-2.9-27.1-16c1.5-3.5,5.4-3.5,8-5.4c6,3.4,12.3,4.8,16.5-2.1c4.3-7.1,9.9-13.9,8.5-23.2c2.1-5,7-3.9,10.9-4.8
	c1.2,10.9,3.3,21.5,9.1,35.4c5-21.7,26.5-29.9,26.7-50.5c2.7,0,5.4-0.1,8.1-0.1c0.5,9-3.5,16.5-8.9,23.2
	c-13.5,16.6-11.7,10.8,3.4,25.3l0.2,0.2c0.1,3.4,1.9,5.1,5.2,5.3l0.2,0.2c3.6,7.4,7.1,7.4,10.7,0l0.2-0.2c3.4-0.2,5.1-1.9,5.2-5.3
	c1.8-10.9,8.4-21.1,5.4-32.8c0.7-5.6,4.2-8.8,9-11.1c7.4,8.6,7.9,20.1,12.3,30c2.6,5.7-0.9,17.4,6.6,16.6c7.4-0.8,3.9-12.3,5.1-19.2
	c3.8-0.7,6.1-1.9,2.2-5.7c0.1-1.7,0.2-3.4,0.3-5.1c6.9-1.8,15.5-6.2,20.1,0.7c5.5,8.2,14.6,9.7,20.8,15.7c0.1,7.2,0.1,14.4,0.3,21.6
	c0.1,3,1.9,5,5.2,5c3.3,0,5-2,5.1-5.1c0.2-5.4,0.2-10.8,0.3-16.2c1.7,0,3.5,0,5.2,0c1.9,9.2,8.4,18,1.2,28c-5.8,8-9.9,17.2-17,24.3
	c-2.7,3.2-17.2,0.5-5.4,10.9c0.7,0.7,1.3,1.4,2,2.1l0.6,0.7c-0.3,3-0.3,5.8,2.7,7.6c0.2,3.7,0.3,7.4,0.5,11.1
	c-5.9,9-3.9,21-11.3,29.4c-1.9,0-3.7-0.1-5.6-0.1c-1.2-8.8,7.8-15.1,5.5-24.5c-1.2-4.7-2.5-7.5-7.6-7.5c-3.8,0-8.9,0.4-8.2,4.8
	c1.6,10.2-6.3,17.7-6.1,27.2c-4.8,0.9-9.5,1.8-14.3,2.7c-4.1-1.6-8.1-1.9-12.3-0.3c-2.1-0.4-4.2-0.7-6.2-1.1
	c-1.7-0.1-3.5-0.1-5.2-0.2c-11.5-3.6-23.6-2.9-35.3-4.6c-0.8-1.1-1.6-2.2-2.5-3.3c0,0,0.8-0.8,0.8-0.8c3.9-1.2,12.3,1.5,11.4-2
	c-2.4-9.2,5.6-15.2,4.1-24.1c-2.2-12.6-4.1-14.7-16.6-10.3C209.4,397.2,205.6,396.8,202,397.2z M245.6,375.1c-6,1.5-8.1,7.5-3.2,9.2
	c9.6,3.4,9.8,13.6,16.7,18.3c3.9-0.2,23.8-20.5,23.2-23.9c-0.2-1.2-1.6-2.2-2.5-3.2c-4.7-5.2-8-10.7-6.2-18.3
	c0.9-3.8-3.6-7.3-4.9-4.5C263.9,363.6,249.1,363.5,245.6,375.1z"></path>
<path class="stca5" d="M351.8,462.5c-14.3,10.5-31.7,12.4-48,15.8c-26.2,5.4-52.6,1.9-78.4-4.9c-3.4-0.9-5.2-3.3-7.7-5.2
	c0.4-5.3-1.9-6.9-7.3-6.9c-4.8,0-10-1.3-12.4-6.7c-0.9-2.1-2-4.3-0.2-6.3c1.6-1.7,3.2,0,4.9,0.2c26.9,4,53.5,10.6,81,8.3
	c3.1-0.3,9.2,2.2,7.7-5.3c9.3-5.9,19.9-6,30.3-7.5c7.4,3.6,15.6,2,23.3,3.6c2.6,0.6,6.5-3.2,7.8,1.5c0.9,3.1-1.8,5.3-4.3,7.5
	C342.2,462.3,348.9,461.5,351.8,462.5z"></path>
<path class="stca2" d="M143.7,328.5c-2.6,1.9-6.5,1.8-8,5.3c-2.6,2-5.1,4-7.7,6.1c-1.9-0.1-3.8-0.1-5.7-0.2c1.2-11.4,9.7-17.8,17.7-24
	c8.4-6.6,17.1-12.9,23.8-21.4c16.5-11.1,35.4-15.6,54.4-20.1c0.8,0,1.6,0,2.5-0.1c6.6-0.3,13.4,1.9,19.6-2.3
	c15.5,6.6,33.9,3.5,48.1,11.4c20.1,11.2,42.4,18.3,60.4,33c8.4,7.8,13.9,19.2,26.8,21.3c-0.8,11.5,9.6,15.8,16.1,20.2
	c13.1,8.8,18.9,21,23.2,34.9c1,3.2,2.4,5.8,5.9,6.8c0,2.9-0.1,5.9-0.1,8.8c-3.7,3.9-5.5,8.5-5.6,13.8c-6.4,4.7-12.1,10.2-20.4,12.1
	c-7.3,1.7-11.4-7.8-18.7-4.3c-8.4-1-16.4,1.4-24.6,2.5c-1.2-1.1-2.4-2.1-3.6-3.2c2.8-4.1,8.2-2.7,11.6-5.7
	c10.1,0.1,20.1,0.2,30.2,0.3c19.4-2.5,22.2-6,16.4-20.8c4.7-10.6-3.5-18.5-5.7-27.6c-0.8-0.7-1.5-1.4-2.3-2
	c-11.9-10.3-23.8-20.5-35.6-30.8c-7.4-8.6-11.6-20.6-24.5-23.6c-14.8-13.6-33.5-20.1-51.4-28.3c-10.1-6.7-21-9.7-33.1-7.7
	c-10-3.4-19.9-0.3-29.8,0.3c-2.7,0-5.4,0.1-8.1,0.1c-8.3,0.5-16.5,1.8-23.8,5.7c-4.4,2.4-12.5,0.7-12.1,9.4
	c-3.9,0.9-8.8-0.2-10.9,4.8C160.1,311.4,145.6,313.7,143.7,328.5z"></path>
<path class="stca6" d="M291.3,451.5c1.5,7.5-4.6,5-7.7,5.3c-27.5,2.4-54.1-4.2-81-8.3c-1.7-0.2-3.3-1.9-4.9-0.2
	c-1.8,2-0.8,4.2,0.2,6.3c2.4,5.4,7.6,6.7,12.4,6.7c5.4,0,7.7,1.6,7.3,6.9c-12.3,1.8-23.1-4.1-34.4-6.8c-2.2-2.8-4.9-4.6-8.7-4
	c-2.5-0.5-5-1-7.6-1.5c-2.3-2.6-5.1-4.2-8.7-4c-1-0.2-2-0.4-3-0.6c-4.6-4-10-5.5-16-5.2c-15.2-4.2-30.5-8-45.4-13
	c-3.1-1-10.7-2.8-8.4-8.4c2.6-6.3,8.1-2.4,12.4-0.1c1.2,6.3,6.3,5.4,10.4,5c8.7-1,17.5-1.3,25.7-4.9c0.8,0.1,1.6,0,2.4-0.3
	c26.9,1.9,50.7,17.9,78.1,17.1C239.5,448.8,265.2,451.8,291.3,451.5z"></path>
<path class="stca6" d="M376,429.8c7.3-3.5,11.3,6,18.7,4.3c8.3-1.9,14-7.4,20.4-12.1c2.2,4.8,2.5,10.6,7.9,13.6
	c-0.1,0.7-0.3,1.4-0.7,2.1c-20.6,7.4-44,7.2-61.6,22.6c-2.7,2.4-5.7,2.1-8.8,2.3c-2.9-1-9.6-0.1-3.4-5.9c2.4-2.2,5.1-4.5,4.3-7.5
	c-1.3-4.6-5.2-0.9-7.8-1.5c-7.7-1.7-15.9,0-23.3-3.6c7.4-1.2,14.7-2.4,22.1-3.6c7.8,0.9,15.1-1.7,22.7-2.4
	C372,437.4,376.3,436.7,376,429.8z"></path>
<path class="stca7" d="M101.7,390.4c8.9-11.6,20.6-17.5,35.3-17.4c7.9,0,15.1-0.7,16,11c0.6,6.9,7.3,6.6,13,4.7
	c0.5,5.4-1.1,10-5.1,13.7c-2.8-1.1-5.6-2.3-8.3-3.4c-1.7-9.9-4.1-16-15.1-6.6c-6.6,5.6-15.4,8.6-23.1,12.8c-4.5-0.4-5.5-3.5-5.4-7.3
	C109.2,392.8,105.6,391.5,101.7,390.4z"></path>
<path class="stca8" d="M101.7,390.4c3.9,1,7.4,2.4,7.3,7.5c-0.1,3.8,0.9,6.9,5.4,7.3c0.6,6.1,4.5,8.9,10,7.9
	c10.7-1.9,22.3-2.5,28.3-14.1c2.8,1.1,5.6,2.3,8.3,3.4c0,3.7-0.1,7.3-0.1,10.9c-2.2,1.5-2.7,3.7-2.9,6.1c-7.2,0-14.4-0.1-21.7-0.1
	c-9.1-1.4-17.7,1.9-26.7,2.4c-7.2,0.4-14.7-1.2-15.4-8.9C93.4,405,90.8,395,101.7,390.4z"></path>
<path class="stca9" d="M202,397.2c3.6-0.3,7.4,0,10.7-1.1c12.5-4.4,14.4-2.3,16.6,10.3c1.6,8.9-6.5,15-4.1,24.1
	c0.9,3.4-7.4,0.8-11.4,2c-9.7-8.3-3.9-23.1-13.4-31.5C201,399.7,201.5,398.4,202,397.2z"></path>
<path class="stca2" d="M136.3,419.3c7.2,0,14.4,0.1,21.7,0.1c10.5,2.9,21.1,5.9,31.6,8.8c7,5.4,15.4,4.3,23.4,5
	c0.8,1.1,1.6,2.2,2.5,3.3c-0.3,1.6-0.7,3.3-1,4.9c-27.5,0.8-51.3-15.2-78.1-17.1C136.3,422.7,136.3,421,136.3,419.3z"></path>
<path class="stca4" d="M189.6,428.2c-10.5-2.9-21.1-5.9-31.6-8.8c0.2-2.4,0.7-4.7,2.9-6.1c8.5-6.3,18.7-10.5,24.8-19.8
	c4.7,1.2,0.8,7.5,5.1,8.9C189.7,411,192.9,419.8,189.6,428.2z"></path>
<path class="stca8" d="M189.6,428.2c3.3-8.4,0-17.2,1.2-25.7c3.2-0.5,6.4-1,9.7-1.6c9.5,8.4,3.7,23.2,13.4,31.5c0,0-0.8,0.8-0.8,0.8
	C205,432.5,196.6,433.6,189.6,428.2z"></path>
<path class="stca9" d="M185.7,393.5c-6.2,9.2-16.4,13.4-24.8,19.8c0-3.6,0.1-7.3,0.1-10.9c4-3.7,5.6-8.3,5.1-13.7c0,0,0,0,0,0
	c7.1,0.9,8.5-9.6,15.9-8c0.8,0.5,1.1,1.1,0.8,2c0.7,1.1,1.5,2.3,2.2,3.4C185.3,388.6,185.5,391.1,185.7,393.5z"></path>
<path class="stca8" d="M128,339.9c2.6-2,5.1-4,7.7-6.1c1,13.1,10.3,18.6,27.1,16c2.6-0.4,5.1-1.3,7.7-1.9
	C159.1,361.2,135.7,356.8,128,339.9z"></path>
<path class="stca2" d="M133.9,424.6c-8.2,3.6-17,3.9-25.7,4.9c-4.1,0.5-9.2,1.4-10.4-5C109.8,424.6,121.9,424.6,133.9,424.6z"></path>
<path class="stca7" d="M182,380.7c-7.5-1.6-8.8,8.9-15.9,8c0.4-6.3,1.1-12.6,8.6-14.6C180.2,372.7,181.6,376.3,182,380.7z"></path>
<path class="stca2" d="M139.2,446c6-0.3,11.4,1.2,16,5.2C149.6,450.4,142.2,455,139.2,446z"></path>
<path class="stca8" d="M199.3,350.7c8.7,0.5,8.1,5.9,6.3,11.9C202.1,359.3,200.3,355.2,199.3,350.7z"></path>
<path class="stca2" d="M174.5,457.3c3.8-0.5,6.5,1.2,8.7,4C179.1,462.4,175.6,462.6,174.5,457.3z"></path>
<path class="stca2" d="M158.2,451.9c3.6-0.2,6.4,1.4,8.7,4C162.8,457.2,160.1,455.3,158.2,451.9z"></path>
<path class="stca8" d="M209.6,364.7c3.4-0.4,6.6-0.3,7.5,4C214,368.4,211.3,367.5,209.6,364.7z"></path>
<path class="stca8" d="M206.1,363.1c1.6-0.6,2.8-0.1,3.4,1.5C208.4,364.1,207.3,363.6,206.1,363.1z"></path>
<path class="stca7" d="M185.1,386.1c-0.7-1.1-1.5-2.3-2.2-3.4C184.6,383.1,185.6,384.1,185.1,386.1z"></path>
<path class="stca6" d="M218.2,274.1c-18.9,4.6-37.9,9.1-54.4,20.1c-1.5-17.8,16.3-15.2,24.4-22.8c3.4-3.2,9.6-1.4,13.3-5.2
	c1.8,0,3.7,0,5.5,0C207.7,273.3,215.4,270.3,218.2,274.1z"></path>
<path class="stca9" d="M125.5,317.4c0.6-0.7,1.3-1.4,1.9-2.2C126.7,315.9,126.1,316.7,125.5,317.4z"></path>
<path class="stca8" d="M216.8,265.8c-0.3,1.6-0.4,1.8-0.4,0C216.5,265.7,216.8,265.8,216.8,265.8z"></path>
<path class="stca1" d="M420.6,408.1c4,4-0.6,14.1,9.7,13.8c0,0.8,0.3,1.6,0.8,2.3c-2.7,3.8-5.5,7.6-8.2,11.4c-5.3-3-5.6-8.8-7.9-13.6
	C415.2,416.7,417,412,420.6,408.1z"></path>
<path class="stca6" d="M375.6,337.5c-12.9-2.2-18.4-13.6-26.8-21.3c0.7-3-1.5-8.2,4.5-7.3C359.8,309.7,375.4,330.3,375.6,337.5z"></path>
<path class="stca6" d="M240.2,271.7c-6.1,4.2-13,2-19.6,2.3C226.8,269.7,233.7,272.2,240.2,271.7z"></path>
<path class="stca9" d="M350,299.3c1.4,0.9,2.7,1.8,4.1,2.8C352.7,301.1,351.4,300.2,350,299.3z"></path>
<path class="stca0" d="M400.3,375.2c2.1,9.2,10.4,17.1,5.7,27.6c-8-1.5-15.2-0.9-19.5,7.4c-0.6,1.1-1.1,2.1-1.7,3.2
	c0,0-0.4,0.5-0.4,0.5c-7.3,5.2-12.8-2.4-19.4-2.7c-4.3-4.5-3.3-13.1-11.5-14.5c-0.7-2.3-2.1-2.5-3.9-1.3c-2.1,0.2-4.2,0.5-6.3,0.7
	c-6.6,2.3-8.8,8-10.6,13.9c-2.9,9.5-6.6,5.5-10.4,0.7c-0.2-3.7-0.3-7.4-0.5-11.1c2.1-3.6,1-6.1-2.7-7.6c0,0-0.6-0.7-0.6-0.6
	c-0.7-0.7-1.3-1.4-2-2.1c-11.8-10.4,2.8-7.7,5.4-10.9c11.7-2.4,22.9-5,25.5-19.7c1.2-6.7,5.8-3.5,9.5-2.1c7.3,4.1,2,15.8,11.3,18.8
	c7.4,6.2,15.4,6.5,23.9,2.5l0.7-0.1C395.6,378.4,398.4,378.1,400.3,375.2z"></path>
<path class="stca0" d="M214.4,441.4c0.3-1.6,0.7-3.3,1-4.9c11.7,1.7,23.8,1,35.3,4.6c1.6,2.3,3.4,2.5,5.2,0.2c2.1,0.4,4.2,0.7,6.2,1.1
	c4,1.8,8.1,1.6,12.3,0.3c4.8-0.9,9.5-1.8,14.3-2.7c5.5,0,11,0,16.4,0c1.9,0,3.7,0.1,5.6,0.1c11.4,0.8,19.9-6.5,29.6-10.7
	c2.5-0.1,4.9-0.2,7.4-0.3c1.2,1.1,2.4,2.1,3.6,3.2c-2.6,2.6-7.9,2.7-7.7,8.1c-7.4,1.2-14.7,2.4-22.1,3.6c-10.4,1.5-21,1.7-30.3,7.5
	C265.2,451.8,239.5,448.8,214.4,441.4z"></path>
<path class="stca2" d="M245.6,375.1c3.5-11.7,18.3-11.6,23.2-22.5c1.2-2.8,5.8,0.8,4.9,4.5c-1.8,7.6,1.5,13.1,6.2,18.3
	c0.9,1,2.3,2,2.5,3.2c0.6,3.3-19.3,23.6-23.2,23.9C257.5,392,261.6,378.7,245.6,375.1z"></path>
<path class="stca8" d="M179.6,298.3c-0.4-8.7,7.6-7.1,12.1-9.4c7.3-3.9,15.5-5.2,23.8-5.7c-0.2,20.7-21.7,28.8-26.7,50.5
	C182.9,319.9,180.8,309.2,179.6,298.3z"></path>
<path class="stca8" d="M253.3,282.8c12.1-2,23,0.9,33.1,7.7c-6.7,2.7-5.9,8.4-5.8,13.9c-0.1,1.7-0.2,3.4-0.3,5.1
	c-0.7,1.9-1.5,3.8-2.2,5.6c-1.2,6.8,2.4,18.3-5.1,19.2c-7.5,0.8-4-10.9-6.6-16.6c-4.4-9.9-4.9-21.4-12.3-30
	C253.9,286.1,253.6,284.5,253.3,282.8z"></path>
<path class="stca10" d="M253.3,282.8c0.3,1.7,0.5,3.3,0.8,5c-4.8,2.2-8.3,5.5-9,11.1c-16.3,0.2-26.1,12-27.2,32.6
	c-15.1-14.4-16.9-8.7-3.4-25.3c5.4-6.7,9.4-14.1,8.9-23.2C233.4,282.5,243.3,279.5,253.3,282.8z"></path>
<path class="stca8" d="M356.7,356.6c-3.7-1.4-8.3-4.6-9.5,2.1c-2.5,14.7-13.8,17.3-25.5,19.7c7.1-7.1,11.2-16.3,17-24.3
	c7.2-9.9,0.7-18.7-1.2-28c0-2.4,0.1-4.8,0.1-7.2c12.9,3,17.1,15,24.5,23.6C354.9,345,358.4,351.8,356.7,356.6z"></path>
<path class="stca11" d="M217.9,331.5c1-20.6,10.8-32.4,27.2-32.6c2.9,11.7-3.7,21.9-5.4,32.8c-3.3,0.2-5.1,2-5.2,5.3
	c0,0-0.2,0.2-0.2,0.2c-3.6,0-7.1,0-10.7,0c0,0-0.2-0.2-0.2-0.2c-0.2-3.3-1.9-5.1-5.2-5.3L217.9,331.5z"></path>
<path class="stca8" d="M340.4,429.4c-9.6,4.2-18.1,11.5-29.6,10.7c7.4-8.4,5.4-20.4,11.3-29.4c3.8,4.8,7.5,8.8,10.4-0.7
	c1.8-5.9,4-11.6,10.6-13.9c1.1,7.1-2.9,12.7-5.9,18.4C334,420.6,335.2,425.3,340.4,429.4z"></path>
<path class="stca9" d="M337.8,318.8c0,2.4-0.1,4.8-0.1,7.2c-1.7,0-3.5,0-5.2,0c-1.2-6.7-6.5-5.1-10.9-5.4c-6.3-6-15.4-7.5-20.8-15.7
	c-4.6-6.9-13.2-2.4-20.1-0.7c-0.1-5.5-0.8-11.3,5.8-13.9C304.2,298.7,322.9,305.2,337.8,318.8z"></path>
<path class="stca9" d="M305.3,440c-5.5,0-11,0-16.4,0c-0.1-9.5,7.7-17,6.1-27.2c-0.7-4.4,4.4-4.7,8.2-4.8c5.1-0.1,6.5,2.8,7.6,7.5
	C313.1,424.9,304.1,431.2,305.3,440z"></path>
<path class="stca7" d="M143.7,328.5c1.9-14.8,16.4-17.1,25-25.3c1.4,9.3-4.3,16.1-8.5,23.2C155.9,333.3,149.7,331.9,143.7,328.5z"></path>
<path class="stca10" d="M321.5,320.8c4.4,0.3,9.7-1.4,10.9,5.4c-0.1,5.4-0.1,10.8-0.3,16.2c-0.1,3.1-1.9,5-5.1,5.1c-3.3,0-5.1-2-5.2-5
	C321.6,335.2,321.6,328,321.5,320.8z"></path>
<path class="stca7" d="M245.6,375.1c15.9,3.5,11.9,16.9,13.5,27.5c-6.9-4.7-7.1-14.9-16.7-18.3C237.5,382.6,239.6,376.7,245.6,375.1z"></path>
<path class="stca10" d="M223.6,337.2c3.6,0,7.1,0,10.7,0C230.7,344.6,227.1,344.6,223.6,337.2z"></path>
<path class="stca8" d="M319,392c3.7,1.5,4.8,4,2.7,7.6C318.7,397.8,318.7,394.9,319,392z"></path>
<path class="stca2" d="M274.5,442.7c-4.1,1.3-8.2,1.5-12.3-0.3C266.4,440.8,270.5,441.1,274.5,442.7z"></path>
<path class="stca9" d="M278.1,315.2c0.7-1.9,1.5-3.8,2.2-5.6C284.2,313.2,281.9,314.5,278.1,315.2z"></path>
<path class="stca10" d="M234.5,337c0.1-3.3,1.9-5.1,5.2-5.3C239.6,335.1,237.8,336.8,234.5,337z"></path>
<path class="stca10" d="M218.1,331.7c3.3,0.2,5.1,1.9,5.2,5.3C220,336.8,218.2,335.1,218.1,331.7z"></path>
<path class="stca2" d="M256,441.3c-1.8,2.3-3.6,2.1-5.2-0.2C252.5,441.1,254.3,441.2,256,441.3z"></path>
<path class="stca8" d="M316.4,389.3c0.7,0.7,1.3,1.4,2,2.1C317.7,390.6,317,390,316.4,389.3z"></path>
<path class="stca7" d="M356.7,356.6c1.6-4.8-1.8-11.6,5.6-14.2c11.9,10.3,23.8,20.5,35.6,30.8c-1.8,1.5-3.6,3-5.4,4.5
	c0,0-0.7,0.1-0.7,0.1c-8-0.8-15.9-1.7-23.9-2.5C358.7,372.4,364.1,360.7,356.7,356.6z"></path>
<path class="stca7" d="M340.4,429.4c-5.2-4.1-6.4-8.8-3.1-14.9c3.1-5.7,7-11.3,5.9-18.4c2.1-0.2,4.2-0.5,6.3-0.7
	c0.9,1.6,2.3,1.8,3.9,1.3c8.2,1.4,7.3,10,11.5,14.5c-4.5,2.9-5.6,7.3-5.6,12.2c-3.3,2.9-8.8,1.6-11.6,5.7
	C345.3,429.2,342.9,429.3,340.4,429.4z"></path>
<path class="stca7" d="M386.4,410.2c4.3-8.2,11.5-8.9,19.5-7.4c5.8,14.8,3,18.4-16.4,20.8c-1.7-3.3-3.5-6.6-5.2-9.8
	c0,0,0.4-0.5,0.4-0.5C385.3,412.3,385.9,411.3,386.4,410.2z"></path>
<path class="stca8" d="M384.3,413.8c1.7,3.3,3.5,6.6,5.2,9.8c-10.1-0.1-20.1-0.2-30.2-0.3c0-4.9,1.1-9.4,5.6-12.2
	C371.5,411.5,377,419,384.3,413.8z"></path>
<path class="stca1" d="M343.7,440.3c-0.2-5.3,5.1-5.4,7.7-8.1c8.2-1.1,16.2-3.5,24.6-2.5c0.3,6.8-4,7.6-9.6,8.1
	C358.8,438.7,351.5,441.3,343.7,440.3z"></path>
<path class="stca8" d="M392.6,377.7c1.8-1.5,3.6-3,5.4-4.5c0.8,0.7,1.5,1.4,2.3,2C398.4,378.1,395.6,378.4,392.6,377.7z"></path>
<path class="stca4" d="M152.7,399c-5.9,11.7-17.6,12.2-28.3,14.1c-5.5,1-9.4-1.9-10-7.9c7.8-4.2,16.5-7.2,23.1-12.8
	C148.6,383,151,389.1,152.7,399z"></path>
<path class="stca8" d="M368,375.4c8,0.8,15.9,1.7,23.9,2.5C383.4,381.8,375.4,381.6,368,375.4z"></path>
<path class="stca8" d="M353.5,396.7c-1.6,0.5-3,0.3-3.9-1.3C351.4,394.2,352.8,394.4,353.5,396.7z"></path>
<path class="stca8" d="M386.4,410.2c-0.6,1.1-1.1,2.1-1.7,3.2C385.3,412.3,385.9,411.3,386.4,410.2z"></path>
</svg>
