<svg version="1.1" id="Layer_1" xmlns="http://www.w3.org/2000/svg" xmlns:xlink="http://www.w3.org/1999/xlink" x="0px" y="0px" viewBox="0 0 501.3 503.3" style="enable-background:new 0 0 501.3 503.3;" xml:space="preserve">

<style type="text/css">
	.stcc0{fill:#06233C;}
	.stcc1{fill:#015D8E;}
	.stcc2{fill:#078D9B;}
	.stcc3{fill:#0B387C;}
</style>
<path class="stcc0" d="M181.3,407.9c-1.3-4.5-5.6-6.4-8.1-9.9c0.7-11.7-8.2-22.1-4.5-34.2c0.9-1.7,1.9-3.4,2.8-5.1
	c4.2-7.4-3.5-7.7-6.4-10.9c-0.6-0.8-1.3-1.6-1.9-2.3c-0.3-2.1-0.8-4.1-2.9-5.2c0,0,0.1,0.1,0.1,0.1c-0.2-4.9-0.4-9.7-0.6-14.6
	c0,0,1-0.5,1-0.5c1.4,0.8,3.7,1.4,4,2.5c6.1,20.5,21.6,24.1,40,22.4c11.6-0.3,23.5,2.9,34.8-2c1-0.9,1.9-1.9,2.9-2.8
	c9.4,0,18.6,1.5,27,5.9c5.3,3.9,11,6.5,17.7,5.6c1.7,0.7,3.3,1.5,5,2.2c3.1,2.2,6.5,1.5,9.9,1.4c1.8,0.1,3.6,0.2,5.4,0.2
	c7.8,1.4,15.5,1.2,22.8-2.5c5.2,0,10.1,0.3,9.9,7.5c-2.2,1.6-4.3,3.2-6.5,4.9c-7.2,0.3-14.4,0.5-21.6,0.8c-9-0.3-18-0.6-27-1
	c-4.3-4.5-9.8-4.6-15.4-4.5c-6.6-0.8-11,6.5-17.8,4.8c-4-3.3-8.1-6.6-12.1-9.9c-5.9,0.1-11.7,0.2-17.6,0.3c-3.3,0.1-6.6,0.2-9.8,0.3
	c-2.5-0.1-5.1-0.2-7.6-0.3c-4.2-0.1-8.5-0.1-12.7-0.2c-6.2-0.6-12-0.1-12.4,7.9c-0.4,8.5-1.1,17.2,5,24.4c3.9,3.8,2.5,11.7,9.9,12.9
	c5.4,4.8,10.3,10.2,17.6,12.3c7.2,2.9,13.5,10.2,22.5,5c8.3,5.7,21.2-0.9,27.4,10.4c-14.4,5.1-28.7,2.8-42.8-1.4
	c-5.8-1.7-11.3-4.6-16.9-7c-1.6-1.1-3.1-2.2-4.7-3.3C193.3,416.2,187.4,412,181.3,407.9z"></path>
<path class="stcc1" d="M285.3,370.4c9,0.3,18,0.6,27,0.9c0.1,1.4,0.1,2.7,0.2,4.1c-3.1,2.7-1.7,5.8-1.1,9.1c1.8,9.1,2.5,18.6-2.4,26.6
	c-3.7,5.9-1.3,9.7,0.9,14.2c-14.8,8.9-31.7,6.2-47.6,8.3c-6.2-11.3-19.1-4.7-27.4-10.4c1.5-1.8,3.1-3.5,4.6-5.3
	c3.2,4.5,8,8.2,11.9,2.6c5-7.2,12.3-15.7,9.6-24.3c-2.4-7.7,6.2-20.5-8.8-23.4c0-0.8,0-1.5-0.1-2.3c6.8,1.8,11.2-5.6,17.8-4.8
	c0.4,16.2,2.8,32.5-4.2,48.2c-2.4,5.4-0.2,10.4,4.4,14.3c2.5,2.1,6.1,3.6,7.6,1c6-10.7,17-19.2,13.4-34.2
	C289.3,387,288.3,378.5,285.3,370.4z"></path>
<path class="stcc2" d="M330.4,358.3c-7.3,3.7-14.9,3.8-22.8,2.5c15.3-18.5,19.8-43.2,10.8-59.3c2.7,0.2,5.4,0.3,8.1,0.5l0.7-0.1
	c0,0-0.7,0-0.7,0c1,4.8,4.9,4.4,8.4,4.7c1.4,1.5,2.8,3.1,4.2,4.6c1,2.1,2.2,3.9,5,3.4c-0.5,0.2-0.7,0.5-0.5,1
	c0.8,3.5,1.6,7.1,2.4,10.6C343.5,338.2,345.5,352.4,330.4,358.3z"></path>
<path class="stcc3" d="M312.5,375.5c-0.1-1.4-0.1-2.7-0.2-4.1c7.2-0.3,14.4-0.5,21.6-0.8c9.1,20.6,1.8,36.8-13.7,50.7
	c-7.2-5-1.2-10.9-1.2-16.4C319.1,394.7,325.3,382.9,312.5,375.5z"></path>
<path class="stcc2" d="M312.5,375.5c12.8,7.4,6.6,19.2,6.5,29.4c0,5.5-6,11.4,1.2,16.4c-1.5,6.1-6.3,4.1-10.2,4.1
	c-2.3-4.6-4.6-8.4-0.9-14.2c5-7.9,4.3-17.5,2.4-26.6C310.7,381.3,309.4,378.2,312.5,375.5z"></path>
<path class="stcc3" d="M330.4,358.3c15.1-5.9,13.1-20,15.6-32.1c2.3,13.8,6.8,27.9-5.7,39.5C340.5,358.6,335.6,358.3,330.4,358.3z"></path>
<path class="stcc1" d="M239.7,348.2c-11.4,4.9-23.2,1.7-34.8,2c0.5-1.6,4.7-2.9,1.7-4.6c-11.8-6.7-11.9-17.6-11.9-29
	c0-16.1,0-16.1-16.4-15.6c4.5-5.2,9.8-9.3,16.8-10.5c5,0,9.9,0,14.9,0c14.3-0.1,23.9,7.1,30.4,19.3
	C225.9,319,225.7,332.7,239.7,348.2z M226.9,342.1c-4.3-13.7-4.1-25.1,1.5-35.9c1-1.9,0.7-4.1-1.9-4.9c-2.5-0.8-4.9-0.2-6.8,1.6
	C210.2,311.9,212.6,331,226.9,342.1z"></path>
<path class="stcc2" d="M178.3,301.1c16.4-0.5,16.5-0.5,16.4,15.6c0,11.3,0.1,22.3,11.9,29c3,1.7-1.2,3-1.7,4.6
	c-18.5,1.7-33.9-1.9-40-22.4c-0.3-1.1-2.6-1.7-4-2.5C164.3,315.6,168.2,306.1,178.3,301.1z"></path>
<path class="stcc3" d="M239.5,418.1c-1.5,1.8-3.1,3.5-4.6,5.3c-9,5.2-15.3-2.1-22.5-5c5.4-3.8,9.2-7.9,5.7-15.3
	c-1.6-3.3,0.4-7.2,0.9-10.8c1.9-14.1,10.6-23.3,21.1-31.5c4,3.3,8.1,6.6,12.1,9.9c0,0.8,0,1.5,0.1,2.3
	C253.7,389.7,250.4,405,239.5,418.1z"></path>
<path class="stcc1" d="M250.6,320.7c5.3,2.6,8.2-0.4,11.3-4.1c3.1-3.7,5.1-8.7,10.7-9.7c9.4,15.7,8.1,34.9-3,44.4
	c-8.5-4.4-17.6-5.8-27-5.9c0.6-5-3.8-8.2-4.6-12.6c-0.8-4.8-2.4-10.6,0.8-14.5C243.1,313,246.1,322,250.6,320.7z"></path>
<path class="stcc2" d="M285.3,370.4c3,8,4,16.5,6,24.8c3.5,15-7.4,23.5-13.4,34.2c-1.5,2.7-5.1,1.1-7.6-1c-4.6-3.9-6.9-8.9-4.4-14.3
	c7-15.7,4.6-32,4.2-48.2C275.5,365.9,281,366,285.3,370.4z"></path>
<path class="stcc3" d="M269.6,351.2c11.1-9.5,12.3-28.7,3-44.4c5.4-4.2,11.7-4,18.1-3.7c4.9,18.3,3.5,36.1-3.3,53.7
	C280.6,357.7,274.9,355.1,269.6,351.2z"></path>
<path class="stcc1" d="M240,360.8c-10.5,8.2-19.2,17.4-21.1,31.5c-0.5,3.6-2.4,7.5-0.9,10.8c3.5,7.4-0.3,11.5-5.7,15.3
	c-7.3-2.1-12.2-7.5-17.6-12.3c0.3-3,1.7-4.9,4.8-5.5c1.2,5.6,5.5,7,10.4,7.7c0.3,0.2,0.6,0.3,0.9,0.5c-0.3-0.2-0.6-0.3-0.9-0.5
	c-1.9-17.4,2.2-33.1,12.5-47.3C228.3,361,234.2,360.9,240,360.8z"></path>
<path class="stcc3" d="M292.7,301.1c8.6-5.6,17.2-2.5,25.7,0.3c9.1,16.1,4.6,40.8-10.7,59.3c-1.8-0.1-3.6-0.2-5.4-0.2
	c1.4-8.8,7.3-15.5,10.6-23.4c6.4-15.3-1.8-32.8-15.3-33.3c-0.9-0.2-1.8-0.4-2.7-0.6C294.1,302.5,293.4,301.8,292.7,301.1z"></path>
<path class="stcc2" d="M294.7,303.2c0.9,0.2,1.8,0.4,2.7,0.6c8.7,11,9,22.9,5.2,35.9c-2.2,7.4-7.9,12.4-10.3,19.4
	c-1.7-0.7-3.3-1.5-5-2.2c6.8-17.5,8.2-35.4,3.3-53.7c0,0,0.5,0.1,0.5,0.1C292.4,303.3,293.5,303.3,294.7,303.2z"></path>
<path class="stcc1" d="M292.3,359.1c2.4-7,8.2-12,10.3-19.4c3.8-13.1,3.6-25-5.2-35.9c13.6,0.5,21.7,17.9,15.3,33.3
	c-3.3,7.9-9.2,14.7-10.6,23.4C298.9,360.5,295.4,361.3,292.3,359.1z"></path>
<path class="stcc3" d="M199.6,400.6c-3.1,0.5-4.5,2.5-4.8,5.5c-7.3-1.2-6-9.1-9.9-12.9c-1.8-11.7,5.2-21.5,7.4-32.3
	c4.2,0.1,8.5,0.1,12.7,0.2c-7.8,10.7-10.3,22.2-5.5,34.8C199.6,397.5,199.6,399.1,199.6,400.6z"></path>
<path class="stcc2" d="M199.6,400.6c0-1.5,0-3.1,0-4.6c0.2-13.1,4.2-24.7,13.1-34.6c3.3-0.1,6.6-0.2,9.8-0.3
	c-10.3,14.1-14.5,29.9-12.5,47.3l0,0C205.1,407.6,200.8,406.2,199.6,400.6z"></path>
<path class="stcc3" d="M250.6,320.7c-4.5,1.3-7.5-7.7-11.8-2.5c-3.2,3.9-1.6,9.7-0.8,14.5c0.7,4.4,5.2,7.6,4.6,12.6
	c-1,0.9-1.9,1.9-2.9,2.8c-14-15.5-13.8-29.2,0.6-38.3C245.5,311.8,248.2,316.1,250.6,320.7z"></path>
<path class="stcc1" d="M192.3,360.9c-2.2,10.8-9.2,20.6-7.4,32.3c-6.1-7.2-5.3-16-5-24.4C180.3,360.8,186.1,360.3,192.3,360.9z"></path>
<path class="stcc1" d="M212.6,361.4c-8.9,9.8-12.9,21.5-13.1,34.6c-4.9-12.7-2.4-24.2,5.5-34.8C207.5,361.2,210.1,361.3,212.6,361.4z"></path>
<path class="stcc2" d="M239.5,418.1c10.9-13.1,14.2-28.4,12.8-45.1c15,2.9,6.4,15.7,8.8,23.4c2.7,8.7-4.6,17.1-9.6,24.3
	C247.5,426.3,242.7,422.6,239.5,418.1z"></path>
<path class="stcc2" d="M226.9,342.1c-14.3-11.1-16.7-30.2-7.2-39.2c1.9-1.8,4.3-2.4,6.8-1.6c2.6,0.8,2.9,3,1.9,4.9
	C222.8,317,222.5,328.4,226.9,342.1z"></path>
<path class="stcc1" d="M294.7,303.2c-1.2,0-2.4,0-3.6,0.1c0.5-0.7,1-1.5,1.5-2.2C293.4,301.8,294.1,302.5,294.7,303.2z"></path>
<path class="stcc2" d="M209.9,408.3c0.3,0.2,0.6,0.3,0.9,0.5C210.5,408.6,210.2,408.5,209.9,408.3
	C209.9,408.3,209.9,408.3,209.9,408.3z"></path>
</svg>
