<svg version="1.1" id="Layer_1" xmlns="http://www.w3.org/2000/svg" xmlns:xlink="http://www.w3.org/1999/xlink" x="0px" y="0px" viewBox="0 0 501.3 503.3" style="enable-background:new 0 0 501.3 503.3;" xml:space="preserve">
<style type="text/css">
	.staa0{fill:#7DE697;}
	.staa1{fill:#467E37;}
	.staa2{fill:#B7A41B;}
	.staa3{fill:#2A2E04;}
	.staa4{fill:#5DB054;}
	.staa5{fill:#444B0D;}
	.staa6{fill:#C6B831;}
	.staa7{fill:#95A533;}
	.staa8{fill:#90C156;}
	.staa9{fill:#69670A;}
	.staa10{fill:#EECF8F;}
	.staa11{fill:#D0CB4E;}
	.staa12{fill:#78C66F;}
	.staa13{fill:#7C9816;}
	.staa14{fill:#BDBC09;}
</style>
<path class="staa0" d="M104.1,503.2c-3,0-5.9,0-8.9,0c-1.4-4-1.7-9.6-7.7-9.1c-13.9,1.2-8.7-9-10.1-15.7c-1.1-5.3,6.8-7.3,4.2-12.9
	c-5.7,2-11.2,3.9-16.6,5.8c-4.6-3.6-0.6-9.9-4.5-13.7c2.1-6.7,14.9,7.4,12.6-5.8c-1.9-11.1,2.1-12.1,10.7-9.6
	c4.5,1.3,6.6-3.7,10.6-3.9c1.6,7,2,15.2,12.6,13.9c20.6-2.7,42.3-1.5,59.4-16.8c7.2-2.7,16.8,0.2,21.1-9.2c2.8-0.2,5.5-0.5,8.3-0.7
	c16.7-1.2,18.8-4.3,15.8-23.3c-0.2-0.7-0.1-1.3,0-2c21.2-16.9,26.8-39.9,26-65.5c1.4-3.3-1.1-8.1,4.4-10.4
	c7.7,7.4,3.3,17.2,3.6,25.8c4.4-0.4,4.3-7.5,9.2-3.9c2.4,13.1-4.4,26-1.2,39.1c-0.4,1.7-0.9,3.5-1.3,5.2c-4.7,3.4-2.4,8-2.1,12.3
	c-7.8,9.5-1.6,24.2-12.3,32.6c-2-0.1-4.1-0.3-6.1-0.4l0.1,0.2c0.5-3,0.6-5.9-2.3-7.9c-3,9.9-16.7,10.9-18.2,23.2
	c-0.7,6,0.7,11.5,0.1,17.2c-2.1,3-4.1,6-6.2,9c0,0-0.5,0-0.5,0c-2.9-3.5-9.1-1.1-11.1-5.8c-6.4-15-11-4.8-15,1.3
	c-2.6,4-3.8,8.9-5.6,13.5c-2.8,6.9-9.7,8.8-15.2,12.4c-1.2,0-2.4-0.1-3.6-0.1c-1.2,0.8-2.5,1.6-3.7,2.4c-1.6,1-3.2,2-4.9,3
	c-2,0-4,0-5.9,0c0.3-1.7,0.6-3.4,0.9-5.1c2.5-2.9,6.4-5.4,3.5-10.4c-4.3,2.3-4.1,6-4.9,9.1c-2,1.7-3,3.7-2.5,6.4c-3,0-5.9,0-8.9,0
	c1.6-3,7.4-7.1,2.9-9c-5.5-2.4-8.2,3.6-8.9,9c-4,0-7.9,0-11.9,0c0.4-2.5,4.2-6.1,0.1-7.2C106.2,495.1,106.8,501.3,104.1,503.2z"></path>
<path class="staa1" d="M493.1,188c-1,8,7.7,13,6.5,21c-0.7,3.3-2.2,6.7-2.1,10c0.6,17.1-1.9,34.9,10.5,49.5c0,4,0,7.9,0,11.9
	c-6.2,6.5-2.2,14.3-2.8,21.4c0.2,6.7,0.4,13.3,0.5,20c-0.5,6.8-0.4,13.7-1.6,20.4c-3.2,18.8-5.3,38.2-22.9,50.5
	c-1.4-4.6-2.6-8.5-0.1-13.8c3.2-6.9,3.8-15,5.2-22.6c0.5-2.8-0.8-8.1-2.9-6.9c-13.1,7.8-7.5-4.6-7.9-7.8c-0.9-6.7-0.1-13.6,0.1-20.5
	c10.7-4.3,6.2-15.9,11-23c12.2-12.7,10.9-25.7,1.1-38.9c-0.1-13.9-1.2-27.5-12.1-38c-1.5-7-3.7-14-0.3-21.1l-0.1,0.2
	C482.9,198.6,482,184.8,493.1,188z"></path>
<path class="staa2" d="M0.2,235.9c0-41.6,0-83.2,0-124.7c3.9-0.1,7.8-0.2,11.7-0.3c7,5,14,10.1,21,15.1c0.2,4-0.6,7.9-2.9,11.3
	c-18.7-0.7-12.8,14.7-15.9,24.2c-3.6,4.6-6,9.4-2.3,15.1c0.1,2,0.3,4,0.4,5.9c-0.2,5.9-2.7,12.5,4.9,16c-0.3,9.1,3.4,17.1,7.2,25.1
	c-2.2,7.3,3.5,12.1,5.6,18.1c-1,0.1-2.1,0.3-3.1,0.4c-0.9,0.9-1.8,1.8-2.7,2.8c-1.2,0.1-2.3,0.1-3.5,0.2c-1,0.1-1.9,0-2.8-0.5
	c-1.3-0.8-2.6-1.5-3.9-2.3C9.3,240.1,4.7,238,0.2,235.9z"></path>
<path class="staa1" d="M169.3,10.2c7.2-7,17.6-9.7,24-17.8c10.9,0,21.8,0,32.7,0c7.9,3,15.8,9.2,23.8,0c2,0,4,0,5.9,0
	c1.6,10,11.6,7.2,17.2,9.7c10.1,4.5,18.9,9.9,26.8,17.3c1.9,2.8,3.7,5.7,5.6,8.5c0.3,1.9,0.7,3.8,1,5.7c-0.5,4.7-0.7,9.3,2.5,13.3
	c0,0-0.2,1-0.2,1c-2.7,5.2-5.3,10.3-8,15.5c-3.7,3.3-5.2,10.5-12.6,6.7c1.5-19.5,1.7-38.6-14.6-53.1c-8.7-4.7-16-12.1-26.7-12.6
	c-14.4-6.4-29.5-2.2-44.3-2.6c-4.6,6.5-14.2,9.4-14.1,19.3c-1.2,0-2.4,0-3.6-0.1C179.7,17.1,168.8,21.8,169.3,10.2z"></path>
<path class="staa3" d="M0.2,295.3c0-8.9,0-17.8,0-26.7c2,0.1,4,0.2,6,0.2c3.2,5.2,3.2,11.1,4.3,16.9c4.7,23.4,21.8,37.9,45.5,40
	c10.6,0.9,20-5,30.4-3.5l-0.1-0.1c1.5,2.6,4.9,3.7,6.2,2.1c7.4-9.5,22.5,0.3,28.6-12c0.7-1.5,4.1-1.5,4.4,1.1
	c1.6,11.7,8.3,4.8,10.6,2c5.4-6.7,11.7-5.4,18.5-4.5c1.1,1.9,2.3,3.8,3.4,5.7c-0.1,4.2-3.6,5.4-6.4,7.2c-6.8,2.2-13.6,4.3-20.5,6.5
	c-9.1,1.5-18.1,3-27.2,4.5c-16.6,3.3-33.6,1.8-50.3,3c-5.8-2.6-11.6-5.2-17.4-7.9C20.3,322.4,11.2,307.8,0.2,295.3z"></path>
<path class="staa4" d="M300.2,503.2c-22.8,0-45.5,0-68.3,0c-1.3-6-2.6-12-4-18c0.4-3.3,0.3-6.4-2.4-8.8c2.1-3.8,4.2-7.5,6.4-11.3
	c1.8-2,3.7-4,5.5-6c0.6,2.1,1.1,4.1,1.7,6.2c5.9,6.5,10.8,13.7,14.1,22c2.2,5.6,6.3,9.8,12.3,5.9c5.6-3.6,11.2-7.3,16.4-11.7
	c10.4-8.8,8-22.5,15-32.2c1.9,4.9,1.7,11.5,9.3,12.1c0.2,1.2,0.4,2.5,0.6,3.7c-0.2,0.9-0.4,1.8-0.5,2.8c0.5,1,0.9,2,1.4,3
	c1.5,1,2.9,2,4.4,3c0,0.9-0.1,1.8-0.3,2.7c-5.7,1.5-5,6.2-4.8,10.4C307,493.3,305.3,498.9,300.2,503.2z"></path>
<path class="staa4" d="M32.9,126c-7-5-14-10.1-21-15.1c1.4-9.8-1.3-17.4-11.7-20.5c0-2,0-4,0-5.9c10.1-10.9,13-25.2,17.9-38.5
	c1.5-7,10.1-8.4,12-15c5.8-1.3,11.6-2.5,17.4-3.8c0.7,1,1.5,1.9,2.2,2.9C36.9,41.1,33.5,56.5,30.8,72.2c-1.4-2.3-0.7-9.1-5.3-5.3
	c-9.9,8-6.9,24.3,4.9,32.4c3.9,8.4,6.1,17,3,26.2L32.9,126z"></path>
<path class="staa1" d="M501.7,461.6c-1.7,18.3-11.7,31.4-26.3,41.7c-13.9,0-27.7,0-41.6,0c0.9-5-5.6-4.8-6.2-8.8
	c6.3-2.4,8.8-12.6,18.1-8.8c3.1,3.8,6.1,3.9,9-0.3c0.6,2.3,0.4,5.9,1.8,6.7c3.8,2.3,5-1.9,5.7-4.2c2.3-7.2,7.3-12.5,11.7-17.7
	c5.7-0.9,1.9,8.7,7.6,6.5c4.4-1.7,3.3-6.5,3.1-10.4c-0.1-2.4,0.1-4.9,0.1-7.3c3-0.1,6-0.3,9-0.4C496.4,459.6,499,460.6,501.7,461.6z
	"></path>
<path class="staa1" d="M64.9,471.3c5.5-1.9,10.9-3.8,16.6-5.8c2.7,5.6-5.3,7.6-4.2,12.9c1.4,6.7-3.9,16.9,10.1,15.7
	c6-0.5,6.3,5.1,7.7,9.1c-7.9,0-15.8,0-23.8,0c-10.4-5.8-14.7-14.5-12.3-26.3C62.4,476.4,63.9,474.1,64.9,471.3z"></path>
<path class="staa5" d="M41.8,503.2c-5,0-9.9,0-14.9,0C13.9,497,7.3,485,0.2,473.5c0-5,0-9.9,0-14.9c3.6,4.5,11.5,1,14,7.6
	c-3.5,1.1-4.7,2.4-1.9,6c7.9,10.1,15.9,20.1,29.6,22.7C41.8,497.7,41.8,500.5,41.8,503.2z"></path>
<path class="staa6" d="M0.2,354.7c3.9-3,7.7-6,11.6-9c6.7,5,8.7,16.4,20.1,14.9c-3.8,4.2-10.6,4.7-12.7,10.8
	c-6.8,3.7-8.5,14.8-19.1,13.1C0.2,374.5,0.2,364.6,0.2,354.7z"></path>
<path class="staa4" d="M508.1,268.6c-12.4-14.6-9.9-32.4-10.5-49.5c-0.1-3.3,1.4-6.7,2.1-10c4,6.5,1.8,15.5,8.4,20.9
	C508.1,242.9,508.1,255.7,508.1,268.6z"></path>
<path class="staa3" d="M0.2,384.4c10.6,1.8,12.2-9.4,19.1-13.1c2.8,0.5,5.7,1,8.5,1.4c-3.8,6.6-7.7,13.2-11.5,19.9
	c-1.3,1.3-2.7,2.6-4,4c-2.1,3.4-4.2,6.8-6.3,10.1c-0.4,0.4-0.7,0.8-1.1,1.2c-1.5-0.9-3.1-1.8-4.6-2.7C0.2,398.3,0.2,391.4,0.2,384.4
	z"></path>
<path class="staa5" d="M18.1,45.9c-4.9,13.3-7.9,27.6-17.9,38.5c0-10.9,0-21.8,0-32.7C6.1,49.5,10.9,44.2,18.1,45.9z"></path>
<path class="staa5" d="M220.1,479.7c-9,9.1-19.3,16.4-29.9,23.5c-4,0-7.9,0-11.9,0c0.1-6.2,8.6-5.2,9.2-11c5.5-3.5,14-3.5,14.7-12.6
	c0.9-1.1,1.7-2.1,2.6-3.2c0,0,0.5,0,0.5,0C210.2,477.6,215.2,478.7,220.1,479.7z"></path>
<path class="staa6" d="M0.2,452.7c0-8.9,0-17.8,0-26.7c5.6-0.2,3.9-3.4,2.6-6.3c1.8-2,3.6-4,5.4-6c1.4,2.1,2.8,4.2,4.1,6.3
	c-0.6,6.7-2.8,13.8-1.5,20.1C12.8,450.1,8.2,452.3,0.2,452.7z"></path>
<path class="staa7" d="M0.2,452.7c8-0.4,12.7-2.6,10.7-12.6c-1.3-6.3,0.9-13.4,1.5-20.1c1.8-0.1,3.6-0.2,5.3-0.2
	c-4.3,16.1-2.7,31.3,6.3,45.6c0,0.7,0,1.5-0.2,2.2c-3.2-0.4-6.4-0.9-9.6-1.3c-2.4-6.6-10.4-3.1-14-7.6
	C0.2,456.7,0.2,454.7,0.2,452.7z"></path>
<path class="staa1" d="M187.6,492.3c-0.6,5.7-9.1,4.8-9.2,11c-6.9,0-13.9,0-20.8,0c0.1-1.8,0.2-3.5,0.3-5.3
	c5.5-3.6,12.4-5.5,15.2-12.4c2,0.9,4,1.9,5.9,2.8C180.5,492.6,184.8,490.9,187.6,492.3z"></path>
<path class="staa8" d="M0.2,90.4c10.4,3.2,13,10.7,11.7,20.5c-3.9,0.1-7.8,0.2-11.7,0.3C0.2,104.3,0.2,97.3,0.2,90.4z"></path>
<path class="staa9" d="M8.2,413.6c-1.8,2-3.6,4-5.4,6c-0.8,0.3-1.7,0.4-2.6,0.4c0-5,0-9.9,0-14.9c1.5,0.9,3.1,1.8,4.6,2.7
	C5.9,409.8,7.1,411.7,8.2,413.6z"></path>
<path class="staa4" d="M122,503.2c0.7-5.4,3.4-11.4,8.9-9c4.5,1.9-1.3,6-2.9,9C125.9,503.2,123.9,503.2,122,503.2z"></path>
<path class="staa4" d="M104.1,503.2c2.7-2,2-8.1,6-7.2c4.1,1,0.3,4.7-0.1,7.2C108.1,503.2,106.1,503.2,104.1,503.2z"></path>
<path class="staa4" d="M157.9,497.9c-0.1,1.8-0.2,3.5-0.3,5.3c-4,0-7.9,0-11.9,0c1.6-1,3.2-2,4.9-3c1.2-0.8,2.5-1.6,3.7-2.4
	C155.5,497.8,156.7,497.9,157.9,497.9z"></path>
<path class="staa2" d="M0.2,420.1c0.9,0,1.7-0.1,2.6-0.4c1.3,3,3,6.1-2.6,6.3C0.2,424,0.2,422.1,0.2,420.1z"></path>
<path class="staa4" d="M140.7,498.1c-0.3,1.7-0.6,3.4-0.9,5.1c-1,0-2,0-3,0c-0.6-2.7,0.5-4.7,2.5-6.4
	C139.7,497.3,140.2,497.7,140.7,498.1z"></path>
<path class="staa11" d="M362.5,503.2c0.7-0.8,1.3-1.6,2-2.5c0.3,0.8,0.6,1.6,1,2.5C364.5,503.2,363.5,503.2,362.5,503.2z"></path>
<path class="staa11" d="M166.2,435.3c-17.1,15.3-38.8,14.1-59.4,16.8c-10.6,1.4-11-6.9-12.6-13.9c1-5.3,2.5-11.2-0.7-15.7
	c-8.2-11.7-8-24.5-6.5-37.7c2.8-0.1,5.5-0.1,8.3-0.2c7.6,9.3,12.2,19.4,7.9,32.7c7.2-27.7,28-46,42.2-68.5c-0.7,6-1.5,11.9-2.2,17.9
	c0,9.6-12.8,21.7,5.4,27.8c0,3.4,0,6.8,0.1,10.3c-8.3,1.1-10.4,5.5-7.6,13.2c4.1,11.1,11,18,23.8,16.3
	C165.2,434.8,165.7,435.2,166.2,435.3z"></path>
<path class="staa12" d="M87.1,384.9c-1.5,13.2-1.7,25.9,6.5,37.7c3.2,4.5,1.7,10.4,0.7,15.7c-3.9,0.2-6,5.2-10.6,3.9
	c-8.6-2.4-12.6-1.4-10.7,9.6c2.3,13.2-10.4-1-12.6,5.8c-1.3-0.7-2.6-1.3-4-2c-1.7-0.3-3.4-0.6-5.2-0.8c-0.1-0.6-0.3-1.2-0.5-1.7
	c4.1-8.4,5.6-16.7-0.3-25c6.7-19.4,13.2-39,32.6-50.2C84.4,380.2,85.7,382.6,87.1,384.9z M60.6,423.3c5.7,3.4-0.4,15.2,10.4,14.5
	c3.1-0.2,6.1-1.6,5.9-5.1C76.3,422.9,66.1,427.1,60.6,423.3z"></path>
<path class="staa12" d="M254.8,346.1c-4.9-3.5-4.8,3.6-9.2,3.9c-0.4-8.6,4.1-18.4-3.6-25.8c-5.5,2.2-3,7.1-4.4,10.3
	c-1.8-0.1-3.5-0.2-5.3-0.3c-0.4-8.8-0.8-17.6-1.3-26.3c1.2-2.3,2.3-4.6,3.5-6.9c-0.2-10.9,7.8-12.2,15.8-13.4
	c12.9,9.6,13.6,25.7,20.2,38.6c-0.9,5.3-1.8,10.7-2.6,16c-1.2,7.5,1.9,16.2-5.8,22c-5.8-7.9-2.1-17.7-5.3-30.8
	C255.6,340.6,255.2,343.4,254.8,346.1z"></path>
<path class="staa11" d="M232.2,334.3c1.8,0.1,3.5,0.2,5.3,0.3c0.9,25.6-4.8,48.7-26,65.5c-1.8-6.3-8.3-10.9-6.5-18.4
	c2-3.1,4.8-6,5.8-9.4c4-13.1,2.1-29.6,20.5-34C232,338.3,231.9,335.7,232.2,334.3z"></path>
<path class="staa5" d="M237.3,459c-1.8,2-3.7,4-5.5,6c-0.5-2.5-1.1-5.1-1.6-7.6c0.7-1.5,1.5-3.1,2.2-4.6c0.7-1.1,1.4-2.1,2-3.2
	l0.2-0.2c6.1-3.5,4.8-8.8,3.3-14.2c10.7-8.4,4.5-23.1,12.3-32.6c7.2-3,6.6-7.3,2.1-12.3c0.4-1.7,0.9-3.5,1.3-5.2
	c3-2.4,6-4.7,8.9-7.1c4.1,3.5,5.3,7.7,4.2,13.1C261.8,415.9,254.1,439.4,237.3,459z"></path>
<path class="staa11" d="M195.7,425.4c-2.8,0.2-5.5,0.5-8.3,0.7c-1.4-2-2.7-4-4.1-6c-20.8-9-27.2-22.9-19.3-41.8
	c8.5,5.6,3.9-6.2,8.2-6.2c2-0.2,4-0.3,6.1-0.5c2.8,10.2-5.4,22.4,5.9,30.9c3.5,3.3,4.5,9.7,11.1,9.2
	C195.4,416.2,195.5,420.8,195.7,425.4z"></path>
<path class="staa12" d="M232.4,452.8c-0.7,1.5-1.5,3.1-2.2,4.6c-6,3.8-10.8,9.7-18.7,10.1c0.7-5.7-0.8-11.2-0.1-17.2
	c1.4-12.4,15.2-13.3,18.2-23.2c0.2,2.8-0.8,6,2.3,7.9c0,0-0.1-0.2-0.1-0.2c3.1,4.4,3.3,9.4,2.8,14.6c0,0-0.2,0.2-0.2,0.2
	C232.7,450,230.2,449.9,232.4,452.8z"></path>
<path class="staa4" d="M179,488.3c-2-0.9-4-1.9-5.9-2.8c1.8-4.5,3-9.5,5.6-13.5c4-6.1,8.6-16.3,15-1.3c2,4.7,8.2,2.3,11.1,5.8
	c-0.9,1.1-1.7,2.1-2.6,3.2C193,478.5,183.5,476.6,179,488.3z"></path>
<path class="staa12" d="M195.7,425.4c-0.2-4.6-0.3-9.2-0.5-13.7c2.5-2.3,5-4.6,7.5-6.9c3.2-0.1,6.4,0,8.7-2.7
	C214.5,421.1,212.4,424.2,195.7,425.4z"></path>
<path class="staa1" d="M211.5,467.6c7.8-0.4,12.7-6.3,18.7-10.1c0.5,2.5,1.1,5.1,1.6,7.6c-2.1,3.8-4.2,7.6-6.4,11.3
	c-1.8,1.1-3.5,2.2-5.3,3.4c-4.9-1.1-9.9-2.1-14.8-3.2C207.4,473.5,209.4,470.5,211.5,467.6z"></path>
<path class="staa8" d="M183.3,420.1c1.4,2,2.7,4,4.1,6c-4.3,9.4-13.9,6.5-21.1,9.2c-0.6-0.2-1-0.5-1.4-1c3.2-5.7-2-10.8-1-16.4
	C170.1,420.8,176.7,420.3,183.3,420.1z"></path>
<path class="staa4" d="M262.5,378.1c-3,2.4-6,4.7-8.9,7.1c-3.2-13.1,3.5-26,1.2-39.1c0.4-2.7,0.9-5.5,2-12.6
	c3.2,13.1-0.5,22.8,5.3,30.8C262.2,368.9,262.4,373.5,262.5,378.1z"></path>
<path class="staa9" d="M211.5,402.1c-2.4,2.7-5.6,2.6-8.7,2.7c-2-2.8-4.1-5.7-6.1-8.5c-1.2-6.4,8.4-8.6,6.1-15.4
	c0.8,0.3,1.5,0.6,2.3,0.9c-1.8,7.5,4.7,12.1,6.5,18.4C211.3,400.8,211.3,401.4,211.5,402.1z"></path>
<path class="staa3" d="M56.4,455.6c1.3,0.7,2.6,1.3,4,2c4,3.8,0,10.1,4.5,13.7c-1,2.9-2.5,5.2-5.8,5.7c0,0,0.1-0.2,0.1-0.2
	c-1.2-5.1-2.3-10.2-3.5-15.2C56,459.5,56.2,457.5,56.4,455.6z"></path>
<path class="staa4" d="M252.3,390.4c4.5,5,5,9.3-2.1,12.3C249.9,398.4,247.6,393.8,252.3,390.4z"></path>
<path class="staa1" d="M234.6,449.4c0.5-5.1,0.3-10.1-2.8-14.6c2,0.1,4.1,0.3,6.1,0.4C239.4,440.6,240.7,445.8,234.6,449.4z"></path>
<path class="staa4" d="M139.3,496.8c0.8-3.2,0.6-6.8,4.9-9.1c2.9,5-1,7.5-3.5,10.4C140.2,497.7,139.7,497.3,139.3,496.8z"></path>
<path class="staa1" d="M231.9,435c-3.2-1.9-2.1-5.1-2.3-7.9C232.5,429.1,232.5,432,231.9,435z"></path>
<path class="staa1" d="M154.3,497.8c-1.2,0.8-2.5,1.6-3.7,2.4C151.8,499.4,153,498.6,154.3,497.8z"></path>
<path class="staa9" d="M486.8,120.3c4.9,19.6,3.7,38.9-3.7,57.7c-4.1,6.9-6.7,14.4-7.8,22.4c0,0,0.1-0.2,0.1-0.1
	c-5.7,1.6-5.8,7.4-8.4,11.4c-13.4,9.7-23.4,22.6-33.1,35.7c-3.9,0.6-7.8,1.2-11.7,1.8c-0.7-3.8,1.6-5.9,4-8.3
	c3.7-3.7,0.5-4.3-2.6-4.5c11.3-11.6,15.6-27.5,23.6-40.4c6.2,0.5,2.1,8.3,7.4,7.9c8.4-5.2,0.5-16.4,5.7-19.4c10.4-6,7.7-14.9,9-23.1
	c6.4-0.4,6.1-5.3,5.8-9.5c-0.6-8.6-1.7-17.1-2.6-25.7c1.5-5.7-3.5-8.3-5.9-12.1c6-5.8-1.6-13,1.8-20
	C479.9,99.6,479.2,112.9,486.8,120.3z"></path>
<path class="staa6" d="M486.8,120.3c-7.6-7.3-6.9-20.6-18.4-26.3c-3.4,7,4.1,14.2-1.8,20c-3.1,2.8-7.4,3.6-7.9-1
	c-0.9-8.3-5.1-18.2,3.6-24.5c4.5-3.2,9.6-6.1,5.8-10.9c-5.2-6.5-0.6-19.5-15.2-20.3c-11.5-0.6-23.4-4.1-28.2-17.2
	c3-2,3.4-5.1,3.2-8.3c5.9-2.5,11.7-5,17.6-7.6c4.8,1.4,9.7,2.7,14.5,4.1c2,2.1,4,4.3,5.9,6.4c1,1.8,2.1,3.5,3.1,5.3
	c9.7,12.2,11.8,26.6,12.4,41.5c1.1,7.4,7.1,5.7,11.8,6.2c-0.2,7.1-0.4,14.2-0.6,21.4C492.5,113.7,493.4,118.9,486.8,120.3z"></path>
<path class="staa7" d="M427.9,31.7c0.1,3.3-0.2,6.3-3.2,8.3c-7.7-2.4-9.7-14.3-20.1-12.3c0-3.6,0-7.2,0-10.8
	c29.7-26,54.7-24.1,85.4,6.6c0.1,2.9,0.7,5.6,3.3,7.4c0,0,0,0.1,0,0.1c-0.1,3.3,0.2,6.5,3.4,8.6c0,0,0,0.1,0,0.1
	c-0.4,3.2-0.4,6.4,2,9c0.3,3.1,0.5,6.1,0.8,9.2c-4.3,5.2,0.8,10,0.5,15c-2.3,4.9-4.5,9.9-6.8,14.8c-4.7-0.5-10.7,1.2-11.8-6.2
	c15.3-15.8,1.6-59.1-20.7-69.1c-12.9-5.8-22.4,2.7-33.4,4.4c-3.5,0.6-7.9,3-7.7,7.7C419.8,29.2,424.1,30.5,427.9,31.7z"></path>
<path class="staa6" d="M404.6,16.9c0,3.6,0,7.2,0,10.8c-6.5,0.5-12.6,0.4-18.4-3.5c-4.8-3.2-12.6-4.3-15.3-0.6
	c-9.2,12.2-24.4,8.3-35.3,15c-4.6,2.9-12.5-0.7-14.8,7.1c-4.4-1.1-7.3,6.3-12.2,2.2c0,0,0.2-1,0.2-1c0.4-4.7,0.9-9.3-2.5-13.2
	c-0.3-1.9-0.7-3.8-1-5.7c3.4,0,6.4-0.8,9.5-2.8c8.1-5,16.3-11.4,25.9-11c14.1,0.6,26.9-3,39.9-7.2C390.3,6.1,396.8,13,404.6,16.9z"></path>
<path class="staa11" d="M380.5,6.9c-12.9,4.2-25.8,7.8-39.9,7.2c-9.7-0.4-17.9,6.1-25.9,11c-3.2,1.9-6.1,2.7-9.5,2.8
	c-1.9-2.8-3.7-5.7-5.6-8.5c19.9-24.2,46.1-23,73.3-18.2C376.6,1.9,379.4,3,380.5,6.9z"></path>
<path class="staa4" d="M475.3,200.4c1.1-8,3.7-15.5,7.8-22.4c4.5,2.2,11.4,2.1,10,10.1C482,184.8,482.9,198.6,475.3,200.4z"></path>
<path class="staa6" d="M500,72.8c0.2-5-4.8-9.8-0.5-15C501.1,62.8,507.5,67.6,500,72.8z"></path>
<path class="staa6" d="M493.3,30.9c-2.6-1.8-3.2-4.5-3.3-7.4C493.2,25.1,492.9,28.1,493.3,30.9z"></path>
<path class="staa6" d="M498.7,48.7c-2.4-2.6-2.4-5.8-2-9C499.4,42.2,499.3,45.4,498.7,48.7z"></path>
<path class="staa6" d="M496.7,39.6c-3.2-2-3.5-5.2-3.4-8.6C496.1,33.2,496.9,36.2,496.7,39.6z"></path>
<path class="staa13" d="M83,9.6c1.6-0.1,3.2-0.3,4.9-0.4c8.3,2.1,18.4,0.2,24.1,10.8c-21.7-2.5-34.7,5.4-34.7,20.3
	c-0.4,3.9-0.7,7.7-1.1,11.6c-1.4,0.1-2.8,0.2-4.1,0.3c-6.1-2.4-5.7,2.2-6.1,5.8l-0.2,0.1c-0.3,0.3-0.9,0.6-0.9,0.8
	c0.2,0.7,0.6,1.4,0.9,2c-0.6,6-6.6,10.3-5.7,16.8c-5.3,12.5-2.5,22.8,8,31.2c-7.9,4-11.7-0.6-14.7-6.9c-6.3-4.8-13.2-10.6-11.1-18.8
	c2.8-10.7,0.9-23.4,11.3-31.5c0.2-0.3,0.3-0.5,0.5-0.8c-0.1,0.3-0.2,0.6-0.4,0.9c-16.4-4.4,3.4-7.5,0.4-11.4
	c10-5.9,14.9-16.8,23.1-24.4C80.9,15.5,83.1,13.6,83,9.6z"></path>
<path class="staa7" d="M77.3,40.2c0-14.8,13-22.8,34.7-20.3c-5.7-10.5-15.9-8.6-24.1-10.8c6.2-7.6,13.4-5.3,20.7-2
	c6.5,3,13,6.2,19.4,9.2c1.7,8-3.8,10.4-9.8,11.4c-4.8,0.8-9.7,0.9-14,3.5c-2.6-0.9-5.1-3.7-8-0.5C88.7,31.5,83.3,36.4,77.3,40.2z"></path>
<path class="staa8" d="M104.2,31.5c4.3-2.7,9.2-2.8,14-3.5c6-1,11.5-3.4,9.8-11.4c12.5-2.4,25.7,2.3,37.8-3.8c1.4,7.1-2.4,9.3-8.8,9.4
	c-4.6,0.1-9.9-0.5-11.1,6.1c-3.5,1.7-6.9,3.4-10.4,5.1c-8.2-0.9-15.2,2.4-22.1,5.9C112.4,34.2,106.9,34.5,104.2,31.5z"></path>
<path class="staa4" d="M145.9,28.2c1.2-6.6,6.5-6,11.1-6.1c6.3-0.2,10.1-2.3,8.8-9.4c1.2-0.8,2.3-1.6,3.5-2.4
	c-0.5,11.5,10.5,6.9,15.4,10.9c-0.6,6.6,6.6,7.8,8.7,12.5c-2.9,0.1-5.8,0.2-8.7,0.3c-5-1-10.1-2-15.1-3
	C162.3,25.2,153.8,29.2,145.9,28.2z"></path>
<path class="staa5" d="M77.2,16.1C69,23.7,64.1,34.6,54.1,40.5c-0.3-4-0.9-7.8-4.3-10.5c-0.7-1-1.5-1.9-2.2-2.9
	c5.9-4.5,11.7-8.9,17.6-13.4c3.1-1.1,5.2-4.9,9.3-3C75.3,12.5,76.3,14.3,77.2,16.1z"></path>
<path class="staa11" d="M65.1,13.7c-5.9,4.5-11.7,8.9-17.6,13.4c-5.8,1.3-11.6,2.5-17.5,3.8c3.4-3.4,7.3-6.5,10-10.4
	C46.7,10.9,54.8,8.5,65.1,13.7z"></path>
<path class="staa7" d="M77.2,16.1c-0.9-1.8-1.9-3.6-2.8-5.4c2.9-0.4,5.8-0.8,8.7-1.1C83.1,13.6,80.9,15.5,77.2,16.1z"></path>
<path class="staa5" d="M481.4,392.8c-0.3,0.9-0.6,1.9-0.9,2.8c-3.5,4.7-2.3,10.2-2.7,15.4c-3.1,4.2-2.4,9.4-3.3,14.1
	c-6.5,34.5-24,50.2-58.4,52.2c-11.2-0.2-19.1-8.9-29.3-11.4c-7.9-11.5-15.8-23-23.7-34.5c-0.5-2.1-1-4.2-1.4-6.2
	c-4.3-8.1-12-13.9-14.7-23c-1.4-4-3.3-7.9-2.2-12.3c7.5-1.1,9.1,7,14.4,9.3c5.5,2.7,2.7,19.3,15.7,9.4c1.2-0.1,2.5-0.2,3.7-0.2
	c0.2,1.1,0.3,2.1,0.5,3.2c-5,2.8-8.6,11.7-6.5,11.9c11.8,1.1,6,14.5,13.8,17.3c0.6,4.7,4.5,6.8,7.7,9.5c-3.1,5.4-1.7,9.1,4.1,11.1
	c1.6,0.4,3.3,0.8,4.9,1.2c1.4,0.9,2.7,1.8,4.1,2.6c2.6,0.8,5.2,1.7,7.8,2.6l1,1l1,0.8l1.2-0.3c2.1-1.7,4.3-3.4,6.4-5.1
	c2.2-0.3,4.4-0.6,6.5-0.9c4.3,1.9,7.9,0.3,11.3-2.3c3.2-0.8,4.4-3.4,5.6-6c1.1-4.5,2.2-9,3.3-13.6c0.5-0.6,1-1.2,1.7-1.6
	c-0.7-0.5-1.4-1-2-1.5c-2.7-1.4-2.3-4-2.3-6.4l0.3,0.4c16.3-1.8,9.1-15.3,11.8-23.8c2.2-3.3,2.4-6.9,2.2-10.7l0.9,0l-0.9-0.2
	c0-0.6-0.3-1-0.9-1c0-2.2,0.1-4.4,0.1-6.6c11.1-7.8,6-19.2,6.5-29.4c-2.5-13.6-0.7-27.8-5.2-41.2c0.3-2.3-3.8-4.2-0.5-6.7
	c3.2,0.1,6.4,0.2,9.6,0.3c1.1,2.7,2.1,5.4,3.2,8.2c-0.1,6.8-1,13.8-0.1,20.5c0.4,3.1-5.2,15.5,7.9,7.8c2.1-1.2,3.4,4.1,2.9,6.9
	c-1.4,7.6-2,15.7-5.2,22.6C478.8,384.3,480,388.2,481.4,392.8z"></path>
<path class="staa11" d="M475.8,321.2c-1.1-2.7-2.1-5.4-3.2-8.2c-3.8-23-6-46.9-30-59.8c0.1-1.4,0.1-2.7,0.2-4.1
	c10.6-8.5,16.8-21.8,29.8-27.8c1.1,0,2.1-0.1,3.2-0.1c10.9,10.5,12,24.1,12.1,38c-0.4,13-0.7,26-1.1,38.9
	C482,305.4,486.5,316.9,475.8,321.2z"></path>
<path class="staa4" d="M486.8,298.2c0.4-13,0.7-25.9,1.1-38.9C497.7,272.5,499,285.6,486.8,298.2z"></path>
<path class="staa4" d="M475.8,221.3c-1.1,0-2.1,0.1-3.2,0.1c-1.8-3.3-3.7-6.6-5.5-9.8c2.6-3.9,2.6-9.7,8.4-11.3
	C472,207.3,474.3,214.3,475.8,221.3z"></path>
<path class="staa13" d="M6.2,268.8c1.8-9.8,15.6-12.2,14.4-23.8c1.2-0.1,2.3-0.1,3.5-0.2c0.9-0.9,1.8-1.8,2.7-2.8
	c1-0.1,2.1-0.3,3.1-0.4c2.2-1,4.5-2,6.7-3c4.5,2.8,10.9,3.5,11.8,10.4c-13,10.1-21.1,23.2-15.8,39.5c6.2,19.2,16.2,23.8,38.6,21.9
	c10-0.7,19.5-5.4,29.8-3.6c9.4,0.4,17.7-4.6,26.7-6.3c31.1-6.1,57.5-21.6,77.7-46.7c13.8-0.6,21.6-8.6,25.9-20.9
	c9.3-3.9,5.2-17.5,15.2-20.8c5.3,0.2,9.4-1.3,11.8-6.6c3-6.6,6.6-12.9,10.1-19.3c1.1-2,1.9-4.9,5-4.5c3.1,0.3,3.1,3.4,4,5.5
	c2.2,5.2,3.4,11.8-1.1,15c-9.3,6.5-9.6,16.1-11.4,25.4c-7,2.3-9.6,8.2-11.6,14.6c-6.4,0.5-15.2-3.3-15.5,8.5c-1,1.1-2.1,2.1-3.1,3.2
	c-27.9,7.9-50.2,23.6-66.4,47.6c-3.5,5.2-7.3,9.1-13.8,9.3c-6.7-0.9-13-2.2-18.5,4.5c-2.3,2.8-9,9.7-10.6-2
	c-0.3-2.5-3.7-2.5-4.4-1.1c-6.1,12.2-21.3,2.5-28.6,12c-1.3,1.6-4.7,0.5-6.2-2.1c1-1,2-2,3-3c0.6-0.6,1.1-1.2,1.7-1.8
	c-0.4-0.2-0.9-0.4-1.3-0.6c-0.1,0.8-0.2,1.7-0.3,2.5c-1,1-2,2-3,3c-10.4-1.5-19.8,4.5-30.4,3.5c-23.6-2.1-40.8-16.6-45.5-40
	C9.3,280,9.4,274,6.2,268.8z"></path>
<path class="staa4" d="M30,137.3c2.3-3.4,3.1-7.2,2.9-11.3c0,0,0.6-0.5,0.5-0.5c13.7,6.8,27.5,13.6,41.2,20.4c-1,4.8-2.2,9.6-2.9,14.5
	c-4.6,31.1,10.4,51.1,38.5,51.8c4.1,0.2,8,0.8,8.7,6c-4.7,0.1-9.5,0.2-10.4,7c6.5,0.7,9.2-2.2,10.3-7c7,1.9,14-5.6,21-0.1
	c-0.7,4.7,4.1,6.9,5.4,10.9c-5.8,0.4-11.4,0.7-16.9,1.1c-7.5,2.5-7.7,12.6-15.4,14.9c-0.7-1.9-1.4-3.7-2.1-5.6
	c-1.5-7.1-6.5-9.7-13.2-10c-9.1-3.8-12.3,11.7-20.2,7c-8.3-4.9-13.9-0.1-20.5,2.2c-9-2.4-3.4-13.9-10.9-17.3
	c-14-6.3-17.4-18.7-18.2-32.5c6.3-3.7,13.4-6.3,18.7-14c-7.6-0.2-13.2,5.8-19.3,1.6c0.7-4,8.9-7.5,4.3-10.6
	C17.4,156.3,29.7,146.7,30,137.3z"></path>
<path class="staa3" d="M27.9,188.7c0.7,13.8,4.1,26.2,18.2,32.5c7.5,3.4,1.8,14.9,10.9,17.3c14.5,12.9,30.1,21,50,12.4
	c1.3,2.4,3.5,2.5,5.8,2.1c9.7,0.5,19.4,0.8,27.3-6.4c0.8,0.5,1.6,0.6,2.5,0.5c9.2-1.3,17-5.4,24-11.3c7.2-9.2,18.6-12.9,27-20.5
	c10.7-0.5,18.4-6,24-14.9c3.4,0.5,4.8,3,5.6,5.9c0.7,4-0.7,7.6-2.6,11.1c-22.4,10.2-43.9,22-63.3,37.2c-29.2,8.7-58.7,13.3-88.8,4.1
	c-6.4-3-12.8-6.1-19.2-9.1c0,0-0.9-0.7-0.9-0.7c-0.9-6.9-7.2-7.6-11.8-10.4c-4.3-4.9-6.5-11.5-12.3-15.1c-3.7-8-7.4-16-7.1-25.1
	c0.9-6.1,1.3-12.1-4.9-16c-0.1-2-0.3-4-0.4-5.9c2.6-4.7,7.9-9.1,2.3-15.1c3.1-9.5-2.9-24.9,15.9-24.2c-0.2,9.4-12.6,19.1,1.7,28.5
	c4.6,3.1-3.6,6.6-4.3,10.6C25.1,180.6,22.2,184.9,27.9,188.7z"></path>
<path class="staa7" d="M24.3,223.6c5.9,3.6,8.1,10.2,12.3,15.1c-2.2,1-4.5,2-6.7,3C27.8,235.7,22.2,230.9,24.3,223.6z"></path>
<path class="staa5" d="M12.2,182.5c6.3,3.9,5.9,9.8,4.9,16C9.5,195,12,188.4,12.2,182.5z"></path>
<path class="staa5" d="M14.1,161.5c5.6,6,0.3,10.3-2.3,15.1C8.2,170.9,10.5,166.1,14.1,161.5z"></path>
<path class="staa7" d="M17.8,244.5c-1.3-0.8-2.6-1.5-3.9-2.3C15.2,243,16.5,243.8,17.8,244.5z"></path>
<path class="staa7" d="M26.8,242.1c-0.9,0.9-1.8,1.8-2.7,2.8C25,243.9,25.9,243,26.8,242.1z"></path>
<path class="staa8" d="M193.4,33.6c-2.2-4.7-9.4-5.8-8.7-12.5c1.2,0,2.4,0,3.6,0c3.8,3.3,7.5,6.1,11.4,0.2c16,3.3,27.9,15.9,44,19
	c5,6.8,10,13.6,15,20.5c1.1,3.9,2.1,7.9,3.2,11.8c-2.2,8.2,2.8,14.4,6.1,21.1c-1.4,6-7.7,3.8-11,6.5c-4-7.5,3.3-18.1-6.7-23.9
	c-2.1-9.3-7.8-13.4-17.3-12.4c-1.7-4.7-4.3-8.4-9.7-9.3c-0.1-0.9-0.1-1.8-0.1-2.8c0.2-6.3-3.4-9.9-8.9-11.8
	C207.3,37.6,200.3,35.7,193.4,33.6z"></path>
<path class="staa2" d="M308.5,47.9c4.9,4.2,7.8-3.3,12.2-2.2c7.4-0.2,15,0.4,22.1-0.9c7-1.3,8.6,2.8,10.7,7.4
	c-2.6,2.7-6.2,2.6-9.5,3.1c-4.4,0.6-10.5,1.6-9.9,6.6c0.9,7.2,7.3-0.1,10.7,2.2c0,4,0,8,0,12c0.2,2.1,0.5,4.1,0.7,6.2
	c-2,0.9-4,1.8-6,2.8c-5.1-8.5-10.8-7.1-15.9-0.3c-3.1,4.1-5.6,7.8-11.4,5.5c-0.1-5.1-0.3-10.2-0.4-15.3c8.2-15.6-3.7-11.6-11.4-11.6
	C303.2,58.3,305.8,53.1,308.5,47.9z"></path>
<path class="staa14" d="M300.5,63.4c7.7,0,19.5-3.9,11.4,11.6c-7.6,2.5-12.7,7.4-14.6,15.3c-4.1,0.2-8.1,0.3-12.2,0.5l-0.1-0.3
	c-1.9-1-3.8-2.1-5.6-3.1c0,0-0.5,0.2-0.5,0.2c0.2-0.8,0.3-1.6,0.4-2.4c2.1-4,3.9-8.2,3.5-12.9c0.1-0.8,0.3-1.6,0.4-2.4
	c1.6,0.1,3.2,0.2,4.8,0.2C295.3,73.9,296.9,66.7,300.5,63.4z"></path>
<path class="staa3" d="M287.9,70.2c-1.6-0.1-3.2-0.2-4.8-0.2c-3.9-12.6-0.3-28.3-15.3-36.3c-0.1-0.8-0.3-1.7-0.4-2.5
	c-0.3-5.6,0.4-10.9,5.9-14.1C289.6,31.6,289.4,50.7,287.9,70.2z"></path>
<path class="staa3" d="M202.3,1.8c14.8,0.5,29.8-3.8,44.3,2.6c-0.8,5.7-5.6,5.4-9.6,6.3c-9.7-0.2-18.9,1.7-27.8,5.5
	c-2,0.2-4,0.4-6.1,0.6C199.2,12.1,203.2,6.8,202.3,1.8z"></path>
<path class="staa5" d="M237,10.8c4-0.9,8.8-0.6,9.6-6.3c10.7,0.5,18,7.9,26.7,12.6c-5.5,3.2-6.2,8.5-5.9,14.1
	c-2.8-2.1-5.6-4.1-8.5-6.2c-3.2-6.4-8.9-6.5-14.9-6C242.5,15.5,236.9,15.6,237,10.8z"></path>
<path class="staa5" d="M202.3,1.8c0.8,5-3.1,10.2,0.8,15.1c-1.1,1.5-2.3,2.9-3.4,4.4c-3.9,6-7.7,3.1-11.4-0.2
	C188.2,11.3,197.7,8.3,202.3,1.8z"></path>
<path class="staa2" d="M306.2,33.7c3.4,3.9,2.9,8.6,2.5,13.2C305.5,42.9,305.7,38.3,306.2,33.7z"></path>
<path class="staa2" d="M31.9,360.6c-11.5,1.5-13.4-9.9-20.1-14.9c6-8.6,15.8-11.3,24.4-15.9c5.8,2.6,11.6,5.2,17.4,7.9
	c6,9.4,15.5,3.2,23.1,5.1C69.4,348,58.7,345,52.5,353C44.6,352.6,39.6,360.1,31.9,360.6z"></path>
<path class="staa8" d="M87.1,384.9c-1.3-2.3-2.7-4.7-4-7c-0.2-3.6-0.4-7.2-0.6-10.8c3.2-0.9,6.1-2.2,6.4-6.1c3.3-0.5,5.9-1.9,6.5-5.6
	c6.3-0.4,10.7-3.5,14.1-8.8c4.4-7,2-9.6-5.4-9.6c0-0.7,0-1.5-0.1-2.2c9.1-1.5,18.1-3,27.2-4.5c0.2,2.3,0.4,4.5,0.6,6.8
	c-6.7,1.7-6.3,7.2-6.6,12.3c-11.4,10.6-20.7,23-29.7,35.6C92.6,384.8,89.8,384.8,87.1,384.9z"></path>
<path class="staa5" d="M154.6,310.7c6.6-0.2,10.3-4.1,13.8-9.3c16.2-24,38.5-39.8,66.4-47.6c0,0,0.7,0.8,0.7,0.8
	c-2.9,5.9-9.1,7.4-14.2,9.9c-17.7,8.8-33,20.3-45.3,35.9c-4.2,5.3-5.1,13.1-12.4,15.8c-1.9,0.1-3.8,0.2-5.7,0.3
	C156.8,314.5,155.7,312.6,154.6,310.7z"></path>
<path class="staa9" d="M158,316.4c1.9-0.1,3.8-0.2,5.7-0.3c-1.3,17.9-11.9,33-15.2,50.3c-1.7,0.1-3.5,0.2-5.2,0.3
	c0.7-6,1.5-11.9,2.2-17.9c1.1-3.6-0.8-6.4-2.5-9.2c0.4-0.9,0.9-1.7,1.3-2.6c9.3-0.8,11.6-5.4,7.3-13.5
	C154.4,321.8,157.8,320.6,158,316.4z"></path>
<path class="staa7" d="M103.9,334.7c0.1,0.7,0.1,1.5,0.1,2.2c-5,1.8-10.1,3.6-15.1,5.4c-2,0.1-4.1,0.1-6.1,0.2c-2,0.1-4.1,0.2-6.1,0.3
	c-7.7-1.9-17.1,4.3-23.1-5.1C70.3,336.4,87.3,338,103.9,334.7z"></path>
<path class="staa7" d="M151.5,323.6c4.3,8.1,2,12.7-7.3,13.5c-4.2-0.1-8.4-0.2-12.6-0.2c-0.2-2.3-0.4-4.5-0.6-6.8
	C137.9,328,144.7,325.8,151.5,323.6z"></path>
<path class="staa11" d="M262.5,378.1c-0.1-4.6-0.3-9.2-0.4-13.8c7.7-5.8,4.6-14.5,5.8-22c9.8,6.3,5.9,16.1,4.6,23.9
	c-2.5,15.2-0.7,27,15.8,32.5c5.1,3.8-0.7,8.1,0.5,12.1c-0.4,1.1-0.8,2.1-1.1,3.2c-5.1,8.1-6.2,18.8-2,25.3
	c7.9,12.3,0.1,21.4-2.9,31.3c-2.1,7.1-8.9,13.8-16.1,13.5c-7.4-0.3-15-5.2-16.4-14.3c-1.3-8.4-5.4-8.2-11.2-4.5
	c-0.6-2.1-1.1-4.1-1.7-6.2c16.8-19.6,24.5-43.1,29.4-67.8C267.8,385.8,266.7,381.6,262.5,378.1z"></path>
<path class="staa1" d="M351,495.2c-10.9-1-22.2,0.2-31.5-7.7c-3.7-3.1-8.1-5.3-7.9-11.1c0.2-0.9,0.3-1.8,0.3-2.7
	c2.2-0.2,4.5-0.3,6.7-0.4c2.6,1.1,5.7,1.7,7.7,3.4c12.3,10.9,17.3,9.4,21.4-6.4c0.9,0.5,1.8,0.9,2.8,1c0.9,1.9,1.7,3.8,2.6,5.7
	c1.3,1.4,2.6-0.2,3.5-0.1c6.3,0.9,14.7-11,19,2.8c-1,5.6-5.5,8.2-9.6,11.1c-1.3,0.4-2.6,0.8-3.9,1.2c-0.8,0.5-1.7,0.9-2.5,1.4
	C356.7,494,353.9,494.6,351,495.2z"></path>
<path class="staa5" d="M296.7,449.1c0-6.6-7-11.1-5.5-18.1c2.7,0.4,5.4,0.7,8.1,1.1c10.2,8.4,9.9,21.9,15.9,32.3
	c0.8,1.2,1.5,2.4,2.3,3.6c0.3,0.9,0.6,1.7,1.1,2.5c-0.2,0.9-0.2,1.9,0.1,2.8c-2.2,0.2-4.5,0.3-6.7,0.5c-1.5-1-2.9-2-4.4-3
	c0.6-0.5,1.2-1,1.8-1.6c-1.1-0.5-2.2-1-3.3-1.4c0.1-0.9,0.3-1.9,0.5-2.8c1.6-0.9,2.7-2.1,1.5-4c-0.1-0.2-1.4,0.2-2.1,0.3
	C298.4,460.6,298.6,454,296.7,449.1z M305.2,452.5l-1.2-0.1l0.5,1.2L305.2,452.5z"></path>
<path class="staa1" d="M306.2,467.6c1.1,0.5,2.2,1,3.3,1.4c-0.6,0.5-1.2,1.1-1.8,1.6C307.1,469.6,306.6,468.6,306.2,467.6z"></path>
<path class="staa1" d="M306,461.2c0.7-0.1,2-0.5,2.1-0.3c1.1,1.9,0.1,3.1-1.5,4C306.4,463.6,306.2,462.4,306,461.2z"></path>
<path class="staa8" d="M416.2,477.4c34.4-2,51.9-17.6,58.4-52.2c0.9-4.8,0.2-9.9,3.3-14.1c3.7,1.4,7.4,2.7,11.1,4.1
	c0,0,0.6,0.3,0.6,0.3c0.8,0.9,1.5,1.8,2.3,2.7c0.2,0.8,0.4,1.6,0.9,2.3c0.1,1.9,0.3,3.8,0.4,5.7c0,0-0.6,0.6-0.6,0.6
	c-7.1-1.1-8.2,3.4-8.1,8.9c0.1,7.8,0.2,15.7,0.3,23.5c-0.1,2.4-0.3,4.9-0.1,7.3c0.2,3.9,1.3,8.7-3.1,10.4c-5.7,2.2-1.9-7.4-7.6-6.5
	c-4.3,5.2-9.4,10.4-11.7,17.7c-0.7,2.3-1.9,6.5-5.7,4.2c-1.4-0.9-1.3-4.4-1.8-6.7c0,0-0.1,0.2-0.1,0.2c2.4-2.9,4.5-6.3-0.3-8.2
	c-3.7-1.5-4.9,2.1-5.7,5.1c-1,1.1-2,2.2-2.9,3.3c-9.3-3.8-11.8,6.5-18.1,8.8c-0.9-0.4-1.7-0.8-2.7-1.1
	C422.7,487.7,421.1,481.6,416.2,477.4z"></path>
<path class="staa8" d="M501.7,461.6c-2.6-1-5.3-2-7.9-2.9c8.1-11-2-21.3-1.1-32c0,0,0.6-0.6,0.6-0.6c1.7,0.3,3.3,0.6,5,0.9
	C503,438.1,504.5,449.6,501.7,461.6z"></path>
<path class="staa10" d="M491.8,418.1c-0.8-0.9-1.5-1.8-2.3-2.7C491.3,415.5,492,416.4,491.8,418.1z"></path>
<path class="staa3" d="M74.7,145.8c-13.7-6.8-27.5-13.6-41.2-20.4c3.1-9.2,0.9-17.8-3-26.2c0.1-9,0.3-18.1,0.4-27.1
	c2.7-15.7,6.1-31,18.9-42.2c3.4,2.7,4.1,6.5,4.3,10.5c3.1,3.9-16.8,7-0.4,11.4l-0.1-0.1c-10.4,8-8.5,20.8-11.3,31.5
	c-2.1,8.3,4.7,14,11.1,18.8c-10.4,10.1,0.7,11.5,6.2,15.2l-0.1-0.2c2.3,7.3,10.9,7.9,14.8,14.2c2.9,4.8,8.5,2.4,11.9-2.1
	c14,10.6,28.3,10.5,38.8-0.1c7.2-1.5,9.4,2.4,9.4,8.7c-1.2,1.2-2.3,2.5-3.5,3.7C112.9,152.7,93.9,151.2,74.7,145.8z"></path>
<path class="staa7" d="M30.8,72.2c-0.1,9-0.3,18.1-0.4,27.1c-11.8-8.1-14.8-24.4-4.9-32.4C30.1,63.1,29.4,69.9,30.8,72.2z"></path>
<path class="staa7" d="M492.6,426.7c-0.9,10.7,9.2,21,1.1,32c-3,0.1-6,0.3-9,0.4c-0.1-7.8-0.2-15.7-0.3-23.5
	C484.4,430.1,485.4,425.6,492.6,426.7z"></path>
<path class="staa7" d="M445.7,485.7c1-1.1,2-2.2,2.9-3.3c3.2-1.3,5.9-1.5,6,3.1c0,0,0.1-0.2,0.1-0.2
	C451.8,489.6,448.8,489.4,445.7,485.7z"></path>
<path class="staa11" d="M416.2,477.4c5,4.2,6.5,10.3,8.8,16c-6.7,0.3-13.7,2.2-18.2-5.6c-7.7-13.4-15.6-9-23.2,0.3
	c-1.1,1-2.2,2.1-3.3,3.1c-4.7-0.1-9.4-0.2-14.2-0.4c4.1-3,8.6-5.5,9.6-11.1c5.7-2.9,9.8-7.2,11.2-13.6
	C397.1,468.5,405,477.2,416.2,477.4z"></path>
<path class="staa9" d="M380.2,491.2c1.1-1,2.2-2.1,3.3-3.1c2.9,1.5,5.9,3,10.3,5.3C388,494.2,383.7,495.8,380.2,491.2z"></path>
<path class="staa11" d="M359.6,493.4c0.8-0.5,1.7-0.9,2.5-1.4C361.3,492.4,360.4,492.9,359.6,493.4z"></path>
<path class="staa11" d="M14.1,466.3c3.2,0.4,6.4,0.9,9.6,1.3c6,1,12,1.9,18.1,2.9c0,0,0,0.1,0,0.1c0.9,1,1.8,2.1,2.7,3.1
	c2.1,3.5,5.3,5.4,9.2,6.3c-0.9,7.4-5.5,11.9-11.9,14.9c-13.7-2.5-21.6-12.5-29.6-22.7C9.5,468.7,10.6,467.4,14.1,466.3z"></path>
<path class="staa5" d="M31.9,360.6c7.6-0.4,12.6-7.9,20.5-7.6c-0.2,1.5-0.5,3-0.7,4.6c-0.6,0.9-1.2,1.9-1.8,2.8
	c-6.7,5.4-14.1,9.6-22.2,12.5c-2.8-0.5-5.7-1-8.5-1.4C21.4,365.3,28.2,364.7,31.9,360.6z"></path>
<path class="staa14" d="M27.8,372.8c8.1-2.9,15.5-7.1,22.2-12.5c2.1-0.7,4.2-1.4,6.2-2.1c7.8-1.3,16.7-5.4,18.2,7.9
	c-9,0.9-17.1,3.2-21,12.6c-12.5-0.3-13.7,14.5-23.6,17.7c-4.9,0.1-9.3-1.6-13.5-3.7C20.1,386.1,23.9,379.4,27.8,372.8z"></path>
<path class="staa2" d="M16.2,392.7c4.3,2.1,8.6,3.9,13.5,3.7c-4,7.8-8.1,15.6-12.1,23.4c-1.8,0.1-3.6,0.2-5.3,0.2
	c-1.4-2.1-2.8-4.2-4.1-6.4c-1.1-1.9-2.2-3.8-3.4-5.7c0.3-0.4,0.7-0.8,1.1-1.2c8.3,0.5,8-4.4,6.3-10.2
	C13.6,395.3,14.9,394,16.2,392.7z"></path>
<path class="staa9" d="M12.2,396.6c1.7,5.8,2,10.7-6.3,10.2C8,403.4,10.1,400,12.2,396.6z"></path>
<path class="staa0" d="M179,488.3c4.5-11.8,14-9.9,23.3-8.6c-0.7,9.1-9.2,9-14.7,12.6C184.8,490.9,180.5,492.6,179,488.3z"></path>
<path class="staa5" d="M53.7,480c-3.9-0.9-7.1-2.8-9.2-6.3c-0.9-1-1.8-2.1-2.7-3.1c0,0,0-0.1,0-0.1c4.1-5.3,2.7-11.5,3-17.4l0.3-0.1
	c1.9,0,3.7,0,5.6,0c0.2,0.6,0.4,1.1,0.5,1.7c-0.1,3.3,0.7,6.1,4.5,6.8c1.2,5.1,2.3,10.2,3.5,15.2C57.4,477.8,55.6,478.9,53.7,480z"></path>
<path class="staa3" d="M17.7,419.8c4-7.8,8.1-15.6,12.1-23.4c9.9-3.2,11.1-18,23.6-17.7c4.7,10-5.4,12.1-9.5,17.1
	c-12.9,15.8-26.4,31.2-17.8,54c-1.5,5.1,9.3,11.9-2.2,15.5C14.9,451.1,13.4,435.8,17.7,419.8z"></path>
<path class="staa8" d="M23.9,465.3c11.5-3.6,0.7-10.4,2.2-15.5c7.5-6.1,12.7,0.7,18.7,3.3c-0.4,5.9,1.1,12.1-3,17.4
	c-6-1-12-1.9-18.1-2.9C23.9,466.8,23.9,466.1,23.9,465.3z"></path>
<path class="staa6" d="M142.9,339.7c1.7,2.8,3.6,5.6,2.5,9.2c-14.2,22.5-35,40.8-42.2,68.5c4.3-13.3-0.3-23.4-7.9-32.7
	c9.1-12.6,18.3-24.9,29.7-35.6c2,6.3,5.5,5.9,9.3,1.8C137.5,347.5,140.1,343.5,142.9,339.7z"></path>
<path class="staa9" d="M163.8,418c-1,5.5,4.2,10.7,1,16.4c-12.8,1.6-19.6-5.2-23.8-16.3c-2.9-7.7-0.7-12.1,7.6-13.2
	c2.1,4.2,4.1,8.3,6.2,12.5C157.4,423.5,160.9,417.2,163.8,418z"></path>
<path class="staa13" d="M154.9,417.3c-2.1-4.2-4.1-8.3-6.2-12.5c0-3.4,0-6.8-0.1-10.3c1-1.3,2.1-2.7,3.1-4c0,0,0-0.1,0-0.1
	c4.7-4.1,1-11.1,5.4-15.3c0.1,7.4,1.2,14.8,0.1,22C156.3,403.9,164.2,411.7,154.9,417.3z"></path>
<path class="staa5" d="M151.7,390.5c-1,1.3-2.1,2.7-3.1,4c-18.2-6.1-5.4-18.1-5.4-27.8c1.7-0.1,3.5-0.2,5.2-0.3
	C149.7,374.5,145.5,383.2,151.7,390.5z"></path>
<path class="staa13" d="M44.8,453.1c-6-2.6-11.2-9.4-18.7-3.3c-8.7-22.8,4.8-38.2,17.8-54c4.1-5,14.2-7.1,9.5-17.1
	c3.8-9.4,12-11.7,21-12.6c2.7,0.3,5.4,0.6,8.1,1c0.2,3.6,0.4,7.2,0.6,10.8C63.7,389,57.2,408.6,50.5,428c-9.1,6.8-9.9,15.3-5.3,24.9
	L44.8,453.1z"></path>
<path class="staa1" d="M45.2,453c-4.6-9.7-3.8-18.2,5.3-24.9c5.9,8.3,4.4,16.6,0.2,25C48.9,453,47,453,45.2,453z"></path>
<path class="staa0" d="M60.6,423.3c5.6,3.7,15.8-0.5,16.3,9.4c0.2,3.5-2.8,4.9-5.9,5.1C60.1,438.5,66.3,426.7,60.6,423.3z"></path>
<path class="staa1" d="M55.8,461.5c-3.8-0.7-4.6-3.4-4.5-6.8c1.7,0.3,3.4,0.6,5.2,0.8C56.2,457.5,56,459.5,55.8,461.5z"></path>
<path class="staa3" d="M202.7,380.9c2.3,6.8-7.3,9-6.1,15.4c-7.1-2.7-8.2-8.8-8.7-15.3c2.7-14.1,5.5-28.2,8.2-42.3
	c0.2-1.2,0.4-2.3,0.6-3.5c2.4-2,3.1-4.7,2.8-7.7c0.6-4.9,6.6-8.7,3-14.5c4.8-2.4,6.7-7,8.8-11.4c7.7-0.2,15.4-0.3,23.1-0.5
	c-1.2,2.3-2.3,4.6-3.5,6.9C208.8,327.3,204.1,353.5,202.7,380.9z"></path>
<path class="staa7" d="M288.3,398.7c-16.4-5.4-18.3-17.2-15.8-32.5c1.3-7.8,5.2-17.6-4.6-23.9c0.9-5.4,1.8-10.7,2.7-16.1
	c2.8-0.5,5.6-1,8.4-1.6c4.2,0.3,8.5,0.5,12.7,0.8c-0.3,7-4.9,13.4-3.1,20.8c3,8.7,0,17.2-0.3,25.9c-2.7,3.1-3.3,6.2-0.3,9.4
	c0.1,2.9,0.3,5.8,0.4,8.7C288.4,393,288.3,395.9,288.3,398.7z"></path>
<path class="staa9" d="M234.5,301c-7.7,0.2-15.4,0.3-23.1,0.5c11.7-12.4,29.3-17.4,39.2-32c7-3.3,15.6-0.8,22-6.2
	c0.6,4.5,1.5,10.6,7.5,7.2c8.7-4.9,13.6,2.4,20.2,4c0,1,0,2,0,3c-1.1,0.9-2.1,1.8-3.2,2.7c-3.1-0.9-6.1-3.8-9.3-0.3
	c-13.1-0.5-24.5,7.6-37.5,7.8C242.3,288.9,234.3,290.2,234.5,301z"></path>
<path class="staa6" d="M202.7,380.9c1.4-27.4,6-53.6,28.2-72.9c0.4,8.8,0.8,17.6,1.2,26.3c-0.2,1.4-0.2,4-0.8,4.1
	c-18.5,4.4-16.5,20.9-20.5,34c-1,3.4-3.8,6.3-5.8,9.4C204.3,381.5,203.5,381.2,202.7,380.9z"></path>
<path class="staa11" d="M250.3,287.6c13-0.2,24.3-8.3,37.5-7.8c-1,15.3-17.4,27.6-8.8,44.8c-2.8,0.5-5.6,1-8.4,1.6
	C263.9,313.3,263.2,297.3,250.3,287.6z"></path>
<path class="staa1" d="M232.4,452.8c-2.1-2.9,0.3-2.8,2.1-3.2C233.7,450.7,233,451.8,232.4,452.8z"></path>
<path class="staa7" d="M202.6,313c3.6,5.8-2.5,9.6-3,14.5c-2.2,2.1-3.3,4.6-2.8,7.7c-0.2,1.2-0.4,2.3-0.6,3.5
	c-10.7,6.2-11.2,17.2-12.6,27.7c-3,0.5-4.8,2.2-5.3,5.2c-2,0.2-4,0.3-6.1,0.5c0.5-17,12.4-30.4,15-46.7c1.8-3.2,11.8-1.4,5.8-9.4
	C196.2,314.9,199.4,314,202.6,313z"></path>
<path class="staa9" d="M187.2,325.3c-2.6,16.3-14.5,29.7-15,46.7c-4.3,0.1,0.3,11.8-8.2,6.2c-0.1-1.9-0.1-3.8-0.2-5.7
	c4.6-6.5,1.7-13.8,2.1-20.8c6.8-0.9,7.2-7.3,10.2-11.6C179.5,335,179.9,327.6,187.2,325.3z"></path>
<path class="staa6" d="M163.8,372.5c0.1,1.9,0.1,3.8,0.2,5.7c-7.9,18.9-1.4,32.8,19.3,41.8c-6.6,0.2-13.2,0.8-19.4-2.1
	c-2.9-0.8-6.5,5.6-9-0.7c9.4-5.6,1.4-13.4,2.4-20.1c1.1-7.2,0-14.7-0.1-22c0.1-1,0.4-1.9,0.8-2.8
	C159.9,372.5,161.8,372.5,163.8,372.5z"></path>
<path class="staa4" d="M188,381c0.5,6.5,1.6,12.6,8.7,15.3c2,2.8,4.1,5.7,6.1,8.5c-2.5,2.3-5,4.6-7.5,6.9c-6.7,0.5-7.6-5.8-11.1-9.2
	c-0.1-6.8-0.1-13.6-0.2-20.3C185.3,381.8,186.6,381.4,188,381z"></path>
<path class="staa12" d="M184,382.1c0.1,6.8,0.1,13.6,0.2,20.3c-11.3-8.5-3.1-20.8-5.9-30.9c0.6-3,2.4-4.7,5.4-5.2
	C183.8,371.6,180.4,377,184,382.1z"></path>
<path class="staa14" d="M300.2,274.5c-6.6-1.6-11.6-8.9-20.2-4c-5.9,3.4-6.9-2.7-7.5-7.2c0.3-2.1,0.6-4.2,0.9-6.3
	c8-1.1,15.9-2.1,23.9-3.2c19.6-4.3,40.3-1.6,59.3-9.4c2-0.4,4.1-0.8,6.1-1.2c1-0.4,2-0.8,2.9-1.2c4.9-0.2,9-2,12.2-5.7
	c6.5,0.1,12.7-0.5,17.3-5.9c1.6-0.6,3.2-1.2,3.1-3.4l-0.1,0.2c3.1,1,4.9-0.3,6.1-3.1l0,0.4c5.8-1,8.9-5.7,13-9.2
	c16.2-14.1,24.4-32.1,30.8-52.5c4.5-14.5,5.4-27.4,0.9-41.4c-3-9.1-8.5-12.7-17.8-9.7c0.9-2,1.8-3.9,2.7-5.9
	c7.6-4.8,5.8-10,0.8-15.4c-1.2-2,2.8-4.8-1-6.4c3.3-5.1,4.1-10.6-1.5-14c-5.8-3.6-12-9.1-19.6-3.1c-9.3-2.7-15.9-11.4-26.2-11.7
	c-10.6-5.6-21.9-3-32.9-3c-2.1-4.6-3.7-8.7-10.7-7.4c-7.2,1.3-14.7,0.7-22.1,0.9c2.4-7.8,10.2-4.2,14.8-7.1c11-6.8,26.1-2.9,35.3-15
	c2.7-3.6,10.5-2.5,15.3,0.6c5.8,3.9,12,4,18.4,3.5c10.4-2,12.4,9.9,20.1,12.3c4.8,13.2,16.7,16.7,28.2,17.2
	c14.6,0.7,10,13.8,15.2,20.3c3.8,4.8-1.3,7.7-5.8,10.9c-8.7,6.3-4.5,16.2-3.6,24.5c0.5,4.6,4.8,3.7,7.9,1c2.5,3.8,7.4,6.4,5.9,12.1
	c-2.3,0.6-6.8-1-4.9,4c3.7,10.3,1.1,20.8,1.7,31.2c-1.3,8.3,1.4,17.2-9,23.1c-5.1,3,2.8,14.2-5.7,19.4c-5.3,0.4-1.2-7.5-7.4-7.9
	c-8,12.8-12.3,28.8-23.6,40.4c-21.9,12.5-44.4,23.4-70.4,24.2c-11.3,3.6-23.9,1.6-34.7,7.5c-1.2,0.2-2.5,0.4-3.7,0.5
	c-0.9,0-1.8,0.1-2.6,0.4c-5.1-0.2-10.4-0.9-12.3,5.8L300.2,274.5z"></path>
<path class="staa14" d="M442.8,249.2c-0.1,1.4-0.1,2.7-0.2,4.1c-0.3,7.2,1.7,14.9-3.3,21.4c-6.5-2.4-12.8-3.7-17.7,3
	c-4.9-0.2-9.7-0.1-12.4,5.1c-2.5,4.7-6.2,7.1-11.6,6.5c1.2-4.9,2.5-9.8,3.7-14.7c1.5-7.5,14.2-8.1,11.1-18.4
	c3.3-2.4,6.6-4.7,9.9-7.1c3.9-0.6,7.8-1.2,11.7-1.8C436.8,248.4,439.3,251.2,442.8,249.2z"></path>
<path class="staa13" d="M422.3,249.1c-3.3,2.4-6.6,4.7-9.9,7.1c-10.9,3-21.8,5.9-32.7,8.9c-5.4,0.9-8.3,5.3-11.8,8.7
	c-3.8-0.9-7.6-1.9-11.4-2.8c-1.1-3.5-2.1-7-3.2-10.4c26-0.8,48.4-11.7,70.4-24.2c3.2,0.2,6.3,0.8,2.6,4.5
	C423.9,243.2,421.6,245.3,422.3,249.1z"></path>
<path class="staa2" d="M469.3,161.2c-0.5-10.4,2-20.9-1.7-31.2c-1.8-5.1,2.7-3.4,4.9-4c0.9,8.6,2,17.1,2.6,25.7
	C475.4,156,475.7,160.8,469.3,161.2z"></path>
<path class="staa5" d="M427.9,31.7c-3.8-1.2-8.1-2.5-8.3-7.2c-0.2-4.7,4.3-7.2,7.7-7.7c11-1.8,20.5-10.2,33.4-4.4
	c22.3,10,36.1,53.3,20.7,69.1c-0.6-14.9-2.7-29.3-12.4-41.5c0.1-2.4-0.7-4.4-3.1-5.3c-2-2.1-4-4.3-5.9-6.4
	c0.3-7.1-4.7-9.5-10.2-10.4c-4-0.6-3.9,3.5-4.3,6.3C439.6,26.6,433.8,29.2,427.9,31.7z"></path>
<path class="staa9" d="M445.5,24.1c0.4-2.8,0.3-6.9,4.3-6.3c5.5,0.9,10.5,3.3,10.2,10.4C455.2,26.8,450.3,25.5,445.5,24.1z"></path>
<path class="staa9" d="M465.9,34.6c2.4,1,3.2,2.9,3.1,5.3C468,38.2,467,36.4,465.9,34.6z"></path>
<path class="staa6" d="M68.1,109c-10.5-8.4-13.3-18.8-8-31.2c14.6,10.1,19-3.8,26.1-11.1c6.6,0.2,11.6,2.1,11.9,9.9
	c0.3,7.6-5.2,5.1-9.2,5.4c-2.7,0.2-5.7,2.2-4.4,4.4c6.8,11.8-4.1,20.8-4.3,31.4C74.3,117.5,72.4,111.6,68.1,109z"></path>
<path class="staa4" d="M86.2,66.6c-7.2,7.3-11.5,21.3-26.1,11.1c-0.8-6.5,5.1-10.8,5.7-16.8c0.2-1,0.2-1.9-0.1-2.8
	c0,0,0.2-0.1,0.2-0.1c3.7-0.2,5.2-2.7,6.1-5.8c1.4-0.1,2.8-0.2,4.1-0.3c8.9-1.2,13.8-9.1,21.4-12.8c4.7-2.3,1.2-5.7-1.4-8.1
	c2.9-3.2,5.4-0.4,8,0.5c2.7,3,8.1,2.7,9.2,7.7c-3.3,3-8.8,3.9-9.2,9.7c0,0-0.1,0-0.1,0c-5.8,0.7-10.7,2.6-11.8,9.3
	c-0.1,0.8-0.2,1.7-0.2,2.6C89.3,61.8,87.4,63.8,86.2,66.6z"></path>
<path class="staa9" d="M68.1,109c4.2,2.6,6.2,8.5,12.1,8.8c1.1,0.9,2.1,1.7,3.2,2.6c0.9,2.9,1.9,5.9,2.8,8.8c-3.4,4.5-9,6.9-11.9,2.1
	c-3.9-6.4-12.5-6.9-14.8-14.2c1.9-0.3,3.8-0.5,5.7-0.8c-0.2-0.4-0.3-0.9-0.5-1.3c-1.7,0.7-3.4,1.5-5,2.2c-5.5-3.6-16.6-5-6.2-15.2
	C56.4,108.4,60.2,112.9,68.1,109z"></path>
<path class="staa8" d="M96.2,30.9c2.6,2.4,6.1,5.8,1.4,8.1c-7.6,3.7-12.4,11.6-21.4,12.8c0.3-3.9,0.7-7.7,1.1-11.6
	C83.3,36.4,88.7,31.5,96.2,30.9z"></path>
<path class="staa7" d="M72.1,52.1c-0.9,3.1-2.4,5.6-6.1,5.8C66.4,54.3,65.9,49.8,72.1,52.1z"></path>
<path class="staa3" d="M53.7,51.9c0.1-0.3,0.2-0.6,0.4-0.9c-0.2,0.3-0.3,0.5-0.5,0.8C53.6,51.7,53.7,51.9,53.7,51.9z"></path>
<path class="staa7" d="M65.8,58.1C66,59,66,60,65.9,60.9c-0.3-0.7-0.7-1.3-0.9-2C64.9,58.7,65.5,58.3,65.8,58.1z"></path>
<path class="staa1" d="M145.9,28.2c7.9,1,16.4-3,23.7,2.8c-3.9,6.2-12.6-0.5-16.7,6.3c2.6,2.9,5.2,5.7,7.7,8.5
	c-0.2,1.8-0.5,3.5-0.7,5.3c0,0,0.4,0.3,0.4,0.3c-2.3,1-4.6,2-6.8,3C143,59,136.7,67.1,134.1,78.1c0,2.9,0,5.9,0,8.8
	c-11.2,1.4-10.9,9.1-7.2,16.2c2.9,5.6,4.1,10.8,4.1,16.8c-5.8-2.3-11.1-6.4-17.8-6.3c-8.2-13-2.1-27-3-40.5
	c11.3-5.8,13.4-17.3,17.2-27.8c0.9-2.2-1.1-6,4.5-5c3.9,0.6,7.7-1.8,3.7-6.9C139,31.6,142.5,29.9,145.9,28.2z"></path>
<path class="staa9" d="M135.5,33.2c4.1,5.1,0.3,7.6-3.7,6.9c-5.6-0.9-3.6,2.9-4.5,5.1c-8.5-4-15.5,1.7-23.1,3.7
	c0.4-5.8,5.8-6.7,9.2-9.7C120.3,35.6,127.4,32.3,135.5,33.2z"></path>
<path class="staa8" d="M160.6,45.8c-2.6-2.8-5.1-5.7-7.7-8.5c4.1-6.7,12.8-0.1,16.7-6.3c5,1,10.1,2,15.1,3c2.1,1.8,4.2,3.6,6.3,5.4
	C180,37.6,171.3,46.2,160.6,45.8z"></path>
<path class="staa1" d="M191,39.3c-2.1-1.8-4.2-3.6-6.3-5.4c2.9-0.1,5.8-0.2,8.7-0.3c6.9,2.1,13.9,4,20.8,6.4c5.5,1.9,9.1,5.5,8.9,11.8
	C212.3,47.7,203.2,39.5,191,39.3z"></path>
<path class="staa6" d="M378.6,408.4c-1.2,0.1-2.5,0.2-3.7,0.2c2.8-5.7-7.9-15.4,5.2-18.1c1.4,5.4,0.8,11.9,9.2,12.5
	c3.3,0.3,3.8,3.5,3.7,6.8c-0.5,13.3,5.6,16.2,16.9,10.1c3.8-0.2,8.6,4.8,11.2-1c2.1-4.7,1.1-9.4-5.2-10.9c0-2,0-4,0-5.9
	c7.9,0.4,13-2.5,12.6-11.3c14.4-5.5,17.6-25,34.5-27.6c0.3-0.1,0.4-1.8,0.6-2.7c1.7,0,3.4,0,5.1,0.1c-0.5,10.2,4.6,21.5-6.5,29.4
	c-2.8-3.3-5.6-7.2-10.7-4.1c-1.3,0.8-2.3,3.2-2.2,4.8c0.6,6.2,5.7,5.2,9.9,5.6c1,0.1,1.9,0.2,2.9,0.3c0.6,0.1,0.9,0.4,0.9,1
	c0,0,0,0.2,0,0.2c0.3,3.8,0.1,7.4-2.2,10.7c-13.4,3.2-8.5,15.6-11.8,23.8c0,0-0.3-0.4-0.3-0.4c-2.1,2.9-4.2,5.8-6.2,8.8
	c-4.2-3.8-1.2-11.6-8.8-14.8c0,4.4,0,8.2,0,12c0,4.8,0,9.6,0,14.4c-2.7,1.3-3.3,3.7-3,6.4l0,0c-3.5,0.3-5.5,2.1-6.1,5.6
	c-2.1,1.7-4.3,3.4-6.4,5.1c-0.6-0.6-1.4-0.7-2.2-0.6c0,0-1-1-1-1c0.3-3.1,1.2-6.4-1.7-8.9c-1.2-0.1-2.4-0.2-3.5-0.3
	c-0.5-4.4,2.7-10.6-5.4-11.4c-4.8-5.5-11.2-6.8-18.1-6.4c-7.8-2.8-2-16.2-13.8-17.3c-2.1-0.2,1.5-9.1,6.5-11.9
	C381.4,410.1,381.2,409.1,378.6,408.4z M439.1,415c0.8-4.7-2.2-7.6-5.6-9.4c-3.8-2-5.1,1.4-5.4,4.4c-0.4,4-0.6,8.2,4.6,9.4
	C436,420.1,438.4,418.6,439.1,415z"></path>
<path class="staa0" d="M288.3,398.7c0.1-2.8,0.1-5.7,0.2-8.5c5.3-2.8,1.9-7.8,2.9-11.7c3.1-1.7,4.5-5.9,8.8-5.7
	c3.3,6.4,1.7,14.3,6.2,20.3c-0.6,13.7,3.8,25.7,17.2,30.4c12.6,4.4,25.2,11.1,39.5,7.9c7.9,11.5,15.8,23,23.7,34.5
	c-1.4,6.4-5.5,10.7-11.2,13.6c-4.3-13.8-12.7-1.9-19-2.8c-0.8-0.1-2.2,1.4-3.5,0.1c-1.1-1.8,3-5.9-2.6-5.7c-1-0.2-1.9-0.5-2.8-1
	c-1.9-5.4-1.8-11.8-7-16.1c-4.2,5.8,1.7,17.1-10.7,16.3c-0.1-1-0.2-1.9-0.2-2.9c3.9-3.5,3.6-7.5,0.6-13.7c-0.4,5.8-0.7,9.6-1,13.4
	c-1.1,1.1-2.2,2.1-3.3,3.2c-0.7-0.3-1.4-0.5-2.1-0.6c-0.8-2.7-1.6-5.4-2.4-8.1c-2.2,0.9-4.3,1.7-6.5,2.6c-6-10.4-5.7-23.9-15.9-32.3
	c3.2-11.7-1.6-21.4-10.5-21.3C287.5,406.8,293.4,402.5,288.3,398.7z"></path>
<path class="staa14" d="M380.1,390.6c-13.2,2.7-2.4,12.4-5.2,18.1c-13,9.9-10.2-6.7-15.7-9.4c3.3-5.5,3.1-10.6,0.3-16.6
	c-5.8-12.5-4.4-26.5-0.2-38.4c3.1-8.7,0-10.3-5.5-13.1c1.4-5.3,6.1-11.8,0.1-15.6c-4.3-2.8-5.4,3.4-6.3,7c-1-0.3-2-0.7-3-1
	c0-4.9,0-9.7,0-14.6c7.5-8.6,6.5-18.9,5.7-29.2c6.8,2.5,16.3,16.9,17.7-4c3.5-3.4,6.4-7.8,11.8-8.7c2.4,6.3,6.4,10.9,13.1,12.8
	c-3.8,10.7-11.2,20.3-10.3,32.4c-0.8,0.5-1.6,1.1-2.2,1.9c-6.7,7.8-8.4,17.6-11.5,26.9c0.3,2.1-1.4,4.6,1.4,6.1
	c0.1,0,0.9-1.4,1.4-2.1c1.9,0.2,3.7,0.5,5.6,0.7c-0.7,8.3,2.1,15.7,6.1,22.8c0.1,4.9,0.2,9.8,0.3,14.7
	C380.3,383.6,380.7,387.2,380.1,390.6z M372.5,382.3c0.1-0.4,0.2-0.9,0.3-1.3c-0.8-0.1-1.5-0.3-2.3-0.3c-0.1,0-0.2,0.8-0.3,1.2
	C371,382.1,371.8,382.2,372.5,382.3z"></path>
<path class="staa14" d="M463.7,360.6c-0.2,0.9-0.3,2.7-0.6,2.7c-16.8,2.6-20,22.1-34.5,27.6c-1.3-2.3-2.6-4.7-3.9-7
	c7.6-8.5,14.1-17.6,15.9-29.2c9.9-3.3,7.3-12.8,10.6-19.3c5.9-11.9,9.4-21.7,1.5-33.6c-3.1-4.6,3.3-4.6,5.3-6.6
	c4.4,5.1,5.4,11.2,5.2,17.7c-3.2,2.5,0.8,4.4,0.5,6.7C463.6,333.2,463.6,346.9,463.7,360.6z"></path>
<path class="staa9" d="M463.1,312.8c0.3-6.5-0.8-12.6-5.2-17.7c-0.6-11.9-5.1-20.3-18.6-20.5c5.1-6.5,3-14.1,3.3-21.4
	c24,12.9,26.2,36.8,30,59.8C469.4,313,466.2,312.9,463.1,312.8z"></path>
<path class="staa8" d="M363.1,431.5c-14.3,3.1-26.9-3.6-39.5-7.9c-13.4-4.7-17.8-16.6-17.2-30.4c4.6-1.1,9.2-2.2,13.9-3.4
	c-0.7,3.3-1.4,6.6-2,10c-0.1,5.3-1.4,11.6,5.9,13.1c5.9,1.2,5.4-4.1,6.3-7.8c5.2,16.8,11.9,21.1,31.3,20.1
	C362.2,427.4,362.6,429.4,363.1,431.5z"></path>
<path class="staa2" d="M353.8,331.2c5.5,2.8,8.5,4.4,5.5,13.1c-4.2,11.9-5.6,25.9,0.2,38.4c2.8,6.1,3.1,11.1-0.3,16.6
	c-5.3-2.3-6.9-10.4-14.4-9.3c0.1-4.3,1.6-7.7,6.3-8.8c2.1-11.9,0-23.6-2.9-35.1c0-2.1,0.1-4.2,0.1-6.3
	C353.2,338.9,353.5,335,353.8,331.2z"></path>
<path class="staa11" d="M361.7,425.3c-19.3,1-26-3.3-31.3-20.1c-1.3-3.6,1.5-6,2.5-8.9c5.5,0.1,8.2,6.6,14.1,5.9
	C349.6,411.4,357.4,417.2,361.7,425.3z"></path>
<path class="staa7" d="M347,402.2c-5.8,0.7-8.6-5.8-14.1-5.9c-0.1-4.1-0.2-8.1-0.3-12.2c-0.4-8,1.6-16.3-2.3-24
	c-0.9-4-1.9-7.9-2.8-11.9c3.6,2.1,7.3,4.2,10.9,6.3c2.7,7.8-3.6,18.2,6.7,23.9c2,0.9,4,1.7,6,2.6c-4.7,1.1-6.2,4.5-6.3,8.8
	C343.7,394.4,345.6,398.3,347,402.2z"></path>
<path class="staa11" d="M386.4,440.9c6.9-0.4,13.2,0.9,18.1,6.4c-0.4,5.1-0.9,10.3-1.3,15.4c-1.6-0.4-3.3-0.8-4.9-1.2
	c-0.9-3.9,1.1-8.9-4.1-11.1C390.9,447.7,387,445.6,386.4,440.9z"></path>
<path class="staa8" d="M449.1,432.4c3.3-8.3-1.6-20.6,11.8-23.8C458.2,417.1,465.4,430.6,449.1,432.4z"></path>
<path class="staa11" d="M462.2,396.6c-1-0.1-1.9-0.2-2.9-0.3c-4.1-0.4-9.3,0.6-9.9-5.6c-0.2-1.6,0.9-4,2.2-4.8c5-3.1,7.8,0.8,10.7,4.1
	C462.3,392.2,462.2,394.4,462.2,396.6z"></path>
<path class="staa8" d="M463.7,360.6c0-13.7,0-27.4-0.1-41.1c4.5,13.4,2.7,27.6,5.2,41.2C467.1,360.7,465.4,360.7,463.7,360.6z"></path>
<path class="staa13" d="M430.8,458.7c-0.3-2.7,0.3-5.1,3-6.4c4.3,4.4,5.3,1.3,6.1-2.6c2.7,1.8,5.5,3.5,8.2,5.3c-1.2,2.6-2.4,5.3-5.6,6
	C439.1,457.9,434.7,459.8,430.8,458.7z"></path>
<path class="staa9" d="M448.2,455.1c-2.7-1.8-5.5-3.5-8.2-5.3c-0.5-2-1-3.9-1.6-5.9c1.4,0,2.8,0,4.2,0c5,6.7,6-1.5,8.9-2.4
	C450.4,446,449.3,450.5,448.2,455.1z"></path>
<path class="staa13" d="M403.2,462.7c0.4-5.1,0.9-10.3,1.3-15.4c8.1,0.8,4.9,7,5.4,11.4c-0.9,1.8-1.9,3.7-2.8,5.5l0.2,1.2
	C405.9,464.5,404.5,463.6,403.2,462.7z"></path>
<path class="staa11" d="M451.5,441.5c-2.9,1-3.9,9.1-8.9,2.4c0-1.1,0-2.1,0-3.2c2.1-2.9,4.2-5.8,6.2-8.8c0,2.4-0.4,5,2.3,6.4
	c0.4,0.9,1.1,1.4,2,1.5C452.5,440.3,452,440.9,451.5,441.5z"></path>
<path class="staa8" d="M430.8,458.7c3.9,1,8.3-0.8,11.7,2.4c-3.4,2.6-7,4.3-11.3,2.3C431.1,461.9,430.9,460.3,430.8,458.7L430.8,458.7
	z"></path>
<path class="staa7" d="M394.1,450.3c5.2,2.3,3.2,7.3,4.1,11.1C392.4,459.4,390.9,455.7,394.1,450.3z"></path>
<path class="staa9" d="M413.4,459c2.9,2.6,2,5.8,1.7,8.9c-2.6-0.9-5.2-1.7-7.8-2.6c0,0-0.2-1.2-0.2-1.2
	C411.2,464.9,412.7,462.5,413.4,459z"></path>
<path class="staa7" d="M430.8,458.8c0.1,1.6,0.3,3.1,0.4,4.7c-2.2,0.3-4.4,0.6-6.5,0.9C425.2,460.9,427.3,459,430.8,458.8z"></path>
<path class="staa9" d="M453.2,439.9c-1-0.1-1.7-0.6-2-1.5C451.8,438.9,452.5,439.4,453.2,439.9z"></path>
<path class="staa14" d="M378.6,408.4c2.6,0.7,2.9,1.7,0.5,3.2C378.9,410.6,378.8,409.5,378.6,408.4z"></path>
<path class="staa9" d="M416.1,468.9c0.8-0.2,1.6,0,2.2,0.6c0,0-1.2,0.3-1.2,0.3L416.1,468.9z"></path>
<path class="staa8" d="M463.1,397.9c0,0,0-0.2,0-0.2c0,0,0.9,0.2,0.9,0.2L463.1,397.9z"></path>
<path class="staa2" d="M157.3,254.7c19.4-15.2,40.9-27,63.3-37.2c9.9-3.1,13.5-14.3,23.2-17.6c8.3,2.3,2.8,7.9,2.9,12.1
	c-10,3.4-5.9,17-15.2,20.8c-11.7-2.2-21,5.4-25.9,20.9c-20.2,25.1-46.5,40.6-77.7,46.7c-9,1.8-17.3,6.7-26.7,6.3
	c-3.8-11.6-20.6-20.1-8.3-35.5C115.9,272.2,137.5,267,157.3,254.7z"></path>
<path class="staa5" d="M253.4,242.1c2-6.3,4.5-12.2,11.6-14.6c3.8,0.4,8.1-1.6,11.2,2.2c-3.1,2.9-3.1,6.6,0.4,8.3
	c4.3,2.2,5.6-1.8,6.6-5.1c0.8-2.4,1.6-4.8,2.3-7.2c5.7-3.2,5.7-3.3,0.2-14.2c3.4-8.1,3.4-16.2,0.6-24.6c-1.6-4.6-1.4-9.5,1.7-13.8
	c1.1,1.2,2.2,2.4,3.3,3.6c9,11.3,14.4-0.1,21.1-3.3c10.7,9.5,9.9,24.7,17.6,35.7c0.3,4.9,4.5,9.8-0.1,14.6
	c-6.9-1.5-4.2-9.6-8.7-12.7c-3.4-7.9-6.5-7.1-9.2,0.4c-2.2,6.2-4.3,12.4-6.5,18.6c-5.9,2.9-11.8,5.7-17.7,8.6
	c-0.2,0.4-0.7,0.9-0.6,1.1c0.3,0.7,0.9,1.3,1.3,1.9l-0.3,0.7c-7.2,11.1-25,12.5-34.9,2.9C253.3,244.2,253.3,243.1,253.4,242.1z
	 M291.4,215.8c7.7,2.2,12.6,4.1,15.1-3.5c2.2-6.9,5.5-13.9-1.9-19.7C305.9,202.6,300.6,208.8,291.4,215.8z"></path>
<path class="staa14" d="M71.2,310.5c-22.5,1.9-32.4-2.6-38.6-21.9c-5.3-16.4,2.8-29.4,15.8-39.5c0,0,0.9,0.7,0.9,0.7
	c1.2,8.1,3.5,15.2,13.7,15.3c1.9,0.2,3.7,0.3,5.6,0.5l0,0c-0.3,5.8,9.9,6,7.5,11.4C71.1,287.8,79.3,300.3,71.2,310.5z"></path>
<path class="staa7" d="M287.9,173.2c-3.1,4.3-3.3,9.2-1.7,13.8c2.8,8.4,2.8,16.5-0.6,24.6c-0.9,1.9-1.9,3.8-2.8,5.6
	c-4.2,0.2-4.2,0.2-3.4,9.7c-1.1,1-2.2,1.9-3.3,2.9c-3.1-3.9-7.4-1.8-11.2-2.2c1.8-9.3,2.1-18.9,11.4-25.4c4.6-3.2,3.3-9.8,1.1-15
	c-0.9-2.1-0.9-5.2-4-5.5c-3-0.3-3.9,2.5-5,4.5c-3.5,6.4-7.1,12.7-10.1,19.3c-2.5,5.3-6.6,6.8-11.8,6.6c-0.1-4.3,5.4-9.8-2.9-12.1
	c-2.8-1.8-5.5-3.6-8.3-5.3c-1.7-6.1,1-11.7,1.8-17.5c8.5-2.4,5.7-9.7,6.7-15.4c8.8,8.3,3.6,20.4,7.7,32.8
	c7.1-9.9,17.7-13.4,21.3-23.5c1.7-4.6-0.9-12.2,7.6-11.4C288.9,160.3,288,167.3,287.9,173.2z"></path>
<path class="staa6" d="M71.2,310.5c8.1-10.2-0.2-22.6,4.8-33.6c2.4-5.3-7.8-5.6-7.5-11.4c8.9-1.4,16.5,2.2,24.1,5.9
	c-12.2,15.4,4.5,23.9,8.3,35.5C90.8,305.1,81.2,309.8,71.2,310.5z"></path>
<path class="staa11" d="M205.5,253.8c4.9-15.6,14.3-23.1,25.9-20.9C227.1,245.3,219.3,253.3,205.5,253.8z"></path>
<path class="staa7" d="M253.4,242.1c-0.1,1.1-0.1,2.1-0.2,3.2c-3.2,1.9-6.3,3.9-9.5,5.8c-1.9-0.2-3.9-0.3-5.8-0.5
	C238.2,238.8,247,242.6,253.4,242.1z"></path>
<path class="staa5" d="M237.9,250.6c1.9,0.2,3.9,0.3,5.8,0.5c-2.7,1.2-5.4,2.3-8.2,3.5c0,0-0.7-0.8-0.7-0.8
	C235.8,252.7,236.9,251.6,237.9,250.6z"></path>
<path class="staa3" d="M89.4,319.2c0.1-0.8,0.2-1.7,0.3-2.5c0.4,0.2,0.9,0.4,1.3,0.6c-0.6,0.6-1.1,1.2-1.7,1.8
	C89.3,319,89.4,319.2,89.4,319.2z"></path>
<path class="staa3" d="M86.4,322.2c1-1,2-2,3-3c0,0-0.1-0.1-0.1-0.1c-1,1-2,2-3,3C86.3,322,86.4,322.2,86.4,322.2z"></path>
<path class="staa7" d="M74.7,145.8c19.3,5.4,38.3,6.8,56.2-4.4c-5.1,15.7-18.3,10.7-29.3,11.5C85,154,77.9,163.3,80.8,179.9
	c2.5,14,14.7,28.4,29.8,27c-0.1,1.8-0.2,3.6-0.3,5.3c-28.1-0.7-43.1-20.7-38.5-51.8C72.5,155.5,73.7,150.7,74.7,145.8z"></path>
<path class="staa1" d="M106.9,251c-19.8,8.6-35.5,0.5-50-12.4c6.6-2.3,12.2-7.1,20.5-2.2c8,4.7,11.2-10.8,20.2-7
	c0.3,7.2-12.5,11.6-7.1,17.4c4.8,5.2,10.9-6,18-5.7c0.7,0,1.5-1.1,2.3-1.7c0.7,1.9,1.4,3.7,2.1,5.6c0,0,0.1-0.1,0.1-0.1
	C111,246.9,109,248.9,106.9,251z"></path>
<path class="staa12" d="M142.5,247.2c-0.9,0.1-1.7,0-2.5-0.5c-0.4-4,3.6-8.1,0-12.4c-5.3,3-4.4,12.9-14.1,11.4
	c0.9-5.4,1.7-10.6,2.6-15.7c5.5-0.4,11.1-0.7,16.9-1.1c-1.3-4-6.1-6.2-5.4-10.9c0.9,0,1.7,0,2.6,0.1c3.1-1.2,6.8-1.7,9.2-3.7
	c9.7-7.8,11.2-1.7,11.7,6.5C156.5,229.6,149.5,238.4,142.5,247.2z"></path>
<path class="staa8" d="M142.6,218c-0.9,0-1.7,0-2.6-0.1c-7-5.5-14,2-21,0.1l0,0c-0.7-5.2-4.6-5.8-8.7-6c0.1-1.8,0.2-3.6,0.3-5.3
	c2.9-0.2,5.8-0.5,8.7-0.7c8.7,2,14.4-7.7,23.1-5.9C142.5,206.1,142.5,212.1,142.6,218z"></path>
<path class="staa1" d="M128.4,229.9c-0.8,5.2-1.7,10.4-2.6,15.7c9.7,1.5,8.8-8.4,14.1-11.4c3.6,4.3-0.4,8.4,0,12.4
	c-7.9,7.2-17.6,6.9-27.3,6.4c0.1-2.8,0.2-5.5,0.4-8.3c0,0-0.1,0.1-0.1,0.1C120.7,242.5,120.9,232.4,128.4,229.9z"></path>
<path class="staa12" d="M110.9,239.3c-0.8,0.6-1.6,1.7-2.3,1.7c-7.1-0.4-13.2,10.8-18,5.7c-5.4-5.8,7.4-10.2,7.1-17.4
	C104.4,229.7,109.3,232.2,110.9,239.3z"></path>
<path class="staa5" d="M27.9,188.7c-5.7-3.9-2.8-8.1-0.6-12.4c6.1,4.2,11.7-1.8,19.3-1.6C41.3,182.4,34.2,185.1,27.9,188.7z"></path>
<path class="staa8" d="M119,218.1c-1.2,4.9-3.8,7.8-10.3,7C109.5,218.3,114.3,218.3,119,218.1C119,218.1,119,218.1,119,218.1z"></path>
<path class="staa4" d="M142.6,218c0-5.9-0.1-11.9-0.1-17.8c3.9-2.2,7.7-4.5,11.6-6.7c3.9,0.2,5.9-1.5,5.7-5.6c0,0,0.3-0.3,0.3-0.3
	c14.1-5.8,17.5-20,24.6-31.2c4.4,0,8.4-1.5,11.9-4.2c11.4,2.5,20.1-3.8,29.3-8.8c8.8,4.8,10.7-4.1,15.3-7.7c1.7-0.1,3.4-0.2,5.1-0.3
	c5.1,9.3-6.7,17-2.3,26.2c-1,5.7,1.8,13-6.7,15.4c-0.7-0.2-1.4-0.3-2.2-0.3c-0.9-3.2-1.8-6.4-2.7-9.5c5.1-1.3,6.7-5,3.6-8.7
	c-2.6-3.2-5,0.5-6.9,2.5c-0.6,6.2-8.2,15.1,5.9,15.8c-6.6,5.5-7.9,18.5-21,14.8c-2-6.9-7.2-10.2-13.4-13.5
	c-4.1,10.1,4.5,17.8,2.5,26.5c-8.9,1.3-7.6-9.4-14.5-11.6c-2.4,8.7,2.1,15.4,4.8,22.4c-8.4,7.6-19.8,11.3-27,20.5
	c-4.5-4.3-2-10-3-15c-0.5-8.3-1.9-14.3-11.7-6.5C149.3,216.3,145.7,216.8,142.6,218z"></path>
<path class="staa7" d="M92.7,271.4c-7.6-3.7-15.3-7.3-24.1-5.9c0,0,0,0,0,0c-0.1-1.7-0.3-3.5-0.4-5.2c0.2-0.5,0.3-1,0.4-1.5
	c30.1,9.2,59.5,4.6,88.8-4.1C137.5,267,115.9,272.2,92.7,271.4z"></path>
<path class="staa1" d="M193.5,215.4c-2.7-7-7.2-13.7-4.8-22.4c6.9,2.2,5.6,12.9,14.5,11.6c1.9-8.7-6.7-16.4-2.5-26.5
	c6.2,3.3,11.4,6.6,13.4,13.5c1.2,3,2.3,5.9,3.5,8.9C211.9,209.4,204.3,214.9,193.5,215.4z"></path>
<path class="staa5" d="M217.5,200.5c-1.2-3-2.3-5.9-3.5-8.9c13.1,3.6,14.4-9.4,21-14.8c0,0,0.1-0.1,0.1-0.1c0.7,0.1,1.4,0.2,2.2,0.3
	c-0.8,5.8-3.6,11.4-1.8,17.5c-2.9,5.2-7.3,8.9-12.3,11.9C222.3,203.5,220.9,201.1,217.5,200.5z"></path>
<path class="staa1" d="M163.5,220.9c1,5-1.5,10.7,3,15c-7,5.9-14.8,10-24,11.3C149.5,238.4,156.5,229.6,163.5,220.9z"></path>
<path class="staa13" d="M63,265.1c-10.1-0.1-12.5-7.3-13.7-15.3c6.4,3,12.8,6,19.2,9.1c-0.1,0.5-0.2,1-0.4,1.5
	C64.7,260.1,63,261.7,63,265.1z"></path>
<path class="staa8" d="M223.2,206.5c5-3,9.4-6.7,12.3-11.9c2.8,1.8,5.5,3.6,8.3,5.3c-9.7,3.3-13.3,14.5-23.2,17.6
	C222.5,214.1,223.8,210.5,223.2,206.5z"></path>
<path class="staa4" d="M113.1,244.8c-0.1,2.8-0.2,5.5-0.4,8.3c-2.3,0.4-4.5,0.2-5.8-2.1C109,248.9,111,246.9,113.1,244.8z"></path>
<path class="staa13" d="M244,161.7c-4.4-9.2,7.4-17,2.3-26.2c3.7-4,7.8-6.9,13.6-6.7c2.8,0.1,6.4-0.5,6.2-4.2
	c-0.2-4.7-4.4-4.1-7.6-4.5c-1.7-1.3-3.4-2.7-5.1-4c0.8-3.5,1.5-7,2.3-10.5c0.4-1.8,0.8-3.6,1.2-5.5c3.4-2.7,9.6-0.5,11-6.5
	c3.6-2,7.3-4,10.9-6c0,0,0.5-0.2,0.5-0.2c1.9,1,3.8,2.1,5.6,3.1c0,0,0.1,0.3,0.1,0.3c8.3,17.3,24.7,26.3,38.5,38
	c-0.5,24.3,8.4,44.3,27.1,59.9c2.1,10.8,17.9,11.1,18.1,23.4c-4,3.1-8.1,6.2-12.1,9.3c-1.1-1.2-2.3-2.3-3.4-3.5
	c0.4-0.9,0.6-1.9,0.5-2.9c1.9-0.1,3.8-0.4,4.3-2.6c0.1-0.4-1-1.6-1.4-1.6c-2.2,0.3-2.6,2.2-2.9,4.1c-1-0.2-2.1-0.3-3.1-0.5
	c-0.3-7.1,1.9-15.5-9-16.9c-6.4-2.8-11.6-6.1-12.9-14.1c-2.6-16.8-14.1-28.8-23.9-41.6c3.8-6.2,3.6-11.7-2.2-17
	c-8.5-7.8-17.6-4.8-29.6-3c7.3,6.4,12.7,11.2,18.1,15.9c0.3,0.7,0.4,1.5,0.4,2.3c0.5,8.3-3,17.6,5.9,23.9
	c-3.2,3.6,2.9,11.7-6.1,12.6c-1.1-1.2-2.2-2.4-3.3-3.6c0.1-5.9,0.9-12.8-7.3-13.6c-8.5-0.8-5.9,6.8-7.6,11.4
	c-3.7,10.1-14.2,13.6-21.3,23.5C247.6,182.2,252.8,170.1,244,161.7z"></path>
<path class="staa14" d="M255.7,105.6c-0.8,3.5-1.5,7-2.3,10.5c-1.6-0.5-3.2-1-4.8-1.5c-1.1-3.4-2.8-2.4-4.6-0.6
	c-4.7,1.8-2.3,9.3-8.1,10.1c-4.2-1.7-3.3-9.3-10.8-7.9c-11.6,2.2-23.5,3-35.3,4.3c-5.4,3.6-10.4,8.1-17.2,9.1
	c-1.5-3.6-3.6-7.4,0.3-10.6c4.9-4,4.6-7.6-1.2-9.4c-10.1-3.1-11.4-10.8-11.3-19.5c4.6-7.3-4.6-5.5-5.9-8.9
	c0.1-17.9,14.2-19.8,26.7-23.6c4.7,4.1,10.6,5,16.4,6c6.8,1.2,11.3,4.1,7.5,12c-14.5-3.1-13.3,9.4-14,16.5c-1,9.9,7.3,16.2,16,18.1
	c9.4,2.1,17.1-1.9,18-13.2c0.8-3.2,0.5-8.1,4.4-8.5c12.5-1.3,9.1-7.9,6-15c-1.3-3-1.9-6.4-2.8-9.7c9.4-1,15.2,3.1,17.3,12.4
	C251.8,86,244.1,97.6,255.7,105.6z"></path>
<path class="staa6" d="M205.2,75.6c3.8-7.9-0.6-10.8-7.5-12c-5.9-1-11.7-2-16.4-6c7.6-5.5,17.2-4.4,27.6-6.9c-7.9-7.3-16-6.2-21.7-3.1
	c-9.1,5-18,4-27.2,3.5c0.2-1.8,0.5-3.5,0.7-5.3c10.7,0.5,19.4-8.2,30.4-6.5c12.2,0.2,21.3,8.4,32,12.5c0,0.9,0,1.8,0.1,2.8
	c-10.8,2.7-14.5,7.6-9.6,19.4c2.9,6.8,8.2,13.6,6.6,21.9c-13.8,5.4-16.1,3.8-14.9-10.3C205.6,82.3,205.2,78.9,205.2,75.6z"></path>
<path class="staa11" d="M199.7,21.3c1.1-1.5,2.3-2.9,3.4-4.4c2-0.2,4-0.4,6.1-0.6c11.7-0.3,23,4.4,34.9,2.7c6-0.5,11.7-0.4,14.9,6
	c-5.7,4.4-14.8,5.6-15.2,15.3C227.6,37.3,215.6,24.7,199.7,21.3z"></path>
<path class="staa11" d="M220.2,95.9c1.5-8.4-3.8-15.2-6.6-21.9c-5-11.7-1.3-16.7,9.6-19.4c5.3,0.9,7.9,4.6,9.7,9.3
	c0.9,3.2,1.4,6.6,2.8,9.7c3.1,7.2,6.6,13.8-6,15c-3.9,0.4-3.6,5.3-4.4,8.5C223.6,96.6,221.9,96.2,220.2,95.9z"></path>
<path class="staa6" d="M243.7,40.3c0.4-9.7,9.5-10.9,15.2-15.3c2.8,2.1,5.6,4.1,8.5,6.2c0.2,0.8,0.3,1.6,0.4,2.5
	c1.1,5.8,2.1,11.6,3.2,17.3c-4.1,3.3-8.2,6.5-12.3,9.8C253.7,54,248.7,47.1,243.7,40.3z"></path>
<path class="staa11" d="M258.7,60.8c4.1-3.3,8.2-6.5,12.3-9.8c5.4,6.3,3.1,16.8,11.7,21.3c0.4,4.7-1.4,8.9-3.5,12.9
	c-9.9,1.4-10.6-9.8-17.4-12.7C260.8,68.6,259.7,64.7,258.7,60.8z"></path>
<path class="staa11" d="M255.7,105.6c-11.6-7.9-3.9-19.6-5.6-29.4c10,5.8,2.7,16.4,6.7,23.9C256.5,101.9,256.1,103.7,255.7,105.6z"></path>
<path class="staa7" d="M261.8,72.6c6.7,2.9,7.5,14,17.4,12.7c0,0.8-0.1,1.6-0.4,2.4c-3.7,2-7.3,4-10.9,6
	C264.6,87,259.7,80.8,261.8,72.6z"></path>
<path class="staa4" d="M339.6,85.1c2-0.9,4-1.8,6-2.8c1.6-1.3,3.2-2.6,4.8-3.9c3.3-0.7,6.9-0.8,9.3-3.7c3.9,7,12.3,10.5,14.5,18.8
	c-9,10.1-3.7,23.6-8.5,34.8c-5.5,12.8-0.9,25.3,11.6,33.3c0.9,0.3,1.9,0.6,2.8,0.9c1.1,0.9,2.1,1.7,3.2,2.6c0.3,8.6-6.9,17-0.6,25.7
	c-6.7,4.7-11.8-0.2-17.4-2.8c-8-7.7-15.3-16.4-24.4-22.6c-6.7-4.6-6.3-7.6-2.1-12.6c3.4-4.3,15.4-5,5.9-14.5
	c-1.1-1.1-2.3-2.2-3.4-3.3c-1.9,0-3.8,0.1-5.7,0.1c2-10.1,7.2-20.5-2.7-29.5C337.3,99.3,334.8,91.1,339.6,85.1z M351.2,156.4
	c2.5-0.2,4.5-1.2,5.5-3.5c0.1-0.4-0.7-1.1-1.1-1.7c-1.8,1.4-3.6,2.7-5.4,4.1c-1,0.6-2.1,1.2-3.1,1.8
	C348.8,159.1,350,157.8,351.2,156.4z"></path>
<path class="staa6" d="M339.6,85.1c-4.8,6-2.3,14.2-6.4,20.4c-4.3,0-7,2.2-8.9,5.8c-9.7-0.2-15.2-4.7-15.4-14.7
	c1.1-2.1,2.2-4.2,3.4-6.3c5.8,2.3,8.4-1.4,11.4-5.5C328.8,78,334.5,76.6,339.6,85.1z"></path>
<path class="staa9" d="M353.5,52.2c11.1,0,22.4-2.6,32.9,3c-2,2.8-4,5.5-6,8.3c-2.1,0.2-4.2,0.5-6.4,0.7c-9.7-5.4-19.5-1.6-29.3-0.1
	c-3.4-2.3-9.8,4.9-10.7-2.2c-0.6-5,5.5-6,9.9-6.6C347.4,54.8,350.9,55,353.5,52.2z"></path>
<path class="staa6" d="M344.8,64.2c9.8-1.5,19.6-5.3,29.3,0.1c-1.2,8.4-13.3,1.9-14.3,10.5c-2.5,2.9-6,3-9.3,3.7
	c-1.9-0.8-3.7-1.5-5.6-2.3C344.9,72.2,344.9,68.2,344.8,64.2z"></path>
<path class="staa11" d="M312.3,90.3c-1.1,2.1-2.2,4.2-3.4,6.2c-1.1-1-2.2-2-3.3-3c-0.9-1-1.7-2-2.6-2.9c-1.9-0.1-3.9-0.1-5.8-0.2
	c1.9-7.9,7-12.8,14.6-15.3C312,80.1,312.2,85.2,312.3,90.3z"></path>
<path class="staa8" d="M344.9,76.2c1.9,0.8,3.7,1.5,5.6,2.3c-1.6,1.3-3.2,2.6-4.8,3.9C345.4,80.3,345.1,78.2,344.9,76.2z"></path>
<path class="staa2" d="M297.3,90.4c1.9,0.1,3.9,0.1,5.8,0.2c0.9,1,1.7,2,2.6,2.9c1.1,1,2.2,2,3.3,3c0.2,10.1,5.7,14.6,15.4,14.8
	c2.6,6-1.4,11.7-0.7,17.6c-13.8-11.7-30.2-20.7-38.5-38C289.1,90.7,293.2,90.5,297.3,90.4z"></path>
<path class="staa7" d="M282.7,72.4c-8.6-4.5-6.4-15-11.7-21.3c-1.1-5.8-2.1-11.6-3.2-17.3c15,7.9,11.4,23.7,15.3,36.3
	C283,70.7,282.8,71.5,282.7,72.4z"></path>
<path class="staa2" d="M285,90.6c-1.9-1-3.8-2.1-5.6-3.1C281.2,88.5,283.1,89.5,285,90.6z"></path>
<path class="staa6" d="M82.5,367.1c-2.7-0.3-5.4-0.6-8.1-1c-1.4-13.3-10.4-9.2-18.2-7.9c-1.5-0.2-3-0.5-4.4-0.7c0.2-1.5,0.5-3,0.7-4.6
	c6.2-7.9,16.9-5,24.2-10.1c2-0.1,4.1-0.2,6.1-0.3c-2.3,7.5-2.3,14.4,6,18.4C88.5,364.9,85.7,366.2,82.5,367.1z"></path>
<path class="staa2" d="M142.9,339.7c-2.8,3.8-5.4,7.8-8.6,11.2c-3.7,4.1-7.3,4.5-9.3-1.8c0.3-5.1-0.1-10.6,6.6-12.3
	c4.2,0.1,8.4,0.2,12.6,0.2C143.8,338,143.3,338.9,142.9,339.7z"></path>
<path class="staa11" d="M88.9,342.3c0.8,5-0.4,11,6.5,13c-0.6,3.7-3.2,5.1-6.5,5.6c-8.3-4.1-8.3-10.9-6-18.4
	C84.8,342.4,86.9,342.4,88.9,342.3z"></path>
<path class="staa3" d="M235.6,254.6c2.7-1.2,5.4-2.3,8.2-3.5c3.2-1.9,6.3-3.9,9.5-5.8c9.9,9.7,27.8,8.2,34.9-2.9
	c1.2,0.6,2.3,1.3,3.5,1.9c-0.5,4.6,3.4,6.6,5.6,9.5c-8,1.1-15.9,2.1-23.9,3.2c-9.6-1.4-18.2,1.8-26.8,5.4
	c-5.9,2.4-12.1,4.3-17.7,7.4c-18.5,10.2-37.5,19.9-47,40.6c-7.7,13.1-18.4,24.8-17.7,41.5c-1.3,2.9-2.7,5.8-4,8.8
	c-0.9,1.9-1.8,3.9-2.7,5.8l-0.1,0.1c-9.1,6.2-4.9,15.7-5.7,23.9c0,0,0,0.1,0,0.1c-6.3-7.3-2.1-16.1-3.3-24.1
	c3.3-17.3,13.9-32.4,15.2-50.3c7.3-2.8,8.3-10.6,12.4-15.8c12.4-15.5,27.6-27.1,45.3-35.9C226.4,261.9,232.7,260.5,235.6,254.6z"></path>
<path class="staa4" d="M288.8,410.8c9-0.2,13.8,9.5,10.5,21.3c-2.7-0.4-5.4-0.7-8.1-1.1c-1.2-5.7-2.4-11.3-3.5-16.9
	C288.1,413,288.4,411.9,288.8,410.8z"></path>
<path class="staa4" d="M324.2,469.8c0.7,0.1,1.4,0.3,2.1,0.6c1.3,0,2.6,0,3.8,0c12.4,0.8,6.5-10.5,10.7-16.3c5.2,4.3,5,10.7,7,16.1
	c-4.1,15.9-9.2,17.3-21.4,6.4c-2-1.8-5.1-2.3-7.7-3.4c-0.2-0.9-0.3-1.8-0.1-2.8C320.5,470.2,322.3,470,324.2,469.8z"></path>
<path class="staa12" d="M350.5,471.2c5.6-0.2,1.5,3.9,2.6,5.7C352.2,475.1,351.4,473.1,350.5,471.2z"></path>
<path class="staa12" d="M324.2,469.8c-1.9,0.2-3.7,0.4-5.6,0.6c-0.4-0.8-0.8-1.6-1.1-2.5c1.4-2,2.8-4.1,4.2-6.1
	C322.6,464.5,323.4,467.2,324.2,469.8z"></path>
<path class="staa1" d="M321.8,461.8c-1.4,2-2.8,4.1-4.2,6.1c-0.8-1.2-1.5-2.4-2.3-3.6C317.4,463.5,319.6,462.6,321.8,461.8z"></path>
<polygon class="staa1" points="305.2,452.5 304.5,453.6 304,452.4 "></polygon>
<path class="staa1" d="M454.6,485.5c-0.1-4.7-2.8-4.4-6-3.1c0.8-2.9,2-6.5,5.7-5.1C459.1,479.3,457.1,482.7,454.6,485.5z"></path>
<path class="staa2" d="M119.3,206.1c-2.9,0.2-5.8,0.4-8.7,0.7c-15.1,1.5-27.3-13-29.8-27c-2.9-16.5,4.1-25.8,20.8-26.9
	c11-0.7,24.1,4.2,29.3-11.5c1.2-1.2,2.3-2.5,3.5-3.7c0.8,0,1.6,0.1,2.4,0.2c0.9,21.7-4.8,31-24.7,39.1c-4.3,1.8-5.9,5.4-7.1,8.8
	c-1.5,4.1,2.6,6.6,5.5,7.3C117.9,194.9,119.6,199.6,119.3,206.1z"></path>
<path class="staa13" d="M86.2,129.2c-0.9-2.9-1.9-5.9-2.8-8.8c9.7,4.8,19.9,3.5,30.1,2.5c4.4,0.9,8.5,2.5,11.5,6.2
	C114.5,139.7,100.2,139.8,86.2,129.2z"></path>
<path class="staa7" d="M125,129.1c-3-3.6-7-5.3-11.5-6.2c-0.1-3.1-0.2-6.3-0.3-9.4c6.7-0.1,11.9,4,17.8,6.3c2.8,1.2,5.6,2.4,8.3,3.6
	c1.2,2.8,2.3,5.5,3.5,8.3c-2,2-4,4.1-6,6.1c-0.8-0.1-1.6-0.1-2.4-0.2C134.4,131.5,132.2,127.6,125,129.1z"></path>
<path class="staa8" d="M41.9,470.6c0.9,1,1.8,2.1,2.7,3.1C43.6,472.6,42.7,471.6,41.9,470.6z"></path>
<path class="staa2" d="M51.8,357.5c1.5,0.2,3,0.5,4.4,0.7c-2.1,0.7-4.2,1.4-6.2,2.1C50.6,359.4,51.2,358.5,51.8,357.5z"></path>
<path class="staa5" d="M151.8,390.5c0.8-8.2-3.4-17.6,5.7-23.9c0.1,1.9,0.3,3.9,0.4,5.8c-0.4,0.9-0.6,1.8-0.8,2.8
	C152.8,379.4,156.4,386.4,151.8,390.5z"></path>
<path class="staa2" d="M182,310.4c9.5-20.7,28.5-30.4,47-40.6c5.6-3.1,11.8-5,17.7-7.4c1.3,2.4,2.6,4.7,3.9,7.1
	c-9.8,14.6-27.5,19.7-39.2,32c-2.1,4.5-4,9.1-8.8,11.4c-3.2,1-6.4,2-9.6,2.9C186.9,318.9,184.1,315.4,182,310.4z"></path>
<path class="staa1" d="M184,382.1c-3.5-5.2-0.1-10.5-0.4-15.8c1.5-10.5,1.9-21.4,12.6-27.7c-2.7,14.1-5.5,28.2-8.2,42.3
	C186.6,381.4,185.3,381.8,184,382.1z"></path>
<path class="staa1" d="M196.8,335.2c-0.5-3.1,0.6-5.6,2.8-7.7C199.9,330.5,199.2,333.2,196.8,335.2z"></path>
<path class="staa12" d="M300.2,372.8c-4.3-0.2-5.8,4-8.8,5.7c-1,0.1-2,0.1-3,0.2c0-2.2,0-4.4,0-6.6c0.3-8.6,3.3-17.2,0.3-25.9
	c4.2-0.3,10.2,0.9,11.2-4.5c3.1-16.9,14.5-30.6,17.9-47.3c2.1-2.6,4.2-5.3,6.4-7.9c13.9,0.4,21.4,5.4,14.8,20.6
	c-6.7,9.1-16.5,16.3-17.7,28.8c-1,0.4-2,0.8-3,1.2c-6.4,1.5-8.2,6.3-8.5,12.1C305.7,356.8,299.1,363.3,300.2,372.8z"></path>
<path class="staa1" d="M317.6,294.5c-3.4,16.7-14.8,30.4-17.9,47.3c-1,5.4-6.9,4.1-11.2,4.5c-1.7-7.3,2.8-13.7,3.1-20.8
	c7.7-7.3,10.2-15.2,6.2-25.9c-2.2-5.8-5.1-12.9-0.8-19.5c1.1-0.9,2.1-1.8,3.2-2.7C309.8,279.3,311.1,289.5,317.6,294.5z"></path>
<path class="staa6" d="M297.1,280.1c-4.3,6.6-1.5,13.7,0.8,19.5c4.1,10.7,1.6,18.6-6.2,25.9c-4.2-0.3-8.5-0.5-12.7-0.8
	c-8.7-17.2,7.7-29.5,8.8-44.8C290.9,276.3,294,279.3,297.1,280.1z"></path>
<path class="staa5" d="M288.3,378.7c1-0.1,2-0.1,3-0.2c-1,3.9,2.4,8.9-2.9,11.7c-0.1-2.9-0.3-5.8-0.4-8.7
	C288.3,380.6,288.4,379.7,288.3,378.7z"></path>
<path class="staa4" d="M288.3,378.7c0.1,0.9,0,1.9-0.3,2.8c-3-3.2-2.5-6.3,0.3-9.4C288.3,374.3,288.3,376.5,288.3,378.7z"></path>
<path class="staa11" d="M317.6,294.5c-6.5-4.9-7.8-15.2-17.3-17c-0.1-1-0.1-2,0-3c0,0-0.2,0.2-0.2,0.2c7.9-0.2,15.9-0.4,23.8-0.7
	c1.1,1,2.3,2,3.4,2.9c-1.1,2.3-2.2,4.7-3.3,7c-0.2,0.9-0.2,1.7,0,2.6C321.8,289.2,319.7,291.8,317.6,294.5z"></path>
<path class="staa7" d="M250.6,269.5c-1.3-2.4-2.6-4.7-3.9-7.1c8.6-3.6,17.2-6.8,26.8-5.4c-0.3,2.1-0.6,4.2-0.9,6.3
	C266.2,268.7,257.5,266.2,250.6,269.5z"></path>
<path class="staa6" d="M182,310.4c2.1,5,4.9,8.5,11,5.5c6,8-4,6.2-5.8,9.4c-7.3,2.2-7.7,9.7-11.2,14.8c-2.9,4.3-3.4,10.7-10.2,11.6
	c-0.5,0.1-1,0.2-1.5,0.2C163.6,335.2,174.3,323.5,182,310.4z"></path>
<path class="staa11" d="M164.3,351.9c0.5,0,1,0,1.5-0.2c-0.3,7,2.5,14.3-2.1,20.8c-2,0-3.9-0.1-5.9-0.1c-0.1-2-0.3-3.9-0.4-5.8
	c0,0,0.1-0.1,0.1-0.1c2.7-1.1,3.2-3.2,2.7-5.8C161.6,357.7,163,354.8,164.3,351.9z"></path>
<path class="staa6" d="M433.9,105.9c-0.9,2-1.8,3.9-2.7,5.9c0.4,0.8,0.6,1.5,0.9,2.3c-10.8,7-7.3,21.2-15.2,29.7
	c-0.7-3.7-3.7-8.4-6.1-3.9c-4.8,9-15.2,14-17,24.8c-1.5-0.1-3-0.1-4.6-0.2c-0.9-1-1.8-1.9-2.6-2.9c0,0-0.5-0.8-0.5-0.8
	c0.8-5.2,1.2-10.5,2.4-15.7c2.2-9.3-3.1-8.2-8.9-6.7c-4.1-18.9,3.7-33.9,16.3-46.9c6.3-6.5,6-9.5-3.2-10.7c1-2.8,1.9-5.5,2.9-8.3
	c6.2,0.2,9.4,5.9,14.7,7.8c0.2,8.2-0.9,17.3,12,15.7C426.1,99.4,430,102.6,433.9,105.9z"></path>
<path class="staa5" d="M432.1,114.1c-0.2-0.8-0.5-1.6-0.9-2.3c9.3-3,14.8,0.6,17.8,9.8c4.6,14,3.7,26.9-0.9,41.4
	c-6.4,20.4-14.6,38.4-30.8,52.5c-4,3.5-7.1,8.2-12.9,9.2c0-3.1,0-6.2-0.1-9.3c18-8.3,26.4-24,31.8-41.9c-0.7-1.8-1.4-3.7-2.1-5.5
	C445.7,147.5,445.1,129.9,432.1,114.1z"></path>
<path class="staa5" d="M297.3,253.8c-2.3-2.9-6.1-4.9-5.6-9.5c1.7-0.5,3.4-0.9,5.1-1.4c12.5-0.3,25,3.5,37.6-1.1c5-1.9,8.5-3,4.2-8.7
	c0.1-1.2,0.1-2.4,0.2-3.7c-0.1-2.7-0.1-5.3-0.2-8c1-0.1,2.1-0.2,3.1-0.2c0.9,2.1,1.7,4.3,2.6,6.4c0.6,0,1.3,0,1.9,0
	c-0.3-0.4-0.5-0.8-0.8-1.1c-1.2-1.8-2.3-3.6-3.5-5.5c1.9-1.7,3.9-3.4,5.8-5.1c0.9-0.4,1.9-0.9,2.8-1.3c1,0.2,2.1,0.3,3.1,0.5
	l0.1,0.1c0.1,1-0.1,2-0.5,2.9c-0.5,1.3-1.7,3-1.3,3.7c1.4,2.4,3.2,1.1,4.7-0.2c4-3.1,8.1-6.2,12.1-9.3c0.6,0.2,1.2,0.3,1.8,0.4
	c-3.1,6.5-4.6,13.2-2,20.3c-4.8,6.5-13.6,1.7-20.5,6c3.7,2.4,6.2,3.9,8.6,5.4C337.6,252.2,316.9,249.5,297.3,253.8z"></path>
<path class="staa5" d="M410.2,80.4c-5.3-1.9-8.5-7.6-14.7-7.8c-5-3-10-6.1-15-9.1c2-2.8,4-5.5,6-8.3c10.3,0.4,16.9,9,26.2,11.7
	c3.8,4.2,10.4,5.3,12.4,11.5c-3.5,0.4-7.4,0.1-8.8,4.5C414.2,82.2,412.2,81.3,410.2,80.4z"></path>
<path class="staa5" d="M327.3,277c-1.1-1-2.3-2-3.4-2.9c-3.8-1.7-7.7-3.4-11.5-5.1c0.9-0.3,1.7-0.4,2.6-0.4c1.2-0.2,2.5-0.4,3.7-0.5
	c10.8-5.9,23.4-3.9,34.7-7.5c1.1,3.5,2.1,7,3.2,10.4c-8.4,1.1-18.2-2.8-24.3,6.7c-0.7-0.1-1.4-0.1-2.1-0.1
	C329.1,277.2,328.2,277,327.3,277z"></path>
<path class="staa13" d="M416.2,83c1.5-4.4,5.3-4.2,8.8-4.5l-0.2-0.2c1.1,1.1,2.1,2.1,3.2,3.2c0,0-0.2-0.2-0.2-0.2c1,1,2.1,2.1,3.1,3.1
	l-0.1-0.2c-0.4,3.1,1,5.1,3.8,6.2c5,5.4,6.8,10.7-0.8,15.4c-3.9-3.3-7.8-6.5-11.6-9.8C420.2,91.7,418.2,87.4,416.2,83z"></path>
<path class="staa9" d="M404.3,215.3c0,3.1,0,6.2,0,9.3c0,0,0-0.4,0-0.4c-2.5,0-4.7,0.8-6.1,3.1c0,0,0.1-0.2,0.1-0.2
	c-1,1.1-2.1,2.3-3.1,3.4c-4.6,5.4-10.8,6-17.3,5.9c-0.2-1.1-0.3-2.3-0.5-3.4C384.5,224.2,394.2,219.5,404.3,215.3z"></path>
<path class="staa6" d="M425,78.5c-2-6.2-8.6-7.3-12.4-11.5c7.6-6,13.8-0.5,19.6,3.1c5.5,3.5,4.8,8.9,1.5,14c-0.9,0.3-1.9,0.4-2.8,0.2
	c0,0,0.1,0.2,0.1,0.2c-1-1-2.1-2.1-3.1-3.1c0,0,0.2,0.2,0.2,0.2c-1.1-1.1-2.1-2.1-3.2-3.2L425,78.5z"></path>
<path class="staa3" d="M377.4,232.9c0.2,1.1,0.3,2.3,0.5,3.4c-3.2,3.7-7.4,5.5-12.2,5.7c-1,0.4-2,0.8-2.9,1.2c-2,0.4-4.1,0.8-6.1,1.2
	c-2.4-1.5-4.9-3.1-8.6-5.4c6.9-4.3,15.7,0.5,20.5-6C371.5,232.9,374.4,232.9,377.4,232.9z"></path>
<path class="staa9" d="M312.3,268.9c3.8,1.7,7.7,3.4,11.5,5.1c-7.9,0.2-15.9,0.4-23.8,0.7C301.9,268,307.2,268.7,312.3,268.9z"></path>
<path class="staa5" d="M430.9,84.3c1,0.1,1.9,0.1,2.8-0.2c3.7,1.6-0.2,4.4,1,6.4C431.8,89.4,430.5,87.3,430.9,84.3z"></path>
<path class="staa5" d="M398.2,227.2c1.4-2.2,3.6-3,6.1-3.1C403.1,226.9,401.3,228.3,398.2,227.2z"></path>
<path class="staa5" d="M395.2,230.5c1-1.1,2.1-2.3,3.1-3.4C398.5,229.3,396.9,229.9,395.2,230.5z"></path>
<path class="staa9" d="M318.6,268c-1.2,0.2-2.5,0.4-3.7,0.5C316.2,268.4,317.4,268.2,318.6,268z"></path>
<path class="staa5" d="M362.7,243.2c1-0.4,2-0.8,2.9-1.2C364.7,242.4,363.7,242.8,362.7,243.2z"></path>
<path class="staa6" d="M380.3,312.2c0.6-0.8,1.3-1.4,2.2-1.9c10-3.4,5.7-17.2,15-21c5.5,0.7,9.2-1.8,11.6-6.5
	c2.7-5.2,7.5-5.3,12.4-5.1c4.7,4.4,11.6,7.1,12.3,14.9c-5.7,8.7,0.2,17.9-1,26.9c-10.8-0.8-4.2,10.2-9.7,13.8
	c-2-1.3-1.1-6.1-4.4-5.8c-3.1,0.3-1.9,4-3,5.9c-6.8,12.4,5.6,17.7,9.5,26.1l0.3,0.7c-1.5,1.1-2,2.3-0.5,3.8
	c-3.3,4.8-10.8,7.1-9.1,15c-6,3-11.5,6.3-9.1,14.5c-5.3-0.8-12,2.5-14.8-5.3c2.6-2.9,9.8-3.3,6.6-9.4c-3.1-6-5.1-14.7-15.4-12.2
	c-4-7.1-6.8-14.5-6.1-22.8c1.7-0.9,5-2.2,4.9-2.6c-2.3-8.5-0.2-16.2,2.8-24C385.3,316.2,382,313.9,380.3,312.2z"></path>
<path class="staa2" d="M433.9,292.6c-0.7-7.8-7.5-10.5-12.3-14.9c4.9-6.8,11.2-5.4,17.7-3c13.5,0.2,18,8.5,18.6,20.5
	c-2,2.1-8.4,2-5.3,6.6c7.9,12,4.4,21.8-1.5,33.6c-3.3,6.6-0.7,16.1-10.6,19.3c1.7-9.5,4-19,4.8-28.6
	C446.2,313.6,447.2,300.5,433.9,292.6z"></path>
<path class="staa6" d="M392.8,277.8c-6.7-1.9-10.7-6.5-13.1-12.8c10.9-3,21.8-5.9,32.7-8.9c3.1,10.2-9.6,10.9-11.1,18.4
	C397.9,274.2,395.3,275.9,392.8,277.8z"></path>
<path class="staa13" d="M392.8,277.8c2.5-1.9,5.1-3.6,8.5-3.3c-1.2,4.9-2.5,9.8-3.7,14.7c-9.4,3.9-5,17.6-15.1,21
	C381.7,298.1,389,288.5,392.8,277.8z"></path>
<path class="staa6" d="M332.2,277.5c6.1-9.5,15.9-5.6,24.3-6.7c3.8,0.9,7.6,1.9,11.4,2.8c-1.4,20.9-10.9,6.6-17.7,4
	C344.2,277.7,338.2,277.6,332.2,277.5z"></path>
<path class="staa2" d="M113.2,113.5c0.1,3.1,0.2,6.3,0.3,9.4c-10.2,0.9-20.4,2.3-30.1-2.5c-1.1-0.9-2.1-1.7-3.2-2.6
	c0.2-10.6,11.1-19.6,4.3-31.4c-1.3-2.3,1.7-4.2,4.4-4.4c4-0.3,9.5,2.2,9.2-5.4c-0.3-7.8-5.3-9.7-11.9-9.9c1.1-2.8,3.1-4.8,5.9-5.9
	c1.8,1.9,4,3,6.5,1.6c3.7-2,7.2-6.5,11.7-2.9c5,4.1,0.7,9-0.2,13.5C111,86.5,105,100.5,113.2,113.5z"></path>
<path class="staa7" d="M110.2,73c0.9-4.5,5.2-9.4,0.2-13.5c-4.4-3.6-8,0.9-11.7,2.9c-2.5,1.3-4.7,0.3-6.5-1.6c0-0.9,0.1-1.7,0.2-2.6
	c5.3-1.3,9.2-4.5,11.8-9.3c0,0,0.1,0,0.1,0c7.6-2,14.6-7.7,23.1-3.7C123.6,55.7,121.5,67.2,110.2,73z"></path>
<path class="staa9" d="M104.2,48.9c-2.6,4.8-6.5,7.9-11.8,9.3C93.5,51.5,98.3,49.6,104.2,48.9z"></path>
<path class="staa3" d="M59.6,117.2c1.7-0.7,3.4-1.5,5-2.2c0.2,0.4,0.3,0.9,0.5,1.3c-1.9,0.3-3.8,0.5-5.7,0.8
	C59.5,117,59.6,117.2,59.6,117.2z"></path>
<path class="staa5" d="M142.8,131.8c-1.2-2.8-2.3-5.5-3.5-8.3c-2.8-12-0.4-24.8-5.2-36.6c0-2.9,0-5.9,0-8.8c5,1.1,11.8-7.4,15,2.9
	c-0.2,2.9-0.5,5.8-0.7,8.7c0,0-0.5,0.7-0.5,0.7c-0.6,1.1-1.2,2.2-1.9,3.2c0.1,6.7,4.3,5.8,8.6,4.5c1.4,1.9,0.8,3.2-0.8,4.9
	c-2.8,2.9-11.7,0.6-8.9,6.7c2.5,5.2,2.3,14.1,10,15c6.3,0.8,11,6.3,17.7,4.8c6.8-1,11.7-5.5,17.2-9.1c-3.1,11.5,2.9,12.9,12,10.8
	c0.1,2.1,0.2,4.3,0.3,6.4c0,0-0.1,0.2-0.1,0.2c-14.5,7.1-27.9-2.8-42-2.5c-4.8-0.9-9.6-1.7-14.3-2.6
	C144.7,132.5,143.7,132.1,142.8,131.8z"></path>
<path class="staa2" d="M149.1,81c-3.2-10.2-10-1.8-15-2.9c2.7-11,9-19.1,19.4-23.8c4.1,3,6.4,2.1,6.8-3c0,0-0.4-0.3-0.4-0.3
	c9.3,0.5,18.2,1.5,27.2-3.5c5.7-3.2,13.8-4.3,21.7,3.1c-10.4,2.5-19.9,1.5-27.6,6.9c-12.5,3.8-26.6,5.8-26.7,23.6
	C152.7,81.1,150.9,81.1,149.1,81z"></path>
<path class="staa9" d="M134.1,86.9c4.8,11.8,2.4,24.5,5.2,36.6c-2.8-1.2-5.6-2.4-8.3-3.6c0-5.9-1.2-11.2-4.1-16.8
	C123.1,96,122.8,88.3,134.1,86.9z"></path>
<path class="staa6" d="M160.3,51.3c-0.5,5.1-2.8,6-6.8,3C155.7,53.4,158,52.3,160.3,51.3z"></path>
<path class="staa11" d="M392.1,388.2c2.8,7.8,9.5,4.5,14.8,5.3c1.4,5.6-5.2,13,3.7,16.9c0,1-0.1,2.1-0.1,3.1c-0.2,2.2-0.3,4.3-0.5,6.5
	c-11.3,6.1-17.4,3.3-16.9-10.1c0.1-3.3-0.3-6.6-3.7-6.8c-8.4-0.6-7.8-7.2-9.2-12.5c0.5-3.3,0.2-7,3.4-9.3
	C386.4,383.5,389.2,385.9,392.1,388.2z"></path>
<path class="staa7" d="M424.6,383.9c1.3,2.3,2.6,4.7,3.9,7c0.3,8.8-4.7,11.7-12.6,11.3c0,0-1-0.7-1-0.7c-1.1-5.9-0.6-11.7,1.1-17.4
	C418.9,384,421.7,384,424.6,383.9z"></path>
<path class="staa14" d="M439.1,415.1c-0.7,3.5-3.2,5.1-6.4,4.4c-5.1-1.1-5-5.4-4.6-9.4c0.3-3,1.6-6.4,5.4-4.4
	C436.9,407.4,439.9,410.4,439.1,415.1z"></path>
<path class="staa14" d="M409.9,420c0.2-2.2,0.3-4.3,0.5-6.5c3.5-0.1,4.9-2.3,5.5-5.3c6.3,1.5,7.3,6.2,5.2,10.9
	C418.5,424.8,413.7,419.7,409.9,420z"></path>
<path class="staa13" d="M442.6,440.7c0,1.1,0,2.1,0,3.2c-1.4,0-2.8,0-4.2,0c-1.5-2-3.1-3.9-4.6-5.9c0-3.8,0-7.6,0-12
	C441.4,429.1,438.4,436.9,442.6,440.7z"></path>
<path class="staa11" d="M433.8,437.9c1.5,2,3.1,3.9,4.6,5.9c0.5,2,1,3.9,1.6,5.9c-0.8,3.9-1.8,7-6.1,2.6
	C433.8,447.5,433.8,442.7,433.8,437.9z"></path>
<path class="staa7" d="M415.9,408.1c-0.6,3-2,5.3-5.5,5.3c0-1,0.1-2.1,0.1-3.1c1.4-2.9,2.9-5.9,4.3-8.8c0,0,1,0.7,1,0.7
	C415.9,404.2,415.9,406.2,415.9,408.1z"></path>
<path class="staa7" d="M413.4,459c-0.7,3.5-2.2,5.9-6.4,5.2c0.9-1.8,1.9-3.7,2.8-5.5C411.1,458.8,412.2,458.9,413.4,459z"></path>
<path class="staa11" d="M300.2,372.8c-1-9.5,5.5-16,9.4-23.6c9.7,2.3,2.2,13.3,8.6,17.2c3.7,7.5,2.4,15.5,2,23.4
	c-4.6,1.1-9.2,2.2-13.9,3.4C301.9,387.2,303.5,379.3,300.2,372.8z"></path>
<path class="staa1" d="M329.6,467.3c0.3-3.8,0.6-7.6,1-13.4c3,6.2,3.3,10.2-0.6,13.7C329.9,467.6,329.6,467.3,329.6,467.3z"></path>
<path class="staa1" d="M330.1,470.5c-1.3,0-2.6,0-3.8,0c1.1-1.1,2.2-2.1,3.3-3.2c0,0,0.3,0.3,0.3,0.3
	C329.9,468.6,330,469.5,330.1,470.5z"></path>
<path class="staa6" d="M321,336c1.2-12.5,11-19.7,17.7-28.8c1.9-0.1,3.8-0.1,5.8-0.2c0,4.9,0,9.7,0,14.6c-5.2,10.4-5.8,21.8-6.2,33.1
	c-3.6-2.1-7.3-4.2-10.9-6.3C327,343.3,327.2,338,321,336z"></path>
<path class="staa8" d="M344.5,306.9c-1.9,0.1-3.8,0.1-5.8,0.2c6.6-15.1-0.9-20.2-14.8-20.6c-0.2-0.9-0.2-1.7,0-2.6
	c2-2.2,4.1-4.4,6.1-6.6c0.7,0,1.4,0.1,2.1,0.1c6,0.1,12,0.1,18,0.2C351,288,352,298.3,344.5,306.9z"></path>
<path class="staa5" d="M338.4,354.6c0.5-11.3,1-22.7,6.2-33.1c1,0.3,2,0.7,3,1c0.2,5.7,0.5,11.5,0.7,17.2c0,2.1-0.1,4.2-0.1,6.3
	c-6.2,10.3-2.8,21.6-3.1,32.5C334.8,372.8,341,362.5,338.4,354.6z"></path>
<path class="staa9" d="M380.3,312.2c1.6,1.7,5,4.1,4.6,5c-3,7.8-5.1,15.6-2.8,24c0.1,0.4-3.2,1.7-4.9,2.6c-1.9-0.2-3.8-0.5-5.6-0.7
	c-0.9-1.3-1.9-2.6-2.8-3.9C372,329.8,373.7,319.9,380.3,312.2z"></path>
<path class="staa13" d="M392.1,388.2c-2.8-2.3-5.7-4.6-8.5-6.9c-0.1-4.9-0.2-9.8-0.3-14.7c10.3-2.5,12.3,6.2,15.4,12.2
	C401.9,384.8,394.7,385.2,392.1,388.2z"></path>
<path class="staa6" d="M348.3,339.8c-0.2-5.7-0.5-11.5-0.7-17.2c1-3.6,2-9.7,6.3-7c6,3.8,1.3,10.3-0.1,15.6
	C353.5,335,353.2,338.9,348.3,339.8z"></path>
<path class="staa6" d="M372.5,382.3c-0.7-0.1-1.5-0.2-2.2-0.3c0.1-0.4,0.2-1.2,0.3-1.2c0.8,0,1.5,0.2,2.3,0.3
	C372.7,381.5,372.6,381.9,372.5,382.3z"></path>
<path class="staa6" d="M368.8,339.1c0.9,1.3,1.9,2.6,2.8,3.9c-0.5,0.7-1.3,2.2-1.4,2.1C367.4,343.7,369.1,341.2,368.8,339.1z"></path>
<path class="staa5" d="M424.6,383.9c-2.9,0.1-5.7,0.1-8.6,0.2c0-1.7,0-3.5,0-5.2c-1.7-7.9,5.8-10.2,9.1-15c0.2-1.3,0.3-2.5,0.5-3.8
	c0,0-0.3-0.7-0.3-0.8c3.8-4.5,6.8-9.3,6.1-15.6c0.4-1.2,0.7-2.5,1.1-3.7c0.1-6.9,0.2-13.8,0.4-20.7c1.3-8.9-4.7-18.1,1-26.9
	c13.3,7.9,12.3,21,11.4,33.5c-0.8,9.6-3.1,19.1-4.8,28.6C438.7,366.3,432.2,375.4,424.6,383.9z"></path>
<path class="staa4" d="M321,336c6.1,2,6,7.4,6.4,12.4c0.9,4,1.9,7.9,2.8,11.9c-6,5-2.4,11.9-3.4,17.9c-2.2,7.5,4.9,18.7-8.6,21.7
	c0.7-3.3,1.4-6.6,2-10c0.3-7.9,1.7-15.9-2.1-23.4c3.5-9.8-1.1-19.5-0.1-29.3C319.1,336.7,320.1,336.3,321,336z"></path>
<path class="staa1" d="M318.2,399.8c13.5-3,6.4-14.2,8.6-21.7c1.9,2,3.8,4.1,5.7,6.1c0.1,4.1,0.2,8.1,0.3,12.2c-1,2.9-3.8,5.3-2.5,8.9
	c-0.9,3.6-0.4,9-6.3,7.8C316.9,411.4,318.1,405.1,318.2,399.8z"></path>
<path class="staa6" d="M345.1,378.5c0.2-10.9-3.1-22.1,3.1-32.5c2.9,11.5,5,23.1,2.9,35.1C349.1,380.3,347.1,379.4,345.1,378.5z"></path>
<path class="staa9" d="M332.6,384.2c-1.9-2-3.8-4.1-5.7-6.1c1-6-2.6-12.8,3.4-17.9C334.2,367.9,332.2,376.1,332.6,384.2z"></path>
<path class="staa3" d="M304.7,142c9.9,12.8,21.3,24.9,23.9,41.6c1.3,8,6.5,11.4,12.9,14.1c-0.1,0.7-0.1,1.3-0.1,2
	c-4.8,1.9-11.1,2-11.4,9.4l-0.1,0.1c-7.7-11-6.9-26.1-17.6-35.7c-0.4-6-1.5-11.4-9-12c1.4-10.1-4.1-16.3-11.9-21.2
	c0-0.8-0.1-1.6-0.4-2.3C299.7,125.1,299.3,143.4,304.7,142z"></path>
<path class="staa2" d="M338.6,233.1c4.3,5.7,0.8,6.8-4.2,8.7c-12.5,4.6-25.1,0.8-37.5,1.1c0.3-6.1,15.5-2,8.7-12.8
	c2.2-6.2,4.3-12.4,6.5-18.6c2.7-7.5,5.8-8.3,9.2-0.4c-2.4,7.2-7.8,15.2-2.9,22c4.1,5.7,11.6,3,17.5-0.1
	C336.7,233,337.6,233.1,338.6,233.1z"></path>
<path class="staa11" d="M335.8,232.9c-5.9,3.2-13.4,5.9-17.5,0.1c-4.9-6.8,0.5-14.8,2.9-22c4.5,3.1,1.7,11.2,8.7,12.7
	c0,0,0.1,0.4,0.1,0.4c1,1,1.9,2,2.9,3c1,0.9,2,1.9,3,2.8C335.8,230.9,335.8,231.9,335.8,232.9z"></path>
<path class="staa9" d="M303.3,161.5c7.5,0.6,8.7,6,9,12c-6.7,3.2-12.2,14.6-21.1,3.3c9-0.8,2.9-8.9,6.1-12.5
	C300.8,166.7,302.7,165.4,303.3,161.5z"></path>
<path class="staa13" d="M291.4,215.8c9.2-7,14.6-13.1,13.2-23.2c7.4,5.8,4.1,12.9,1.9,19.7C304,219.8,299.1,218,291.4,215.8z"></path>
<path class="staa13" d="M305.5,230.1c6.8,10.8-8.4,6.7-8.7,12.8c-1.7,0.5-3.4,0.9-5.2,1.4c-1.1-0.6-2.3-1.3-3.5-1.9
	c0,0,0.3-0.7,0.3-0.7c-0.2-1-0.5-2-0.7-3C293.7,235.8,299.6,232.9,305.5,230.1z"></path>
<path class="staa3" d="M335.8,229.9c-1-0.9-2-1.9-3-2.8c-1-1-1.9-2-2.9-3c0,0-0.1-0.4-0.1-0.4c4.5-4.8,0.3-9.7,0.1-14.6
	c0,0,0.1-0.1,0.1-0.1c1.9,1.2,3.8,2.4,5.7,3.6c-0.4,3.4,0.4,6.3,2.9,8.7c0.1,2.7,0.1,5.3,0.2,8C337.8,229.6,336.8,229.8,335.8,229.9
	z"></path>
<path class="staa13" d="M276.2,229.8c1.1-1,2.2-1.9,3.3-2.9c1.2,2,2.4,4,3.6,6.1c-1,3.3-2.3,7.3-6.6,5.1
	C273.1,236.4,273,232.7,276.2,229.8z"></path>
<path class="staa9" d="M283.1,233c-1.2-2-2.4-4-3.6-6.1c-0.8-9.5-0.8-9.5,3.4-9.7c0.9,2.9,1.7,5.7,2.6,8.5
	C284.6,228.2,283.8,230.6,283.1,233z"></path>
<path class="staa13" d="M285.4,225.8c-0.9-2.8-1.7-5.7-2.6-8.5c0.9-1.9,1.9-3.8,2.8-5.7C291.1,222.4,291.1,222.6,285.4,225.8z"></path>
<path class="staa9" d="M287.8,238.7c0.2,1,0.5,2,0.7,3c-0.5-0.6-1-1.2-1.3-1.9C287,239.5,287.5,239,287.8,238.7z"></path>
<path class="staa6" d="M63,265.1c0.1-3.4,1.8-5,5.2-4.8c0.1,1.8,0.3,3.5,0.4,5.3C66.7,265.4,64.8,265.3,63,265.1z"></path>
<path class="staa6" d="M142.8,131.8c1,0.3,1.9,0.7,2.9,1c5,11.5,4.6,24.8,11.6,37.2c4.5-6.2,8.7-11,15.7-11.3
	c-3.7,9.9-12.5,17.6-12.9,28.9c0,0-0.3,0.3-0.3,0.3c-3.2,0.5-5.1,2.4-5.7,5.6c-3.9,2.2-7.7,4.5-11.6,6.7c-8.7-1.8-14.4,7.9-23.1,5.9
	c0.3-6.5-1.5-11.3-8.9-13c-2.9-0.7-7-3.3-5.5-7.3c1.2-3.4,2.8-7,7.1-8.8c19.9-8.1,25.6-17.4,24.7-39.1
	C138.8,135.9,140.8,133.8,142.8,131.8z"></path>
<path class="staa2" d="M173,158.7c-7,0.2-11.2,5-15.7,11.3c-6.9-12.4-6.6-25.7-11.6-37.2c4.8,0.9,9.6,1.7,14.3,2.6
	c0,8.7,4.4,12,13,11.6c7.7-0.4,15.7-1.4,23.1,2.2c0.2,1,0.3,2.1,0.5,3.1c-3.5,2.7-7.5,4.1-11.9,4.2
	C180.4,155.4,176.6,156.5,173,158.7z"></path>
<path class="staa9" d="M202.1,137.7c-0.1-2.1-0.2-4.3-0.3-6.4c0,0,0.1,0.5,0.1,0.5c3-0.1,6.1,0.2,8.6-2.2c3.3-0.3,6.8-1.1,9.6,1.3
	c9.9,8.4,13.1,1.3,15.8-6.8c5.9-0.9,3.5-8.3,8.1-10.1c1.5,0.2,3.1,0.4,4.6,0.6c1.6,0.5,3.2,1,4.8,1.5c1.7,1.3,3.4,2.7,5.1,4
	c-8.3,2.4-14.4,7.3-17.3,15.7c-4.6,3.6-6.4,12.5-15.3,7.7C220.2,132,209.1,143.5,202.1,137.7z"></path>
<path class="staa8" d="M173,158.7c3.6-2.2,7.5-3.3,11.7-2.3c-7.1,11.3-10.5,25.5-24.6,31.2C160.5,176.3,169.3,168.6,173,158.7z"></path>
<path class="staa13" d="M202.1,137.7c7,5.7,18.1-5.7,23.8,5.7c-9.1,5-17.9,11.3-29.3,8.8c-0.2-1-0.3-2.1-0.5-3.1
	c2-3.7,3.9-7.5,5.9-11.3L202.1,137.7z"></path>
<path class="staa7" d="M241.1,135.7c2.9-8.4,9-13.3,17.3-15.7c3.2,0.4,7.4-0.2,7.6,4.5c0.2,3.8-3.4,4.3-6.2,4.2
	c-5.8-0.2-9.9,2.7-13.6,6.7C244.6,135.6,242.8,135.7,241.1,135.7z"></path>
<path class="staa12" d="M232.4,167.2c0.9,3.2,1.8,6.4,2.7,9.5c0,0-0.1,0.1-0.1,0.1c-14.1-0.8-6.4-9.6-5.9-15.8
	C230.3,163.1,231.3,165.1,232.4,167.2z"></path>
<path class="staa1" d="M232.4,167.2c-1.1-2.1-2.2-4.2-3.3-6.2c1.9-2,4.3-5.7,6.9-2.5C239.1,162.2,237.6,165.9,232.4,167.2z"></path>
<path class="staa8" d="M154,193.5c0.7-3.1,2.5-5.1,5.7-5.6C160,192,157.9,193.7,154,193.5z"></path>
<path class="staa7" d="M370.5,212.6c-0.6,0-1.2-0.2-1.8-0.4c-0.1-12.4-16-12.6-18.1-23.4c4.9-0.3,9.9-0.6,14.8-0.9
	c5.5,2.7,10.6,7.6,17.4,2.8c18.6,0.5,33.4-6,42.6-22.9c2.8-2,5.6-1.6,8.5-0.1c0.7,1.8,1.4,3.7,2.1,5.5c-7.5,2.4-8.5,10.8-14,15.1
	c-11.6,0.1-19.8,3.8-18.2,17.6C392.4,206.5,380.4,204.1,370.5,212.6z"></path>
<path class="staa9" d="M365.5,187.9c-4.9,0.3-9.9,0.6-14.8,0.9c-18.7-15.6-27.6-35.6-27.1-59.9c-0.7-5.9,3.3-11.6,0.7-17.6
	c1.9-3.6,4.7-5.8,8.9-5.8c9.9,9,4.7,19.4,2.7,29.5c-7.4,7.4,2.5,11.7,3.1,17.7c-4.2,5-4.7,8,2.1,12.6
	C350.2,171.5,357.5,180.3,365.5,187.9z"></path>
<path class="staa9" d="M304.7,142c-5.4,1.4-5-16.9-13.7-4c-5.4-4.8-10.8-9.5-18.1-15.9c12-1.8,21.1-4.8,29.6,3
	C308.2,130.3,308.5,135.7,304.7,142z"></path>
<path class="staa7" d="M303.3,161.5c-0.7,3.9-2.5,5.2-6.1,2.7c-8.8-6.3-5.4-15.6-5.9-23.9C299.2,145.2,304.7,151.4,303.3,161.5z"></path>
<path class="staa7" d="M341.4,199.7c0-0.7,0-1.3,0.1-2c10.9,1.4,8.7,9.8,9,16.9c-0.9,0.4-1.9,0.9-2.8,1.3c-2-1.8-3.2-3.9-2.9-6.7
	C349.4,204,342.5,202.9,341.4,199.7z"></path>
<path class="staa5" d="M353.6,215.1c0.3-1.9,0.7-3.8,2.9-4.1c0.4-0.1,1.5,1.1,1.4,1.6C357.4,214.8,355.5,215.1,353.6,215.1
	C353.7,215.2,353.6,215.1,353.6,215.1z"></path>
<path class="staa9" d="M356.6,221.5c-1.5,1.4-3.3,2.6-4.7,0.2c-0.4-0.7,0.8-2.4,1.3-3.7C354.3,219.2,355.5,220.4,356.6,221.5z"></path>
<path class="staa2" d="M172.6,129.6c-6.7,1.5-11.5-4-17.7-4.8c-7.7-1-7.5-9.9-10-15c-2.9-6,6.1-3.8,8.9-6.7c1.6-1.7,2.3-3,0.8-4.9
	c-0.9-3.2-3.3-4.5-6.3-4.9c0-1-0.2-1.9-0.4-2.9c0,0,0.5-0.7,0.5-0.7c4,0.1,8,0.3,12.1,0.4c-0.1,8.7,1.2,16.4,11.3,19.5
	c5.7,1.8,6.1,5.4,1.2,9.4C169,122.2,171.1,126,172.6,129.6z"></path>
<path class="staa9" d="M220.2,95.9c1.7,0.4,3.4,0.8,5,1.1c-1,11.3-8.6,15.3-18,13.2c-8.7-1.9-17-8.2-16-18.1c0.7-7-0.5-19.6,14-16.5
	c0.1,3.3,0.4,6.6,0.1,9.9C204.1,99.6,206.4,101.3,220.2,95.9z"></path>
<path class="staa2" d="M235.9,124.1c-2.7,8.2-5.9,15.2-15.8,6.8c-2.9-2.4-6.3-1.5-9.6-1.3c-3.6-2.2-7.5-5.6-8.6,2.2
	c0,0-0.1-0.5-0.1-0.5c-9.1,2.1-15.1,0.7-12-10.8c11.8-1.4,23.7-2.2,35.3-4.3C232.6,114.8,231.7,122.4,235.9,124.1z"></path>
<path class="staa9" d="M160.4,90.1c-4-0.1-8-0.3-12.1-0.4c0.2-2.9,0.5-5.8,0.7-8.7c1.8,0.1,3.7,0.1,5.5,0.2
	C155.8,84.6,165,82.8,160.4,90.1z"></path>
<path class="staa13" d="M248.6,114.6c-1.5-0.2-3.1-0.4-4.6-0.6C245.8,112.2,247.5,111.2,248.6,114.6z"></path>
<path class="staa12" d="M425.5,167.9c-9.2,16.9-24,23.4-42.6,22.9c-6.3-8.7,0.9-17.1,0.6-25.7c1-1.1,2.1-2.3,3.1-3.4
	c0.9,1,1.8,1.9,2.6,2.9c5.6,14.3,12,16,21.5,5c3.3-3.7,6.8-4.9,11.2-5.1C423.1,165.6,424.3,166.7,425.5,167.9z"></path>
<path class="staa5" d="M392.7,80.9c9.2,1.2,9.5,4.1,3.2,10.7c-12.6,12.9-20.4,28-16.3,46.9c1.5,7.5,3,15.1,4.4,22.6
	c-1.2,0.5-2.5,1-3.7,1.5c-0.9-0.3-1.9-0.6-2.8-0.9c-13.4-29.4-3.9-55.1,12.9-79.6C391.2,81.9,392,81.5,392.7,80.9z"></path>
<path class="staa8" d="M392.7,80.9c-0.7,0.6-1.5,1-2.4,1.2c-9.5-2-8.4,10.8-15.9,11.5c-2.2-8.3-10.7-11.8-14.5-18.8
	c1.1-8.6,13.1-2.1,14.4-10.5c2.1-0.2,4.2-0.5,6.4-0.7c5,3,10,6,15,9.1C394.6,75.4,393.6,78.1,392.7,80.9z"></path>
<path class="staa7" d="M374.3,93.6c7.5-0.8,6.4-13.5,15.9-11.5c-16.7,24.5-26.2,50.2-12.8,79.6c-12.4-8-17-20.4-11.6-33.3
	C370.6,117.2,365.3,103.7,374.3,93.6z"></path>
<path class="staa1" d="M339.1,152.7c-0.7-6-10.5-10.3-3.1-17.7c1.9,0,3.8-0.1,5.7-0.1c0,1.6-2.4,3.4-0.1,4.8c0.7,0.4,2.3-0.9,3.5-1.5
	C354.4,147.7,342.5,148.5,339.1,152.7z"></path>
<path class="staa5" d="M350.2,155.2c1.8-1.4,3.6-2.7,5.4-4.1c0.4,0.6,1.3,1.4,1.1,1.7c-1,2.4-3,3.4-5.5,3.5
	C350.8,156,350.5,155.6,350.2,155.2z"></path>
<path class="staa8" d="M345,138.2c-1.2,0.5-2.8,1.8-3.5,1.5c-2.3-1.3,0.1-3.1,0.1-4.8C342.7,136,343.9,137.1,345,138.2z"></path>
<path class="staa5" d="M351.2,156.4c-1.2,1.4-2.4,2.7-4.2,0.7c1-0.6,2.1-1.2,3.1-1.8C350.5,155.6,350.8,156,351.2,156.4z"></path>
<path class="staa7" d="M380.3,162.5c1.2-0.5,2.5-1,3.7-1.4c0.7,0.1,1.4,0,2.1-0.2c0,0,0.5,0.8,0.5,0.8c-1,1.1-2.1,2.3-3.1,3.4
	C382.4,164.2,381.3,163.4,380.3,162.5z"></path>
<path class="staa6" d="M305.7,93.5c-0.9-1-1.7-2-2.6-2.9C303.9,91.5,304.8,92.5,305.7,93.5z"></path>
<path class="staa5" d="M160.3,360.7c0.4,2.6,0,4.7-2.7,5.8C158.5,364.5,159.4,362.6,160.3,360.7z"></path>
<path class="staa8" d="M318.1,337.1c-1,9.8,3.6,19.5,0.1,29.3c-6.4-3.9,1.1-14.9-8.6-17.2C309.8,343.4,311.6,338.6,318.1,337.1z"></path>
<path class="staa9" d="M330.1,277.4c-2,2.2-4.1,4.4-6.1,6.6c1.1-2.3,2.2-4.7,3.3-7C328.2,277,329.1,277.2,330.1,277.4z"></path>
<path class="staa8" d="M425.5,167.9c-1.2-1.2-2.4-2.3-3.5-3.5c0-5.6-0.4-10.9-7.8-11.4c0.9-3.1,1.8-6.1,2.7-9.2
	c7.9-8.5,4.4-22.7,15.2-29.7c13.1,15.8,13.7,33.4,1.9,53.7C431.1,166.3,428.3,165.9,425.5,167.9z M427,152.5l-1.1-0.1l0.4,1.1
	L427,152.5z"></path>
<path class="staa4" d="M414.1,153c7.4,0.6,7.8,5.9,7.8,11.4c-4.4,0.2-8,1.4-11.2,5.1c-9.6,11-16,9.4-21.5-5c1.5,0.1,3,0.1,4.6,0.2
	C403.8,166.5,409,159.9,414.1,153z"></path>
<path class="staa5" d="M414.1,153c-5,6.9-10.3,13.5-20.3,11.8c1.8-10.8,12.2-15.8,17-24.8c2.4-4.5,5.4,0.2,6.1,3.9
	C415.9,146.9,415,149.9,414.1,153z"></path>
<path class="staa2" d="M386,160.8c-0.7,0.2-1.4,0.3-2.1,0.2c-1.5-7.5-3-15.1-4.4-22.6c5.8-1.5,11-2.6,8.9,6.7
	C387.2,150.3,386.8,155.6,386,160.8z"></path>
<path class="staa11" d="M416.2,83c2,4.3,4,8.7,6,13c-12.9,1.6-11.8-7.5-12-15.7C412.2,81.3,414.2,82.2,416.2,83z"></path>
<path class="staa13" d="M422,188.5c5.5-4.3,6.5-12.7,14-15.1c-5.4,17.9-13.7,33.6-31.8,41.9c-10,4.3-19.8,9-26.9,17.6
	c-3,0-5.9,0-8.9,0c-2.6-7.1-1-13.8,2-20.3c9.9-8.5,21.9-6.1,33.3-6.5C413.9,204.3,418.8,197.3,422,188.5z"></path>
<path class="staa9" d="M344.8,209.2c-0.3,2.8,0.9,4.9,2.9,6.7c-1.9,1.7-3.9,3.4-5.8,5.1c0,0-0.2,0.2-0.2,0.2c-1,0.1-2.1,0.2-3.1,0.2
	c-2.5-2.4-3.3-5.3-2.9-8.7C337.1,207.3,339.6,204.9,344.8,209.2z"></path>
<path class="staa9" d="M341.8,221c1.2,1.8,2.3,3.6,3.5,5.5c-0.4,0.4-0.8,0.7-1.1,1.1c-0.9-2.1-1.7-4.3-2.6-6.4
	C341.6,221.2,341.8,221,341.8,221z"></path>
<path class="staa9" d="M345.3,226.5c0.3,0.4,0.5,0.8,0.8,1.1c-0.6,0-1.3,0-1.9,0C344.6,227.2,344.9,226.9,345.3,226.5z"></path>
<path class="staa9" d="M335.8,229.9c1-0.2,2-0.3,3-0.5c-0.1,1.2-0.1,2.4-0.2,3.7c-0.9,0-1.9-0.1-2.8-0.2
	C335.8,231.9,335.8,230.9,335.8,229.9z"></path>
<path class="staa5" d="M424.8,78.4c1.1,1.1,2.1,2.1,3.2,3.2C427,80.5,425.9,79.4,424.8,78.4z"></path>
<path class="staa5" d="M427.8,81.3c1,1,2.1,2.1,3.1,3.1C429.9,83.4,428.9,82.4,427.8,81.3z"></path>
<path class="staa11" d="M432.9,319.4c-0.1,6.9-0.2,13.8-0.4,20.7c-0.4,1.2-0.7,2.5-1.1,3.7c0.6,6.2-2.4,11.1-6.1,15.6
	c-3.9-8.4-16.3-13.7-9.5-26.1c1.1-1.9-0.1-5.6,3-5.9c3.3-0.4,2.4,4.4,4.4,5.8C428.7,329.7,422,318.7,432.9,319.4z"></path>
<path class="staa9" d="M415.9,378.9c0,1.7,0,3.5,0,5.2c-1.7,5.7-2.2,11.5-1.1,17.4c-1.4,2.9-2.9,5.9-4.3,8.8c-8.9-4-2.3-11.3-3.7-16.9
	C404.5,385.2,409.9,381.9,415.9,378.9z"></path>
<path class="staa11" d="M425.6,360.2c-0.2,1.3-0.3,2.5-0.5,3.8C423.5,362.4,424.1,361.2,425.6,360.2z"></path>
<path class="staa9" d="M202,137.9c-2,3.8-3.9,7.5-5.9,11.3c-7.4-3.6-15.4-2.5-23.1-2.2c-8.5,0.4-13-2.9-13-11.6
	C174.1,135.1,187.5,145,202,137.9z"></path>
<path class="staa14" d="M148.3,93.3c3,0.4,5.4,1.7,6.3,4.9c-4.3,1.2-8.5,2.2-8.6-4.5C146.7,93.5,147.5,93.4,148.3,93.3z"></path>
<path class="staa9" d="M148.3,93.3c-0.8,0.1-1.5,0.2-2.3,0.4c0.6-1.1,1.2-2.2,1.9-3.2C148.1,91.4,148.2,92.3,148.3,93.3z"></path>
<path class="staa6" d="M431.4,343.8c0.4-1.2,0.7-2.5,1.1-3.7C432.1,341.3,431.8,342.6,431.4,343.8z"></path>
<path class="staa13" d="M344.8,209.2c-5.2-4.3-7.7-1.8-9.1,3.5c-1.9-1.2-3.8-2.4-5.7-3.6c0.3-7.4,6.6-7.4,11.4-9.4
	C342.5,202.9,349.4,204,344.8,209.2z"></path>
<path class="staa9" d="M329.9,224.2c1,1,1.9,2,2.9,3C331.8,226.1,330.9,225.2,329.9,224.2z"></path>
<path class="staa5" d="M201.9,131.8c1-7.8,4.9-4.4,8.6-2.2C208.1,132,204.9,131.7,201.9,131.8z"></path>
<path class="staa6" d="M422,188.5c-3.2,8.8-8.2,15.8-18.2,17.6C402.2,192.3,410.4,188.6,422,188.5z"></path>
<polygon class="staa4" points="427,152.5 426.4,153.5 425.9,152.4 "></polygon>
</svg>
