<svg version="1.1" id="Layer_1" xmlns="http://www.w3.org/2000/svg" xmlns:xlink="http://www.w3.org/1999/xlink" x="0px" y="0px" viewBox="0 0 501.3 503.3" style="enable-background:new 0 0 501.3 503.3;" xml:space="preserve">

<style type="text/css">
	.stbc0{fill:#523430;}
	.stbc1{fill:#F1EDDC;}
	.stbc2{fill:#CBBBAB;}
	.stbc3{fill:#EF8785;}
	.stbc4{fill:#D94716;}
	.stbc5{fill:#FFFFFF;}
</style>
<path class="stbc0" d="M364.9,200c-17.9,8-17.4,7.6-27.8-9.5c-8-13.2-9.1-28.1-12.9-42.3c1.9-2.6,1-5.2-0.2-7.8
	c0-3.4-0.1-6.8-0.1-10.2c0.2-4.3,0.4-8.6,0.6-12.9c7.4-14.8,7.8-32.6,19.9-45.3c3.4-3.2,6.9-6.2,10.2-9.5c2.7-2.7,6.6-4.8,8.7-1.5
	c6.5,10,13.1,3.5,19.6,0.9c2.8-1.1,4.7-6,8.3-2.1c3.6,3.9-0.3,6.4-2.6,9c-1.8-0.4-2.5,0.6-2.6,2.2c0,0,0,0.1,0,0.1
	c-4.6,0-7.8,2.4-9.1,6.4c-0.5,1.6,1.7,3.4,4.1,3.3c2.5-0.2,5-0.4,7.5-0.6c0.9-0.5,1.7-1,2.6-1.5c0.4-0.1,0.9-0.3,1.2-0.2
	c4.3,1,7.5-8.8,11.2-2.5c3.1,5.2-0.9,10.3-12.1,12.8c13.5,2.7,18.2,5.9,10.2,14.7c-2.8,3,7.2,9-0.2,13.7c-5,2.6-10,5.2-15.5,8.1
	c6.1,6.1,11,4.6,15.6-0.4c9.8,0.7,8.5,6,3,10.1c-11.5,8.7-15.3,21.7-20.9,33.7c-5,9.3-9.9,18.5-14.9,27.8c-0.8,0-1.4,0.4-1.6,1.2
	C366.3,198.6,365.6,199.3,364.9,200z M341.2,107.3c-2.7,4.7-5.8,9.2-5.2,15.3c15.7-8.8,20.3-10.1,26.8-6.1
	c9.3,5.7,13.4,13.5,8.8,24.7c-4,9.7-14.2,15.8-24.9,13.4c-3.3-0.7-6.8-2.9-9,0.7c-0.7,1.2,1.8,4.3,2.9,6.5c-2.3,5.3,2,9.8,1.8,14.9
	c-0.2,6.8,6,9.4,10.1,11.8c4.8,2.9,8.1-3.2,11.1-6.4c4.4-4.7,7.2-10.4,8.4-16.8c1.6-6.4,11-8.8,8.6-17.2c6.2-11.9,3.7-23.9-0.1-35.8
	c-0.5-2.2-0.9-4.3-1.4-6.5c-2.8-6.9-9-12.1-9.8-20.3c-0.3-2.7-2.3-5.6-7.9-4.1C346.8,85.5,342.2,90.3,341.2,107.3z M352.6,142.3
	c-0.4-2.5-2-4.7-5.5-4.6c-3.1,0.1-4.5,1.8-4.1,4.8c0.4,3.3,2.4,5.2,5.8,5.5C352.4,148.3,352.6,145.8,352.6,142.3z"></path>
<path class="stbc1" d="M319.1,130.1c1.6,0,3.2,0.1,4.8,0.1c0,3.4,0.1,6.8,0.1,10.2c-1.6,0.1-3.2,0.1-4.9,0.2
	C319.1,137.1,319.1,133.6,319.1,130.1z"></path>
<path class="stbc0" d="M197.4,140.4c-1.4,2.4-2,5-1.1,7.8c-1.1,4.3-2.3,8.6-3.4,12.9c-5.1,10.9-10.4,21.8-15.4,32.8
	c-4.4,9.7-9.7,10.8-18.5,4c-9.4-7.3-12.6-19.9-22.8-26.4c-4.5-8.7,0.8-22-12.3-26.8c-0.7-4-7.8-4.9-5.2-10.4c2.7-5.8,8.7,0.6,12-2.6
	c0.7-5.9-4.5-4.3-6.9-5.8c-6.1-3.7-6.7-12.5-3.3-13.6c9.6-3,6.2-6.3,3-11.5c-0.7-1.1,1.1-3.8,1.8-5.8c2.1-0.1,4.2-0.6,6.2-0.3
	c2.7,0.5,5.3,3.6,7.7-0.4c2.2-3.8-1.6-5.1-3.2-7.3c-5-6.6-2.8-23.7,3.6-28.9c1.9-1.5,4.8-1.9,5.4,0.4c2.6,10.8,7.7,9,16.3,6.1
	c5-1.7,11.1,5,15.6,9.6c2.6,2.7,5.3,5.5,7.9,8.3c2.1,3.9,4.3,7.8,6.4,11.7C197.9,108.9,198.1,124.6,197.4,140.4z M179.9,163.8
	c8.5-16.5,8.9-33.8,5.1-51.6c0.4-8.1-5.5-13.9-8.1-20.9c-4.9-13.4-17.7-14.5-26.9-3.7c-5.1,6-6.3,12.5-6.2,19.7
	c-8.1,8.9-10.8,18.4-3,30.3c1.5-12.7,6.5-21.1,19.3-22.4c9.4-0.9,17.3,3,21.8,10.6c3.4,5.8,4.5,14.3-1.3,19c-6.9,5.6-13.2,15-25.3,9
	c-3.9-1.9-9.2-8.6-13.1-3.6c-3.9,4.9,3.9,8.5,6.2,12.8c0.4,0.7,1,1.4,1.5,2.1c0.5,9.4,7.7,16,14.4,17.5c7.3,1.7,11.2-7.5,14.5-14
	C179.3,167.2,179.4,165.4,179.9,163.8z"></path>
<path class="stbc2" d="M391.1,78.7c-0.9,0.5-1.7,1-2.6,1.5C389.4,79.7,390.2,79.2,391.1,78.7z"></path>
<path class="stbc2" d="M386,70.9c0.1-1.6,0.8-2.6,2.6-2.2C387.8,69.5,386.9,70.2,386,70.9z"></path>
<path class="stbc3" d="M380.9,148.2c2.4,8.4-7,10.9-8.6,17.2c-3.1-4.2-7.2-4.7-11.3-2.2c-7.2,4.5-13.7,3-20.2-1.3
	c-1-2.2-3.6-5.3-2.9-6.5c2.2-3.6,5.7-1.5,9-0.7c10.7,2.4,20.9-3.7,24.9-13.4c4.6-11.2,0.5-18.9-8.8-24.7c-6.5-4-11.1-2.7-26.8,6.1
	c-0.6-6,2.4-10.6,5.2-15.3c2.4-0.3,5.4,0.1,7.2-1.1c8-5.8,15.5-7.3,23.8-0.5c1.5,1.2,4.7,0.2,7.1,0.2c0.5,2.2,0.9,4.3,1.4,6.5
	C380.8,124.3,380.8,136.2,380.9,148.2z"></path>
<path class="stbc4" d="M379.4,105.9c-2.4,0-5.7,1-7.1-0.2c-8.3-6.8-15.8-5.3-23.8,0.5c-1.8,1.3-4.8,0.8-7.2,1.1
	c0.9-17.1,5.6-21.8,20.4-25.8c5.7-1.5,7.7,1.3,7.9,4.1C370.4,93.8,376.6,99,379.4,105.9z"></path>
<path class="stbc4" d="M340.7,161.9c6.5,4.4,13,5.8,20.2,1.3c4-2.5,8.2-2.1,11.3,2.2c-1.2,6.4-4,12.1-8.4,16.8
	c-3.1,3.2-6.4,9.3-11.1,6.4c-4-2.5-10.3-5-10.1-11.8C342.7,171.7,338.4,167.2,340.7,161.9z"></path>
<path class="stbc5" d="M352.6,142.3c0,3.5-0.2,6-3.9,5.7c-3.4-0.3-5.3-2.1-5.8-5.5c-0.4-3.1,1.1-4.8,4.1-4.8
	C350.6,137.6,352.2,139.8,352.6,142.3z"></path>
<path class="stbc3" d="M380.9,148.2c0-11.9-0.1-23.8-0.1-35.8C384.5,124.3,387,136.2,380.9,148.2z"></path>
<path class="stbc3" d="M185,112.2c3.8,17.7,3.4,35.1-5.1,51.6c-10.1,0.4-20.1,0.8-30.2,1.3c-0.5-0.7-1.1-1.3-1.5-2.1
	c-2.3-4.4-10.1-7.9-6.2-12.8c3.9-5,9.3,1.7,13.1,3.6c12.1,6.1,18.4-3.4,25.3-9c5.8-4.7,4.7-13.2,1.3-19
	c-4.5-7.7-12.4-11.5-21.8-10.6c-12.7,1.3-17.8,9.7-19.3,22.4c-7.7-11.9-5-21.4,3-30.3C157.6,108.1,172,104.2,185,112.2z"></path>
<path class="stbc4" d="M185,112.2c-13-8.1-27.4-4.2-41.2-4.9c-0.1-7.2,1.1-13.7,6.2-19.7c9.2-10.8,22.1-9.8,26.9,3.7
	C179.5,98.3,185.4,104.1,185,112.2z"></path>
<path class="stbc4" d="M149.7,165.1c10.1-0.4,20.1-0.9,30.2-1.3c-0.4,1.6-0.6,3.4-1.3,4.9c-3.3,6.4-7.1,15.7-14.5,14
	C157.3,181.1,150.2,174.5,149.7,165.1z"></path>
<path class="stbc5" d="M160.8,142c0,2.4-0.2,4.2-2.8,4c-2.4-0.2-3.7-1.5-4.1-3.8c-0.3-2.2,0.8-3.4,2.9-3.4
	C159.4,138.7,160.5,140.3,160.8,142z"></path>
<path class="stbc5" d="M172.2,129.2c0,2.4-0.2,4.2-2.8,4c-2.4-0.2-3.7-1.5-4.1-3.8c-0.3-2.2,0.8-3.4,2.9-3.4
	C170.8,125.9,171.9,127.4,172.2,129.2z"></path>
<path class="stbc5" d="M362,125.5c0,2.4-0.2,4.2-2.8,4c-2.4-0.2-3.7-1.5-4.1-3.8c-0.3-2.2,0.8-3.4,2.9-3.4
	C360.7,122.2,361.8,123.8,362,125.5z"></path>
</svg>
